%TF.GenerationSoftware,KiCad,Pcbnew,7.0.7*%
%TF.CreationDate,2023-11-15T05:14:33-06:00*%
%TF.ProjectId,GBA_Cartridge,4742415f-4361-4727-9472-696467652e6b,rev?*%
%TF.SameCoordinates,Original*%
%TF.FileFunction,Soldermask,Top*%
%TF.FilePolarity,Negative*%
%FSLAX46Y46*%
G04 Gerber Fmt 4.6, Leading zero omitted, Abs format (unit mm)*
G04 Created by KiCad (PCBNEW 7.0.7) date 2023-11-15 05:14:33*
%MOMM*%
%LPD*%
G01*
G04 APERTURE LIST*
G04 Aperture macros list*
%AMRoundRect*
0 Rectangle with rounded corners*
0 $1 Rounding radius*
0 $2 $3 $4 $5 $6 $7 $8 $9 X,Y pos of 4 corners*
0 Add a 4 corners polygon primitive as box body*
4,1,4,$2,$3,$4,$5,$6,$7,$8,$9,$2,$3,0*
0 Add four circle primitives for the rounded corners*
1,1,$1+$1,$2,$3*
1,1,$1+$1,$4,$5*
1,1,$1+$1,$6,$7*
1,1,$1+$1,$8,$9*
0 Add four rect primitives between the rounded corners*
20,1,$1+$1,$2,$3,$4,$5,0*
20,1,$1+$1,$4,$5,$6,$7,0*
20,1,$1+$1,$6,$7,$8,$9,0*
20,1,$1+$1,$8,$9,$2,$3,0*%
G04 Aperture macros list end*
%ADD10C,0.800000*%
%ADD11RoundRect,0.237500X-0.300000X-0.237500X0.300000X-0.237500X0.300000X0.237500X-0.300000X0.237500X0*%
%ADD12RoundRect,0.250000X0.350000X0.450000X-0.350000X0.450000X-0.350000X-0.450000X0.350000X-0.450000X0*%
%ADD13R,0.400000X1.200000*%
%ADD14RoundRect,0.250000X-0.450000X0.350000X-0.450000X-0.350000X0.450000X-0.350000X0.450000X0.350000X0*%
%ADD15R,0.250000X1.100000*%
%ADD16RoundRect,0.250000X0.337500X0.475000X-0.337500X0.475000X-0.337500X-0.475000X0.337500X-0.475000X0*%
%ADD17RoundRect,0.100000X0.100000X-0.637500X0.100000X0.637500X-0.100000X0.637500X-0.100000X-0.637500X0*%
%ADD18RoundRect,0.250000X-0.350000X-0.450000X0.350000X-0.450000X0.350000X0.450000X-0.350000X0.450000X0*%
%ADD19RoundRect,0.250000X0.450000X-0.350000X0.450000X0.350000X-0.450000X0.350000X-0.450000X-0.350000X0*%
%ADD20RoundRect,0.250000X-0.337500X-0.475000X0.337500X-0.475000X0.337500X0.475000X-0.337500X0.475000X0*%
%ADD21R,0.550000X1.600000*%
%ADD22R,1.600000X0.550000*%
%ADD23RoundRect,0.237500X0.237500X-0.250000X0.237500X0.250000X-0.237500X0.250000X-0.237500X-0.250000X0*%
%ADD24C,0.650000*%
%ADD25O,2.400000X0.900000*%
%ADD26O,1.700000X0.900000*%
%ADD27C,2.000000*%
%ADD28RoundRect,0.237500X0.300000X0.237500X-0.300000X0.237500X-0.300000X-0.237500X0.300000X-0.237500X0*%
%ADD29R,0.228600X1.193800*%
%ADD30RoundRect,0.237500X-0.237500X0.300000X-0.237500X-0.300000X0.237500X-0.300000X0.237500X0.300000X0*%
%ADD31C,1.500000*%
%ADD32R,1.700000X1.700000*%
%ADD33O,1.700000X1.700000*%
G04 APERTURE END LIST*
%TO.C,J1*%
G36*
X4240000Y-29730000D02*
G01*
X3240000Y-29730000D01*
X3240000Y-25030000D01*
X4240000Y-25030000D01*
X4240000Y-29730000D01*
G37*
G36*
X5740000Y-29730000D02*
G01*
X4740000Y-29730000D01*
X4740000Y-25030000D01*
X5740000Y-25030000D01*
X5740000Y-29730000D01*
G37*
G36*
X7240000Y-29730000D02*
G01*
X6240000Y-29730000D01*
X6240000Y-25030000D01*
X7240000Y-25030000D01*
X7240000Y-29730000D01*
G37*
G36*
X8740000Y-29730000D02*
G01*
X7740000Y-29730000D01*
X7740000Y-25030000D01*
X8740000Y-25030000D01*
X8740000Y-29730000D01*
G37*
G36*
X10240000Y-29730000D02*
G01*
X9240000Y-29730000D01*
X9240000Y-25030000D01*
X10240000Y-25030000D01*
X10240000Y-29730000D01*
G37*
G36*
X11740000Y-29730000D02*
G01*
X10740000Y-29730000D01*
X10740000Y-25030000D01*
X11740000Y-25030000D01*
X11740000Y-29730000D01*
G37*
G36*
X13240000Y-29730000D02*
G01*
X12240000Y-29730000D01*
X12240000Y-25030000D01*
X13240000Y-25030000D01*
X13240000Y-29730000D01*
G37*
G36*
X14740000Y-29730000D02*
G01*
X13740000Y-29730000D01*
X13740000Y-25030000D01*
X14740000Y-25030000D01*
X14740000Y-29730000D01*
G37*
G36*
X16240000Y-29730000D02*
G01*
X15240000Y-29730000D01*
X15240000Y-25030000D01*
X16240000Y-25030000D01*
X16240000Y-29730000D01*
G37*
G36*
X17740000Y-29730000D02*
G01*
X16740000Y-29730000D01*
X16740000Y-25030000D01*
X17740000Y-25030000D01*
X17740000Y-29730000D01*
G37*
G36*
X19240000Y-29730000D02*
G01*
X18240000Y-29730000D01*
X18240000Y-25030000D01*
X19240000Y-25030000D01*
X19240000Y-29730000D01*
G37*
G36*
X20740000Y-29730000D02*
G01*
X19740000Y-29730000D01*
X19740000Y-25030000D01*
X20740000Y-25030000D01*
X20740000Y-29730000D01*
G37*
G36*
X22240000Y-29730000D02*
G01*
X21240000Y-29730000D01*
X21240000Y-25030000D01*
X22240000Y-25030000D01*
X22240000Y-29730000D01*
G37*
G36*
X23740000Y-29730000D02*
G01*
X22740000Y-29730000D01*
X22740000Y-25030000D01*
X23740000Y-25030000D01*
X23740000Y-29730000D01*
G37*
G36*
X25240000Y-29730000D02*
G01*
X24240000Y-29730000D01*
X24240000Y-25030000D01*
X25240000Y-25030000D01*
X25240000Y-29730000D01*
G37*
G36*
X26740000Y-29730000D02*
G01*
X25740000Y-29730000D01*
X25740000Y-25030000D01*
X26740000Y-25030000D01*
X26740000Y-29730000D01*
G37*
G36*
X28240000Y-29730000D02*
G01*
X27240000Y-29730000D01*
X27240000Y-25030000D01*
X28240000Y-25030000D01*
X28240000Y-29730000D01*
G37*
G36*
X29740000Y-29730000D02*
G01*
X28740000Y-29730000D01*
X28740000Y-25030000D01*
X29740000Y-25030000D01*
X29740000Y-29730000D01*
G37*
G36*
X31240000Y-29730000D02*
G01*
X30240000Y-29730000D01*
X30240000Y-25030000D01*
X31240000Y-25030000D01*
X31240000Y-29730000D01*
G37*
G36*
X32740000Y-29730000D02*
G01*
X31740000Y-29730000D01*
X31740000Y-25030000D01*
X32740000Y-25030000D01*
X32740000Y-29730000D01*
G37*
G36*
X34240000Y-29730000D02*
G01*
X33240000Y-29730000D01*
X33240000Y-25030000D01*
X34240000Y-25030000D01*
X34240000Y-29730000D01*
G37*
G36*
X35740000Y-29730000D02*
G01*
X34740000Y-29730000D01*
X34740000Y-25030000D01*
X35740000Y-25030000D01*
X35740000Y-29730000D01*
G37*
G36*
X37240000Y-29730000D02*
G01*
X36240000Y-29730000D01*
X36240000Y-25030000D01*
X37240000Y-25030000D01*
X37240000Y-29730000D01*
G37*
G36*
X38740000Y-29730000D02*
G01*
X37740000Y-29730000D01*
X37740000Y-25030000D01*
X38740000Y-25030000D01*
X38740000Y-29730000D01*
G37*
G36*
X40240000Y-29730000D02*
G01*
X39240000Y-29730000D01*
X39240000Y-25030000D01*
X40240000Y-25030000D01*
X40240000Y-29730000D01*
G37*
G36*
X41740000Y-29730000D02*
G01*
X40740000Y-29730000D01*
X40740000Y-25030000D01*
X41740000Y-25030000D01*
X41740000Y-29730000D01*
G37*
G36*
X43240000Y-29730000D02*
G01*
X42240000Y-29730000D01*
X42240000Y-25030000D01*
X43240000Y-25030000D01*
X43240000Y-29730000D01*
G37*
G36*
X44740000Y-29730000D02*
G01*
X43740000Y-29730000D01*
X43740000Y-25030000D01*
X44740000Y-25030000D01*
X44740000Y-29730000D01*
G37*
G36*
X46240000Y-29730000D02*
G01*
X45240000Y-29730000D01*
X45240000Y-25030000D01*
X46240000Y-25030000D01*
X46240000Y-29730000D01*
G37*
G36*
X47740000Y-28230000D02*
G01*
X46740000Y-28230000D01*
X46740000Y-25030000D01*
X47740000Y-25030000D01*
X47740000Y-28230000D01*
G37*
G36*
X50228640Y-30800000D02*
G01*
X741360Y-30800000D01*
X741360Y-25030000D01*
X50228640Y-25030000D01*
X50228640Y-30800000D01*
G37*
G36*
X2740000Y-30030000D02*
G01*
X1740000Y-30030000D01*
X1240000Y-29530000D01*
X1240000Y-25030000D01*
X2740000Y-25030000D01*
X2740000Y-30030000D01*
G37*
G36*
X49740000Y-29530000D02*
G01*
X49240000Y-30030000D01*
X48240000Y-30030000D01*
X48240000Y-25030000D01*
X49740000Y-25030000D01*
X49740000Y-29530000D01*
G37*
%TO.C,COS1*%
G36*
X49338179Y-4318957D02*
G01*
X49337413Y-4327378D01*
X49319704Y-4348575D01*
X49312936Y-4351855D01*
X49299931Y-4348037D01*
X49300697Y-4339616D01*
X49318406Y-4318419D01*
X49325174Y-4315139D01*
X49338179Y-4318957D01*
G37*
G36*
X49209164Y-4526653D02*
G01*
X49207354Y-4541584D01*
X49195838Y-4556620D01*
X49170813Y-4576264D01*
X49159011Y-4572477D01*
X49158207Y-4565992D01*
X49167316Y-4547900D01*
X49186882Y-4531195D01*
X49205267Y-4524862D01*
X49209164Y-4526653D01*
G37*
G36*
X49268167Y-4459710D02*
G01*
X49263809Y-4479113D01*
X49253317Y-4491548D01*
X49230727Y-4506915D01*
X49217922Y-4503243D01*
X49219651Y-4486208D01*
X49227057Y-4463911D01*
X49228141Y-4458234D01*
X49239560Y-4453032D01*
X49249121Y-4452385D01*
X49268167Y-4459710D01*
G37*
G36*
X49155987Y-4596070D02*
G01*
X49158207Y-4605269D01*
X49150369Y-4628521D01*
X49131333Y-4660538D01*
X49107812Y-4691948D01*
X49086521Y-4713377D01*
X49077783Y-4717542D01*
X49063616Y-4706392D01*
X49060300Y-4690160D01*
X49066281Y-4667434D01*
X49074586Y-4662186D01*
X49090264Y-4650844D01*
X49104805Y-4627220D01*
X49122009Y-4603525D01*
X49141897Y-4591980D01*
X49155987Y-4596070D01*
G37*
G36*
X49368292Y-2925064D02*
G01*
X49461933Y-2926188D01*
X49534475Y-2928949D01*
X49592793Y-2934828D01*
X49643761Y-2945307D01*
X49694255Y-2961867D01*
X49751147Y-2985989D01*
X49821314Y-3019156D01*
X49834496Y-3025529D01*
X49937682Y-3085211D01*
X50019224Y-3155877D01*
X50084970Y-3243335D01*
X50121213Y-3310295D01*
X50146498Y-3366116D01*
X50165099Y-3417502D01*
X50177985Y-3470407D01*
X50186125Y-3530787D01*
X50190486Y-3604595D01*
X50192038Y-3697787D01*
X50192081Y-3746052D01*
X50191140Y-3842332D01*
X50187869Y-3918973D01*
X50180923Y-3984291D01*
X50168952Y-4046602D01*
X50150610Y-4114224D01*
X50124549Y-4195474D01*
X50114371Y-4225675D01*
X50097615Y-4269089D01*
X50082627Y-4290702D01*
X50065178Y-4296037D01*
X50060824Y-4295609D01*
X50043168Y-4288093D01*
X50032673Y-4267340D01*
X50026168Y-4226470D01*
X50025388Y-4218671D01*
X50018394Y-4145804D01*
X49941467Y-4185166D01*
X49905569Y-4202677D01*
X49875310Y-4213694D01*
X49842961Y-4219330D01*
X49800796Y-4220700D01*
X49741087Y-4218917D01*
X49715151Y-4217779D01*
X49565763Y-4211029D01*
X49557788Y-4258276D01*
X49541707Y-4359568D01*
X49531055Y-4443803D01*
X49524886Y-4521160D01*
X49522253Y-4601820D01*
X49521969Y-4643878D01*
X49520901Y-4707222D01*
X49518083Y-4759682D01*
X49513962Y-4795298D01*
X49509683Y-4807931D01*
X49498626Y-4825763D01*
X49488946Y-4858252D01*
X49488826Y-4858845D01*
X49473248Y-4902516D01*
X49452052Y-4937949D01*
X49432381Y-4968111D01*
X49423961Y-4991246D01*
X49423956Y-4991583D01*
X49414456Y-5010557D01*
X49390034Y-5040203D01*
X49368203Y-5062328D01*
X49333404Y-5100703D01*
X49306560Y-5139911D01*
X49298208Y-5157919D01*
X49282599Y-5184995D01*
X49251351Y-5225238D01*
X49209313Y-5272765D01*
X49170842Y-5312406D01*
X49124185Y-5359461D01*
X49084407Y-5401386D01*
X49056168Y-5433159D01*
X49044744Y-5448379D01*
X49029466Y-5465687D01*
X48996845Y-5495904D01*
X48951089Y-5535634D01*
X48896405Y-5581481D01*
X48837002Y-5630050D01*
X48777088Y-5677945D01*
X48720871Y-5721770D01*
X48672559Y-5758129D01*
X48636360Y-5783627D01*
X48616483Y-5794867D01*
X48615056Y-5795116D01*
X48599381Y-5804402D01*
X48573347Y-5827685D01*
X48562889Y-5838325D01*
X48525519Y-5872071D01*
X48486252Y-5899673D01*
X48479848Y-5903205D01*
X48440058Y-5927535D01*
X48398767Y-5958087D01*
X48394794Y-5961400D01*
X48356387Y-5993447D01*
X48319836Y-6023194D01*
X48316440Y-6025898D01*
X48292832Y-6049253D01*
X48258648Y-6088783D01*
X48219493Y-6137847D01*
X48198406Y-6165766D01*
X48158739Y-6218296D01*
X48121186Y-6266137D01*
X48091417Y-6302143D01*
X48080944Y-6313768D01*
X48052674Y-6345901D01*
X48017954Y-6388972D01*
X47997304Y-6416148D01*
X47946161Y-6480650D01*
X47887140Y-6547422D01*
X47823984Y-6613006D01*
X47760436Y-6673941D01*
X47700239Y-6726768D01*
X47647137Y-6768027D01*
X47604871Y-6794258D01*
X47579657Y-6802164D01*
X47564133Y-6808876D01*
X47529058Y-6827358D01*
X47478952Y-6855129D01*
X47418336Y-6889709D01*
X47387611Y-6907544D01*
X47319834Y-6946079D01*
X47256571Y-6980194D01*
X47203582Y-7006913D01*
X47166627Y-7023262D01*
X47158097Y-7026106D01*
X47122139Y-7035332D01*
X47068480Y-7048562D01*
X47006660Y-7063457D01*
X46983262Y-7069007D01*
X46921918Y-7084490D01*
X46866314Y-7100289D01*
X46825471Y-7113775D01*
X46815421Y-7117873D01*
X46739624Y-7148712D01*
X46642250Y-7182633D01*
X46529295Y-7218003D01*
X46406756Y-7253189D01*
X46280628Y-7286558D01*
X46156908Y-7316475D01*
X46041593Y-7341308D01*
X45940677Y-7359422D01*
X45914957Y-7363186D01*
X45843524Y-7373708D01*
X45763341Y-7386611D01*
X45699691Y-7397685D01*
X45635291Y-7409087D01*
X45592866Y-7415274D01*
X45566979Y-7416616D01*
X45552195Y-7413485D01*
X45544955Y-7408258D01*
X45536973Y-7388610D01*
X45536678Y-7363376D01*
X45543788Y-7347373D01*
X45546120Y-7346579D01*
X45568004Y-7342607D01*
X45577590Y-7340409D01*
X45630717Y-7329336D01*
X45698395Y-7317786D01*
X45771542Y-7307032D01*
X45841074Y-7298350D01*
X45897908Y-7293015D01*
X45922895Y-7291946D01*
X46000953Y-7285469D01*
X46097268Y-7267366D01*
X46205301Y-7238953D01*
X46241963Y-7227681D01*
X46290387Y-7212648D01*
X46353011Y-7193721D01*
X46417149Y-7174730D01*
X46423791Y-7172790D01*
X46488541Y-7153089D01*
X46566565Y-7128145D01*
X46644810Y-7102166D01*
X46675553Y-7091628D01*
X46743730Y-7069018D01*
X46811561Y-7048296D01*
X46868889Y-7032490D01*
X46892348Y-7026972D01*
X46997952Y-7000074D01*
X47104770Y-6964464D01*
X47202222Y-6923977D01*
X47262998Y-6892603D01*
X47323512Y-6859024D01*
X47390840Y-6823926D01*
X47432860Y-6803296D01*
X47492810Y-6771685D01*
X47558409Y-6731658D01*
X47625347Y-6686504D01*
X47689317Y-6639512D01*
X47746009Y-6593972D01*
X47791114Y-6553171D01*
X47820325Y-6520399D01*
X47829463Y-6500557D01*
X47840531Y-6479438D01*
X47857436Y-6466482D01*
X47879657Y-6447604D01*
X47885410Y-6433798D01*
X47894669Y-6416219D01*
X47919305Y-6384988D01*
X47954606Y-6345917D01*
X47967210Y-6332886D01*
X48007810Y-6289750D01*
X48042137Y-6249953D01*
X48064034Y-6220718D01*
X48066736Y-6216111D01*
X48084462Y-6182536D01*
X48043138Y-6211962D01*
X48009805Y-6238151D01*
X47984808Y-6261914D01*
X47983645Y-6263278D01*
X47958921Y-6283983D01*
X47922739Y-6305398D01*
X47918500Y-6307462D01*
X47880887Y-6330037D01*
X47836402Y-6363227D01*
X47812036Y-6384131D01*
X47777268Y-6413711D01*
X47749444Y-6433461D01*
X47737688Y-6438508D01*
X47720427Y-6448812D01*
X47696576Y-6474289D01*
X47691188Y-6481305D01*
X47656424Y-6518905D01*
X47616253Y-6550492D01*
X47615127Y-6551186D01*
X47577261Y-6568986D01*
X47541354Y-6577593D01*
X47515588Y-6575887D01*
X47507767Y-6565877D01*
X47517888Y-6547310D01*
X47545003Y-6515892D01*
X47584243Y-6476219D01*
X47630734Y-6432887D01*
X47679607Y-6390492D01*
X47725989Y-6353629D01*
X47753061Y-6334438D01*
X47810619Y-6294091D01*
X47872872Y-6246986D01*
X47913435Y-6214090D01*
X47956303Y-6180023D01*
X47995117Y-6153063D01*
X48021571Y-6138970D01*
X48021832Y-6138886D01*
X48046184Y-6126711D01*
X48053251Y-6116896D01*
X48064464Y-6104196D01*
X48093655Y-6083145D01*
X48128690Y-6061717D01*
X48217275Y-6000781D01*
X48281799Y-5931989D01*
X48321727Y-5861553D01*
X48337206Y-5829534D01*
X48439873Y-5829534D01*
X48442957Y-5834045D01*
X48465563Y-5821500D01*
X48489717Y-5805312D01*
X48532816Y-5772728D01*
X48574685Y-5736894D01*
X48576911Y-5734813D01*
X48606641Y-5709499D01*
X48651754Y-5674212D01*
X48704603Y-5634858D01*
X48730524Y-5616220D01*
X48773040Y-5583322D01*
X48825925Y-5538255D01*
X48885773Y-5484371D01*
X48949183Y-5425023D01*
X49012750Y-5363564D01*
X49073070Y-5303346D01*
X49126740Y-5247722D01*
X49170357Y-5200045D01*
X49200516Y-5163667D01*
X49213814Y-5141941D01*
X49214154Y-5139831D01*
X49223000Y-5123588D01*
X49245932Y-5094308D01*
X49270919Y-5066074D01*
X49307488Y-5022902D01*
X49339644Y-4978645D01*
X49353366Y-4955909D01*
X49387236Y-4891342D01*
X49411589Y-4842555D01*
X49428196Y-4802640D01*
X49438832Y-4764691D01*
X49445268Y-4721800D01*
X49449277Y-4667062D01*
X49452633Y-4593570D01*
X49453888Y-4564279D01*
X49457725Y-4487234D01*
X49462063Y-4418475D01*
X49466478Y-4363608D01*
X49470549Y-4328235D01*
X49472355Y-4319510D01*
X49470795Y-4318754D01*
X49459282Y-4339333D01*
X49439912Y-4377339D01*
X49424706Y-4408291D01*
X49399861Y-4460740D01*
X49380549Y-4503950D01*
X49369538Y-4531611D01*
X49368009Y-4537669D01*
X49357602Y-4550110D01*
X49355484Y-4550292D01*
X49341594Y-4561959D01*
X49323707Y-4590446D01*
X49306513Y-4625984D01*
X49294703Y-4658803D01*
X49292970Y-4679135D01*
X49293307Y-4679775D01*
X49287104Y-4694083D01*
X49264217Y-4723176D01*
X49228358Y-4762694D01*
X49187446Y-4804171D01*
X49136961Y-4855573D01*
X49090251Y-4906666D01*
X49053422Y-4950583D01*
X49036247Y-4974226D01*
X49007363Y-5015806D01*
X48968662Y-5066731D01*
X48931699Y-5112156D01*
X48899128Y-5152253D01*
X48875249Y-5184815D01*
X48864648Y-5203530D01*
X48864485Y-5204643D01*
X48856409Y-5222513D01*
X48835883Y-5253082D01*
X48822082Y-5271169D01*
X48789486Y-5317784D01*
X48760363Y-5368380D01*
X48754058Y-5381489D01*
X48734361Y-5417690D01*
X48702673Y-5467767D01*
X48664270Y-5523587D01*
X48642607Y-5553244D01*
X48606709Y-5602459D01*
X48578185Y-5643860D01*
X48560624Y-5672098D01*
X48556775Y-5681109D01*
X48548034Y-5697395D01*
X48525106Y-5727591D01*
X48492930Y-5765195D01*
X48492539Y-5765630D01*
X48456379Y-5807038D01*
X48439873Y-5829534D01*
X48337206Y-5829534D01*
X48339891Y-5823981D01*
X48355255Y-5799896D01*
X48361398Y-5795116D01*
X48374426Y-5784369D01*
X48399348Y-5755503D01*
X48432402Y-5713581D01*
X48469826Y-5663667D01*
X48507859Y-5610822D01*
X48542737Y-5560112D01*
X48570699Y-5516598D01*
X48579642Y-5501394D01*
X48615125Y-5438453D01*
X48564782Y-5490903D01*
X48534372Y-5520627D01*
X48511311Y-5539637D01*
X48503832Y-5543354D01*
X48488860Y-5552150D01*
X48459965Y-5575172D01*
X48424670Y-5606294D01*
X48388680Y-5638237D01*
X48360870Y-5660889D01*
X48347513Y-5669235D01*
X48334640Y-5679116D01*
X48310119Y-5704716D01*
X48286299Y-5732175D01*
X48255080Y-5766155D01*
X48228695Y-5789009D01*
X48216020Y-5795116D01*
X48195909Y-5804511D01*
X48167314Y-5827955D01*
X48158152Y-5837076D01*
X48125903Y-5863913D01*
X48095554Y-5878625D01*
X48089098Y-5879544D01*
X48062781Y-5891799D01*
X48037051Y-5929173D01*
X48032271Y-5938826D01*
X48008323Y-5979282D01*
X47981323Y-6000010D01*
X47960444Y-6006159D01*
X47918401Y-6020539D01*
X47875699Y-6043873D01*
X47873037Y-6045729D01*
X47836760Y-6064929D01*
X47806889Y-6069407D01*
X47804446Y-6068797D01*
X47782409Y-6072867D01*
X47742832Y-6094157D01*
X47684640Y-6133313D01*
X47626105Y-6176323D01*
X47566620Y-6220499D01*
X47512136Y-6259816D01*
X47468024Y-6290476D01*
X47439655Y-6308682D01*
X47436311Y-6310511D01*
X47405805Y-6328895D01*
X47363426Y-6357745D01*
X47326050Y-6385063D01*
X47277465Y-6419793D01*
X47228256Y-6451755D01*
X47198123Y-6469126D01*
X47162986Y-6489350D01*
X47139567Y-6506344D01*
X47135847Y-6510496D01*
X47120617Y-6521179D01*
X47085541Y-6540378D01*
X47036360Y-6565302D01*
X46978813Y-6593155D01*
X46918642Y-6621144D01*
X46861585Y-6646475D01*
X46825251Y-6661662D01*
X46778754Y-6694345D01*
X46747956Y-6744229D01*
X46738493Y-6794666D01*
X46733571Y-6832409D01*
X46725816Y-6854805D01*
X46714309Y-6883343D01*
X46701061Y-6924930D01*
X46697281Y-6938536D01*
X46683004Y-6978366D01*
X46665633Y-6995852D01*
X46653572Y-6997979D01*
X46626895Y-6989196D01*
X46616654Y-6961791D01*
X46622667Y-6914182D01*
X46638066Y-6863314D01*
X46659378Y-6796494D01*
X46668202Y-6752321D01*
X46664521Y-6728402D01*
X46648317Y-6722345D01*
X46637089Y-6724761D01*
X46603741Y-6733572D01*
X46558292Y-6743813D01*
X46542678Y-6747003D01*
X46488359Y-6758705D01*
X46433812Y-6771844D01*
X46423791Y-6774472D01*
X46376089Y-6785736D01*
X46318391Y-6797325D01*
X46290916Y-6802157D01*
X46178007Y-6822933D01*
X46080283Y-6845245D01*
X46039154Y-6856585D01*
X46002310Y-6867318D01*
X45948790Y-6882627D01*
X45888866Y-6899581D01*
X45875829Y-6903244D01*
X45822406Y-6919060D01*
X45779612Y-6933272D01*
X45754442Y-6943500D01*
X45751113Y-6945675D01*
X45730729Y-6953260D01*
X45701003Y-6956019D01*
X45658517Y-6967928D01*
X45636897Y-6985991D01*
X45608568Y-7017822D01*
X45588080Y-7038053D01*
X45568794Y-7061418D01*
X45563604Y-7075577D01*
X45551988Y-7100946D01*
X45524110Y-7126808D01*
X45490420Y-7145356D01*
X45464664Y-7149490D01*
X45435773Y-7139249D01*
X45430621Y-7119376D01*
X45449404Y-7088263D01*
X45475475Y-7060328D01*
X45528637Y-7008055D01*
X45486676Y-7017599D01*
X45445793Y-7026745D01*
X45395844Y-7037725D01*
X45382352Y-7040658D01*
X45341565Y-7051749D01*
X45312207Y-7063781D01*
X45306124Y-7068037D01*
X45281497Y-7079854D01*
X45263587Y-7082375D01*
X45233351Y-7088627D01*
X45192519Y-7103683D01*
X45178967Y-7109874D01*
X45139883Y-7126770D01*
X45108903Y-7136763D01*
X45102040Y-7137818D01*
X45074793Y-7146584D01*
X45053909Y-7159272D01*
X45024823Y-7175477D01*
X45006987Y-7179808D01*
X44984092Y-7185775D01*
X44946376Y-7201114D01*
X44917597Y-7214775D01*
X44864210Y-7239190D01*
X44829298Y-7248558D01*
X44808309Y-7243712D01*
X44801502Y-7236044D01*
X44799964Y-7209871D01*
X44823277Y-7181113D01*
X44868803Y-7152351D01*
X44902246Y-7137508D01*
X44957801Y-7115110D01*
X45013233Y-7092044D01*
X45041754Y-7079775D01*
X45089905Y-7061630D01*
X45148716Y-7043527D01*
X45182013Y-7034945D01*
X45235121Y-7020440D01*
X45283909Y-7003622D01*
X45307018Y-6993480D01*
X45341508Y-6978970D01*
X45392940Y-6961161D01*
X45451119Y-6943543D01*
X45460481Y-6940946D01*
X45515236Y-6925932D01*
X45561653Y-6913137D01*
X45591392Y-6904862D01*
X45595074Y-6903818D01*
X45615770Y-6892805D01*
X45619551Y-6885933D01*
X45628279Y-6869686D01*
X45641721Y-6852937D01*
X45755584Y-6852937D01*
X45756799Y-6858005D01*
X45774135Y-6854138D01*
X45810324Y-6844104D01*
X45857326Y-6830138D01*
X45911504Y-6815605D01*
X45961680Y-6805516D01*
X45992872Y-6802271D01*
X46026142Y-6798646D01*
X46044983Y-6790030D01*
X46045235Y-6789655D01*
X46062987Y-6779770D01*
X46097022Y-6771244D01*
X46105504Y-6769932D01*
X46138826Y-6763614D01*
X46192118Y-6751533D01*
X46258379Y-6735352D01*
X46330608Y-6716735D01*
X46339870Y-6714276D01*
X46411956Y-6695384D01*
X46478537Y-6678503D01*
X46532760Y-6665332D01*
X46567769Y-6657571D01*
X46570652Y-6657030D01*
X46630051Y-6639384D01*
X46676690Y-6612140D01*
X46704845Y-6579394D01*
X46710520Y-6557029D01*
X46713330Y-6536204D01*
X46799483Y-6536204D01*
X46849412Y-6506442D01*
X46888629Y-6483617D01*
X46940085Y-6454378D01*
X46983829Y-6429948D01*
X47034448Y-6398947D01*
X47080961Y-6365417D01*
X47108830Y-6340928D01*
X47139244Y-6314306D01*
X47165544Y-6299636D01*
X47171210Y-6298640D01*
X47196807Y-6287561D01*
X47238170Y-6254881D01*
X47294362Y-6201440D01*
X47364445Y-6128074D01*
X47375123Y-6116466D01*
X47418714Y-6071488D01*
X47463848Y-6029016D01*
X47498472Y-6000055D01*
X47528500Y-5975918D01*
X47545273Y-5959160D01*
X47546649Y-5955217D01*
X47531707Y-5956363D01*
X47499617Y-5965007D01*
X47480959Y-5971116D01*
X47443415Y-5982160D01*
X47418136Y-5986085D01*
X47413173Y-5984920D01*
X47413808Y-5968015D01*
X47430860Y-5940806D01*
X47458684Y-5910192D01*
X47491639Y-5883071D01*
X47501803Y-5876576D01*
X47535643Y-5849545D01*
X47549656Y-5822559D01*
X47549727Y-5820788D01*
X47556383Y-5784971D01*
X47563752Y-5767072D01*
X47570168Y-5740473D01*
X47563752Y-5732199D01*
X47549815Y-5711434D01*
X47560209Y-5684922D01*
X47593098Y-5656805D01*
X47598681Y-5653395D01*
X47635635Y-5623851D01*
X47647629Y-5592219D01*
X47647634Y-5591444D01*
X47653089Y-5557259D01*
X47666974Y-5511112D01*
X47685571Y-5462636D01*
X47700837Y-5430549D01*
X48616152Y-5430549D01*
X48618065Y-5431460D01*
X48630829Y-5421613D01*
X48633703Y-5417473D01*
X48637267Y-5404397D01*
X48635354Y-5403486D01*
X48622589Y-5413332D01*
X48619716Y-5417473D01*
X48616152Y-5430549D01*
X47700837Y-5430549D01*
X47705161Y-5421461D01*
X47722025Y-5397221D01*
X47722898Y-5396493D01*
X47733108Y-5382506D01*
X48640696Y-5382506D01*
X48647689Y-5389499D01*
X48654683Y-5382506D01*
X48647689Y-5375512D01*
X48640696Y-5382506D01*
X47733108Y-5382506D01*
X47740604Y-5372236D01*
X47748799Y-5351036D01*
X47750895Y-5329232D01*
X47736952Y-5320735D01*
X47712762Y-5319513D01*
X47668615Y-5319461D01*
X47713312Y-5292207D01*
X47769072Y-5243740D01*
X47802541Y-5178934D01*
X47807369Y-5161082D01*
X47816577Y-5121487D01*
X47763576Y-5160816D01*
X47723073Y-5193392D01*
X47686658Y-5226702D01*
X47678296Y-5235379D01*
X47624829Y-5294163D01*
X47587932Y-5335941D01*
X47564910Y-5363994D01*
X47553072Y-5381601D01*
X47549727Y-5392039D01*
X47540253Y-5412452D01*
X47513875Y-5448577D01*
X47473655Y-5496538D01*
X47424648Y-5550347D01*
X47391357Y-5591783D01*
X47362856Y-5636930D01*
X47360621Y-5641261D01*
X47340000Y-5675919D01*
X47320304Y-5699076D01*
X47317050Y-5701400D01*
X47299867Y-5720783D01*
X47297821Y-5729374D01*
X47288673Y-5747157D01*
X47264723Y-5778236D01*
X47230981Y-5816161D01*
X47227887Y-5819425D01*
X47193665Y-5857059D01*
X47168777Y-5887686D01*
X47158180Y-5905165D01*
X47158097Y-5905900D01*
X47146650Y-5920629D01*
X47133150Y-5927030D01*
X47109231Y-5943983D01*
X47084907Y-5974446D01*
X47083363Y-5976998D01*
X47052531Y-6013748D01*
X47014737Y-6041691D01*
X46969209Y-6072031D01*
X46935763Y-6112775D01*
X46909048Y-6171280D01*
X46899362Y-6200295D01*
X46883983Y-6245371D01*
X46869687Y-6280327D01*
X46862217Y-6293788D01*
X46845050Y-6326793D01*
X46828055Y-6379654D01*
X46813640Y-6444343D01*
X46809411Y-6469872D01*
X46799483Y-6536204D01*
X46713330Y-6536204D01*
X46715140Y-6522785D01*
X46727188Y-6471741D01*
X46743942Y-6413164D01*
X46762682Y-6356322D01*
X46780687Y-6310482D01*
X46786370Y-6298640D01*
X46802153Y-6259116D01*
X46813475Y-6216511D01*
X46817566Y-6186455D01*
X46812780Y-6179055D01*
X46803852Y-6184740D01*
X46779950Y-6200529D01*
X46735687Y-6226117D01*
X46675837Y-6259032D01*
X46605179Y-6296801D01*
X46528486Y-6336950D01*
X46450537Y-6377008D01*
X46376107Y-6414502D01*
X46309972Y-6446959D01*
X46256909Y-6471907D01*
X46221694Y-6486872D01*
X46217161Y-6488467D01*
X46169766Y-6505804D01*
X46108385Y-6530663D01*
X46044245Y-6558450D01*
X46026708Y-6566410D01*
X45973268Y-6590171D01*
X45928544Y-6608588D01*
X45899200Y-6618982D01*
X45892505Y-6620336D01*
X45870672Y-6629904D01*
X45853935Y-6644813D01*
X45838509Y-6667664D01*
X45818560Y-6704327D01*
X45797191Y-6747994D01*
X45777504Y-6791857D01*
X45762601Y-6829108D01*
X45755584Y-6852937D01*
X45641721Y-6852937D01*
X45650024Y-6842591D01*
X45658014Y-6833778D01*
X45683827Y-6801224D01*
X45708937Y-6761883D01*
X45729239Y-6723407D01*
X45740624Y-6693451D01*
X45740288Y-6680464D01*
X45724718Y-6680743D01*
X45689298Y-6687254D01*
X45641103Y-6698649D01*
X45631290Y-6701201D01*
X45470879Y-6741016D01*
X45330724Y-6770077D01*
X45205593Y-6789157D01*
X45090253Y-6799026D01*
X44979472Y-6800458D01*
X44962005Y-6799962D01*
X44882734Y-6796120D01*
X44823339Y-6789934D01*
X44775743Y-6780093D01*
X44731868Y-6765284D01*
X44720900Y-6760806D01*
X44670639Y-6736722D01*
X44645790Y-6715980D01*
X44644463Y-6695847D01*
X44662077Y-6675768D01*
X44678197Y-6667846D01*
X44701632Y-6669242D01*
X44739083Y-6681109D01*
X44774248Y-6695036D01*
X44823864Y-6713528D01*
X44869063Y-6724763D01*
X44920032Y-6730407D01*
X44986956Y-6732130D01*
X45000912Y-6732153D01*
X45066046Y-6730787D01*
X45126113Y-6727196D01*
X45171869Y-6722027D01*
X45185960Y-6719195D01*
X45234520Y-6708539D01*
X45286806Y-6699942D01*
X45290861Y-6699426D01*
X45393379Y-6682874D01*
X45503631Y-6658632D01*
X45597790Y-6632504D01*
X45647432Y-6618454D01*
X45690507Y-6608960D01*
X45712523Y-6606349D01*
X45749495Y-6600708D01*
X45785351Y-6586886D01*
X45810055Y-6569539D01*
X45815379Y-6558647D01*
X45819671Y-6544875D01*
X45902936Y-6544875D01*
X45903465Y-6550402D01*
X45917597Y-6544923D01*
X45948556Y-6530954D01*
X45970090Y-6520825D01*
X46011316Y-6499666D01*
X46044075Y-6480224D01*
X46053141Y-6473639D01*
X46079701Y-6458431D01*
X46119383Y-6442702D01*
X46130068Y-6439315D01*
X46167396Y-6425740D01*
X46220790Y-6403296D01*
X46281381Y-6375793D01*
X46311897Y-6361193D01*
X46370188Y-6333866D01*
X46423267Y-6310946D01*
X46463434Y-6295669D01*
X46477433Y-6291655D01*
X46516321Y-6275207D01*
X46547367Y-6251065D01*
X46578495Y-6225054D01*
X46621680Y-6197318D01*
X46640586Y-6187176D01*
X46685217Y-6163473D01*
X46741233Y-6131792D01*
X46795365Y-6099681D01*
X46843839Y-6068520D01*
X46873985Y-6043369D01*
X46892242Y-6017234D01*
X46905052Y-5983124D01*
X46906176Y-5979362D01*
X46914519Y-5955964D01*
X46990256Y-5955964D01*
X46997249Y-5962957D01*
X47004242Y-5955964D01*
X46997249Y-5948971D01*
X46990256Y-5955964D01*
X46914519Y-5955964D01*
X46922276Y-5934210D01*
X46926519Y-5924145D01*
X47018229Y-5924145D01*
X47019429Y-5945092D01*
X47027093Y-5942040D01*
X47038764Y-5927167D01*
X47054876Y-5902049D01*
X47059745Y-5889159D01*
X47069108Y-5874173D01*
X47092965Y-5846297D01*
X47119633Y-5818245D01*
X47182918Y-5752501D01*
X47236491Y-5693289D01*
X47277647Y-5643846D01*
X47303682Y-5607408D01*
X47311952Y-5588139D01*
X47320467Y-5566195D01*
X47342148Y-5533154D01*
X47357409Y-5513890D01*
X47410334Y-5450463D01*
X47446730Y-5404885D01*
X47468790Y-5374222D01*
X47478705Y-5355537D01*
X47479793Y-5349909D01*
X47490113Y-5331345D01*
X47508404Y-5315099D01*
X47532670Y-5291606D01*
X47561935Y-5254608D01*
X47575980Y-5233881D01*
X47639426Y-5151479D01*
X47710575Y-5088708D01*
X47738549Y-5067735D01*
X47710575Y-5076114D01*
X47640601Y-5101991D01*
X47571442Y-5136062D01*
X47509807Y-5174228D01*
X47462407Y-5212386D01*
X47437714Y-5242860D01*
X47414203Y-5274253D01*
X47379731Y-5307619D01*
X47371209Y-5314433D01*
X47333994Y-5348136D01*
X47303181Y-5384754D01*
X47298978Y-5391195D01*
X47275283Y-5424470D01*
X47241108Y-5466080D01*
X47218068Y-5491713D01*
X47185096Y-5530702D01*
X47159957Y-5567331D01*
X47150909Y-5586048D01*
X47139484Y-5616766D01*
X47120688Y-5662132D01*
X47102218Y-5704202D01*
X47068946Y-5778424D01*
X47045711Y-5831835D01*
X47030771Y-5868997D01*
X47022382Y-5894471D01*
X47018805Y-5912821D01*
X47018229Y-5924145D01*
X46926519Y-5924145D01*
X46946550Y-5876624D01*
X46973856Y-5818772D01*
X46974927Y-5816648D01*
X47001371Y-5762571D01*
X47024621Y-5711913D01*
X47040025Y-5674847D01*
X47040959Y-5672266D01*
X47057213Y-5626344D01*
X46999257Y-5672772D01*
X46957086Y-5705689D01*
X46914347Y-5736881D01*
X46867332Y-5768652D01*
X46812327Y-5803306D01*
X46745621Y-5843146D01*
X46663503Y-5890477D01*
X46562262Y-5947603D01*
X46504679Y-5979796D01*
X46457452Y-6002812D01*
X46394395Y-6029108D01*
X46326546Y-6054183D01*
X46301870Y-6062435D01*
X46236506Y-6084918D01*
X46190624Y-6105027D01*
X46156527Y-6127002D01*
X46126519Y-6155082D01*
X46119215Y-6163039D01*
X46087118Y-6200928D01*
X46061843Y-6234726D01*
X46052727Y-6249686D01*
X46039292Y-6275504D01*
X46016857Y-6317016D01*
X45990125Y-6365525D01*
X45988428Y-6368574D01*
X45957233Y-6426425D01*
X45931017Y-6478450D01*
X45912133Y-6519612D01*
X45902936Y-6544875D01*
X45819671Y-6544875D01*
X45821833Y-6537937D01*
X45839201Y-6498644D01*
X45864510Y-6446470D01*
X45894792Y-6387120D01*
X45927076Y-6326294D01*
X45958391Y-6269697D01*
X45985768Y-6223031D01*
X46006237Y-6191998D01*
X46006589Y-6191532D01*
X46028689Y-6160907D01*
X46033967Y-6147889D01*
X46023519Y-6148604D01*
X46018174Y-6150637D01*
X45988459Y-6160855D01*
X45944503Y-6174105D01*
X45920267Y-6180881D01*
X45779763Y-6229233D01*
X45695929Y-6267027D01*
X45648666Y-6282164D01*
X45613844Y-6277016D01*
X45595373Y-6252388D01*
X45594101Y-6246047D01*
X45596939Y-6221295D01*
X45616865Y-6214720D01*
X45648665Y-6204521D01*
X45661511Y-6193739D01*
X45688096Y-6175832D01*
X45703319Y-6172759D01*
X45729936Y-6167818D01*
X45770795Y-6155212D01*
X45796017Y-6145890D01*
X45842325Y-6128774D01*
X45899587Y-6109188D01*
X45961072Y-6089237D01*
X46020048Y-6071022D01*
X46069783Y-6056649D01*
X46103546Y-6048219D01*
X46112882Y-6046878D01*
X46130481Y-6037624D01*
X46160462Y-6013492D01*
X46172951Y-6001777D01*
X46278810Y-6001777D01*
X46282395Y-6003830D01*
X46284944Y-6002689D01*
X46302443Y-5994319D01*
X46339071Y-5976804D01*
X46388720Y-5953067D01*
X46423791Y-5936300D01*
X46477770Y-5909856D01*
X46521678Y-5887146D01*
X46549722Y-5871232D01*
X46556665Y-5866036D01*
X46575489Y-5851030D01*
X46612848Y-5829257D01*
X46661466Y-5804734D01*
X46696533Y-5788843D01*
X46761588Y-5755981D01*
X46817711Y-5714959D01*
X46827846Y-5706209D01*
X46864262Y-5675982D01*
X46908199Y-5642060D01*
X46953505Y-5608860D01*
X46994028Y-5580800D01*
X47023618Y-5562297D01*
X47035154Y-5557341D01*
X47055531Y-5545933D01*
X47083256Y-5516332D01*
X47113374Y-5475468D01*
X47140934Y-5430272D01*
X47160984Y-5387675D01*
X47165068Y-5375512D01*
X47170081Y-5352509D01*
X47163445Y-5352238D01*
X47156872Y-5358029D01*
X47127705Y-5373434D01*
X47113936Y-5375512D01*
X47090703Y-5385796D01*
X47061382Y-5411649D01*
X47050296Y-5424466D01*
X47021798Y-5454336D01*
X46996235Y-5471665D01*
X46988927Y-5473420D01*
X46963551Y-5483127D01*
X46940257Y-5502548D01*
X46908873Y-5528116D01*
X46868495Y-5550618D01*
X46865780Y-5551781D01*
X46828834Y-5571769D01*
X46802359Y-5593952D01*
X46800532Y-5596344D01*
X46783039Y-5612846D01*
X46746968Y-5641111D01*
X46697128Y-5677550D01*
X46638327Y-5718574D01*
X46620806Y-5730465D01*
X46574165Y-5763104D01*
X46521747Y-5801691D01*
X46466997Y-5843434D01*
X46413359Y-5885541D01*
X46364277Y-5925220D01*
X46323195Y-5959680D01*
X46293558Y-5986130D01*
X46278810Y-6001777D01*
X46172951Y-6001777D01*
X46192443Y-5983494D01*
X46235171Y-5940982D01*
X46277948Y-5898634D01*
X46301663Y-5875288D01*
X46333975Y-5847024D01*
X46381384Y-5809674D01*
X46435672Y-5769615D01*
X46458792Y-5753347D01*
X46564077Y-5680353D01*
X46649096Y-5621104D01*
X46716685Y-5573570D01*
X46769677Y-5535720D01*
X46810907Y-5505523D01*
X46843211Y-5480949D01*
X46869423Y-5459967D01*
X46876188Y-5454350D01*
X46911173Y-5426559D01*
X46937849Y-5408084D01*
X46947861Y-5403486D01*
X46963578Y-5394764D01*
X46991900Y-5372440D01*
X47012211Y-5354532D01*
X47046868Y-5326352D01*
X47076329Y-5308466D01*
X47087400Y-5305189D01*
X47088878Y-5304668D01*
X47287407Y-5304668D01*
X47289321Y-5305579D01*
X47302085Y-5295732D01*
X47304958Y-5291592D01*
X47308522Y-5278516D01*
X47306609Y-5277605D01*
X47293845Y-5287451D01*
X47290971Y-5291592D01*
X47287407Y-5304668D01*
X47088878Y-5304668D01*
X47110785Y-5296947D01*
X47145483Y-5276467D01*
X47164085Y-5263229D01*
X47173780Y-5256625D01*
X47311952Y-5256625D01*
X47318945Y-5263618D01*
X47325938Y-5256625D01*
X47318945Y-5249631D01*
X47311952Y-5256625D01*
X47173780Y-5256625D01*
X47199863Y-5238858D01*
X47228701Y-5223899D01*
X47237698Y-5221658D01*
X47253676Y-5209959D01*
X47274360Y-5179983D01*
X47287207Y-5155221D01*
X47297504Y-5135323D01*
X47390880Y-5135323D01*
X47393865Y-5137737D01*
X47408916Y-5127718D01*
X47434726Y-5101815D01*
X47457610Y-5075351D01*
X47478094Y-5047439D01*
X47563714Y-5047439D01*
X47574276Y-5050887D01*
X47588191Y-5046960D01*
X47616239Y-5037063D01*
X47657945Y-5023776D01*
X47675608Y-5018443D01*
X47731542Y-5004181D01*
X47790386Y-4992489D01*
X47801921Y-4990700D01*
X47835536Y-4984592D01*
X47858535Y-4974061D01*
X47877574Y-4953121D01*
X47899306Y-4915789D01*
X47911845Y-4891840D01*
X47935976Y-4848001D01*
X47947951Y-4829117D01*
X49021769Y-4829117D01*
X49023682Y-4830028D01*
X49036446Y-4820181D01*
X49039319Y-4816041D01*
X49042884Y-4802965D01*
X49040970Y-4802054D01*
X49028206Y-4811901D01*
X49025333Y-4816041D01*
X49021769Y-4829117D01*
X47947951Y-4829117D01*
X47956252Y-4816026D01*
X47968646Y-4802198D01*
X47969340Y-4802054D01*
X47980294Y-4790159D01*
X47989724Y-4764444D01*
X48002634Y-4731419D01*
X49039424Y-4731419D01*
X49040280Y-4763108D01*
X49040412Y-4763537D01*
X49046822Y-4776783D01*
X49057131Y-4777578D01*
X49075689Y-4763367D01*
X49106846Y-4731592D01*
X49121491Y-4715893D01*
X49164448Y-4668457D01*
X49206597Y-4620044D01*
X49237051Y-4583305D01*
X49263982Y-4542882D01*
X49294506Y-4487346D01*
X49322561Y-4427839D01*
X49325763Y-4420265D01*
X49347850Y-4369772D01*
X49367296Y-4329877D01*
X49380790Y-4307230D01*
X49383290Y-4304723D01*
X49395590Y-4285096D01*
X49395982Y-4280920D01*
X49390764Y-4272763D01*
X49379198Y-4281746D01*
X49357094Y-4297300D01*
X49346756Y-4292144D01*
X49349781Y-4275421D01*
X49350637Y-4261873D01*
X49336951Y-4266801D01*
X49311820Y-4286968D01*
X49278338Y-4319136D01*
X49239600Y-4360067D01*
X49198702Y-4406523D01*
X49158738Y-4455268D01*
X49122804Y-4503062D01*
X49100380Y-4536305D01*
X49080372Y-4576815D01*
X49061915Y-4629011D01*
X49047450Y-4683633D01*
X49039424Y-4731419D01*
X48002634Y-4731419D01*
X48005023Y-4725308D01*
X48026208Y-4688854D01*
X48044885Y-4658368D01*
X48053222Y-4636344D01*
X48053251Y-4635591D01*
X48061993Y-4617224D01*
X48084362Y-4586928D01*
X48102205Y-4566121D01*
X48136290Y-4526030D01*
X48149547Y-4504155D01*
X48142104Y-4500183D01*
X48126682Y-4506817D01*
X48102025Y-4518031D01*
X48059959Y-4535688D01*
X48009166Y-4556152D01*
X48004297Y-4558072D01*
X47943003Y-4585083D01*
X47886019Y-4615274D01*
X47839615Y-4644852D01*
X47810063Y-4670024D01*
X47803720Y-4679391D01*
X47793260Y-4694633D01*
X47769235Y-4725929D01*
X47735910Y-4767783D01*
X47717625Y-4790302D01*
X47678515Y-4841699D01*
X47640063Y-4898258D01*
X47605944Y-4953837D01*
X47579836Y-5002296D01*
X47565412Y-5037493D01*
X47563714Y-5047439D01*
X47478094Y-5047439D01*
X47488078Y-5033835D01*
X47515437Y-4989125D01*
X47536159Y-4948045D01*
X47546714Y-4917420D01*
X47545600Y-4905159D01*
X47535550Y-4911898D01*
X47517216Y-4934901D01*
X47496013Y-4966047D01*
X47477358Y-4997210D01*
X47466665Y-5020269D01*
X47465806Y-5024848D01*
X47455487Y-5043646D01*
X47447987Y-5049625D01*
X47429277Y-5067117D01*
X47410014Y-5092945D01*
X47395460Y-5118536D01*
X47390880Y-5135323D01*
X47297504Y-5135323D01*
X47310591Y-5110034D01*
X47343059Y-5054133D01*
X47381029Y-4992939D01*
X47420920Y-4931875D01*
X47459149Y-4876364D01*
X47492134Y-4831828D01*
X47516294Y-4803690D01*
X47523243Y-4797878D01*
X47544460Y-4777524D01*
X47549727Y-4763723D01*
X47556351Y-4747342D01*
X47560217Y-4746088D01*
X47575469Y-4737447D01*
X47604397Y-4715040D01*
X47633648Y-4689951D01*
X47696588Y-4633833D01*
X47626654Y-4656985D01*
X47584261Y-4671893D01*
X47552510Y-4684635D01*
X47542734Y-4689623D01*
X47521656Y-4699062D01*
X47484629Y-4711908D01*
X47465806Y-4717698D01*
X47414870Y-4734943D01*
X47356824Y-4757675D01*
X47330301Y-4769171D01*
X47283173Y-4787661D01*
X47240626Y-4799590D01*
X47221439Y-4802054D01*
X47184460Y-4808540D01*
X47135089Y-4828792D01*
X47071150Y-4864005D01*
X46990461Y-4915374D01*
X46896306Y-4980227D01*
X46817912Y-5037911D01*
X46740231Y-5100094D01*
X46660672Y-5169279D01*
X46576644Y-5247971D01*
X46485554Y-5338675D01*
X46384813Y-5443894D01*
X46271827Y-5566133D01*
X46148358Y-5703027D01*
X46111090Y-5738644D01*
X46083815Y-5750276D01*
X46076273Y-5748923D01*
X46056268Y-5732000D01*
X46058106Y-5703995D01*
X46082324Y-5663654D01*
X46129460Y-5609728D01*
X46141336Y-5597555D01*
X46194913Y-5541504D01*
X46254088Y-5476712D01*
X46306949Y-5416252D01*
X46311823Y-5410479D01*
X46350792Y-5365545D01*
X46385203Y-5328426D01*
X46409689Y-5304809D01*
X46415947Y-5300153D01*
X46433979Y-5285747D01*
X46466869Y-5255747D01*
X46509916Y-5214559D01*
X46557731Y-5167278D01*
X46687664Y-5046387D01*
X46822667Y-4938550D01*
X46956435Y-4848564D01*
X47034431Y-4804643D01*
X47084783Y-4779184D01*
X47131582Y-4757179D01*
X47181185Y-4736010D01*
X47239946Y-4713057D01*
X47314221Y-4685702D01*
X47381886Y-4661449D01*
X47430988Y-4643788D01*
X47473644Y-4627895D01*
X47522561Y-4608981D01*
X47556720Y-4595563D01*
X47610414Y-4575929D01*
X47673960Y-4554798D01*
X47714072Y-4542519D01*
X47758694Y-4528120D01*
X47790195Y-4515310D01*
X47801489Y-4507201D01*
X47813393Y-4497148D01*
X47839953Y-4487799D01*
X47867646Y-4473644D01*
X47907019Y-4444561D01*
X47950724Y-4406129D01*
X47962337Y-4394852D01*
X48018149Y-4341253D01*
X48018542Y-4340894D01*
X48130178Y-4340894D01*
X48172139Y-4320267D01*
X48215048Y-4302728D01*
X48253162Y-4291675D01*
X48284859Y-4278146D01*
X48301276Y-4260121D01*
X48315202Y-4238645D01*
X48341632Y-4207392D01*
X48374083Y-4173015D01*
X48406074Y-4142169D01*
X48431122Y-4121508D01*
X48441016Y-4116669D01*
X48457082Y-4108092D01*
X48485342Y-4086402D01*
X48500828Y-4073089D01*
X48524908Y-4050262D01*
X48533064Y-4039406D01*
X48528802Y-4040320D01*
X48499478Y-4058071D01*
X48454832Y-4088151D01*
X48401623Y-4125716D01*
X48346611Y-4165921D01*
X48296556Y-4203921D01*
X48263053Y-4230787D01*
X48221450Y-4265488D01*
X48182919Y-4297482D01*
X48165145Y-4312156D01*
X48130178Y-4340894D01*
X48018542Y-4340894D01*
X48082432Y-4282482D01*
X48150559Y-4222466D01*
X48217898Y-4165131D01*
X48279820Y-4114405D01*
X48331696Y-4074214D01*
X48368896Y-4048485D01*
X48374563Y-4045204D01*
X48408596Y-4024590D01*
X48456553Y-3992981D01*
X48509899Y-3956059D01*
X48528802Y-3942544D01*
X48587571Y-3902450D01*
X48631875Y-3878396D01*
X48667770Y-3867411D01*
X48685063Y-3865878D01*
X48721003Y-3860890D01*
X48750955Y-3843546D01*
X48784312Y-3808993D01*
X48814204Y-3777346D01*
X48838743Y-3757064D01*
X48848076Y-3753046D01*
X48864596Y-3740193D01*
X48874090Y-3704765D01*
X48875760Y-3651461D01*
X48872362Y-3610203D01*
X48867536Y-3556437D01*
X48863967Y-3489829D01*
X48861693Y-3416446D01*
X48860751Y-3342356D01*
X48861180Y-3273627D01*
X48863017Y-3216327D01*
X48866299Y-3176523D01*
X48869579Y-3162104D01*
X48873270Y-3142704D01*
X48854239Y-3137627D01*
X48828211Y-3125930D01*
X48808774Y-3098517D01*
X48801710Y-3066909D01*
X48808588Y-3046652D01*
X48819239Y-3036406D01*
X48836107Y-3026218D01*
X48863637Y-3014289D01*
X48906275Y-2998819D01*
X48968465Y-2978012D01*
X49018339Y-2961788D01*
X49064716Y-2947364D01*
X49104569Y-2937127D01*
X49144218Y-2930414D01*
X49189985Y-2926563D01*
X49248191Y-2924909D01*
X49325155Y-2924789D01*
X49368292Y-2925064D01*
G37*
%TD*%
D10*
%TO.C,J1*%
X2240000Y-24330000D03*
X3740000Y-24330000D03*
X5240000Y-24330000D03*
X6740000Y-24330000D03*
X8240000Y-24330000D03*
X9740000Y-24330000D03*
X11240000Y-24330000D03*
X12740000Y-24330000D03*
X14240000Y-24330000D03*
X15740000Y-24330000D03*
X17240000Y-24330000D03*
X18740000Y-24330000D03*
X20240000Y-24330000D03*
X21740000Y-24330000D03*
X23240000Y-24330000D03*
X24740000Y-24330000D03*
X26240000Y-24330000D03*
X27740000Y-24330000D03*
X29240000Y-24330000D03*
X30740000Y-24330000D03*
X32240000Y-24330000D03*
X33740000Y-24330000D03*
X35240000Y-24330000D03*
X36740000Y-24330000D03*
X38240000Y-24330000D03*
X39740000Y-24330000D03*
X41240000Y-24330000D03*
X42740000Y-24330000D03*
X44240000Y-24330000D03*
X45740000Y-24330000D03*
X47240000Y-24330000D03*
X48740000Y-24330000D03*
%TD*%
D11*
%TO.C,C17*%
X21299000Y16831000D03*
X23024000Y16831000D03*
%TD*%
D12*
%TO.C,R11*%
X5642853Y23959000D03*
X3642853Y23959000D03*
%TD*%
D13*
%TO.C,U13*%
X25781000Y24003000D03*
X25146000Y24003000D03*
X24511000Y24003000D03*
X23876000Y24003000D03*
X23241000Y24003000D03*
X22606000Y24003000D03*
X21971000Y24003000D03*
X21336000Y24003000D03*
X20701000Y24003000D03*
X20066000Y24003000D03*
X20066000Y18803000D03*
X20701000Y18803000D03*
X21336000Y18803000D03*
X21971000Y18803000D03*
X22606000Y18803000D03*
X23241000Y18803000D03*
X23876000Y18803000D03*
X24511000Y18803000D03*
X25146000Y18803000D03*
X25781000Y18803000D03*
%TD*%
D14*
%TO.C,R13*%
X8706853Y22673000D03*
X8706853Y20673000D03*
%TD*%
D15*
%TO.C,U1*%
X21208000Y10381000D03*
X20708000Y10381000D03*
X20208000Y10381000D03*
X19708000Y10381000D03*
X19208000Y10381000D03*
X18708000Y10381000D03*
X18208000Y10381000D03*
X17708000Y10381000D03*
X17208000Y10381000D03*
X16708000Y10381000D03*
X16208000Y10381000D03*
X15708000Y10381000D03*
X15208000Y10381000D03*
X14708000Y10381000D03*
X14208000Y10381000D03*
X13708000Y10381000D03*
X13208000Y10381000D03*
X12708000Y10381000D03*
X12208000Y10381000D03*
X11708000Y10381000D03*
X11208000Y10381000D03*
X10708000Y10381000D03*
X10208000Y10381000D03*
X9708000Y10381000D03*
X9208000Y10381000D03*
X8708000Y10381000D03*
X8208000Y10381000D03*
X7708000Y10381000D03*
X7708000Y-9619000D03*
X8208000Y-9619000D03*
X8708000Y-9619000D03*
X9208000Y-9619000D03*
X9708000Y-9619000D03*
X10208000Y-9619000D03*
X10708000Y-9619000D03*
X11208000Y-9619000D03*
X11708000Y-9619000D03*
X12208000Y-9619000D03*
X12708000Y-9619000D03*
X13208000Y-9619000D03*
X13708000Y-9619000D03*
X14208000Y-9619000D03*
X14708000Y-9619000D03*
X15208000Y-9619000D03*
X15708000Y-9619000D03*
X16208000Y-9619000D03*
X16708000Y-9619000D03*
X17208000Y-9619000D03*
X17708000Y-9619000D03*
X18208000Y-9619000D03*
X18708000Y-9619000D03*
X19208000Y-9619000D03*
X19708000Y-9619000D03*
X20208000Y-9619000D03*
X20708000Y-9619000D03*
X21208000Y-9619000D03*
%TD*%
D16*
%TO.C,C9*%
X30247500Y13335000D03*
X28172500Y13335000D03*
%TD*%
D17*
%TO.C,U6*%
X11314000Y-20007500D03*
X11964000Y-20007500D03*
X12614000Y-20007500D03*
X13264000Y-20007500D03*
X13914000Y-20007500D03*
X14564000Y-20007500D03*
X15214000Y-20007500D03*
X15864000Y-20007500D03*
X15864000Y-14282500D03*
X15214000Y-14282500D03*
X14564000Y-14282500D03*
X13914000Y-14282500D03*
X13264000Y-14282500D03*
X12614000Y-14282500D03*
X11964000Y-14282500D03*
X11314000Y-14282500D03*
%TD*%
%TO.C,U5*%
X3821000Y-20261500D03*
X4471000Y-20261500D03*
X5121000Y-20261500D03*
X5771000Y-20261500D03*
X6421000Y-20261500D03*
X7071000Y-20261500D03*
X7721000Y-20261500D03*
X8371000Y-20261500D03*
X8371000Y-14536500D03*
X7721000Y-14536500D03*
X7071000Y-14536500D03*
X6421000Y-14536500D03*
X5771000Y-14536500D03*
X5121000Y-14536500D03*
X4471000Y-14536500D03*
X3821000Y-14536500D03*
%TD*%
D18*
%TO.C,R15*%
X9967453Y18703628D03*
X11967453Y18703628D03*
%TD*%
D19*
%TO.C,R9*%
X45974000Y-222000D03*
X45974000Y1778000D03*
%TD*%
D20*
%TO.C,C8*%
X39094500Y13335000D03*
X41169500Y13335000D03*
%TD*%
D21*
%TO.C,U9*%
X39884000Y9711000D03*
X39084000Y9711000D03*
X38284000Y9711000D03*
X37484000Y9711000D03*
X36684000Y9711000D03*
X35884000Y9711000D03*
X35084000Y9711000D03*
X34284000Y9711000D03*
D22*
X32834000Y8261000D03*
X32834000Y7461000D03*
X32834000Y6661000D03*
X32834000Y5861000D03*
X32834000Y5061000D03*
X32834000Y4261000D03*
X32834000Y3461000D03*
X32834000Y2661000D03*
D21*
X34284000Y1211000D03*
X35084000Y1211000D03*
X35884000Y1211000D03*
X36684000Y1211000D03*
X37484000Y1211000D03*
X38284000Y1211000D03*
X39084000Y1211000D03*
X39884000Y1211000D03*
D22*
X41334000Y2661000D03*
X41334000Y3461000D03*
X41334000Y4261000D03*
X41334000Y5061000D03*
X41334000Y5861000D03*
X41334000Y6661000D03*
X41334000Y7461000D03*
X41334000Y8261000D03*
%TD*%
D23*
%TO.C,R1*%
X1397000Y-20343500D03*
X1397000Y-18518500D03*
%TD*%
D18*
%TO.C,R18*%
X28781500Y18863000D03*
X30781500Y18863000D03*
%TD*%
D17*
%TO.C,U8*%
X29602000Y-20896500D03*
X30252000Y-20896500D03*
X30902000Y-20896500D03*
X31552000Y-20896500D03*
X32202000Y-20896500D03*
X32852000Y-20896500D03*
X33502000Y-20896500D03*
X34152000Y-20896500D03*
X34152000Y-15171500D03*
X33502000Y-15171500D03*
X32852000Y-15171500D03*
X32202000Y-15171500D03*
X31552000Y-15171500D03*
X30902000Y-15171500D03*
X30252000Y-15171500D03*
X29602000Y-15171500D03*
%TD*%
D24*
%TO.C,U11*%
X6520853Y20584000D03*
X6520853Y19734000D03*
X6520853Y18884000D03*
X6520853Y18034000D03*
X6520853Y17184000D03*
X6520853Y16334000D03*
X6520853Y15484000D03*
X6520853Y14634000D03*
X5170853Y14634000D03*
X5170853Y15484000D03*
X5170853Y16334000D03*
X5170853Y17184000D03*
X5170853Y18034000D03*
X5170853Y18884000D03*
X5170853Y19734000D03*
X5170853Y20584000D03*
D25*
X5540853Y21934000D03*
D26*
X1790853Y21934000D03*
D25*
X5540853Y13284000D03*
D26*
X1790853Y13284000D03*
%TD*%
D11*
%TO.C,C18*%
X28982500Y21463000D03*
X30707500Y21463000D03*
%TD*%
D27*
%TO.C,SW1*%
X46065000Y16689000D03*
X46065000Y23189000D03*
X41565000Y16689000D03*
X41565000Y23189000D03*
%TD*%
D12*
%TO.C,R12*%
X5642853Y11132000D03*
X3642853Y11132000D03*
%TD*%
D28*
%TO.C,C7*%
X37946500Y-762000D03*
X36221500Y-762000D03*
%TD*%
D29*
%TO.C,U2*%
X43374000Y-7864750D03*
X42874001Y-7864750D03*
X42374000Y-7864750D03*
X41874001Y-7864750D03*
X41373999Y-7864750D03*
X40874000Y-7864750D03*
X40374001Y-7864750D03*
X39874000Y-7864750D03*
X39374000Y-7864750D03*
X38873999Y-7864750D03*
X38374000Y-7864750D03*
X37874001Y-7864750D03*
X37373999Y-7864750D03*
X36874000Y-7864750D03*
X36373999Y-7864750D03*
X35874000Y-7864750D03*
X35874000Y-20971150D03*
X36373999Y-20971150D03*
X36874000Y-20971150D03*
X37373999Y-20971150D03*
X37874001Y-20971150D03*
X38374000Y-20971150D03*
X38873999Y-20971150D03*
X39374000Y-20971150D03*
X39874000Y-20971150D03*
X40374001Y-20971150D03*
X40874000Y-20971150D03*
X41373999Y-20971150D03*
X41874001Y-20971150D03*
X42374000Y-20971150D03*
X42874001Y-20971150D03*
X43374000Y-20971150D03*
%TD*%
D23*
%TO.C,R2*%
X46990000Y-18311500D03*
X46990000Y-16486500D03*
%TD*%
D30*
%TO.C,C11*%
X8706853Y14153500D03*
X8706853Y12428500D03*
%TD*%
D31*
%TO.C,Y1*%
X33421000Y13335000D03*
X35921000Y13335000D03*
%TD*%
D11*
%TO.C,C6*%
X32792500Y-762000D03*
X34517500Y-762000D03*
%TD*%
D18*
%TO.C,R14*%
X9967453Y16520009D03*
X11967453Y16520009D03*
%TD*%
D32*
%TO.C,J2*%
X47376000Y4714000D03*
D33*
X44836000Y4714000D03*
X47376000Y7254000D03*
X44836000Y7254000D03*
X47376000Y9794000D03*
X44836000Y9794000D03*
%TD*%
D17*
%TO.C,U7*%
X21728000Y-20896500D03*
X22378000Y-20896500D03*
X23028000Y-20896500D03*
X23678000Y-20896500D03*
X24328000Y-20896500D03*
X24978000Y-20896500D03*
X25628000Y-20896500D03*
X26278000Y-20896500D03*
X26278000Y-15171500D03*
X25628000Y-15171500D03*
X24978000Y-15171500D03*
X24328000Y-15171500D03*
X23678000Y-15171500D03*
X23028000Y-15171500D03*
X22378000Y-15171500D03*
X21728000Y-15171500D03*
%TD*%
D18*
%TO.C,R19*%
X28845000Y23876000D03*
X30845000Y23876000D03*
%TD*%
M02*
