%TF.GenerationSoftware,KiCad,Pcbnew,7.0.8*%
%TF.CreationDate,2023-10-06T13:02:47-07:00*%
%TF.ProjectId,Project_1,50726f6a-6563-4745-9f31-2e6b69636164,rev?*%
%TF.SameCoordinates,Original*%
%TF.FileFunction,Drillmap*%
%TF.FilePolarity,Positive*%
%FSLAX45Y45*%
G04 Gerber Fmt 4.5, Leading zero omitted, Abs format (unit mm)*
G04 Created by KiCad (PCBNEW 7.0.8) date 2023-10-06 13:02:47*
%MOMM*%
%LPD*%
G01*
G04 APERTURE LIST*
%ADD10C,0.100000*%
%ADD11C,0.200000*%
G04 APERTURE END LIST*
D10*
X10840000Y-11925000D02*
X6780000Y-11925000D01*
X6780000Y-6050000D01*
X10840000Y-6050000D01*
X10840000Y-11925000D01*
D11*
X7035777Y-12241484D02*
X7035777Y-12041484D01*
X7035777Y-12041484D02*
X7083396Y-12041484D01*
X7083396Y-12041484D02*
X7111967Y-12051008D01*
X7111967Y-12051008D02*
X7131015Y-12070055D01*
X7131015Y-12070055D02*
X7140539Y-12089103D01*
X7140539Y-12089103D02*
X7150062Y-12127198D01*
X7150062Y-12127198D02*
X7150062Y-12155769D01*
X7150062Y-12155769D02*
X7140539Y-12193865D01*
X7140539Y-12193865D02*
X7131015Y-12212912D01*
X7131015Y-12212912D02*
X7111967Y-12231960D01*
X7111967Y-12231960D02*
X7083396Y-12241484D01*
X7083396Y-12241484D02*
X7035777Y-12241484D01*
X7235777Y-12241484D02*
X7235777Y-12108150D01*
X7235777Y-12146246D02*
X7245301Y-12127198D01*
X7245301Y-12127198D02*
X7254824Y-12117674D01*
X7254824Y-12117674D02*
X7273872Y-12108150D01*
X7273872Y-12108150D02*
X7292920Y-12108150D01*
X7359586Y-12241484D02*
X7359586Y-12108150D01*
X7359586Y-12041484D02*
X7350062Y-12051008D01*
X7350062Y-12051008D02*
X7359586Y-12060531D01*
X7359586Y-12060531D02*
X7369110Y-12051008D01*
X7369110Y-12051008D02*
X7359586Y-12041484D01*
X7359586Y-12041484D02*
X7359586Y-12060531D01*
X7483396Y-12241484D02*
X7464348Y-12231960D01*
X7464348Y-12231960D02*
X7454824Y-12212912D01*
X7454824Y-12212912D02*
X7454824Y-12041484D01*
X7588158Y-12241484D02*
X7569110Y-12231960D01*
X7569110Y-12231960D02*
X7559586Y-12212912D01*
X7559586Y-12212912D02*
X7559586Y-12041484D01*
X7816729Y-12241484D02*
X7816729Y-12041484D01*
X7816729Y-12041484D02*
X7883396Y-12184341D01*
X7883396Y-12184341D02*
X7950062Y-12041484D01*
X7950062Y-12041484D02*
X7950062Y-12241484D01*
X8131015Y-12241484D02*
X8131015Y-12136722D01*
X8131015Y-12136722D02*
X8121491Y-12117674D01*
X8121491Y-12117674D02*
X8102443Y-12108150D01*
X8102443Y-12108150D02*
X8064348Y-12108150D01*
X8064348Y-12108150D02*
X8045301Y-12117674D01*
X8131015Y-12231960D02*
X8111967Y-12241484D01*
X8111967Y-12241484D02*
X8064348Y-12241484D01*
X8064348Y-12241484D02*
X8045301Y-12231960D01*
X8045301Y-12231960D02*
X8035777Y-12212912D01*
X8035777Y-12212912D02*
X8035777Y-12193865D01*
X8035777Y-12193865D02*
X8045301Y-12174817D01*
X8045301Y-12174817D02*
X8064348Y-12165293D01*
X8064348Y-12165293D02*
X8111967Y-12165293D01*
X8111967Y-12165293D02*
X8131015Y-12155769D01*
X8226253Y-12108150D02*
X8226253Y-12308150D01*
X8226253Y-12117674D02*
X8245301Y-12108150D01*
X8245301Y-12108150D02*
X8283396Y-12108150D01*
X8283396Y-12108150D02*
X8302443Y-12117674D01*
X8302443Y-12117674D02*
X8311967Y-12127198D01*
X8311967Y-12127198D02*
X8321491Y-12146246D01*
X8321491Y-12146246D02*
X8321491Y-12203388D01*
X8321491Y-12203388D02*
X8311967Y-12222436D01*
X8311967Y-12222436D02*
X8302443Y-12231960D01*
X8302443Y-12231960D02*
X8283396Y-12241484D01*
X8283396Y-12241484D02*
X8245301Y-12241484D01*
X8245301Y-12241484D02*
X8226253Y-12231960D01*
X8407205Y-12222436D02*
X8416729Y-12231960D01*
X8416729Y-12231960D02*
X8407205Y-12241484D01*
X8407205Y-12241484D02*
X8397682Y-12231960D01*
X8397682Y-12231960D02*
X8407205Y-12222436D01*
X8407205Y-12222436D02*
X8407205Y-12241484D01*
X8407205Y-12117674D02*
X8416729Y-12127198D01*
X8416729Y-12127198D02*
X8407205Y-12136722D01*
X8407205Y-12136722D02*
X8397682Y-12127198D01*
X8397682Y-12127198D02*
X8407205Y-12117674D01*
X8407205Y-12117674D02*
X8407205Y-12136722D01*
M02*
