%TF.GenerationSoftware,KiCad,Pcbnew,7.0.8*%
%TF.CreationDate,2023-10-06T13:02:41-07:00*%
%TF.ProjectId,Project_1,50726f6a-6563-4745-9f31-2e6b69636164,rev?*%
%TF.SameCoordinates,Original*%
%TF.FileFunction,Legend,Top*%
%TF.FilePolarity,Positive*%
%FSLAX46Y46*%
G04 Gerber Fmt 4.6, Leading zero omitted, Abs format (unit mm)*
G04 Created by KiCad (PCBNEW 7.0.8) date 2023-10-06 13:02:41*
%MOMM*%
%LPD*%
G01*
G04 APERTURE LIST*
%ADD10C,0.160000*%
G04 APERTURE END LIST*
D10*
X99899498Y-118054299D02*
X99328070Y-118054299D01*
X99613784Y-118054299D02*
X99613784Y-117054299D01*
X99613784Y-117054299D02*
X99518546Y-117197156D01*
X99518546Y-117197156D02*
X99423308Y-117292394D01*
X99423308Y-117292394D02*
X99328070Y-117340013D01*
X101089975Y-118054299D02*
X101089975Y-117054299D01*
X101089975Y-117530489D02*
X101661403Y-117530489D01*
X101661403Y-118054299D02*
X101661403Y-117054299D01*
X102328070Y-117054299D02*
X102518546Y-117054299D01*
X102518546Y-117054299D02*
X102613784Y-117101918D01*
X102613784Y-117101918D02*
X102709022Y-117197156D01*
X102709022Y-117197156D02*
X102756641Y-117387632D01*
X102756641Y-117387632D02*
X102756641Y-117720965D01*
X102756641Y-117720965D02*
X102709022Y-117911441D01*
X102709022Y-117911441D02*
X102613784Y-118006680D01*
X102613784Y-118006680D02*
X102518546Y-118054299D01*
X102518546Y-118054299D02*
X102328070Y-118054299D01*
X102328070Y-118054299D02*
X102232832Y-118006680D01*
X102232832Y-118006680D02*
X102137594Y-117911441D01*
X102137594Y-117911441D02*
X102089975Y-117720965D01*
X102089975Y-117720965D02*
X102089975Y-117387632D01*
X102089975Y-117387632D02*
X102137594Y-117197156D01*
X102137594Y-117197156D02*
X102232832Y-117101918D01*
X102232832Y-117101918D02*
X102328070Y-117054299D01*
X103185213Y-117054299D02*
X103185213Y-117863822D01*
X103185213Y-117863822D02*
X103232832Y-117959060D01*
X103232832Y-117959060D02*
X103280451Y-118006680D01*
X103280451Y-118006680D02*
X103375689Y-118054299D01*
X103375689Y-118054299D02*
X103566165Y-118054299D01*
X103566165Y-118054299D02*
X103661403Y-118006680D01*
X103661403Y-118006680D02*
X103709022Y-117959060D01*
X103709022Y-117959060D02*
X103756641Y-117863822D01*
X103756641Y-117863822D02*
X103756641Y-117054299D01*
X104804260Y-118054299D02*
X104470927Y-117578108D01*
X104232832Y-118054299D02*
X104232832Y-117054299D01*
X104232832Y-117054299D02*
X104613784Y-117054299D01*
X104613784Y-117054299D02*
X104709022Y-117101918D01*
X104709022Y-117101918D02*
X104756641Y-117149537D01*
X104756641Y-117149537D02*
X104804260Y-117244775D01*
X104804260Y-117244775D02*
X104804260Y-117387632D01*
X104804260Y-117387632D02*
X104756641Y-117482870D01*
X104756641Y-117482870D02*
X104709022Y-117530489D01*
X104709022Y-117530489D02*
X104613784Y-117578108D01*
X104613784Y-117578108D02*
X104232832Y-117578108D01*
X69948120Y-117054299D02*
X70567167Y-117054299D01*
X70567167Y-117054299D02*
X70233834Y-117435251D01*
X70233834Y-117435251D02*
X70376691Y-117435251D01*
X70376691Y-117435251D02*
X70471929Y-117482870D01*
X70471929Y-117482870D02*
X70519548Y-117530489D01*
X70519548Y-117530489D02*
X70567167Y-117625727D01*
X70567167Y-117625727D02*
X70567167Y-117863822D01*
X70567167Y-117863822D02*
X70519548Y-117959060D01*
X70519548Y-117959060D02*
X70471929Y-118006680D01*
X70471929Y-118006680D02*
X70376691Y-118054299D01*
X70376691Y-118054299D02*
X70090977Y-118054299D01*
X70090977Y-118054299D02*
X69995739Y-118006680D01*
X69995739Y-118006680D02*
X69948120Y-117959060D01*
X71186215Y-117054299D02*
X71281453Y-117054299D01*
X71281453Y-117054299D02*
X71376691Y-117101918D01*
X71376691Y-117101918D02*
X71424310Y-117149537D01*
X71424310Y-117149537D02*
X71471929Y-117244775D01*
X71471929Y-117244775D02*
X71519548Y-117435251D01*
X71519548Y-117435251D02*
X71519548Y-117673346D01*
X71519548Y-117673346D02*
X71471929Y-117863822D01*
X71471929Y-117863822D02*
X71424310Y-117959060D01*
X71424310Y-117959060D02*
X71376691Y-118006680D01*
X71376691Y-118006680D02*
X71281453Y-118054299D01*
X71281453Y-118054299D02*
X71186215Y-118054299D01*
X71186215Y-118054299D02*
X71090977Y-118006680D01*
X71090977Y-118006680D02*
X71043358Y-117959060D01*
X71043358Y-117959060D02*
X70995739Y-117863822D01*
X70995739Y-117863822D02*
X70948120Y-117673346D01*
X70948120Y-117673346D02*
X70948120Y-117435251D01*
X70948120Y-117435251D02*
X70995739Y-117244775D01*
X70995739Y-117244775D02*
X71043358Y-117149537D01*
X71043358Y-117149537D02*
X71090977Y-117101918D01*
X71090977Y-117101918D02*
X71186215Y-117054299D01*
X72662406Y-118006680D02*
X72805263Y-118054299D01*
X72805263Y-118054299D02*
X73043358Y-118054299D01*
X73043358Y-118054299D02*
X73138596Y-118006680D01*
X73138596Y-118006680D02*
X73186215Y-117959060D01*
X73186215Y-117959060D02*
X73233834Y-117863822D01*
X73233834Y-117863822D02*
X73233834Y-117768584D01*
X73233834Y-117768584D02*
X73186215Y-117673346D01*
X73186215Y-117673346D02*
X73138596Y-117625727D01*
X73138596Y-117625727D02*
X73043358Y-117578108D01*
X73043358Y-117578108D02*
X72852882Y-117530489D01*
X72852882Y-117530489D02*
X72757644Y-117482870D01*
X72757644Y-117482870D02*
X72710025Y-117435251D01*
X72710025Y-117435251D02*
X72662406Y-117340013D01*
X72662406Y-117340013D02*
X72662406Y-117244775D01*
X72662406Y-117244775D02*
X72710025Y-117149537D01*
X72710025Y-117149537D02*
X72757644Y-117101918D01*
X72757644Y-117101918D02*
X72852882Y-117054299D01*
X72852882Y-117054299D02*
X73090977Y-117054299D01*
X73090977Y-117054299D02*
X73233834Y-117101918D01*
X73662406Y-117530489D02*
X73995739Y-117530489D01*
X74138596Y-118054299D02*
X73662406Y-118054299D01*
X73662406Y-118054299D02*
X73662406Y-117054299D01*
X73662406Y-117054299D02*
X74138596Y-117054299D01*
X75138596Y-117959060D02*
X75090977Y-118006680D01*
X75090977Y-118006680D02*
X74948120Y-118054299D01*
X74948120Y-118054299D02*
X74852882Y-118054299D01*
X74852882Y-118054299D02*
X74710025Y-118006680D01*
X74710025Y-118006680D02*
X74614787Y-117911441D01*
X74614787Y-117911441D02*
X74567168Y-117816203D01*
X74567168Y-117816203D02*
X74519549Y-117625727D01*
X74519549Y-117625727D02*
X74519549Y-117482870D01*
X74519549Y-117482870D02*
X74567168Y-117292394D01*
X74567168Y-117292394D02*
X74614787Y-117197156D01*
X74614787Y-117197156D02*
X74710025Y-117101918D01*
X74710025Y-117101918D02*
X74852882Y-117054299D01*
X74852882Y-117054299D02*
X74948120Y-117054299D01*
X74948120Y-117054299D02*
X75090977Y-117101918D01*
X75090977Y-117101918D02*
X75138596Y-117149537D01*
X69011904Y-101751918D02*
X68916666Y-101704299D01*
X68916666Y-101704299D02*
X68773809Y-101704299D01*
X68773809Y-101704299D02*
X68630952Y-101751918D01*
X68630952Y-101751918D02*
X68535714Y-101847156D01*
X68535714Y-101847156D02*
X68488095Y-101942394D01*
X68488095Y-101942394D02*
X68440476Y-102132870D01*
X68440476Y-102132870D02*
X68440476Y-102275727D01*
X68440476Y-102275727D02*
X68488095Y-102466203D01*
X68488095Y-102466203D02*
X68535714Y-102561441D01*
X68535714Y-102561441D02*
X68630952Y-102656680D01*
X68630952Y-102656680D02*
X68773809Y-102704299D01*
X68773809Y-102704299D02*
X68869047Y-102704299D01*
X68869047Y-102704299D02*
X69011904Y-102656680D01*
X69011904Y-102656680D02*
X69059523Y-102609060D01*
X69059523Y-102609060D02*
X69059523Y-102275727D01*
X69059523Y-102275727D02*
X68869047Y-102275727D01*
X88476190Y-64549299D02*
X88809523Y-65549299D01*
X88809523Y-65549299D02*
X89142856Y-64549299D01*
X89666666Y-64549299D02*
X89857142Y-64549299D01*
X89857142Y-64549299D02*
X89952380Y-64596918D01*
X89952380Y-64596918D02*
X90047618Y-64692156D01*
X90047618Y-64692156D02*
X90095237Y-64882632D01*
X90095237Y-64882632D02*
X90095237Y-65215965D01*
X90095237Y-65215965D02*
X90047618Y-65406441D01*
X90047618Y-65406441D02*
X89952380Y-65501680D01*
X89952380Y-65501680D02*
X89857142Y-65549299D01*
X89857142Y-65549299D02*
X89666666Y-65549299D01*
X89666666Y-65549299D02*
X89571428Y-65501680D01*
X89571428Y-65501680D02*
X89476190Y-65406441D01*
X89476190Y-65406441D02*
X89428571Y-65215965D01*
X89428571Y-65215965D02*
X89428571Y-64882632D01*
X89428571Y-64882632D02*
X89476190Y-64692156D01*
X89476190Y-64692156D02*
X89571428Y-64596918D01*
X89571428Y-64596918D02*
X89666666Y-64549299D01*
X90999999Y-65549299D02*
X90523809Y-65549299D01*
X90523809Y-65549299D02*
X90523809Y-64549299D01*
X91190476Y-64549299D02*
X91761904Y-64549299D01*
X91476190Y-65549299D02*
X91476190Y-64549299D01*
X92047619Y-65263584D02*
X92523809Y-65263584D01*
X91952381Y-65549299D02*
X92285714Y-64549299D01*
X92285714Y-64549299D02*
X92619047Y-65549299D01*
X93476190Y-64596918D02*
X93380952Y-64549299D01*
X93380952Y-64549299D02*
X93238095Y-64549299D01*
X93238095Y-64549299D02*
X93095238Y-64596918D01*
X93095238Y-64596918D02*
X93000000Y-64692156D01*
X93000000Y-64692156D02*
X92952381Y-64787394D01*
X92952381Y-64787394D02*
X92904762Y-64977870D01*
X92904762Y-64977870D02*
X92904762Y-65120727D01*
X92904762Y-65120727D02*
X92952381Y-65311203D01*
X92952381Y-65311203D02*
X93000000Y-65406441D01*
X93000000Y-65406441D02*
X93095238Y-65501680D01*
X93095238Y-65501680D02*
X93238095Y-65549299D01*
X93238095Y-65549299D02*
X93333333Y-65549299D01*
X93333333Y-65549299D02*
X93476190Y-65501680D01*
X93476190Y-65501680D02*
X93523809Y-65454060D01*
X93523809Y-65454060D02*
X93523809Y-65120727D01*
X93523809Y-65120727D02*
X93333333Y-65120727D01*
X93952381Y-65025489D02*
X94285714Y-65025489D01*
X94428571Y-65549299D02*
X93952381Y-65549299D01*
X93952381Y-65549299D02*
X93952381Y-64549299D01*
X93952381Y-64549299D02*
X94428571Y-64549299D01*
X87071428Y-66873584D02*
X87547618Y-66873584D01*
X86976190Y-67159299D02*
X87309523Y-66159299D01*
X87309523Y-66159299D02*
X87642856Y-67159299D01*
X87976190Y-67159299D02*
X87976190Y-66159299D01*
X87976190Y-66159299D02*
X88214285Y-66159299D01*
X88214285Y-66159299D02*
X88357142Y-66206918D01*
X88357142Y-66206918D02*
X88452380Y-66302156D01*
X88452380Y-66302156D02*
X88499999Y-66397394D01*
X88499999Y-66397394D02*
X88547618Y-66587870D01*
X88547618Y-66587870D02*
X88547618Y-66730727D01*
X88547618Y-66730727D02*
X88499999Y-66921203D01*
X88499999Y-66921203D02*
X88452380Y-67016441D01*
X88452380Y-67016441D02*
X88357142Y-67111680D01*
X88357142Y-67111680D02*
X88214285Y-67159299D01*
X88214285Y-67159299D02*
X87976190Y-67159299D01*
X89261904Y-66159299D02*
X89261904Y-66873584D01*
X89261904Y-66873584D02*
X89214285Y-67016441D01*
X89214285Y-67016441D02*
X89119047Y-67111680D01*
X89119047Y-67111680D02*
X88976190Y-67159299D01*
X88976190Y-67159299D02*
X88880952Y-67159299D01*
X89738095Y-66159299D02*
X89738095Y-66968822D01*
X89738095Y-66968822D02*
X89785714Y-67064060D01*
X89785714Y-67064060D02*
X89833333Y-67111680D01*
X89833333Y-67111680D02*
X89928571Y-67159299D01*
X89928571Y-67159299D02*
X90119047Y-67159299D01*
X90119047Y-67159299D02*
X90214285Y-67111680D01*
X90214285Y-67111680D02*
X90261904Y-67064060D01*
X90261904Y-67064060D02*
X90309523Y-66968822D01*
X90309523Y-66968822D02*
X90309523Y-66159299D01*
X90738095Y-67111680D02*
X90880952Y-67159299D01*
X90880952Y-67159299D02*
X91119047Y-67159299D01*
X91119047Y-67159299D02*
X91214285Y-67111680D01*
X91214285Y-67111680D02*
X91261904Y-67064060D01*
X91261904Y-67064060D02*
X91309523Y-66968822D01*
X91309523Y-66968822D02*
X91309523Y-66873584D01*
X91309523Y-66873584D02*
X91261904Y-66778346D01*
X91261904Y-66778346D02*
X91214285Y-66730727D01*
X91214285Y-66730727D02*
X91119047Y-66683108D01*
X91119047Y-66683108D02*
X90928571Y-66635489D01*
X90928571Y-66635489D02*
X90833333Y-66587870D01*
X90833333Y-66587870D02*
X90785714Y-66540251D01*
X90785714Y-66540251D02*
X90738095Y-66445013D01*
X90738095Y-66445013D02*
X90738095Y-66349775D01*
X90738095Y-66349775D02*
X90785714Y-66254537D01*
X90785714Y-66254537D02*
X90833333Y-66206918D01*
X90833333Y-66206918D02*
X90928571Y-66159299D01*
X90928571Y-66159299D02*
X91166666Y-66159299D01*
X91166666Y-66159299D02*
X91309523Y-66206918D01*
X91595238Y-66159299D02*
X92166666Y-66159299D01*
X91880952Y-67159299D02*
X91880952Y-66159299D01*
X92500000Y-67159299D02*
X92500000Y-66159299D01*
X92500000Y-66159299D02*
X92833333Y-66873584D01*
X92833333Y-66873584D02*
X93166666Y-66159299D01*
X93166666Y-66159299D02*
X93166666Y-67159299D01*
X93642857Y-66635489D02*
X93976190Y-66635489D01*
X94119047Y-67159299D02*
X93642857Y-67159299D01*
X93642857Y-67159299D02*
X93642857Y-66159299D01*
X93642857Y-66159299D02*
X94119047Y-66159299D01*
X94547619Y-67159299D02*
X94547619Y-66159299D01*
X94547619Y-66159299D02*
X95119047Y-67159299D01*
X95119047Y-67159299D02*
X95119047Y-66159299D01*
X95452381Y-66159299D02*
X96023809Y-66159299D01*
X95738095Y-67159299D02*
X95738095Y-66159299D01*
X97178570Y-86094299D02*
X96845237Y-85618108D01*
X96607142Y-86094299D02*
X96607142Y-85094299D01*
X96607142Y-85094299D02*
X96988094Y-85094299D01*
X96988094Y-85094299D02*
X97083332Y-85141918D01*
X97083332Y-85141918D02*
X97130951Y-85189537D01*
X97130951Y-85189537D02*
X97178570Y-85284775D01*
X97178570Y-85284775D02*
X97178570Y-85427632D01*
X97178570Y-85427632D02*
X97130951Y-85522870D01*
X97130951Y-85522870D02*
X97083332Y-85570489D01*
X97083332Y-85570489D02*
X96988094Y-85618108D01*
X96988094Y-85618108D02*
X96607142Y-85618108D01*
X97988094Y-86046680D02*
X97892856Y-86094299D01*
X97892856Y-86094299D02*
X97702380Y-86094299D01*
X97702380Y-86094299D02*
X97607142Y-86046680D01*
X97607142Y-86046680D02*
X97559523Y-85951441D01*
X97559523Y-85951441D02*
X97559523Y-85570489D01*
X97559523Y-85570489D02*
X97607142Y-85475251D01*
X97607142Y-85475251D02*
X97702380Y-85427632D01*
X97702380Y-85427632D02*
X97892856Y-85427632D01*
X97892856Y-85427632D02*
X97988094Y-85475251D01*
X97988094Y-85475251D02*
X98035713Y-85570489D01*
X98035713Y-85570489D02*
X98035713Y-85665727D01*
X98035713Y-85665727D02*
X97559523Y-85760965D01*
X98845237Y-86046680D02*
X98749999Y-86094299D01*
X98749999Y-86094299D02*
X98559523Y-86094299D01*
X98559523Y-86094299D02*
X98464285Y-86046680D01*
X98464285Y-86046680D02*
X98416666Y-85951441D01*
X98416666Y-85951441D02*
X98416666Y-85570489D01*
X98416666Y-85570489D02*
X98464285Y-85475251D01*
X98464285Y-85475251D02*
X98559523Y-85427632D01*
X98559523Y-85427632D02*
X98749999Y-85427632D01*
X98749999Y-85427632D02*
X98845237Y-85475251D01*
X98845237Y-85475251D02*
X98892856Y-85570489D01*
X98892856Y-85570489D02*
X98892856Y-85665727D01*
X98892856Y-85665727D02*
X98416666Y-85760965D01*
X99749999Y-86046680D02*
X99654761Y-86094299D01*
X99654761Y-86094299D02*
X99464285Y-86094299D01*
X99464285Y-86094299D02*
X99369047Y-86046680D01*
X99369047Y-86046680D02*
X99321428Y-85999060D01*
X99321428Y-85999060D02*
X99273809Y-85903822D01*
X99273809Y-85903822D02*
X99273809Y-85618108D01*
X99273809Y-85618108D02*
X99321428Y-85522870D01*
X99321428Y-85522870D02*
X99369047Y-85475251D01*
X99369047Y-85475251D02*
X99464285Y-85427632D01*
X99464285Y-85427632D02*
X99654761Y-85427632D01*
X99654761Y-85427632D02*
X99749999Y-85475251D01*
X100559523Y-86046680D02*
X100464285Y-86094299D01*
X100464285Y-86094299D02*
X100273809Y-86094299D01*
X100273809Y-86094299D02*
X100178571Y-86046680D01*
X100178571Y-86046680D02*
X100130952Y-85951441D01*
X100130952Y-85951441D02*
X100130952Y-85570489D01*
X100130952Y-85570489D02*
X100178571Y-85475251D01*
X100178571Y-85475251D02*
X100273809Y-85427632D01*
X100273809Y-85427632D02*
X100464285Y-85427632D01*
X100464285Y-85427632D02*
X100559523Y-85475251D01*
X100559523Y-85475251D02*
X100607142Y-85570489D01*
X100607142Y-85570489D02*
X100607142Y-85665727D01*
X100607142Y-85665727D02*
X100130952Y-85760965D01*
X101797619Y-86094299D02*
X101797619Y-85094299D01*
X101797619Y-85094299D02*
X102035714Y-85094299D01*
X102035714Y-85094299D02*
X102178571Y-85141918D01*
X102178571Y-85141918D02*
X102273809Y-85237156D01*
X102273809Y-85237156D02*
X102321428Y-85332394D01*
X102321428Y-85332394D02*
X102369047Y-85522870D01*
X102369047Y-85522870D02*
X102369047Y-85665727D01*
X102369047Y-85665727D02*
X102321428Y-85856203D01*
X102321428Y-85856203D02*
X102273809Y-85951441D01*
X102273809Y-85951441D02*
X102178571Y-86046680D01*
X102178571Y-86046680D02*
X102035714Y-86094299D01*
X102035714Y-86094299D02*
X101797619Y-86094299D01*
X102940476Y-86094299D02*
X102845238Y-86046680D01*
X102845238Y-86046680D02*
X102797619Y-85999060D01*
X102797619Y-85999060D02*
X102750000Y-85903822D01*
X102750000Y-85903822D02*
X102750000Y-85618108D01*
X102750000Y-85618108D02*
X102797619Y-85522870D01*
X102797619Y-85522870D02*
X102845238Y-85475251D01*
X102845238Y-85475251D02*
X102940476Y-85427632D01*
X102940476Y-85427632D02*
X103083333Y-85427632D01*
X103083333Y-85427632D02*
X103178571Y-85475251D01*
X103178571Y-85475251D02*
X103226190Y-85522870D01*
X103226190Y-85522870D02*
X103273809Y-85618108D01*
X103273809Y-85618108D02*
X103273809Y-85903822D01*
X103273809Y-85903822D02*
X103226190Y-85999060D01*
X103226190Y-85999060D02*
X103178571Y-86046680D01*
X103178571Y-86046680D02*
X103083333Y-86094299D01*
X103083333Y-86094299D02*
X102940476Y-86094299D01*
X104130952Y-86094299D02*
X104130952Y-85094299D01*
X104130952Y-86046680D02*
X104035714Y-86094299D01*
X104035714Y-86094299D02*
X103845238Y-86094299D01*
X103845238Y-86094299D02*
X103750000Y-86046680D01*
X103750000Y-86046680D02*
X103702381Y-85999060D01*
X103702381Y-85999060D02*
X103654762Y-85903822D01*
X103654762Y-85903822D02*
X103654762Y-85618108D01*
X103654762Y-85618108D02*
X103702381Y-85522870D01*
X103702381Y-85522870D02*
X103750000Y-85475251D01*
X103750000Y-85475251D02*
X103845238Y-85427632D01*
X103845238Y-85427632D02*
X104035714Y-85427632D01*
X104035714Y-85427632D02*
X104130952Y-85475251D01*
X105035714Y-85427632D02*
X105035714Y-86237156D01*
X105035714Y-86237156D02*
X104988095Y-86332394D01*
X104988095Y-86332394D02*
X104940476Y-86380013D01*
X104940476Y-86380013D02*
X104845238Y-86427632D01*
X104845238Y-86427632D02*
X104702381Y-86427632D01*
X104702381Y-86427632D02*
X104607143Y-86380013D01*
X105035714Y-86046680D02*
X104940476Y-86094299D01*
X104940476Y-86094299D02*
X104750000Y-86094299D01*
X104750000Y-86094299D02*
X104654762Y-86046680D01*
X104654762Y-86046680D02*
X104607143Y-85999060D01*
X104607143Y-85999060D02*
X104559524Y-85903822D01*
X104559524Y-85903822D02*
X104559524Y-85618108D01*
X104559524Y-85618108D02*
X104607143Y-85522870D01*
X104607143Y-85522870D02*
X104654762Y-85475251D01*
X104654762Y-85475251D02*
X104750000Y-85427632D01*
X104750000Y-85427632D02*
X104940476Y-85427632D01*
X104940476Y-85427632D02*
X105035714Y-85475251D01*
X105892857Y-86046680D02*
X105797619Y-86094299D01*
X105797619Y-86094299D02*
X105607143Y-86094299D01*
X105607143Y-86094299D02*
X105511905Y-86046680D01*
X105511905Y-86046680D02*
X105464286Y-85951441D01*
X105464286Y-85951441D02*
X105464286Y-85570489D01*
X105464286Y-85570489D02*
X105511905Y-85475251D01*
X105511905Y-85475251D02*
X105607143Y-85427632D01*
X105607143Y-85427632D02*
X105797619Y-85427632D01*
X105797619Y-85427632D02*
X105892857Y-85475251D01*
X105892857Y-85475251D02*
X105940476Y-85570489D01*
X105940476Y-85570489D02*
X105940476Y-85665727D01*
X105940476Y-85665727D02*
X105464286Y-85760965D01*
X94892856Y-87180489D02*
X95226189Y-87180489D01*
X95369046Y-87704299D02*
X94892856Y-87704299D01*
X94892856Y-87704299D02*
X94892856Y-86704299D01*
X94892856Y-86704299D02*
X95369046Y-86704299D01*
X95797618Y-87180489D02*
X96130951Y-87180489D01*
X96273808Y-87704299D02*
X95797618Y-87704299D01*
X95797618Y-87704299D02*
X95797618Y-86704299D01*
X95797618Y-86704299D02*
X96273808Y-86704299D01*
X97369047Y-86704299D02*
X97988094Y-86704299D01*
X97988094Y-86704299D02*
X97654761Y-87085251D01*
X97654761Y-87085251D02*
X97797618Y-87085251D01*
X97797618Y-87085251D02*
X97892856Y-87132870D01*
X97892856Y-87132870D02*
X97940475Y-87180489D01*
X97940475Y-87180489D02*
X97988094Y-87275727D01*
X97988094Y-87275727D02*
X97988094Y-87513822D01*
X97988094Y-87513822D02*
X97940475Y-87609060D01*
X97940475Y-87609060D02*
X97892856Y-87656680D01*
X97892856Y-87656680D02*
X97797618Y-87704299D01*
X97797618Y-87704299D02*
X97511904Y-87704299D01*
X97511904Y-87704299D02*
X97416666Y-87656680D01*
X97416666Y-87656680D02*
X97369047Y-87609060D01*
X98321428Y-86704299D02*
X98940475Y-86704299D01*
X98940475Y-86704299D02*
X98607142Y-87085251D01*
X98607142Y-87085251D02*
X98749999Y-87085251D01*
X98749999Y-87085251D02*
X98845237Y-87132870D01*
X98845237Y-87132870D02*
X98892856Y-87180489D01*
X98892856Y-87180489D02*
X98940475Y-87275727D01*
X98940475Y-87275727D02*
X98940475Y-87513822D01*
X98940475Y-87513822D02*
X98892856Y-87609060D01*
X98892856Y-87609060D02*
X98845237Y-87656680D01*
X98845237Y-87656680D02*
X98749999Y-87704299D01*
X98749999Y-87704299D02*
X98464285Y-87704299D01*
X98464285Y-87704299D02*
X98369047Y-87656680D01*
X98369047Y-87656680D02*
X98321428Y-87609060D01*
X99273809Y-86704299D02*
X99892856Y-86704299D01*
X99892856Y-86704299D02*
X99559523Y-87085251D01*
X99559523Y-87085251D02*
X99702380Y-87085251D01*
X99702380Y-87085251D02*
X99797618Y-87132870D01*
X99797618Y-87132870D02*
X99845237Y-87180489D01*
X99845237Y-87180489D02*
X99892856Y-87275727D01*
X99892856Y-87275727D02*
X99892856Y-87513822D01*
X99892856Y-87513822D02*
X99845237Y-87609060D01*
X99845237Y-87609060D02*
X99797618Y-87656680D01*
X99797618Y-87656680D02*
X99702380Y-87704299D01*
X99702380Y-87704299D02*
X99416666Y-87704299D01*
X99416666Y-87704299D02*
X99321428Y-87656680D01*
X99321428Y-87656680D02*
X99273809Y-87609060D01*
X101083333Y-87704299D02*
X101083333Y-86704299D01*
X101083333Y-86704299D02*
X101464285Y-86704299D01*
X101464285Y-86704299D02*
X101559523Y-86751918D01*
X101559523Y-86751918D02*
X101607142Y-86799537D01*
X101607142Y-86799537D02*
X101654761Y-86894775D01*
X101654761Y-86894775D02*
X101654761Y-87037632D01*
X101654761Y-87037632D02*
X101607142Y-87132870D01*
X101607142Y-87132870D02*
X101559523Y-87180489D01*
X101559523Y-87180489D02*
X101464285Y-87228108D01*
X101464285Y-87228108D02*
X101083333Y-87228108D01*
X102083333Y-87704299D02*
X102083333Y-87037632D01*
X102083333Y-87228108D02*
X102130952Y-87132870D01*
X102130952Y-87132870D02*
X102178571Y-87085251D01*
X102178571Y-87085251D02*
X102273809Y-87037632D01*
X102273809Y-87037632D02*
X102369047Y-87037632D01*
X102845238Y-87704299D02*
X102750000Y-87656680D01*
X102750000Y-87656680D02*
X102702381Y-87609060D01*
X102702381Y-87609060D02*
X102654762Y-87513822D01*
X102654762Y-87513822D02*
X102654762Y-87228108D01*
X102654762Y-87228108D02*
X102702381Y-87132870D01*
X102702381Y-87132870D02*
X102750000Y-87085251D01*
X102750000Y-87085251D02*
X102845238Y-87037632D01*
X102845238Y-87037632D02*
X102988095Y-87037632D01*
X102988095Y-87037632D02*
X103083333Y-87085251D01*
X103083333Y-87085251D02*
X103130952Y-87132870D01*
X103130952Y-87132870D02*
X103178571Y-87228108D01*
X103178571Y-87228108D02*
X103178571Y-87513822D01*
X103178571Y-87513822D02*
X103130952Y-87609060D01*
X103130952Y-87609060D02*
X103083333Y-87656680D01*
X103083333Y-87656680D02*
X102988095Y-87704299D01*
X102988095Y-87704299D02*
X102845238Y-87704299D01*
X103607143Y-87037632D02*
X103607143Y-87894775D01*
X103607143Y-87894775D02*
X103559524Y-87990013D01*
X103559524Y-87990013D02*
X103464286Y-88037632D01*
X103464286Y-88037632D02*
X103416667Y-88037632D01*
X103607143Y-86704299D02*
X103559524Y-86751918D01*
X103559524Y-86751918D02*
X103607143Y-86799537D01*
X103607143Y-86799537D02*
X103654762Y-86751918D01*
X103654762Y-86751918D02*
X103607143Y-86704299D01*
X103607143Y-86704299D02*
X103607143Y-86799537D01*
X104464285Y-87656680D02*
X104369047Y-87704299D01*
X104369047Y-87704299D02*
X104178571Y-87704299D01*
X104178571Y-87704299D02*
X104083333Y-87656680D01*
X104083333Y-87656680D02*
X104035714Y-87561441D01*
X104035714Y-87561441D02*
X104035714Y-87180489D01*
X104035714Y-87180489D02*
X104083333Y-87085251D01*
X104083333Y-87085251D02*
X104178571Y-87037632D01*
X104178571Y-87037632D02*
X104369047Y-87037632D01*
X104369047Y-87037632D02*
X104464285Y-87085251D01*
X104464285Y-87085251D02*
X104511904Y-87180489D01*
X104511904Y-87180489D02*
X104511904Y-87275727D01*
X104511904Y-87275727D02*
X104035714Y-87370965D01*
X105369047Y-87656680D02*
X105273809Y-87704299D01*
X105273809Y-87704299D02*
X105083333Y-87704299D01*
X105083333Y-87704299D02*
X104988095Y-87656680D01*
X104988095Y-87656680D02*
X104940476Y-87609060D01*
X104940476Y-87609060D02*
X104892857Y-87513822D01*
X104892857Y-87513822D02*
X104892857Y-87228108D01*
X104892857Y-87228108D02*
X104940476Y-87132870D01*
X104940476Y-87132870D02*
X104988095Y-87085251D01*
X104988095Y-87085251D02*
X105083333Y-87037632D01*
X105083333Y-87037632D02*
X105273809Y-87037632D01*
X105273809Y-87037632D02*
X105369047Y-87085251D01*
X105654762Y-87037632D02*
X106035714Y-87037632D01*
X105797619Y-86704299D02*
X105797619Y-87561441D01*
X105797619Y-87561441D02*
X105845238Y-87656680D01*
X105845238Y-87656680D02*
X105940476Y-87704299D01*
X105940476Y-87704299D02*
X106035714Y-87704299D01*
X107654762Y-87704299D02*
X107083334Y-87704299D01*
X107369048Y-87704299D02*
X107369048Y-86704299D01*
X107369048Y-86704299D02*
X107273810Y-86847156D01*
X107273810Y-86847156D02*
X107178572Y-86942394D01*
X107178572Y-86942394D02*
X107083334Y-86990013D01*
X98130951Y-88790489D02*
X97797618Y-88790489D01*
X97797618Y-89314299D02*
X97797618Y-88314299D01*
X97797618Y-88314299D02*
X98273808Y-88314299D01*
X99083332Y-89314299D02*
X99083332Y-88790489D01*
X99083332Y-88790489D02*
X99035713Y-88695251D01*
X99035713Y-88695251D02*
X98940475Y-88647632D01*
X98940475Y-88647632D02*
X98749999Y-88647632D01*
X98749999Y-88647632D02*
X98654761Y-88695251D01*
X99083332Y-89266680D02*
X98988094Y-89314299D01*
X98988094Y-89314299D02*
X98749999Y-89314299D01*
X98749999Y-89314299D02*
X98654761Y-89266680D01*
X98654761Y-89266680D02*
X98607142Y-89171441D01*
X98607142Y-89171441D02*
X98607142Y-89076203D01*
X98607142Y-89076203D02*
X98654761Y-88980965D01*
X98654761Y-88980965D02*
X98749999Y-88933346D01*
X98749999Y-88933346D02*
X98988094Y-88933346D01*
X98988094Y-88933346D02*
X99083332Y-88885727D01*
X99702380Y-89314299D02*
X99607142Y-89266680D01*
X99607142Y-89266680D02*
X99559523Y-89171441D01*
X99559523Y-89171441D02*
X99559523Y-88314299D01*
X100226190Y-89314299D02*
X100130952Y-89266680D01*
X100130952Y-89266680D02*
X100083333Y-89171441D01*
X100083333Y-89171441D02*
X100083333Y-88314299D01*
X101321429Y-88409537D02*
X101369048Y-88361918D01*
X101369048Y-88361918D02*
X101464286Y-88314299D01*
X101464286Y-88314299D02*
X101702381Y-88314299D01*
X101702381Y-88314299D02*
X101797619Y-88361918D01*
X101797619Y-88361918D02*
X101845238Y-88409537D01*
X101845238Y-88409537D02*
X101892857Y-88504775D01*
X101892857Y-88504775D02*
X101892857Y-88600013D01*
X101892857Y-88600013D02*
X101845238Y-88742870D01*
X101845238Y-88742870D02*
X101273810Y-89314299D01*
X101273810Y-89314299D02*
X101892857Y-89314299D01*
X102511905Y-88314299D02*
X102607143Y-88314299D01*
X102607143Y-88314299D02*
X102702381Y-88361918D01*
X102702381Y-88361918D02*
X102750000Y-88409537D01*
X102750000Y-88409537D02*
X102797619Y-88504775D01*
X102797619Y-88504775D02*
X102845238Y-88695251D01*
X102845238Y-88695251D02*
X102845238Y-88933346D01*
X102845238Y-88933346D02*
X102797619Y-89123822D01*
X102797619Y-89123822D02*
X102750000Y-89219060D01*
X102750000Y-89219060D02*
X102702381Y-89266680D01*
X102702381Y-89266680D02*
X102607143Y-89314299D01*
X102607143Y-89314299D02*
X102511905Y-89314299D01*
X102511905Y-89314299D02*
X102416667Y-89266680D01*
X102416667Y-89266680D02*
X102369048Y-89219060D01*
X102369048Y-89219060D02*
X102321429Y-89123822D01*
X102321429Y-89123822D02*
X102273810Y-88933346D01*
X102273810Y-88933346D02*
X102273810Y-88695251D01*
X102273810Y-88695251D02*
X102321429Y-88504775D01*
X102321429Y-88504775D02*
X102369048Y-88409537D01*
X102369048Y-88409537D02*
X102416667Y-88361918D01*
X102416667Y-88361918D02*
X102511905Y-88314299D01*
X103226191Y-88409537D02*
X103273810Y-88361918D01*
X103273810Y-88361918D02*
X103369048Y-88314299D01*
X103369048Y-88314299D02*
X103607143Y-88314299D01*
X103607143Y-88314299D02*
X103702381Y-88361918D01*
X103702381Y-88361918D02*
X103750000Y-88409537D01*
X103750000Y-88409537D02*
X103797619Y-88504775D01*
X103797619Y-88504775D02*
X103797619Y-88600013D01*
X103797619Y-88600013D02*
X103750000Y-88742870D01*
X103750000Y-88742870D02*
X103178572Y-89314299D01*
X103178572Y-89314299D02*
X103797619Y-89314299D01*
X104130953Y-88314299D02*
X104750000Y-88314299D01*
X104750000Y-88314299D02*
X104416667Y-88695251D01*
X104416667Y-88695251D02*
X104559524Y-88695251D01*
X104559524Y-88695251D02*
X104654762Y-88742870D01*
X104654762Y-88742870D02*
X104702381Y-88790489D01*
X104702381Y-88790489D02*
X104750000Y-88885727D01*
X104750000Y-88885727D02*
X104750000Y-89123822D01*
X104750000Y-89123822D02*
X104702381Y-89219060D01*
X104702381Y-89219060D02*
X104654762Y-89266680D01*
X104654762Y-89266680D02*
X104559524Y-89314299D01*
X104559524Y-89314299D02*
X104273810Y-89314299D01*
X104273810Y-89314299D02*
X104178572Y-89266680D01*
X104178572Y-89266680D02*
X104130953Y-89219060D01*
X98545739Y-65071680D02*
X98688596Y-65119299D01*
X98688596Y-65119299D02*
X98926691Y-65119299D01*
X98926691Y-65119299D02*
X99021929Y-65071680D01*
X99021929Y-65071680D02*
X99069548Y-65024060D01*
X99069548Y-65024060D02*
X99117167Y-64928822D01*
X99117167Y-64928822D02*
X99117167Y-64833584D01*
X99117167Y-64833584D02*
X99069548Y-64738346D01*
X99069548Y-64738346D02*
X99021929Y-64690727D01*
X99021929Y-64690727D02*
X98926691Y-64643108D01*
X98926691Y-64643108D02*
X98736215Y-64595489D01*
X98736215Y-64595489D02*
X98640977Y-64547870D01*
X98640977Y-64547870D02*
X98593358Y-64500251D01*
X98593358Y-64500251D02*
X98545739Y-64405013D01*
X98545739Y-64405013D02*
X98545739Y-64309775D01*
X98545739Y-64309775D02*
X98593358Y-64214537D01*
X98593358Y-64214537D02*
X98640977Y-64166918D01*
X98640977Y-64166918D02*
X98736215Y-64119299D01*
X98736215Y-64119299D02*
X98974310Y-64119299D01*
X98974310Y-64119299D02*
X99117167Y-64166918D01*
X99402882Y-64119299D02*
X99974310Y-64119299D01*
X99688596Y-65119299D02*
X99688596Y-64119299D01*
X100260025Y-64833584D02*
X100736215Y-64833584D01*
X100164787Y-65119299D02*
X100498120Y-64119299D01*
X100498120Y-64119299D02*
X100831453Y-65119299D01*
X101736215Y-65119299D02*
X101402882Y-64643108D01*
X101164787Y-65119299D02*
X101164787Y-64119299D01*
X101164787Y-64119299D02*
X101545739Y-64119299D01*
X101545739Y-64119299D02*
X101640977Y-64166918D01*
X101640977Y-64166918D02*
X101688596Y-64214537D01*
X101688596Y-64214537D02*
X101736215Y-64309775D01*
X101736215Y-64309775D02*
X101736215Y-64452632D01*
X101736215Y-64452632D02*
X101688596Y-64547870D01*
X101688596Y-64547870D02*
X101640977Y-64595489D01*
X101640977Y-64595489D02*
X101545739Y-64643108D01*
X101545739Y-64643108D02*
X101164787Y-64643108D01*
X102021930Y-64119299D02*
X102593358Y-64119299D01*
X102307644Y-65119299D02*
X102307644Y-64119299D01*
X70595238Y-82354299D02*
X70785714Y-82354299D01*
X70785714Y-82354299D02*
X70880952Y-82401918D01*
X70880952Y-82401918D02*
X70976190Y-82497156D01*
X70976190Y-82497156D02*
X71023809Y-82687632D01*
X71023809Y-82687632D02*
X71023809Y-83020965D01*
X71023809Y-83020965D02*
X70976190Y-83211441D01*
X70976190Y-83211441D02*
X70880952Y-83306680D01*
X70880952Y-83306680D02*
X70785714Y-83354299D01*
X70785714Y-83354299D02*
X70595238Y-83354299D01*
X70595238Y-83354299D02*
X70500000Y-83306680D01*
X70500000Y-83306680D02*
X70404762Y-83211441D01*
X70404762Y-83211441D02*
X70357143Y-83020965D01*
X70357143Y-83020965D02*
X70357143Y-82687632D01*
X70357143Y-82687632D02*
X70404762Y-82497156D01*
X70404762Y-82497156D02*
X70500000Y-82401918D01*
X70500000Y-82401918D02*
X70595238Y-82354299D01*
X71452381Y-82354299D02*
X71452381Y-83163822D01*
X71452381Y-83163822D02*
X71500000Y-83259060D01*
X71500000Y-83259060D02*
X71547619Y-83306680D01*
X71547619Y-83306680D02*
X71642857Y-83354299D01*
X71642857Y-83354299D02*
X71833333Y-83354299D01*
X71833333Y-83354299D02*
X71928571Y-83306680D01*
X71928571Y-83306680D02*
X71976190Y-83259060D01*
X71976190Y-83259060D02*
X72023809Y-83163822D01*
X72023809Y-83163822D02*
X72023809Y-82354299D01*
X72357143Y-82354299D02*
X72928571Y-82354299D01*
X72642857Y-83354299D02*
X72642857Y-82354299D01*
X73261905Y-83354299D02*
X73261905Y-82354299D01*
X73261905Y-82354299D02*
X73642857Y-82354299D01*
X73642857Y-82354299D02*
X73738095Y-82401918D01*
X73738095Y-82401918D02*
X73785714Y-82449537D01*
X73785714Y-82449537D02*
X73833333Y-82544775D01*
X73833333Y-82544775D02*
X73833333Y-82687632D01*
X73833333Y-82687632D02*
X73785714Y-82782870D01*
X73785714Y-82782870D02*
X73738095Y-82830489D01*
X73738095Y-82830489D02*
X73642857Y-82878108D01*
X73642857Y-82878108D02*
X73261905Y-82878108D01*
X74261905Y-82354299D02*
X74261905Y-83163822D01*
X74261905Y-83163822D02*
X74309524Y-83259060D01*
X74309524Y-83259060D02*
X74357143Y-83306680D01*
X74357143Y-83306680D02*
X74452381Y-83354299D01*
X74452381Y-83354299D02*
X74642857Y-83354299D01*
X74642857Y-83354299D02*
X74738095Y-83306680D01*
X74738095Y-83306680D02*
X74785714Y-83259060D01*
X74785714Y-83259060D02*
X74833333Y-83163822D01*
X74833333Y-83163822D02*
X74833333Y-82354299D01*
X75166667Y-82354299D02*
X75738095Y-82354299D01*
X75452381Y-83354299D02*
X75452381Y-82354299D01*
X80852381Y-117054299D02*
X81423809Y-117054299D01*
X81138095Y-118054299D02*
X81138095Y-117054299D01*
X81757143Y-118054299D02*
X81757143Y-117054299D01*
X82233333Y-118054299D02*
X82233333Y-117054299D01*
X82233333Y-117054299D02*
X82566666Y-117768584D01*
X82566666Y-117768584D02*
X82899999Y-117054299D01*
X82899999Y-117054299D02*
X82899999Y-118054299D01*
X83376190Y-117530489D02*
X83709523Y-117530489D01*
X83852380Y-118054299D02*
X83376190Y-118054299D01*
X83376190Y-118054299D02*
X83376190Y-117054299D01*
X83376190Y-117054299D02*
X83852380Y-117054299D01*
X84995238Y-117768584D02*
X85471428Y-117768584D01*
X84900000Y-118054299D02*
X85233333Y-117054299D01*
X85233333Y-117054299D02*
X85566666Y-118054299D01*
X85900000Y-118054299D02*
X85900000Y-117054299D01*
X85900000Y-117054299D02*
X86138095Y-117054299D01*
X86138095Y-117054299D02*
X86280952Y-117101918D01*
X86280952Y-117101918D02*
X86376190Y-117197156D01*
X86376190Y-117197156D02*
X86423809Y-117292394D01*
X86423809Y-117292394D02*
X86471428Y-117482870D01*
X86471428Y-117482870D02*
X86471428Y-117625727D01*
X86471428Y-117625727D02*
X86423809Y-117816203D01*
X86423809Y-117816203D02*
X86376190Y-117911441D01*
X86376190Y-117911441D02*
X86280952Y-118006680D01*
X86280952Y-118006680D02*
X86138095Y-118054299D01*
X86138095Y-118054299D02*
X85900000Y-118054299D01*
X87185714Y-117054299D02*
X87185714Y-117768584D01*
X87185714Y-117768584D02*
X87138095Y-117911441D01*
X87138095Y-117911441D02*
X87042857Y-118006680D01*
X87042857Y-118006680D02*
X86900000Y-118054299D01*
X86900000Y-118054299D02*
X86804762Y-118054299D01*
X87661905Y-117054299D02*
X87661905Y-117863822D01*
X87661905Y-117863822D02*
X87709524Y-117959060D01*
X87709524Y-117959060D02*
X87757143Y-118006680D01*
X87757143Y-118006680D02*
X87852381Y-118054299D01*
X87852381Y-118054299D02*
X88042857Y-118054299D01*
X88042857Y-118054299D02*
X88138095Y-118006680D01*
X88138095Y-118006680D02*
X88185714Y-117959060D01*
X88185714Y-117959060D02*
X88233333Y-117863822D01*
X88233333Y-117863822D02*
X88233333Y-117054299D01*
X88661905Y-118006680D02*
X88804762Y-118054299D01*
X88804762Y-118054299D02*
X89042857Y-118054299D01*
X89042857Y-118054299D02*
X89138095Y-118006680D01*
X89138095Y-118006680D02*
X89185714Y-117959060D01*
X89185714Y-117959060D02*
X89233333Y-117863822D01*
X89233333Y-117863822D02*
X89233333Y-117768584D01*
X89233333Y-117768584D02*
X89185714Y-117673346D01*
X89185714Y-117673346D02*
X89138095Y-117625727D01*
X89138095Y-117625727D02*
X89042857Y-117578108D01*
X89042857Y-117578108D02*
X88852381Y-117530489D01*
X88852381Y-117530489D02*
X88757143Y-117482870D01*
X88757143Y-117482870D02*
X88709524Y-117435251D01*
X88709524Y-117435251D02*
X88661905Y-117340013D01*
X88661905Y-117340013D02*
X88661905Y-117244775D01*
X88661905Y-117244775D02*
X88709524Y-117149537D01*
X88709524Y-117149537D02*
X88757143Y-117101918D01*
X88757143Y-117101918D02*
X88852381Y-117054299D01*
X88852381Y-117054299D02*
X89090476Y-117054299D01*
X89090476Y-117054299D02*
X89233333Y-117101918D01*
X89519048Y-117054299D02*
X90090476Y-117054299D01*
X89804762Y-118054299D02*
X89804762Y-117054299D01*
X90423810Y-118054299D02*
X90423810Y-117054299D01*
X90423810Y-117054299D02*
X90757143Y-117768584D01*
X90757143Y-117768584D02*
X91090476Y-117054299D01*
X91090476Y-117054299D02*
X91090476Y-118054299D01*
X91566667Y-117530489D02*
X91900000Y-117530489D01*
X92042857Y-118054299D02*
X91566667Y-118054299D01*
X91566667Y-118054299D02*
X91566667Y-117054299D01*
X91566667Y-117054299D02*
X92042857Y-117054299D01*
X92471429Y-118054299D02*
X92471429Y-117054299D01*
X92471429Y-117054299D02*
X93042857Y-118054299D01*
X93042857Y-118054299D02*
X93042857Y-117054299D01*
X93376191Y-117054299D02*
X93947619Y-117054299D01*
X93661905Y-118054299D02*
X93661905Y-117054299D01*
X77119048Y-93473346D02*
X77880953Y-93473346D01*
X77500000Y-93854299D02*
X77500000Y-93092394D01*
X77419048Y-84673346D02*
X78180953Y-84673346D01*
X69844299Y-71666666D02*
X70844299Y-71333333D01*
X70844299Y-71333333D02*
X69844299Y-71000000D01*
X70558584Y-70714285D02*
X70558584Y-70238095D01*
X70844299Y-70809523D02*
X69844299Y-70476190D01*
X69844299Y-70476190D02*
X70844299Y-70142857D01*
X70844299Y-69238095D02*
X70368108Y-69571428D01*
X70844299Y-69809523D02*
X69844299Y-69809523D01*
X69844299Y-69809523D02*
X69844299Y-69428571D01*
X69844299Y-69428571D02*
X69891918Y-69333333D01*
X69891918Y-69333333D02*
X69939537Y-69285714D01*
X69939537Y-69285714D02*
X70034775Y-69238095D01*
X70034775Y-69238095D02*
X70177632Y-69238095D01*
X70177632Y-69238095D02*
X70272870Y-69285714D01*
X70272870Y-69285714D02*
X70320489Y-69333333D01*
X70320489Y-69333333D02*
X70368108Y-69428571D01*
X70368108Y-69428571D02*
X70368108Y-69809523D01*
X70844299Y-68809523D02*
X69844299Y-68809523D01*
X70558584Y-68380952D02*
X70558584Y-67904762D01*
X70844299Y-68476190D02*
X69844299Y-68142857D01*
X69844299Y-68142857D02*
X70844299Y-67809524D01*
X70320489Y-67142857D02*
X70368108Y-67000000D01*
X70368108Y-67000000D02*
X70415727Y-66952381D01*
X70415727Y-66952381D02*
X70510965Y-66904762D01*
X70510965Y-66904762D02*
X70653822Y-66904762D01*
X70653822Y-66904762D02*
X70749060Y-66952381D01*
X70749060Y-66952381D02*
X70796680Y-67000000D01*
X70796680Y-67000000D02*
X70844299Y-67095238D01*
X70844299Y-67095238D02*
X70844299Y-67476190D01*
X70844299Y-67476190D02*
X69844299Y-67476190D01*
X69844299Y-67476190D02*
X69844299Y-67142857D01*
X69844299Y-67142857D02*
X69891918Y-67047619D01*
X69891918Y-67047619D02*
X69939537Y-67000000D01*
X69939537Y-67000000D02*
X70034775Y-66952381D01*
X70034775Y-66952381D02*
X70130013Y-66952381D01*
X70130013Y-66952381D02*
X70225251Y-67000000D01*
X70225251Y-67000000D02*
X70272870Y-67047619D01*
X70272870Y-67047619D02*
X70320489Y-67142857D01*
X70320489Y-67142857D02*
X70320489Y-67476190D01*
X70844299Y-66000000D02*
X70844299Y-66476190D01*
X70844299Y-66476190D02*
X69844299Y-66476190D01*
X70320489Y-65666666D02*
X70320489Y-65333333D01*
X70844299Y-65190476D02*
X70844299Y-65666666D01*
X70844299Y-65666666D02*
X69844299Y-65666666D01*
X69844299Y-65666666D02*
X69844299Y-65190476D01*
X70844299Y-63999999D02*
X69844299Y-63999999D01*
X69844299Y-63999999D02*
X69844299Y-63761904D01*
X69844299Y-63761904D02*
X69891918Y-63619047D01*
X69891918Y-63619047D02*
X69987156Y-63523809D01*
X69987156Y-63523809D02*
X70082394Y-63476190D01*
X70082394Y-63476190D02*
X70272870Y-63428571D01*
X70272870Y-63428571D02*
X70415727Y-63428571D01*
X70415727Y-63428571D02*
X70606203Y-63476190D01*
X70606203Y-63476190D02*
X70701441Y-63523809D01*
X70701441Y-63523809D02*
X70796680Y-63619047D01*
X70796680Y-63619047D02*
X70844299Y-63761904D01*
X70844299Y-63761904D02*
X70844299Y-63999999D01*
X70749060Y-62428571D02*
X70796680Y-62476190D01*
X70796680Y-62476190D02*
X70844299Y-62619047D01*
X70844299Y-62619047D02*
X70844299Y-62714285D01*
X70844299Y-62714285D02*
X70796680Y-62857142D01*
X70796680Y-62857142D02*
X70701441Y-62952380D01*
X70701441Y-62952380D02*
X70606203Y-62999999D01*
X70606203Y-62999999D02*
X70415727Y-63047618D01*
X70415727Y-63047618D02*
X70272870Y-63047618D01*
X70272870Y-63047618D02*
X70082394Y-62999999D01*
X70082394Y-62999999D02*
X69987156Y-62952380D01*
X69987156Y-62952380D02*
X69891918Y-62857142D01*
X69891918Y-62857142D02*
X69844299Y-62714285D01*
X69844299Y-62714285D02*
X69844299Y-62619047D01*
X69844299Y-62619047D02*
X69891918Y-62476190D01*
X69891918Y-62476190D02*
X69939537Y-62428571D01*
X71454299Y-71976189D02*
X71454299Y-71404761D01*
X72454299Y-71690475D02*
X71454299Y-71690475D01*
X72454299Y-71071427D02*
X71454299Y-71071427D01*
X72454299Y-70595237D02*
X71454299Y-70595237D01*
X71454299Y-70595237D02*
X72168584Y-70261904D01*
X72168584Y-70261904D02*
X71454299Y-69928571D01*
X71454299Y-69928571D02*
X72454299Y-69928571D01*
X71930489Y-69452380D02*
X71930489Y-69119047D01*
X72454299Y-68976190D02*
X72454299Y-69452380D01*
X72454299Y-69452380D02*
X71454299Y-69452380D01*
X71454299Y-69452380D02*
X71454299Y-68976190D01*
X72454299Y-67976190D02*
X71978108Y-68309523D01*
X72454299Y-68547618D02*
X71454299Y-68547618D01*
X71454299Y-68547618D02*
X71454299Y-68166666D01*
X71454299Y-68166666D02*
X71501918Y-68071428D01*
X71501918Y-68071428D02*
X71549537Y-68023809D01*
X71549537Y-68023809D02*
X71644775Y-67976190D01*
X71644775Y-67976190D02*
X71787632Y-67976190D01*
X71787632Y-67976190D02*
X71882870Y-68023809D01*
X71882870Y-68023809D02*
X71930489Y-68071428D01*
X71930489Y-68071428D02*
X71978108Y-68166666D01*
X71978108Y-68166666D02*
X71978108Y-68547618D01*
X72454299Y-66785713D02*
X71454299Y-66785713D01*
X71454299Y-66785713D02*
X71454299Y-66404761D01*
X71454299Y-66404761D02*
X71501918Y-66309523D01*
X71501918Y-66309523D02*
X71549537Y-66261904D01*
X71549537Y-66261904D02*
X71644775Y-66214285D01*
X71644775Y-66214285D02*
X71787632Y-66214285D01*
X71787632Y-66214285D02*
X71882870Y-66261904D01*
X71882870Y-66261904D02*
X71930489Y-66309523D01*
X71930489Y-66309523D02*
X71978108Y-66404761D01*
X71978108Y-66404761D02*
X71978108Y-66785713D01*
X71454299Y-65595237D02*
X71454299Y-65404761D01*
X71454299Y-65404761D02*
X71501918Y-65309523D01*
X71501918Y-65309523D02*
X71597156Y-65214285D01*
X71597156Y-65214285D02*
X71787632Y-65166666D01*
X71787632Y-65166666D02*
X72120965Y-65166666D01*
X72120965Y-65166666D02*
X72311441Y-65214285D01*
X72311441Y-65214285D02*
X72406680Y-65309523D01*
X72406680Y-65309523D02*
X72454299Y-65404761D01*
X72454299Y-65404761D02*
X72454299Y-65595237D01*
X72454299Y-65595237D02*
X72406680Y-65690475D01*
X72406680Y-65690475D02*
X72311441Y-65785713D01*
X72311441Y-65785713D02*
X72120965Y-65833332D01*
X72120965Y-65833332D02*
X71787632Y-65833332D01*
X71787632Y-65833332D02*
X71597156Y-65785713D01*
X71597156Y-65785713D02*
X71501918Y-65690475D01*
X71501918Y-65690475D02*
X71454299Y-65595237D01*
X71454299Y-64833332D02*
X72454299Y-64595237D01*
X72454299Y-64595237D02*
X71740013Y-64404761D01*
X71740013Y-64404761D02*
X72454299Y-64214285D01*
X72454299Y-64214285D02*
X71454299Y-63976190D01*
X71930489Y-63595237D02*
X71930489Y-63261904D01*
X72454299Y-63119047D02*
X72454299Y-63595237D01*
X72454299Y-63595237D02*
X71454299Y-63595237D01*
X71454299Y-63595237D02*
X71454299Y-63119047D01*
X72454299Y-62119047D02*
X71978108Y-62452380D01*
X72454299Y-62690475D02*
X71454299Y-62690475D01*
X71454299Y-62690475D02*
X71454299Y-62309523D01*
X71454299Y-62309523D02*
X71501918Y-62214285D01*
X71501918Y-62214285D02*
X71549537Y-62166666D01*
X71549537Y-62166666D02*
X71644775Y-62119047D01*
X71644775Y-62119047D02*
X71787632Y-62119047D01*
X71787632Y-62119047D02*
X71882870Y-62166666D01*
X71882870Y-62166666D02*
X71930489Y-62214285D01*
X71930489Y-62214285D02*
X71978108Y-62309523D01*
X71978108Y-62309523D02*
X71978108Y-62690475D01*
X74016680Y-69642856D02*
X74064299Y-69499999D01*
X74064299Y-69499999D02*
X74064299Y-69261904D01*
X74064299Y-69261904D02*
X74016680Y-69166666D01*
X74016680Y-69166666D02*
X73969060Y-69119047D01*
X73969060Y-69119047D02*
X73873822Y-69071428D01*
X73873822Y-69071428D02*
X73778584Y-69071428D01*
X73778584Y-69071428D02*
X73683346Y-69119047D01*
X73683346Y-69119047D02*
X73635727Y-69166666D01*
X73635727Y-69166666D02*
X73588108Y-69261904D01*
X73588108Y-69261904D02*
X73540489Y-69452380D01*
X73540489Y-69452380D02*
X73492870Y-69547618D01*
X73492870Y-69547618D02*
X73445251Y-69595237D01*
X73445251Y-69595237D02*
X73350013Y-69642856D01*
X73350013Y-69642856D02*
X73254775Y-69642856D01*
X73254775Y-69642856D02*
X73159537Y-69595237D01*
X73159537Y-69595237D02*
X73111918Y-69547618D01*
X73111918Y-69547618D02*
X73064299Y-69452380D01*
X73064299Y-69452380D02*
X73064299Y-69214285D01*
X73064299Y-69214285D02*
X73111918Y-69071428D01*
X73064299Y-68642856D02*
X73873822Y-68642856D01*
X73873822Y-68642856D02*
X73969060Y-68595237D01*
X73969060Y-68595237D02*
X74016680Y-68547618D01*
X74016680Y-68547618D02*
X74064299Y-68452380D01*
X74064299Y-68452380D02*
X74064299Y-68261904D01*
X74064299Y-68261904D02*
X74016680Y-68166666D01*
X74016680Y-68166666D02*
X73969060Y-68119047D01*
X73969060Y-68119047D02*
X73873822Y-68071428D01*
X73873822Y-68071428D02*
X73064299Y-68071428D01*
X74064299Y-67595237D02*
X73064299Y-67595237D01*
X73064299Y-67595237D02*
X73064299Y-67214285D01*
X73064299Y-67214285D02*
X73111918Y-67119047D01*
X73111918Y-67119047D02*
X73159537Y-67071428D01*
X73159537Y-67071428D02*
X73254775Y-67023809D01*
X73254775Y-67023809D02*
X73397632Y-67023809D01*
X73397632Y-67023809D02*
X73492870Y-67071428D01*
X73492870Y-67071428D02*
X73540489Y-67119047D01*
X73540489Y-67119047D02*
X73588108Y-67214285D01*
X73588108Y-67214285D02*
X73588108Y-67595237D01*
X74064299Y-66595237D02*
X73064299Y-66595237D01*
X73064299Y-66595237D02*
X73064299Y-66214285D01*
X73064299Y-66214285D02*
X73111918Y-66119047D01*
X73111918Y-66119047D02*
X73159537Y-66071428D01*
X73159537Y-66071428D02*
X73254775Y-66023809D01*
X73254775Y-66023809D02*
X73397632Y-66023809D01*
X73397632Y-66023809D02*
X73492870Y-66071428D01*
X73492870Y-66071428D02*
X73540489Y-66119047D01*
X73540489Y-66119047D02*
X73588108Y-66214285D01*
X73588108Y-66214285D02*
X73588108Y-66595237D01*
X74064299Y-65119047D02*
X74064299Y-65595237D01*
X74064299Y-65595237D02*
X73064299Y-65595237D01*
X73588108Y-64595237D02*
X74064299Y-64595237D01*
X73064299Y-64928570D02*
X73588108Y-64595237D01*
X73588108Y-64595237D02*
X73064299Y-64261904D01*
X89734299Y-88738094D02*
X88734299Y-88738094D01*
X88734299Y-88738094D02*
X88734299Y-88499999D01*
X88734299Y-88499999D02*
X88781918Y-88357142D01*
X88781918Y-88357142D02*
X88877156Y-88261904D01*
X88877156Y-88261904D02*
X88972394Y-88214285D01*
X88972394Y-88214285D02*
X89162870Y-88166666D01*
X89162870Y-88166666D02*
X89305727Y-88166666D01*
X89305727Y-88166666D02*
X89496203Y-88214285D01*
X89496203Y-88214285D02*
X89591441Y-88261904D01*
X89591441Y-88261904D02*
X89686680Y-88357142D01*
X89686680Y-88357142D02*
X89734299Y-88499999D01*
X89734299Y-88499999D02*
X89734299Y-88738094D01*
X89734299Y-87214285D02*
X89734299Y-87785713D01*
X89734299Y-87499999D02*
X88734299Y-87499999D01*
X88734299Y-87499999D02*
X88877156Y-87595237D01*
X88877156Y-87595237D02*
X88972394Y-87690475D01*
X88972394Y-87690475D02*
X89020013Y-87785713D01*
X90104299Y-93341904D02*
X89104299Y-93341904D01*
X90104299Y-92770476D02*
X89532870Y-93199047D01*
X89104299Y-92770476D02*
X89675727Y-93341904D01*
X69583333Y-109204299D02*
X69250000Y-108728108D01*
X69011905Y-109204299D02*
X69011905Y-108204299D01*
X69011905Y-108204299D02*
X69392857Y-108204299D01*
X69392857Y-108204299D02*
X69488095Y-108251918D01*
X69488095Y-108251918D02*
X69535714Y-108299537D01*
X69535714Y-108299537D02*
X69583333Y-108394775D01*
X69583333Y-108394775D02*
X69583333Y-108537632D01*
X69583333Y-108537632D02*
X69535714Y-108632870D01*
X69535714Y-108632870D02*
X69488095Y-108680489D01*
X69488095Y-108680489D02*
X69392857Y-108728108D01*
X69392857Y-108728108D02*
X69011905Y-108728108D01*
X69964286Y-108299537D02*
X70011905Y-108251918D01*
X70011905Y-108251918D02*
X70107143Y-108204299D01*
X70107143Y-108204299D02*
X70345238Y-108204299D01*
X70345238Y-108204299D02*
X70440476Y-108251918D01*
X70440476Y-108251918D02*
X70488095Y-108299537D01*
X70488095Y-108299537D02*
X70535714Y-108394775D01*
X70535714Y-108394775D02*
X70535714Y-108490013D01*
X70535714Y-108490013D02*
X70488095Y-108632870D01*
X70488095Y-108632870D02*
X69916667Y-109204299D01*
X69916667Y-109204299D02*
X70535714Y-109204299D01*
X90235833Y-102179060D02*
X90188214Y-102226680D01*
X90188214Y-102226680D02*
X90045357Y-102274299D01*
X90045357Y-102274299D02*
X89950119Y-102274299D01*
X89950119Y-102274299D02*
X89807262Y-102226680D01*
X89807262Y-102226680D02*
X89712024Y-102131441D01*
X89712024Y-102131441D02*
X89664405Y-102036203D01*
X89664405Y-102036203D02*
X89616786Y-101845727D01*
X89616786Y-101845727D02*
X89616786Y-101702870D01*
X89616786Y-101702870D02*
X89664405Y-101512394D01*
X89664405Y-101512394D02*
X89712024Y-101417156D01*
X89712024Y-101417156D02*
X89807262Y-101321918D01*
X89807262Y-101321918D02*
X89950119Y-101274299D01*
X89950119Y-101274299D02*
X90045357Y-101274299D01*
X90045357Y-101274299D02*
X90188214Y-101321918D01*
X90188214Y-101321918D02*
X90235833Y-101369537D01*
X91092976Y-101607632D02*
X91092976Y-102274299D01*
X90854881Y-101226680D02*
X90616786Y-101940965D01*
X90616786Y-101940965D02*
X91235833Y-101940965D01*
X80966666Y-72554299D02*
X80966666Y-73268584D01*
X80966666Y-73268584D02*
X80919047Y-73411441D01*
X80919047Y-73411441D02*
X80823809Y-73506680D01*
X80823809Y-73506680D02*
X80680952Y-73554299D01*
X80680952Y-73554299D02*
X80585714Y-73554299D01*
X81966666Y-73554299D02*
X81395238Y-73554299D01*
X81680952Y-73554299D02*
X81680952Y-72554299D01*
X81680952Y-72554299D02*
X81585714Y-72697156D01*
X81585714Y-72697156D02*
X81490476Y-72792394D01*
X81490476Y-72792394D02*
X81395238Y-72840013D01*
X88404761Y-105704299D02*
X88071428Y-105228108D01*
X87833333Y-105704299D02*
X87833333Y-104704299D01*
X87833333Y-104704299D02*
X88214285Y-104704299D01*
X88214285Y-104704299D02*
X88309523Y-104751918D01*
X88309523Y-104751918D02*
X88357142Y-104799537D01*
X88357142Y-104799537D02*
X88404761Y-104894775D01*
X88404761Y-104894775D02*
X88404761Y-105037632D01*
X88404761Y-105037632D02*
X88357142Y-105132870D01*
X88357142Y-105132870D02*
X88309523Y-105180489D01*
X88309523Y-105180489D02*
X88214285Y-105228108D01*
X88214285Y-105228108D02*
X87833333Y-105228108D01*
X88690476Y-104704299D02*
X89023809Y-105704299D01*
X89023809Y-105704299D02*
X89357142Y-104704299D01*
X89642857Y-104799537D02*
X89690476Y-104751918D01*
X89690476Y-104751918D02*
X89785714Y-104704299D01*
X89785714Y-104704299D02*
X90023809Y-104704299D01*
X90023809Y-104704299D02*
X90119047Y-104751918D01*
X90119047Y-104751918D02*
X90166666Y-104799537D01*
X90166666Y-104799537D02*
X90214285Y-104894775D01*
X90214285Y-104894775D02*
X90214285Y-104990013D01*
X90214285Y-104990013D02*
X90166666Y-105132870D01*
X90166666Y-105132870D02*
X89595238Y-105704299D01*
X89595238Y-105704299D02*
X90214285Y-105704299D01*
X76619047Y-114930489D02*
X76952380Y-114930489D01*
X77095237Y-115454299D02*
X76619047Y-115454299D01*
X76619047Y-115454299D02*
X76619047Y-114454299D01*
X76619047Y-114454299D02*
X77095237Y-114454299D01*
X78571428Y-115835251D02*
X78523809Y-115787632D01*
X78523809Y-115787632D02*
X78428571Y-115644775D01*
X78428571Y-115644775D02*
X78380952Y-115549537D01*
X78380952Y-115549537D02*
X78333333Y-115406680D01*
X78333333Y-115406680D02*
X78285714Y-115168584D01*
X78285714Y-115168584D02*
X78285714Y-114978108D01*
X78285714Y-114978108D02*
X78333333Y-114740013D01*
X78333333Y-114740013D02*
X78380952Y-114597156D01*
X78380952Y-114597156D02*
X78428571Y-114501918D01*
X78428571Y-114501918D02*
X78523809Y-114359060D01*
X78523809Y-114359060D02*
X78571428Y-114311441D01*
X78952381Y-115073346D02*
X79714286Y-115073346D01*
X80095238Y-115835251D02*
X80142857Y-115787632D01*
X80142857Y-115787632D02*
X80238095Y-115644775D01*
X80238095Y-115644775D02*
X80285714Y-115549537D01*
X80285714Y-115549537D02*
X80333333Y-115406680D01*
X80333333Y-115406680D02*
X80380952Y-115168584D01*
X80380952Y-115168584D02*
X80380952Y-114978108D01*
X80380952Y-114978108D02*
X80333333Y-114740013D01*
X80333333Y-114740013D02*
X80285714Y-114597156D01*
X80285714Y-114597156D02*
X80238095Y-114501918D01*
X80238095Y-114501918D02*
X80142857Y-114359060D01*
X80142857Y-114359060D02*
X80095238Y-114311441D01*
X76904761Y-112380489D02*
X77047618Y-112428108D01*
X77047618Y-112428108D02*
X77095237Y-112475727D01*
X77095237Y-112475727D02*
X77142856Y-112570965D01*
X77142856Y-112570965D02*
X77142856Y-112713822D01*
X77142856Y-112713822D02*
X77095237Y-112809060D01*
X77095237Y-112809060D02*
X77047618Y-112856680D01*
X77047618Y-112856680D02*
X76952380Y-112904299D01*
X76952380Y-112904299D02*
X76571428Y-112904299D01*
X76571428Y-112904299D02*
X76571428Y-111904299D01*
X76571428Y-111904299D02*
X76904761Y-111904299D01*
X76904761Y-111904299D02*
X76999999Y-111951918D01*
X76999999Y-111951918D02*
X77047618Y-111999537D01*
X77047618Y-111999537D02*
X77095237Y-112094775D01*
X77095237Y-112094775D02*
X77095237Y-112190013D01*
X77095237Y-112190013D02*
X77047618Y-112285251D01*
X77047618Y-112285251D02*
X76999999Y-112332870D01*
X76999999Y-112332870D02*
X76904761Y-112380489D01*
X76904761Y-112380489D02*
X76571428Y-112380489D01*
X78619047Y-113285251D02*
X78571428Y-113237632D01*
X78571428Y-113237632D02*
X78476190Y-113094775D01*
X78476190Y-113094775D02*
X78428571Y-112999537D01*
X78428571Y-112999537D02*
X78380952Y-112856680D01*
X78380952Y-112856680D02*
X78333333Y-112618584D01*
X78333333Y-112618584D02*
X78333333Y-112428108D01*
X78333333Y-112428108D02*
X78380952Y-112190013D01*
X78380952Y-112190013D02*
X78428571Y-112047156D01*
X78428571Y-112047156D02*
X78476190Y-111951918D01*
X78476190Y-111951918D02*
X78571428Y-111809060D01*
X78571428Y-111809060D02*
X78619047Y-111761441D01*
X79000000Y-112523346D02*
X79761905Y-112523346D01*
X79380952Y-112904299D02*
X79380952Y-112142394D01*
X80142857Y-113285251D02*
X80190476Y-113237632D01*
X80190476Y-113237632D02*
X80285714Y-113094775D01*
X80285714Y-113094775D02*
X80333333Y-112999537D01*
X80333333Y-112999537D02*
X80380952Y-112856680D01*
X80380952Y-112856680D02*
X80428571Y-112618584D01*
X80428571Y-112618584D02*
X80428571Y-112428108D01*
X80428571Y-112428108D02*
X80380952Y-112190013D01*
X80380952Y-112190013D02*
X80333333Y-112047156D01*
X80333333Y-112047156D02*
X80285714Y-111951918D01*
X80285714Y-111951918D02*
X80190476Y-111809060D01*
X80190476Y-111809060D02*
X80142857Y-111761441D01*
X101821428Y-114980489D02*
X101964285Y-115028108D01*
X101964285Y-115028108D02*
X102011904Y-115075727D01*
X102011904Y-115075727D02*
X102059523Y-115170965D01*
X102059523Y-115170965D02*
X102059523Y-115313822D01*
X102059523Y-115313822D02*
X102011904Y-115409060D01*
X102011904Y-115409060D02*
X101964285Y-115456680D01*
X101964285Y-115456680D02*
X101869047Y-115504299D01*
X101869047Y-115504299D02*
X101488095Y-115504299D01*
X101488095Y-115504299D02*
X101488095Y-114504299D01*
X101488095Y-114504299D02*
X101821428Y-114504299D01*
X101821428Y-114504299D02*
X101916666Y-114551918D01*
X101916666Y-114551918D02*
X101964285Y-114599537D01*
X101964285Y-114599537D02*
X102011904Y-114694775D01*
X102011904Y-114694775D02*
X102011904Y-114790013D01*
X102011904Y-114790013D02*
X101964285Y-114885251D01*
X101964285Y-114885251D02*
X101916666Y-114932870D01*
X101916666Y-114932870D02*
X101821428Y-114980489D01*
X101821428Y-114980489D02*
X101488095Y-114980489D01*
X81954299Y-114492857D02*
X81954299Y-114969047D01*
X81954299Y-114969047D02*
X80954299Y-114969047D01*
X81430489Y-114159523D02*
X81430489Y-113826190D01*
X81954299Y-113683333D02*
X81954299Y-114159523D01*
X81954299Y-114159523D02*
X80954299Y-114159523D01*
X80954299Y-114159523D02*
X80954299Y-113683333D01*
X81954299Y-113254761D02*
X80954299Y-113254761D01*
X80954299Y-113254761D02*
X80954299Y-113016666D01*
X80954299Y-113016666D02*
X81001918Y-112873809D01*
X81001918Y-112873809D02*
X81097156Y-112778571D01*
X81097156Y-112778571D02*
X81192394Y-112730952D01*
X81192394Y-112730952D02*
X81382870Y-112683333D01*
X81382870Y-112683333D02*
X81525727Y-112683333D01*
X81525727Y-112683333D02*
X81716203Y-112730952D01*
X81716203Y-112730952D02*
X81811441Y-112778571D01*
X81811441Y-112778571D02*
X81906680Y-112873809D01*
X81906680Y-112873809D02*
X81954299Y-113016666D01*
X81954299Y-113016666D02*
X81954299Y-113254761D01*
X76654762Y-106999537D02*
X76702381Y-106951918D01*
X76702381Y-106951918D02*
X76797619Y-106904299D01*
X76797619Y-106904299D02*
X77035714Y-106904299D01*
X77035714Y-106904299D02*
X77130952Y-106951918D01*
X77130952Y-106951918D02*
X77178571Y-106999537D01*
X77178571Y-106999537D02*
X77226190Y-107094775D01*
X77226190Y-107094775D02*
X77226190Y-107190013D01*
X77226190Y-107190013D02*
X77178571Y-107332870D01*
X77178571Y-107332870D02*
X76607143Y-107904299D01*
X76607143Y-107904299D02*
X77226190Y-107904299D01*
X78702381Y-108285251D02*
X78654762Y-108237632D01*
X78654762Y-108237632D02*
X78559524Y-108094775D01*
X78559524Y-108094775D02*
X78511905Y-107999537D01*
X78511905Y-107999537D02*
X78464286Y-107856680D01*
X78464286Y-107856680D02*
X78416667Y-107618584D01*
X78416667Y-107618584D02*
X78416667Y-107428108D01*
X78416667Y-107428108D02*
X78464286Y-107190013D01*
X78464286Y-107190013D02*
X78511905Y-107047156D01*
X78511905Y-107047156D02*
X78559524Y-106951918D01*
X78559524Y-106951918D02*
X78654762Y-106809060D01*
X78654762Y-106809060D02*
X78702381Y-106761441D01*
X78988096Y-106904299D02*
X79226191Y-107904299D01*
X79226191Y-107904299D02*
X79416667Y-107190013D01*
X79416667Y-107190013D02*
X79607143Y-107904299D01*
X79607143Y-107904299D02*
X79845239Y-106904299D01*
X80226191Y-107904299D02*
X80226191Y-106904299D01*
X80702381Y-107904299D02*
X80702381Y-106904299D01*
X80702381Y-106904299D02*
X81083333Y-106904299D01*
X81083333Y-106904299D02*
X81178571Y-106951918D01*
X81178571Y-106951918D02*
X81226190Y-106999537D01*
X81226190Y-106999537D02*
X81273809Y-107094775D01*
X81273809Y-107094775D02*
X81273809Y-107237632D01*
X81273809Y-107237632D02*
X81226190Y-107332870D01*
X81226190Y-107332870D02*
X81178571Y-107380489D01*
X81178571Y-107380489D02*
X81083333Y-107428108D01*
X81083333Y-107428108D02*
X80702381Y-107428108D01*
X81702381Y-107380489D02*
X82035714Y-107380489D01*
X82178571Y-107904299D02*
X81702381Y-107904299D01*
X81702381Y-107904299D02*
X81702381Y-106904299D01*
X81702381Y-106904299D02*
X82178571Y-106904299D01*
X83178571Y-107904299D02*
X82845238Y-107428108D01*
X82607143Y-107904299D02*
X82607143Y-106904299D01*
X82607143Y-106904299D02*
X82988095Y-106904299D01*
X82988095Y-106904299D02*
X83083333Y-106951918D01*
X83083333Y-106951918D02*
X83130952Y-106999537D01*
X83130952Y-106999537D02*
X83178571Y-107094775D01*
X83178571Y-107094775D02*
X83178571Y-107237632D01*
X83178571Y-107237632D02*
X83130952Y-107332870D01*
X83130952Y-107332870D02*
X83083333Y-107380489D01*
X83083333Y-107380489D02*
X82988095Y-107428108D01*
X82988095Y-107428108D02*
X82607143Y-107428108D01*
X83511905Y-108285251D02*
X83559524Y-108237632D01*
X83559524Y-108237632D02*
X83654762Y-108094775D01*
X83654762Y-108094775D02*
X83702381Y-107999537D01*
X83702381Y-107999537D02*
X83750000Y-107856680D01*
X83750000Y-107856680D02*
X83797619Y-107618584D01*
X83797619Y-107618584D02*
X83797619Y-107428108D01*
X83797619Y-107428108D02*
X83750000Y-107190013D01*
X83750000Y-107190013D02*
X83702381Y-107047156D01*
X83702381Y-107047156D02*
X83654762Y-106951918D01*
X83654762Y-106951918D02*
X83559524Y-106809060D01*
X83559524Y-106809060D02*
X83511905Y-106761441D01*
X77285714Y-110454299D02*
X76714286Y-110454299D01*
X77000000Y-110454299D02*
X77000000Y-109454299D01*
X77000000Y-109454299D02*
X76904762Y-109597156D01*
X76904762Y-109597156D02*
X76809524Y-109692394D01*
X76809524Y-109692394D02*
X76714286Y-109740013D01*
X101416667Y-109404299D02*
X102035714Y-109404299D01*
X102035714Y-109404299D02*
X101702381Y-109785251D01*
X101702381Y-109785251D02*
X101845238Y-109785251D01*
X101845238Y-109785251D02*
X101940476Y-109832870D01*
X101940476Y-109832870D02*
X101988095Y-109880489D01*
X101988095Y-109880489D02*
X102035714Y-109975727D01*
X102035714Y-109975727D02*
X102035714Y-110213822D01*
X102035714Y-110213822D02*
X101988095Y-110309060D01*
X101988095Y-110309060D02*
X101940476Y-110356680D01*
X101940476Y-110356680D02*
X101845238Y-110404299D01*
X101845238Y-110404299D02*
X101559524Y-110404299D01*
X101559524Y-110404299D02*
X101464286Y-110356680D01*
X101464286Y-110356680D02*
X101416667Y-110309060D01*
X83058095Y-104754299D02*
X83058095Y-105563822D01*
X83058095Y-105563822D02*
X83105714Y-105659060D01*
X83105714Y-105659060D02*
X83153333Y-105706680D01*
X83153333Y-105706680D02*
X83248571Y-105754299D01*
X83248571Y-105754299D02*
X83439047Y-105754299D01*
X83439047Y-105754299D02*
X83534285Y-105706680D01*
X83534285Y-105706680D02*
X83581904Y-105659060D01*
X83581904Y-105659060D02*
X83629523Y-105563822D01*
X83629523Y-105563822D02*
X83629523Y-104754299D01*
X84058095Y-104849537D02*
X84105714Y-104801918D01*
X84105714Y-104801918D02*
X84200952Y-104754299D01*
X84200952Y-104754299D02*
X84439047Y-104754299D01*
X84439047Y-104754299D02*
X84534285Y-104801918D01*
X84534285Y-104801918D02*
X84581904Y-104849537D01*
X84581904Y-104849537D02*
X84629523Y-104944775D01*
X84629523Y-104944775D02*
X84629523Y-105040013D01*
X84629523Y-105040013D02*
X84581904Y-105182870D01*
X84581904Y-105182870D02*
X84010476Y-105754299D01*
X84010476Y-105754299D02*
X84629523Y-105754299D01*
X82198095Y-91224299D02*
X82198095Y-92033822D01*
X82198095Y-92033822D02*
X82245714Y-92129060D01*
X82245714Y-92129060D02*
X82293333Y-92176680D01*
X82293333Y-92176680D02*
X82388571Y-92224299D01*
X82388571Y-92224299D02*
X82579047Y-92224299D01*
X82579047Y-92224299D02*
X82674285Y-92176680D01*
X82674285Y-92176680D02*
X82721904Y-92129060D01*
X82721904Y-92129060D02*
X82769523Y-92033822D01*
X82769523Y-92033822D02*
X82769523Y-91224299D01*
X83769523Y-92224299D02*
X83198095Y-92224299D01*
X83483809Y-92224299D02*
X83483809Y-91224299D01*
X83483809Y-91224299D02*
X83388571Y-91367156D01*
X83388571Y-91367156D02*
X83293333Y-91462394D01*
X83293333Y-91462394D02*
X83198095Y-91510013D01*
X84333333Y-80084299D02*
X84000000Y-79608108D01*
X83761905Y-80084299D02*
X83761905Y-79084299D01*
X83761905Y-79084299D02*
X84142857Y-79084299D01*
X84142857Y-79084299D02*
X84238095Y-79131918D01*
X84238095Y-79131918D02*
X84285714Y-79179537D01*
X84285714Y-79179537D02*
X84333333Y-79274775D01*
X84333333Y-79274775D02*
X84333333Y-79417632D01*
X84333333Y-79417632D02*
X84285714Y-79512870D01*
X84285714Y-79512870D02*
X84238095Y-79560489D01*
X84238095Y-79560489D02*
X84142857Y-79608108D01*
X84142857Y-79608108D02*
X83761905Y-79608108D01*
X85285714Y-80084299D02*
X84714286Y-80084299D01*
X85000000Y-80084299D02*
X85000000Y-79084299D01*
X85000000Y-79084299D02*
X84904762Y-79227156D01*
X84904762Y-79227156D02*
X84809524Y-79322394D01*
X84809524Y-79322394D02*
X84714286Y-79370013D01*
X79233333Y-79979060D02*
X79185714Y-80026680D01*
X79185714Y-80026680D02*
X79042857Y-80074299D01*
X79042857Y-80074299D02*
X78947619Y-80074299D01*
X78947619Y-80074299D02*
X78804762Y-80026680D01*
X78804762Y-80026680D02*
X78709524Y-79931441D01*
X78709524Y-79931441D02*
X78661905Y-79836203D01*
X78661905Y-79836203D02*
X78614286Y-79645727D01*
X78614286Y-79645727D02*
X78614286Y-79502870D01*
X78614286Y-79502870D02*
X78661905Y-79312394D01*
X78661905Y-79312394D02*
X78709524Y-79217156D01*
X78709524Y-79217156D02*
X78804762Y-79121918D01*
X78804762Y-79121918D02*
X78947619Y-79074299D01*
X78947619Y-79074299D02*
X79042857Y-79074299D01*
X79042857Y-79074299D02*
X79185714Y-79121918D01*
X79185714Y-79121918D02*
X79233333Y-79169537D01*
X80185714Y-80074299D02*
X79614286Y-80074299D01*
X79900000Y-80074299D02*
X79900000Y-79074299D01*
X79900000Y-79074299D02*
X79804762Y-79217156D01*
X79804762Y-79217156D02*
X79709524Y-79312394D01*
X79709524Y-79312394D02*
X79614286Y-79360013D01*
X77133333Y-104354299D02*
X76800000Y-103878108D01*
X76561905Y-104354299D02*
X76561905Y-103354299D01*
X76561905Y-103354299D02*
X76942857Y-103354299D01*
X76942857Y-103354299D02*
X77038095Y-103401918D01*
X77038095Y-103401918D02*
X77085714Y-103449537D01*
X77085714Y-103449537D02*
X77133333Y-103544775D01*
X77133333Y-103544775D02*
X77133333Y-103687632D01*
X77133333Y-103687632D02*
X77085714Y-103782870D01*
X77085714Y-103782870D02*
X77038095Y-103830489D01*
X77038095Y-103830489D02*
X76942857Y-103878108D01*
X76942857Y-103878108D02*
X76561905Y-103878108D01*
X77466667Y-103354299D02*
X78085714Y-103354299D01*
X78085714Y-103354299D02*
X77752381Y-103735251D01*
X77752381Y-103735251D02*
X77895238Y-103735251D01*
X77895238Y-103735251D02*
X77990476Y-103782870D01*
X77990476Y-103782870D02*
X78038095Y-103830489D01*
X78038095Y-103830489D02*
X78085714Y-103925727D01*
X78085714Y-103925727D02*
X78085714Y-104163822D01*
X78085714Y-104163822D02*
X78038095Y-104259060D01*
X78038095Y-104259060D02*
X77990476Y-104306680D01*
X77990476Y-104306680D02*
X77895238Y-104354299D01*
X77895238Y-104354299D02*
X77609524Y-104354299D01*
X77609524Y-104354299D02*
X77514286Y-104306680D01*
X77514286Y-104306680D02*
X77466667Y-104259060D01*
X90904761Y-71254299D02*
X90571428Y-70778108D01*
X90333333Y-71254299D02*
X90333333Y-70254299D01*
X90333333Y-70254299D02*
X90714285Y-70254299D01*
X90714285Y-70254299D02*
X90809523Y-70301918D01*
X90809523Y-70301918D02*
X90857142Y-70349537D01*
X90857142Y-70349537D02*
X90904761Y-70444775D01*
X90904761Y-70444775D02*
X90904761Y-70587632D01*
X90904761Y-70587632D02*
X90857142Y-70682870D01*
X90857142Y-70682870D02*
X90809523Y-70730489D01*
X90809523Y-70730489D02*
X90714285Y-70778108D01*
X90714285Y-70778108D02*
X90333333Y-70778108D01*
X91190476Y-70254299D02*
X91523809Y-71254299D01*
X91523809Y-71254299D02*
X91857142Y-70254299D01*
X92714285Y-71254299D02*
X92142857Y-71254299D01*
X92428571Y-71254299D02*
X92428571Y-70254299D01*
X92428571Y-70254299D02*
X92333333Y-70397156D01*
X92333333Y-70397156D02*
X92238095Y-70492394D01*
X92238095Y-70492394D02*
X92142857Y-70540013D01*
X82624299Y-96686666D02*
X82148108Y-97019999D01*
X82624299Y-97258094D02*
X81624299Y-97258094D01*
X81624299Y-97258094D02*
X81624299Y-96877142D01*
X81624299Y-96877142D02*
X81671918Y-96781904D01*
X81671918Y-96781904D02*
X81719537Y-96734285D01*
X81719537Y-96734285D02*
X81814775Y-96686666D01*
X81814775Y-96686666D02*
X81957632Y-96686666D01*
X81957632Y-96686666D02*
X82052870Y-96734285D01*
X82052870Y-96734285D02*
X82100489Y-96781904D01*
X82100489Y-96781904D02*
X82148108Y-96877142D01*
X82148108Y-96877142D02*
X82148108Y-97258094D01*
X81957632Y-95829523D02*
X82624299Y-95829523D01*
X81576680Y-96067618D02*
X82290965Y-96305713D01*
X82290965Y-96305713D02*
X82290965Y-95686666D01*
X100266667Y-81906680D02*
X100409524Y-81954299D01*
X100409524Y-81954299D02*
X100647619Y-81954299D01*
X100647619Y-81954299D02*
X100742857Y-81906680D01*
X100742857Y-81906680D02*
X100790476Y-81859060D01*
X100790476Y-81859060D02*
X100838095Y-81763822D01*
X100838095Y-81763822D02*
X100838095Y-81668584D01*
X100838095Y-81668584D02*
X100790476Y-81573346D01*
X100790476Y-81573346D02*
X100742857Y-81525727D01*
X100742857Y-81525727D02*
X100647619Y-81478108D01*
X100647619Y-81478108D02*
X100457143Y-81430489D01*
X100457143Y-81430489D02*
X100361905Y-81382870D01*
X100361905Y-81382870D02*
X100314286Y-81335251D01*
X100314286Y-81335251D02*
X100266667Y-81240013D01*
X100266667Y-81240013D02*
X100266667Y-81144775D01*
X100266667Y-81144775D02*
X100314286Y-81049537D01*
X100314286Y-81049537D02*
X100361905Y-81001918D01*
X100361905Y-81001918D02*
X100457143Y-80954299D01*
X100457143Y-80954299D02*
X100695238Y-80954299D01*
X100695238Y-80954299D02*
X100838095Y-81001918D01*
X101171429Y-80954299D02*
X101409524Y-81954299D01*
X101409524Y-81954299D02*
X101600000Y-81240013D01*
X101600000Y-81240013D02*
X101790476Y-81954299D01*
X101790476Y-81954299D02*
X102028572Y-80954299D01*
X102933333Y-81954299D02*
X102361905Y-81954299D01*
X102647619Y-81954299D02*
X102647619Y-80954299D01*
X102647619Y-80954299D02*
X102552381Y-81097156D01*
X102552381Y-81097156D02*
X102457143Y-81192394D01*
X102457143Y-81192394D02*
X102361905Y-81240013D01*
X71738095Y-88354299D02*
X72309523Y-88354299D01*
X72023809Y-89354299D02*
X72023809Y-88354299D01*
X72976190Y-88830489D02*
X73119047Y-88878108D01*
X73119047Y-88878108D02*
X73166666Y-88925727D01*
X73166666Y-88925727D02*
X73214285Y-89020965D01*
X73214285Y-89020965D02*
X73214285Y-89163822D01*
X73214285Y-89163822D02*
X73166666Y-89259060D01*
X73166666Y-89259060D02*
X73119047Y-89306680D01*
X73119047Y-89306680D02*
X73023809Y-89354299D01*
X73023809Y-89354299D02*
X72642857Y-89354299D01*
X72642857Y-89354299D02*
X72642857Y-88354299D01*
X72642857Y-88354299D02*
X72976190Y-88354299D01*
X72976190Y-88354299D02*
X73071428Y-88401918D01*
X73071428Y-88401918D02*
X73119047Y-88449537D01*
X73119047Y-88449537D02*
X73166666Y-88544775D01*
X73166666Y-88544775D02*
X73166666Y-88640013D01*
X73166666Y-88640013D02*
X73119047Y-88735251D01*
X73119047Y-88735251D02*
X73071428Y-88782870D01*
X73071428Y-88782870D02*
X72976190Y-88830489D01*
X72976190Y-88830489D02*
X72642857Y-88830489D01*
X74166666Y-89354299D02*
X73595238Y-89354299D01*
X73880952Y-89354299D02*
X73880952Y-88354299D01*
X73880952Y-88354299D02*
X73785714Y-88497156D01*
X73785714Y-88497156D02*
X73690476Y-88592394D01*
X73690476Y-88592394D02*
X73595238Y-88640013D01*
X104133333Y-104859060D02*
X104085714Y-104906680D01*
X104085714Y-104906680D02*
X103942857Y-104954299D01*
X103942857Y-104954299D02*
X103847619Y-104954299D01*
X103847619Y-104954299D02*
X103704762Y-104906680D01*
X103704762Y-104906680D02*
X103609524Y-104811441D01*
X103609524Y-104811441D02*
X103561905Y-104716203D01*
X103561905Y-104716203D02*
X103514286Y-104525727D01*
X103514286Y-104525727D02*
X103514286Y-104382870D01*
X103514286Y-104382870D02*
X103561905Y-104192394D01*
X103561905Y-104192394D02*
X103609524Y-104097156D01*
X103609524Y-104097156D02*
X103704762Y-104001918D01*
X103704762Y-104001918D02*
X103847619Y-103954299D01*
X103847619Y-103954299D02*
X103942857Y-103954299D01*
X103942857Y-103954299D02*
X104085714Y-104001918D01*
X104085714Y-104001918D02*
X104133333Y-104049537D01*
X104466667Y-103954299D02*
X105085714Y-103954299D01*
X105085714Y-103954299D02*
X104752381Y-104335251D01*
X104752381Y-104335251D02*
X104895238Y-104335251D01*
X104895238Y-104335251D02*
X104990476Y-104382870D01*
X104990476Y-104382870D02*
X105038095Y-104430489D01*
X105038095Y-104430489D02*
X105085714Y-104525727D01*
X105085714Y-104525727D02*
X105085714Y-104763822D01*
X105085714Y-104763822D02*
X105038095Y-104859060D01*
X105038095Y-104859060D02*
X104990476Y-104906680D01*
X104990476Y-104906680D02*
X104895238Y-104954299D01*
X104895238Y-104954299D02*
X104609524Y-104954299D01*
X104609524Y-104954299D02*
X104514286Y-104906680D01*
X104514286Y-104906680D02*
X104466667Y-104859060D01*
X69279537Y-99845238D02*
X69231918Y-99940476D01*
X69231918Y-99940476D02*
X69136680Y-100035714D01*
X69136680Y-100035714D02*
X68993822Y-100178571D01*
X68993822Y-100178571D02*
X68946203Y-100273809D01*
X68946203Y-100273809D02*
X68946203Y-100369047D01*
X69184299Y-100321428D02*
X69136680Y-100416666D01*
X69136680Y-100416666D02*
X69041441Y-100511904D01*
X69041441Y-100511904D02*
X68850965Y-100559523D01*
X68850965Y-100559523D02*
X68517632Y-100559523D01*
X68517632Y-100559523D02*
X68327156Y-100511904D01*
X68327156Y-100511904D02*
X68231918Y-100416666D01*
X68231918Y-100416666D02*
X68184299Y-100321428D01*
X68184299Y-100321428D02*
X68184299Y-100130952D01*
X68184299Y-100130952D02*
X68231918Y-100035714D01*
X68231918Y-100035714D02*
X68327156Y-99940476D01*
X68327156Y-99940476D02*
X68517632Y-99892857D01*
X68517632Y-99892857D02*
X68850965Y-99892857D01*
X68850965Y-99892857D02*
X69041441Y-99940476D01*
X69041441Y-99940476D02*
X69136680Y-100035714D01*
X69136680Y-100035714D02*
X69184299Y-100130952D01*
X69184299Y-100130952D02*
X69184299Y-100321428D01*
X69184299Y-98940476D02*
X69184299Y-99511904D01*
X69184299Y-99226190D02*
X68184299Y-99226190D01*
X68184299Y-99226190D02*
X68327156Y-99321428D01*
X68327156Y-99321428D02*
X68422394Y-99416666D01*
X68422394Y-99416666D02*
X68470013Y-99511904D01*
X91433333Y-80439060D02*
X91385714Y-80486680D01*
X91385714Y-80486680D02*
X91242857Y-80534299D01*
X91242857Y-80534299D02*
X91147619Y-80534299D01*
X91147619Y-80534299D02*
X91004762Y-80486680D01*
X91004762Y-80486680D02*
X90909524Y-80391441D01*
X90909524Y-80391441D02*
X90861905Y-80296203D01*
X90861905Y-80296203D02*
X90814286Y-80105727D01*
X90814286Y-80105727D02*
X90814286Y-79962870D01*
X90814286Y-79962870D02*
X90861905Y-79772394D01*
X90861905Y-79772394D02*
X90909524Y-79677156D01*
X90909524Y-79677156D02*
X91004762Y-79581918D01*
X91004762Y-79581918D02*
X91147619Y-79534299D01*
X91147619Y-79534299D02*
X91242857Y-79534299D01*
X91242857Y-79534299D02*
X91385714Y-79581918D01*
X91385714Y-79581918D02*
X91433333Y-79629537D01*
X91814286Y-79629537D02*
X91861905Y-79581918D01*
X91861905Y-79581918D02*
X91957143Y-79534299D01*
X91957143Y-79534299D02*
X92195238Y-79534299D01*
X92195238Y-79534299D02*
X92290476Y-79581918D01*
X92290476Y-79581918D02*
X92338095Y-79629537D01*
X92338095Y-79629537D02*
X92385714Y-79724775D01*
X92385714Y-79724775D02*
X92385714Y-79820013D01*
X92385714Y-79820013D02*
X92338095Y-79962870D01*
X92338095Y-79962870D02*
X91766667Y-80534299D01*
X91766667Y-80534299D02*
X92385714Y-80534299D01*
%TO.C,D1*%
X91750000Y-91740000D02*
X91750000Y-90720000D01*
X90280000Y-90720000D02*
X93220000Y-90720000D01*
X93220000Y-90720000D02*
X93220000Y-85280000D01*
X90280000Y-89940000D02*
X93220000Y-89940000D01*
X90280000Y-89820000D02*
X93220000Y-89820000D01*
X90280000Y-89700000D02*
X93220000Y-89700000D01*
X90280000Y-85280000D02*
X90280000Y-90720000D01*
X93220000Y-85280000D02*
X90280000Y-85280000D01*
X91750000Y-84260000D02*
X91750000Y-85280000D01*
%TO.C,R2*%
X70485000Y-111022936D02*
X70485000Y-111477064D01*
X69015000Y-111022936D02*
X69015000Y-111477064D01*
%TO.C,C4*%
X90141248Y-102765000D02*
X90663752Y-102765000D01*
X90141248Y-104235000D02*
X90663752Y-104235000D01*
%TO.C,J1*%
X76780000Y-76900000D02*
X76780000Y-75750000D01*
X78730000Y-76900000D02*
X76780000Y-76900000D01*
X85780000Y-76900000D02*
X83930000Y-76900000D01*
X76780000Y-70650000D02*
X76780000Y-62500000D01*
X76780000Y-62500000D02*
X85780000Y-62500000D01*
X85780000Y-62500000D02*
X85780000Y-76900000D01*
X81480000Y-78200000D02*
G75*
G03*
X81480000Y-78200000I-200000J0D01*
G01*
%TO.C,RV2*%
X71500000Y-106250000D02*
X106500000Y-106250000D01*
X106500000Y-106250000D02*
X106500000Y-116250000D01*
X106500000Y-116250000D02*
X71500000Y-116250000D01*
X71500000Y-116250000D02*
X71500000Y-106250000D01*
%TO.C,U2*%
X80345000Y-99020000D02*
X81872000Y-99020000D01*
X82222000Y-99148000D02*
X85418000Y-99148000D01*
X82222000Y-104052000D02*
X82222000Y-99148000D01*
X85418000Y-99148000D02*
X85418000Y-104052000D01*
X85418000Y-104052000D02*
X82222000Y-104052000D01*
%TO.C,U1*%
X88080000Y-90770000D02*
X88080000Y-86129000D01*
X88080000Y-90770000D02*
X77840000Y-90770000D01*
X88080000Y-89260000D02*
X77840000Y-89260000D01*
X88080000Y-86129000D02*
X77840000Y-86129000D01*
X84810000Y-90770000D02*
X84810000Y-89260000D01*
X81109000Y-90770000D02*
X81109000Y-89260000D01*
X77840000Y-90770000D02*
X77840000Y-86129000D01*
%TO.C,R1*%
X84272936Y-80545000D02*
X84727064Y-80545000D01*
X84272936Y-82015000D02*
X84727064Y-82015000D01*
%TO.C,C1*%
X79138748Y-80565000D02*
X79661252Y-80565000D01*
X79138748Y-82035000D02*
X79661252Y-82035000D01*
%TO.C,R3*%
X77527064Y-102985000D02*
X77072936Y-102985000D01*
X77527064Y-101515000D02*
X77072936Y-101515000D01*
%TO.C,RV1*%
X89250000Y-68500000D02*
X89250000Y-73000000D01*
X89250000Y-73000000D02*
X89350000Y-73000000D01*
X90185000Y-68500000D02*
X89250000Y-68500000D01*
X93650000Y-73000000D02*
X93750000Y-73000000D01*
X93750000Y-68500000D02*
X92815000Y-68500000D01*
X93750000Y-73000000D02*
X93750000Y-68500000D01*
X92830000Y-74350000D02*
G75*
G03*
X92830000Y-74350000I-50000J0D01*
G01*
%TO.C,R4*%
X83085000Y-96747064D02*
X83085000Y-96292936D01*
X84555000Y-96747064D02*
X84555000Y-96292936D01*
%TO.C,SW1*%
X95240000Y-76120000D02*
X95240000Y-76120000D01*
X95240000Y-76120000D02*
X95240000Y-76120000D01*
X95340000Y-76120000D02*
X95340000Y-76120000D01*
X95940000Y-67620000D02*
X107340000Y-67620000D01*
X95940000Y-79620000D02*
X95940000Y-67620000D01*
X107340000Y-67620000D02*
X107340000Y-79620000D01*
X107340000Y-79620000D02*
X95940000Y-79620000D01*
X95340000Y-76120000D02*
G75*
G03*
X95240000Y-76120000I-50000J0D01*
G01*
X95240000Y-76120000D02*
G75*
G03*
X95340000Y-76120000I50000J0D01*
G01*
X95240000Y-76120000D02*
G75*
G03*
X95340000Y-76120000I50000J0D01*
G01*
%TO.C,TB1*%
X68900000Y-94000000D02*
X68900000Y-84000000D01*
X76500000Y-94000000D02*
X68900000Y-94000000D01*
X68900000Y-84000000D02*
X76500000Y-84000000D01*
X76500000Y-84000000D02*
X76500000Y-94000000D01*
X77600000Y-91500000D02*
G75*
G03*
X77600000Y-91500000I-100000J0D01*
G01*
%TO.C,C3*%
X99160000Y-92020000D02*
G75*
G03*
X99160000Y-92020000I-100000J0D01*
G01*
X105310000Y-99020000D02*
G75*
G03*
X105310000Y-99020000I-6250000J0D01*
G01*
%TO.C,Q1*%
X69730000Y-104870000D02*
X74371000Y-104870000D01*
X69730000Y-104870000D02*
X69730000Y-94630000D01*
X71240000Y-104870000D02*
X71240000Y-94630000D01*
X74371000Y-104870000D02*
X74371000Y-94630000D01*
X69730000Y-101600000D02*
X71240000Y-101600000D01*
X69730000Y-97899000D02*
X71240000Y-97899000D01*
X69730000Y-94630000D02*
X74371000Y-94630000D01*
%TO.C,C2*%
X91861252Y-79135000D02*
X91338748Y-79135000D01*
X91861252Y-77665000D02*
X91338748Y-77665000D01*
%TD*%
M02*
