%TF.GenerationSoftware,KiCad,Pcbnew,7.0.7*%
%TF.CreationDate,2023-10-06T20:37:38-05:00*%
%TF.ProjectId,Project_1,50726f6a-6563-4745-9f31-2e6b69636164,rev?*%
%TF.SameCoordinates,Original*%
%TF.FileFunction,Soldermask,Top*%
%TF.FilePolarity,Negative*%
%FSLAX46Y46*%
G04 Gerber Fmt 4.6, Leading zero omitted, Abs format (unit mm)*
G04 Created by KiCad (PCBNEW 7.0.7) date 2023-10-06 20:37:38*
%MOMM*%
%LPD*%
G01*
G04 APERTURE LIST*
G04 Aperture macros list*
%AMRoundRect*
0 Rectangle with rounded corners*
0 $1 Rounding radius*
0 $2 $3 $4 $5 $6 $7 $8 $9 X,Y pos of 4 corners*
0 Add a 4 corners polygon primitive as box body*
4,1,4,$2,$3,$4,$5,$6,$7,$8,$9,$2,$3,0*
0 Add four circle primitives for the rounded corners*
1,1,$1+$1,$2,$3*
1,1,$1+$1,$4,$5*
1,1,$1+$1,$6,$7*
1,1,$1+$1,$8,$9*
0 Add four rect primitives between the rounded corners*
20,1,$1+$1,$2,$3,$4,$5,0*
20,1,$1+$1,$4,$5,$6,$7,0*
20,1,$1+$1,$6,$7,$8,$9,0*
20,1,$1+$1,$8,$9,$2,$3,0*%
G04 Aperture macros list end*
%ADD10R,2.200000X2.200000*%
%ADD11O,2.200000X2.200000*%
%ADD12RoundRect,0.250000X-0.450000X0.350000X-0.450000X-0.350000X0.450000X-0.350000X0.450000X0.350000X0*%
%ADD13RoundRect,0.250000X-0.337500X-0.475000X0.337500X-0.475000X0.337500X0.475000X-0.337500X0.475000X0*%
%ADD14O,5.204000X2.704000*%
%ADD15O,4.704000X2.454000*%
%ADD16O,2.454000X4.704000*%
%ADD17C,1.800000*%
%ADD18R,1.528000X0.650000*%
%ADD19R,1.905000X2.000000*%
%ADD20O,1.905000X2.000000*%
%ADD21RoundRect,0.250000X-0.350000X-0.450000X0.350000X-0.450000X0.350000X0.450000X-0.350000X0.450000X0*%
%ADD22RoundRect,0.250000X0.350000X0.450000X-0.350000X0.450000X-0.350000X-0.450000X0.350000X-0.450000X0*%
%ADD23RoundRect,0.102000X0.650000X-1.000000X0.650000X1.000000X-0.650000X1.000000X-0.650000X-1.000000X0*%
%ADD24RoundRect,0.102000X1.000000X1.000000X-1.000000X1.000000X-1.000000X-1.000000X1.000000X-1.000000X0*%
%ADD25RoundRect,0.102000X-0.650000X1.000000X-0.650000X-1.000000X0.650000X-1.000000X0.650000X1.000000X0*%
%ADD26RoundRect,0.250000X0.450000X-0.350000X0.450000X0.350000X-0.450000X0.350000X-0.450000X-0.350000X0*%
%ADD27C,2.200000*%
%ADD28RoundRect,0.102000X0.975000X-0.975000X0.975000X0.975000X-0.975000X0.975000X-0.975000X-0.975000X0*%
%ADD29C,2.154000*%
%ADD30C,1.500000*%
%ADD31R,1.500000X1.500000*%
%ADD32R,2.000000X1.905000*%
%ADD33O,2.000000X1.905000*%
%ADD34RoundRect,0.250000X0.337500X0.475000X-0.337500X0.475000X-0.337500X-0.475000X0.337500X-0.475000X0*%
G04 APERTURE END LIST*
D10*
%TO.C,D1*%
X91750000Y-93080000D03*
D11*
X91750000Y-82920000D03*
%TD*%
D12*
%TO.C,R2*%
X69750000Y-110250000D03*
X69750000Y-112250000D03*
%TD*%
D13*
%TO.C,C4*%
X89365000Y-103500000D03*
X91440000Y-103500000D03*
%TD*%
D14*
%TO.C,J1*%
X81280000Y-76200000D03*
D15*
X81280000Y-70200000D03*
D16*
X76580000Y-73200000D03*
%TD*%
D17*
%TO.C,RV2*%
X74000000Y-110000000D03*
X74000000Y-107500000D03*
X104000000Y-110000000D03*
X104000000Y-115000000D03*
X74000000Y-115000000D03*
X74000000Y-112500000D03*
%TD*%
D18*
%TO.C,U2*%
X81109000Y-99695000D03*
X81109000Y-100965000D03*
X81109000Y-102235000D03*
X81109000Y-103505000D03*
X86531000Y-103505000D03*
X86531000Y-102235000D03*
X86531000Y-100965000D03*
X86531000Y-99695000D03*
%TD*%
D19*
%TO.C,U1*%
X85500000Y-87500000D03*
D20*
X82960000Y-87500000D03*
X80420000Y-87500000D03*
%TD*%
D21*
%TO.C,R1*%
X83500000Y-81280000D03*
X85500000Y-81280000D03*
%TD*%
D13*
%TO.C,C1*%
X78362500Y-81300000D03*
X80437500Y-81300000D03*
%TD*%
D22*
%TO.C,R3*%
X78300000Y-102250000D03*
X76300000Y-102250000D03*
%TD*%
D23*
%TO.C,RV1*%
X92650000Y-72750000D03*
D24*
X91500000Y-68750000D03*
D25*
X90350000Y-72750000D03*
%TD*%
D26*
%TO.C,R4*%
X83820000Y-97520000D03*
X83820000Y-95520000D03*
%TD*%
D27*
%TO.C,SW1*%
X104140000Y-71120000D03*
X99140000Y-71120000D03*
X104140000Y-76120000D03*
X99140000Y-76120000D03*
%TD*%
D28*
%TO.C,TB1*%
X73000000Y-91500000D03*
D29*
X73000000Y-86500000D03*
%TD*%
D30*
%TO.C,C3*%
X99060000Y-101520000D03*
D31*
X99060000Y-96520000D03*
%TD*%
D32*
%TO.C,Q1*%
X73000000Y-102290000D03*
D33*
X73000000Y-99750000D03*
X73000000Y-97210000D03*
%TD*%
D34*
%TO.C,C2*%
X92637500Y-78400000D03*
X90562500Y-78400000D03*
%TD*%
M02*
