%TF.GenerationSoftware,KiCad,Pcbnew,7.0.7*%
%TF.CreationDate,2023-10-06T20:37:51-05:00*%
%TF.ProjectId,Project_1,50726f6a-6563-4745-9f31-2e6b69636164,rev?*%
%TF.SameCoordinates,Original*%
%TF.FileFunction,Drillmap*%
%TF.FilePolarity,Positive*%
%FSLAX45Y45*%
G04 Gerber Fmt 4.5, Leading zero omitted, Abs format (unit mm)*
G04 Created by KiCad (PCBNEW 7.0.7) date 2023-10-06 20:37:51*
%MOMM*%
%LPD*%
G01*
G04 APERTURE LIST*
%ADD10C,0.200000*%
%ADD11C,0.040000*%
%ADD12C,0.065000*%
%ADD13C,0.100000*%
%ADD14C,0.110000*%
%ADD15C,0.130000*%
G04 APERTURE END LIST*
D10*
X10500000Y-11925000D02*
G75*
G03*
X10850000Y-11575000I0J350000D01*
G01*
X7122487Y-6047487D02*
G75*
G03*
X6772487Y-6397487I3J-350003D01*
G01*
X10500000Y-6047487D02*
X7122487Y-6047487D01*
X10850000Y-11575000D02*
X10850000Y-6397487D01*
X6772487Y-11572487D02*
X6772487Y-6397487D01*
X6772490Y-11572487D02*
G75*
G03*
X7125000Y-11925000I352510J-3D01*
G01*
X10500000Y-11925000D02*
X7125000Y-11925000D01*
X10850003Y-6397487D02*
G75*
G03*
X10500000Y-6047487I-350003J-3D01*
G01*
D11*
X7650000Y-8110000D02*
X7690000Y-8150000D01*
X7690000Y-8110000D02*
X7650000Y-8150000D01*
X7910000Y-9950000D02*
X7950000Y-9990000D01*
X7950000Y-9950000D02*
X7910000Y-9990000D01*
X8362000Y-9886000D02*
X8402000Y-9926000D01*
X8402000Y-9886000D02*
X8362000Y-9926000D01*
X8830000Y-7820000D02*
X8870000Y-7860000D01*
X8870000Y-7820000D02*
X8830000Y-7860000D01*
D12*
X9938500Y-9652000D02*
G75*
G03*
X9938500Y-9652000I-32500J0D01*
G01*
X9938500Y-10152000D02*
G75*
G03*
X9938500Y-10152000I-32500J0D01*
G01*
D13*
X7658000Y-7270000D02*
X7658000Y-7370000D01*
X7608000Y-7320000D02*
X7708000Y-7320000D01*
D10*
X7708000Y-7420000D02*
X7708000Y-7220000D01*
X7708000Y-7220000D02*
G75*
G03*
X7608000Y-7220000I-50000J0D01*
G01*
X7608000Y-7220000D02*
X7608000Y-7420000D01*
X7608000Y-7420000D02*
G75*
G03*
X7708000Y-7420000I50000J0D01*
G01*
D13*
X8128000Y-6970000D02*
X8128000Y-7070000D01*
X8078000Y-7020000D02*
X8178000Y-7020000D01*
D10*
X8028000Y-7070000D02*
X8228000Y-7070000D01*
X8228000Y-7070000D02*
G75*
G03*
X8228000Y-6970000I0J50000D01*
G01*
X8228000Y-6970000D02*
X8028000Y-6970000D01*
X8028000Y-6970000D02*
G75*
G03*
X8028000Y-7070000I0J-50000D01*
G01*
D13*
X8128000Y-7570000D02*
X8128000Y-7670000D01*
X8078000Y-7620000D02*
X8178000Y-7620000D01*
D10*
X8003000Y-7670000D02*
X8253000Y-7670000D01*
X8253000Y-7670000D02*
G75*
G03*
X8253000Y-7570000I0J50000D01*
G01*
X8253000Y-7570000D02*
X8003000Y-7570000D01*
X8003000Y-7570000D02*
G75*
G03*
X8003000Y-7670000I0J-50000D01*
G01*
D14*
X7338891Y-9759891D02*
X7338891Y-9682109D01*
X7261109Y-9682109D01*
X7261109Y-9759891D01*
X7338891Y-9759891D01*
X7338891Y-10013891D02*
X7338891Y-9936109D01*
X7261109Y-9936109D01*
X7261109Y-10013891D01*
X7338891Y-10013891D01*
X7338891Y-10267891D02*
X7338891Y-10190109D01*
X7261109Y-10190109D01*
X7261109Y-10267891D01*
X7338891Y-10267891D01*
X8080891Y-8788891D02*
X8080891Y-8711109D01*
X8003109Y-8711109D01*
X8003109Y-8788891D01*
X8080891Y-8788891D01*
X8334891Y-8788891D02*
X8334891Y-8711109D01*
X8257109Y-8711109D01*
X8257109Y-8788891D01*
X8334891Y-8788891D01*
X8588891Y-8788891D02*
X8588891Y-8711109D01*
X8511109Y-8711109D01*
X8511109Y-8788891D01*
X8588891Y-8788891D01*
X9213891Y-8330891D02*
X9213891Y-8253109D01*
X9136109Y-8253109D01*
X9136109Y-8330891D01*
X9213891Y-8330891D01*
X9213891Y-9346891D02*
X9213891Y-9269109D01*
X9136109Y-9269109D01*
X9136109Y-9346891D01*
X9213891Y-9346891D01*
X9952891Y-7150891D02*
X9952891Y-7073109D01*
X9875109Y-7073109D01*
X9875109Y-7150891D01*
X9952891Y-7150891D01*
X9952891Y-7650891D02*
X9952891Y-7573109D01*
X9875109Y-7573109D01*
X9875109Y-7650891D01*
X9952891Y-7650891D01*
X10452891Y-7150891D02*
X10452891Y-7073109D01*
X10375109Y-7073109D01*
X10375109Y-7150891D01*
X10452891Y-7150891D01*
X10452891Y-7650891D02*
X10452891Y-7573109D01*
X10375109Y-7573109D01*
X10375109Y-7650891D01*
X10452891Y-7650891D01*
D15*
X7300000Y-8715000D02*
X7365000Y-8650000D01*
X7300000Y-8585000D01*
X7235000Y-8650000D01*
X7300000Y-8715000D01*
X7300000Y-9215000D02*
X7365000Y-9150000D01*
X7300000Y-9085000D01*
X7235000Y-9150000D01*
X7300000Y-9215000D01*
X7400000Y-10815000D02*
X7465000Y-10750000D01*
X7400000Y-10685000D01*
X7335000Y-10750000D01*
X7400000Y-10815000D01*
X7400000Y-11065000D02*
X7465000Y-11000000D01*
X7400000Y-10935000D01*
X7335000Y-11000000D01*
X7400000Y-11065000D01*
X7400000Y-11315000D02*
X7465000Y-11250000D01*
X7400000Y-11185000D01*
X7335000Y-11250000D01*
X7400000Y-11315000D01*
X7400000Y-11565000D02*
X7465000Y-11500000D01*
X7400000Y-11435000D01*
X7335000Y-11500000D01*
X7400000Y-11565000D01*
X10400000Y-11065000D02*
X10465000Y-11000000D01*
X10400000Y-10935000D01*
X10335000Y-11000000D01*
X10400000Y-11065000D01*
X10400000Y-11565000D02*
X10465000Y-11500000D01*
X10400000Y-11435000D01*
X10335000Y-11500000D01*
X10400000Y-11565000D01*
D10*
X7023264Y-12246484D02*
X7023264Y-12046484D01*
X7023264Y-12046484D02*
X7070883Y-12046484D01*
X7070883Y-12046484D02*
X7099455Y-12056008D01*
X7099455Y-12056008D02*
X7118502Y-12075055D01*
X7118502Y-12075055D02*
X7128026Y-12094103D01*
X7128026Y-12094103D02*
X7137550Y-12132198D01*
X7137550Y-12132198D02*
X7137550Y-12160769D01*
X7137550Y-12160769D02*
X7128026Y-12198865D01*
X7128026Y-12198865D02*
X7118502Y-12217912D01*
X7118502Y-12217912D02*
X7099455Y-12236960D01*
X7099455Y-12236960D02*
X7070883Y-12246484D01*
X7070883Y-12246484D02*
X7023264Y-12246484D01*
X7223264Y-12246484D02*
X7223264Y-12113150D01*
X7223264Y-12151246D02*
X7232788Y-12132198D01*
X7232788Y-12132198D02*
X7242312Y-12122674D01*
X7242312Y-12122674D02*
X7261359Y-12113150D01*
X7261359Y-12113150D02*
X7280407Y-12113150D01*
X7347074Y-12246484D02*
X7347074Y-12113150D01*
X7347074Y-12046484D02*
X7337550Y-12056008D01*
X7337550Y-12056008D02*
X7347074Y-12065531D01*
X7347074Y-12065531D02*
X7356597Y-12056008D01*
X7356597Y-12056008D02*
X7347074Y-12046484D01*
X7347074Y-12046484D02*
X7347074Y-12065531D01*
X7470883Y-12246484D02*
X7451835Y-12236960D01*
X7451835Y-12236960D02*
X7442312Y-12217912D01*
X7442312Y-12217912D02*
X7442312Y-12046484D01*
X7575645Y-12246484D02*
X7556597Y-12236960D01*
X7556597Y-12236960D02*
X7547074Y-12217912D01*
X7547074Y-12217912D02*
X7547074Y-12046484D01*
X7804216Y-12246484D02*
X7804216Y-12046484D01*
X7804216Y-12046484D02*
X7870883Y-12189341D01*
X7870883Y-12189341D02*
X7937550Y-12046484D01*
X7937550Y-12046484D02*
X7937550Y-12246484D01*
X8118502Y-12246484D02*
X8118502Y-12141722D01*
X8118502Y-12141722D02*
X8108978Y-12122674D01*
X8108978Y-12122674D02*
X8089931Y-12113150D01*
X8089931Y-12113150D02*
X8051835Y-12113150D01*
X8051835Y-12113150D02*
X8032788Y-12122674D01*
X8118502Y-12236960D02*
X8099455Y-12246484D01*
X8099455Y-12246484D02*
X8051835Y-12246484D01*
X8051835Y-12246484D02*
X8032788Y-12236960D01*
X8032788Y-12236960D02*
X8023264Y-12217912D01*
X8023264Y-12217912D02*
X8023264Y-12198865D01*
X8023264Y-12198865D02*
X8032788Y-12179817D01*
X8032788Y-12179817D02*
X8051835Y-12170293D01*
X8051835Y-12170293D02*
X8099455Y-12170293D01*
X8099455Y-12170293D02*
X8118502Y-12160769D01*
X8213740Y-12113150D02*
X8213740Y-12313150D01*
X8213740Y-12122674D02*
X8232788Y-12113150D01*
X8232788Y-12113150D02*
X8270883Y-12113150D01*
X8270883Y-12113150D02*
X8289931Y-12122674D01*
X8289931Y-12122674D02*
X8299455Y-12132198D01*
X8299455Y-12132198D02*
X8308978Y-12151246D01*
X8308978Y-12151246D02*
X8308978Y-12208388D01*
X8308978Y-12208388D02*
X8299455Y-12227436D01*
X8299455Y-12227436D02*
X8289931Y-12236960D01*
X8289931Y-12236960D02*
X8270883Y-12246484D01*
X8270883Y-12246484D02*
X8232788Y-12246484D01*
X8232788Y-12246484D02*
X8213740Y-12236960D01*
X8394693Y-12227436D02*
X8404217Y-12236960D01*
X8404217Y-12236960D02*
X8394693Y-12246484D01*
X8394693Y-12246484D02*
X8385169Y-12236960D01*
X8385169Y-12236960D02*
X8394693Y-12227436D01*
X8394693Y-12227436D02*
X8394693Y-12246484D01*
X8394693Y-12122674D02*
X8404217Y-12132198D01*
X8404217Y-12132198D02*
X8394693Y-12141722D01*
X8394693Y-12141722D02*
X8385169Y-12132198D01*
X8385169Y-12132198D02*
X8394693Y-12122674D01*
X8394693Y-12122674D02*
X8394693Y-12141722D01*
D11*
X6722487Y-12555000D02*
X6762487Y-12595000D01*
X6762487Y-12555000D02*
X6722487Y-12595000D01*
D10*
X7061359Y-12466484D02*
X7080407Y-12466484D01*
X7080407Y-12466484D02*
X7099455Y-12476008D01*
X7099455Y-12476008D02*
X7108978Y-12485531D01*
X7108978Y-12485531D02*
X7118502Y-12504579D01*
X7118502Y-12504579D02*
X7128026Y-12542674D01*
X7128026Y-12542674D02*
X7128026Y-12590293D01*
X7128026Y-12590293D02*
X7118502Y-12628388D01*
X7118502Y-12628388D02*
X7108978Y-12647436D01*
X7108978Y-12647436D02*
X7099455Y-12656960D01*
X7099455Y-12656960D02*
X7080407Y-12666484D01*
X7080407Y-12666484D02*
X7061359Y-12666484D01*
X7061359Y-12666484D02*
X7042312Y-12656960D01*
X7042312Y-12656960D02*
X7032788Y-12647436D01*
X7032788Y-12647436D02*
X7023264Y-12628388D01*
X7023264Y-12628388D02*
X7013740Y-12590293D01*
X7013740Y-12590293D02*
X7013740Y-12542674D01*
X7013740Y-12542674D02*
X7023264Y-12504579D01*
X7023264Y-12504579D02*
X7032788Y-12485531D01*
X7032788Y-12485531D02*
X7042312Y-12476008D01*
X7042312Y-12476008D02*
X7061359Y-12466484D01*
X7213740Y-12647436D02*
X7223264Y-12656960D01*
X7223264Y-12656960D02*
X7213740Y-12666484D01*
X7213740Y-12666484D02*
X7204216Y-12656960D01*
X7204216Y-12656960D02*
X7213740Y-12647436D01*
X7213740Y-12647436D02*
X7213740Y-12666484D01*
X7394693Y-12533150D02*
X7394693Y-12666484D01*
X7347074Y-12456960D02*
X7299455Y-12599817D01*
X7299455Y-12599817D02*
X7423264Y-12599817D01*
X7537550Y-12466484D02*
X7556597Y-12466484D01*
X7556597Y-12466484D02*
X7575645Y-12476008D01*
X7575645Y-12476008D02*
X7585169Y-12485531D01*
X7585169Y-12485531D02*
X7594693Y-12504579D01*
X7594693Y-12504579D02*
X7604216Y-12542674D01*
X7604216Y-12542674D02*
X7604216Y-12590293D01*
X7604216Y-12590293D02*
X7594693Y-12628388D01*
X7594693Y-12628388D02*
X7585169Y-12647436D01*
X7585169Y-12647436D02*
X7575645Y-12656960D01*
X7575645Y-12656960D02*
X7556597Y-12666484D01*
X7556597Y-12666484D02*
X7537550Y-12666484D01*
X7537550Y-12666484D02*
X7518502Y-12656960D01*
X7518502Y-12656960D02*
X7508978Y-12647436D01*
X7508978Y-12647436D02*
X7499455Y-12628388D01*
X7499455Y-12628388D02*
X7489931Y-12590293D01*
X7489931Y-12590293D02*
X7489931Y-12542674D01*
X7489931Y-12542674D02*
X7499455Y-12504579D01*
X7499455Y-12504579D02*
X7508978Y-12485531D01*
X7508978Y-12485531D02*
X7518502Y-12476008D01*
X7518502Y-12476008D02*
X7537550Y-12466484D01*
X7728026Y-12466484D02*
X7747074Y-12466484D01*
X7747074Y-12466484D02*
X7766121Y-12476008D01*
X7766121Y-12476008D02*
X7775645Y-12485531D01*
X7775645Y-12485531D02*
X7785169Y-12504579D01*
X7785169Y-12504579D02*
X7794693Y-12542674D01*
X7794693Y-12542674D02*
X7794693Y-12590293D01*
X7794693Y-12590293D02*
X7785169Y-12628388D01*
X7785169Y-12628388D02*
X7775645Y-12647436D01*
X7775645Y-12647436D02*
X7766121Y-12656960D01*
X7766121Y-12656960D02*
X7747074Y-12666484D01*
X7747074Y-12666484D02*
X7728026Y-12666484D01*
X7728026Y-12666484D02*
X7708978Y-12656960D01*
X7708978Y-12656960D02*
X7699455Y-12647436D01*
X7699455Y-12647436D02*
X7689931Y-12628388D01*
X7689931Y-12628388D02*
X7680407Y-12590293D01*
X7680407Y-12590293D02*
X7680407Y-12542674D01*
X7680407Y-12542674D02*
X7689931Y-12504579D01*
X7689931Y-12504579D02*
X7699455Y-12485531D01*
X7699455Y-12485531D02*
X7708978Y-12476008D01*
X7708978Y-12476008D02*
X7728026Y-12466484D01*
X7880407Y-12666484D02*
X7880407Y-12533150D01*
X7880407Y-12552198D02*
X7889931Y-12542674D01*
X7889931Y-12542674D02*
X7908978Y-12533150D01*
X7908978Y-12533150D02*
X7937550Y-12533150D01*
X7937550Y-12533150D02*
X7956597Y-12542674D01*
X7956597Y-12542674D02*
X7966121Y-12561722D01*
X7966121Y-12561722D02*
X7966121Y-12666484D01*
X7966121Y-12561722D02*
X7975645Y-12542674D01*
X7975645Y-12542674D02*
X7994693Y-12533150D01*
X7994693Y-12533150D02*
X8023264Y-12533150D01*
X8023264Y-12533150D02*
X8042312Y-12542674D01*
X8042312Y-12542674D02*
X8051836Y-12561722D01*
X8051836Y-12561722D02*
X8051836Y-12666484D01*
X8147074Y-12666484D02*
X8147074Y-12533150D01*
X8147074Y-12552198D02*
X8156597Y-12542674D01*
X8156597Y-12542674D02*
X8175645Y-12533150D01*
X8175645Y-12533150D02*
X8204217Y-12533150D01*
X8204217Y-12533150D02*
X8223264Y-12542674D01*
X8223264Y-12542674D02*
X8232788Y-12561722D01*
X8232788Y-12561722D02*
X8232788Y-12666484D01*
X8232788Y-12561722D02*
X8242312Y-12542674D01*
X8242312Y-12542674D02*
X8261359Y-12533150D01*
X8261359Y-12533150D02*
X8289931Y-12533150D01*
X8289931Y-12533150D02*
X8308978Y-12542674D01*
X8308978Y-12542674D02*
X8318502Y-12561722D01*
X8318502Y-12561722D02*
X8318502Y-12666484D01*
X8708979Y-12456960D02*
X8537550Y-12714103D01*
X8966121Y-12466484D02*
X8985169Y-12466484D01*
X8985169Y-12466484D02*
X9004217Y-12476008D01*
X9004217Y-12476008D02*
X9013741Y-12485531D01*
X9013741Y-12485531D02*
X9023264Y-12504579D01*
X9023264Y-12504579D02*
X9032788Y-12542674D01*
X9032788Y-12542674D02*
X9032788Y-12590293D01*
X9032788Y-12590293D02*
X9023264Y-12628388D01*
X9023264Y-12628388D02*
X9013741Y-12647436D01*
X9013741Y-12647436D02*
X9004217Y-12656960D01*
X9004217Y-12656960D02*
X8985169Y-12666484D01*
X8985169Y-12666484D02*
X8966121Y-12666484D01*
X8966121Y-12666484D02*
X8947074Y-12656960D01*
X8947074Y-12656960D02*
X8937550Y-12647436D01*
X8937550Y-12647436D02*
X8928026Y-12628388D01*
X8928026Y-12628388D02*
X8918502Y-12590293D01*
X8918502Y-12590293D02*
X8918502Y-12542674D01*
X8918502Y-12542674D02*
X8928026Y-12504579D01*
X8928026Y-12504579D02*
X8937550Y-12485531D01*
X8937550Y-12485531D02*
X8947074Y-12476008D01*
X8947074Y-12476008D02*
X8966121Y-12466484D01*
X9118502Y-12647436D02*
X9128026Y-12656960D01*
X9128026Y-12656960D02*
X9118502Y-12666484D01*
X9118502Y-12666484D02*
X9108979Y-12656960D01*
X9108979Y-12656960D02*
X9118502Y-12647436D01*
X9118502Y-12647436D02*
X9118502Y-12666484D01*
X9251836Y-12466484D02*
X9270883Y-12466484D01*
X9270883Y-12466484D02*
X9289931Y-12476008D01*
X9289931Y-12476008D02*
X9299455Y-12485531D01*
X9299455Y-12485531D02*
X9308979Y-12504579D01*
X9308979Y-12504579D02*
X9318502Y-12542674D01*
X9318502Y-12542674D02*
X9318502Y-12590293D01*
X9318502Y-12590293D02*
X9308979Y-12628388D01*
X9308979Y-12628388D02*
X9299455Y-12647436D01*
X9299455Y-12647436D02*
X9289931Y-12656960D01*
X9289931Y-12656960D02*
X9270883Y-12666484D01*
X9270883Y-12666484D02*
X9251836Y-12666484D01*
X9251836Y-12666484D02*
X9232788Y-12656960D01*
X9232788Y-12656960D02*
X9223264Y-12647436D01*
X9223264Y-12647436D02*
X9213741Y-12628388D01*
X9213741Y-12628388D02*
X9204217Y-12590293D01*
X9204217Y-12590293D02*
X9204217Y-12542674D01*
X9204217Y-12542674D02*
X9213741Y-12504579D01*
X9213741Y-12504579D02*
X9223264Y-12485531D01*
X9223264Y-12485531D02*
X9232788Y-12476008D01*
X9232788Y-12476008D02*
X9251836Y-12466484D01*
X9508979Y-12666484D02*
X9394693Y-12666484D01*
X9451836Y-12666484D02*
X9451836Y-12466484D01*
X9451836Y-12466484D02*
X9432788Y-12495055D01*
X9432788Y-12495055D02*
X9413741Y-12514103D01*
X9413741Y-12514103D02*
X9394693Y-12523627D01*
X9689931Y-12466484D02*
X9594693Y-12466484D01*
X9594693Y-12466484D02*
X9585169Y-12561722D01*
X9585169Y-12561722D02*
X9594693Y-12552198D01*
X9594693Y-12552198D02*
X9613741Y-12542674D01*
X9613741Y-12542674D02*
X9661360Y-12542674D01*
X9661360Y-12542674D02*
X9680407Y-12552198D01*
X9680407Y-12552198D02*
X9689931Y-12561722D01*
X9689931Y-12561722D02*
X9699455Y-12580769D01*
X9699455Y-12580769D02*
X9699455Y-12628388D01*
X9699455Y-12628388D02*
X9689931Y-12647436D01*
X9689931Y-12647436D02*
X9680407Y-12656960D01*
X9680407Y-12656960D02*
X9661360Y-12666484D01*
X9661360Y-12666484D02*
X9613741Y-12666484D01*
X9613741Y-12666484D02*
X9594693Y-12656960D01*
X9594693Y-12656960D02*
X9585169Y-12647436D01*
X9766122Y-12466484D02*
X9899455Y-12466484D01*
X9899455Y-12466484D02*
X9813741Y-12666484D01*
X9966122Y-12466484D02*
X9966122Y-12504579D01*
X10042312Y-12466484D02*
X10042312Y-12504579D01*
X10337550Y-12742674D02*
X10328026Y-12733150D01*
X10328026Y-12733150D02*
X10308979Y-12704579D01*
X10308979Y-12704579D02*
X10299455Y-12685531D01*
X10299455Y-12685531D02*
X10289931Y-12656960D01*
X10289931Y-12656960D02*
X10280407Y-12609341D01*
X10280407Y-12609341D02*
X10280407Y-12571246D01*
X10280407Y-12571246D02*
X10289931Y-12523627D01*
X10289931Y-12523627D02*
X10299455Y-12495055D01*
X10299455Y-12495055D02*
X10308979Y-12476008D01*
X10308979Y-12476008D02*
X10328026Y-12447436D01*
X10328026Y-12447436D02*
X10337550Y-12437912D01*
X10499455Y-12533150D02*
X10499455Y-12666484D01*
X10451836Y-12456960D02*
X10404217Y-12599817D01*
X10404217Y-12599817D02*
X10528026Y-12599817D01*
X10756598Y-12666484D02*
X10756598Y-12466484D01*
X10842312Y-12666484D02*
X10842312Y-12561722D01*
X10842312Y-12561722D02*
X10832788Y-12542674D01*
X10832788Y-12542674D02*
X10813741Y-12533150D01*
X10813741Y-12533150D02*
X10785169Y-12533150D01*
X10785169Y-12533150D02*
X10766122Y-12542674D01*
X10766122Y-12542674D02*
X10756598Y-12552198D01*
X10966122Y-12666484D02*
X10947074Y-12656960D01*
X10947074Y-12656960D02*
X10937550Y-12647436D01*
X10937550Y-12647436D02*
X10928026Y-12628388D01*
X10928026Y-12628388D02*
X10928026Y-12571246D01*
X10928026Y-12571246D02*
X10937550Y-12552198D01*
X10937550Y-12552198D02*
X10947074Y-12542674D01*
X10947074Y-12542674D02*
X10966122Y-12533150D01*
X10966122Y-12533150D02*
X10994693Y-12533150D01*
X10994693Y-12533150D02*
X11013741Y-12542674D01*
X11013741Y-12542674D02*
X11023265Y-12552198D01*
X11023265Y-12552198D02*
X11032788Y-12571246D01*
X11032788Y-12571246D02*
X11032788Y-12628388D01*
X11032788Y-12628388D02*
X11023265Y-12647436D01*
X11023265Y-12647436D02*
X11013741Y-12656960D01*
X11013741Y-12656960D02*
X10994693Y-12666484D01*
X10994693Y-12666484D02*
X10966122Y-12666484D01*
X11147074Y-12666484D02*
X11128026Y-12656960D01*
X11128026Y-12656960D02*
X11118503Y-12637912D01*
X11118503Y-12637912D02*
X11118503Y-12466484D01*
X11299455Y-12656960D02*
X11280407Y-12666484D01*
X11280407Y-12666484D02*
X11242312Y-12666484D01*
X11242312Y-12666484D02*
X11223264Y-12656960D01*
X11223264Y-12656960D02*
X11213741Y-12637912D01*
X11213741Y-12637912D02*
X11213741Y-12561722D01*
X11213741Y-12561722D02*
X11223264Y-12542674D01*
X11223264Y-12542674D02*
X11242312Y-12533150D01*
X11242312Y-12533150D02*
X11280407Y-12533150D01*
X11280407Y-12533150D02*
X11299455Y-12542674D01*
X11299455Y-12542674D02*
X11308979Y-12561722D01*
X11308979Y-12561722D02*
X11308979Y-12580769D01*
X11308979Y-12580769D02*
X11213741Y-12599817D01*
X11385169Y-12656960D02*
X11404217Y-12666484D01*
X11404217Y-12666484D02*
X11442312Y-12666484D01*
X11442312Y-12666484D02*
X11461360Y-12656960D01*
X11461360Y-12656960D02*
X11470884Y-12637912D01*
X11470884Y-12637912D02*
X11470884Y-12628388D01*
X11470884Y-12628388D02*
X11461360Y-12609341D01*
X11461360Y-12609341D02*
X11442312Y-12599817D01*
X11442312Y-12599817D02*
X11413741Y-12599817D01*
X11413741Y-12599817D02*
X11394693Y-12590293D01*
X11394693Y-12590293D02*
X11385169Y-12571246D01*
X11385169Y-12571246D02*
X11385169Y-12561722D01*
X11385169Y-12561722D02*
X11394693Y-12542674D01*
X11394693Y-12542674D02*
X11413741Y-12533150D01*
X11413741Y-12533150D02*
X11442312Y-12533150D01*
X11442312Y-12533150D02*
X11461360Y-12542674D01*
X11537550Y-12742674D02*
X11547074Y-12733150D01*
X11547074Y-12733150D02*
X11566122Y-12704579D01*
X11566122Y-12704579D02*
X11575645Y-12685531D01*
X11575645Y-12685531D02*
X11585169Y-12656960D01*
X11585169Y-12656960D02*
X11594693Y-12609341D01*
X11594693Y-12609341D02*
X11594693Y-12571246D01*
X11594693Y-12571246D02*
X11585169Y-12523627D01*
X11585169Y-12523627D02*
X11575645Y-12495055D01*
X11575645Y-12495055D02*
X11566122Y-12476008D01*
X11566122Y-12476008D02*
X11547074Y-12447436D01*
X11547074Y-12447436D02*
X11537550Y-12437912D01*
D12*
X6762487Y-12839000D02*
G75*
G03*
X6762487Y-12839000I-32500J0D01*
G01*
D10*
X7061359Y-12730484D02*
X7080407Y-12730484D01*
X7080407Y-12730484D02*
X7099455Y-12740008D01*
X7099455Y-12740008D02*
X7108978Y-12749531D01*
X7108978Y-12749531D02*
X7118502Y-12768579D01*
X7118502Y-12768579D02*
X7128026Y-12806674D01*
X7128026Y-12806674D02*
X7128026Y-12854293D01*
X7128026Y-12854293D02*
X7118502Y-12892388D01*
X7118502Y-12892388D02*
X7108978Y-12911436D01*
X7108978Y-12911436D02*
X7099455Y-12920960D01*
X7099455Y-12920960D02*
X7080407Y-12930484D01*
X7080407Y-12930484D02*
X7061359Y-12930484D01*
X7061359Y-12930484D02*
X7042312Y-12920960D01*
X7042312Y-12920960D02*
X7032788Y-12911436D01*
X7032788Y-12911436D02*
X7023264Y-12892388D01*
X7023264Y-12892388D02*
X7013740Y-12854293D01*
X7013740Y-12854293D02*
X7013740Y-12806674D01*
X7013740Y-12806674D02*
X7023264Y-12768579D01*
X7023264Y-12768579D02*
X7032788Y-12749531D01*
X7032788Y-12749531D02*
X7042312Y-12740008D01*
X7042312Y-12740008D02*
X7061359Y-12730484D01*
X7213740Y-12911436D02*
X7223264Y-12920960D01*
X7223264Y-12920960D02*
X7213740Y-12930484D01*
X7213740Y-12930484D02*
X7204216Y-12920960D01*
X7204216Y-12920960D02*
X7213740Y-12911436D01*
X7213740Y-12911436D02*
X7213740Y-12930484D01*
X7394693Y-12730484D02*
X7356597Y-12730484D01*
X7356597Y-12730484D02*
X7337550Y-12740008D01*
X7337550Y-12740008D02*
X7328026Y-12749531D01*
X7328026Y-12749531D02*
X7308978Y-12778103D01*
X7308978Y-12778103D02*
X7299455Y-12816198D01*
X7299455Y-12816198D02*
X7299455Y-12892388D01*
X7299455Y-12892388D02*
X7308978Y-12911436D01*
X7308978Y-12911436D02*
X7318502Y-12920960D01*
X7318502Y-12920960D02*
X7337550Y-12930484D01*
X7337550Y-12930484D02*
X7375645Y-12930484D01*
X7375645Y-12930484D02*
X7394693Y-12920960D01*
X7394693Y-12920960D02*
X7404216Y-12911436D01*
X7404216Y-12911436D02*
X7413740Y-12892388D01*
X7413740Y-12892388D02*
X7413740Y-12844769D01*
X7413740Y-12844769D02*
X7404216Y-12825722D01*
X7404216Y-12825722D02*
X7394693Y-12816198D01*
X7394693Y-12816198D02*
X7375645Y-12806674D01*
X7375645Y-12806674D02*
X7337550Y-12806674D01*
X7337550Y-12806674D02*
X7318502Y-12816198D01*
X7318502Y-12816198D02*
X7308978Y-12825722D01*
X7308978Y-12825722D02*
X7299455Y-12844769D01*
X7594693Y-12730484D02*
X7499455Y-12730484D01*
X7499455Y-12730484D02*
X7489931Y-12825722D01*
X7489931Y-12825722D02*
X7499455Y-12816198D01*
X7499455Y-12816198D02*
X7518502Y-12806674D01*
X7518502Y-12806674D02*
X7566121Y-12806674D01*
X7566121Y-12806674D02*
X7585169Y-12816198D01*
X7585169Y-12816198D02*
X7594693Y-12825722D01*
X7594693Y-12825722D02*
X7604216Y-12844769D01*
X7604216Y-12844769D02*
X7604216Y-12892388D01*
X7604216Y-12892388D02*
X7594693Y-12911436D01*
X7594693Y-12911436D02*
X7585169Y-12920960D01*
X7585169Y-12920960D02*
X7566121Y-12930484D01*
X7566121Y-12930484D02*
X7518502Y-12930484D01*
X7518502Y-12930484D02*
X7499455Y-12920960D01*
X7499455Y-12920960D02*
X7489931Y-12911436D01*
X7728026Y-12730484D02*
X7747074Y-12730484D01*
X7747074Y-12730484D02*
X7766121Y-12740008D01*
X7766121Y-12740008D02*
X7775645Y-12749531D01*
X7775645Y-12749531D02*
X7785169Y-12768579D01*
X7785169Y-12768579D02*
X7794693Y-12806674D01*
X7794693Y-12806674D02*
X7794693Y-12854293D01*
X7794693Y-12854293D02*
X7785169Y-12892388D01*
X7785169Y-12892388D02*
X7775645Y-12911436D01*
X7775645Y-12911436D02*
X7766121Y-12920960D01*
X7766121Y-12920960D02*
X7747074Y-12930484D01*
X7747074Y-12930484D02*
X7728026Y-12930484D01*
X7728026Y-12930484D02*
X7708978Y-12920960D01*
X7708978Y-12920960D02*
X7699455Y-12911436D01*
X7699455Y-12911436D02*
X7689931Y-12892388D01*
X7689931Y-12892388D02*
X7680407Y-12854293D01*
X7680407Y-12854293D02*
X7680407Y-12806674D01*
X7680407Y-12806674D02*
X7689931Y-12768579D01*
X7689931Y-12768579D02*
X7699455Y-12749531D01*
X7699455Y-12749531D02*
X7708978Y-12740008D01*
X7708978Y-12740008D02*
X7728026Y-12730484D01*
X7880407Y-12930484D02*
X7880407Y-12797150D01*
X7880407Y-12816198D02*
X7889931Y-12806674D01*
X7889931Y-12806674D02*
X7908978Y-12797150D01*
X7908978Y-12797150D02*
X7937550Y-12797150D01*
X7937550Y-12797150D02*
X7956597Y-12806674D01*
X7956597Y-12806674D02*
X7966121Y-12825722D01*
X7966121Y-12825722D02*
X7966121Y-12930484D01*
X7966121Y-12825722D02*
X7975645Y-12806674D01*
X7975645Y-12806674D02*
X7994693Y-12797150D01*
X7994693Y-12797150D02*
X8023264Y-12797150D01*
X8023264Y-12797150D02*
X8042312Y-12806674D01*
X8042312Y-12806674D02*
X8051836Y-12825722D01*
X8051836Y-12825722D02*
X8051836Y-12930484D01*
X8147074Y-12930484D02*
X8147074Y-12797150D01*
X8147074Y-12816198D02*
X8156597Y-12806674D01*
X8156597Y-12806674D02*
X8175645Y-12797150D01*
X8175645Y-12797150D02*
X8204217Y-12797150D01*
X8204217Y-12797150D02*
X8223264Y-12806674D01*
X8223264Y-12806674D02*
X8232788Y-12825722D01*
X8232788Y-12825722D02*
X8232788Y-12930484D01*
X8232788Y-12825722D02*
X8242312Y-12806674D01*
X8242312Y-12806674D02*
X8261359Y-12797150D01*
X8261359Y-12797150D02*
X8289931Y-12797150D01*
X8289931Y-12797150D02*
X8308978Y-12806674D01*
X8308978Y-12806674D02*
X8318502Y-12825722D01*
X8318502Y-12825722D02*
X8318502Y-12930484D01*
X8708979Y-12720960D02*
X8537550Y-12978103D01*
X8966121Y-12730484D02*
X8985169Y-12730484D01*
X8985169Y-12730484D02*
X9004217Y-12740008D01*
X9004217Y-12740008D02*
X9013741Y-12749531D01*
X9013741Y-12749531D02*
X9023264Y-12768579D01*
X9023264Y-12768579D02*
X9032788Y-12806674D01*
X9032788Y-12806674D02*
X9032788Y-12854293D01*
X9032788Y-12854293D02*
X9023264Y-12892388D01*
X9023264Y-12892388D02*
X9013741Y-12911436D01*
X9013741Y-12911436D02*
X9004217Y-12920960D01*
X9004217Y-12920960D02*
X8985169Y-12930484D01*
X8985169Y-12930484D02*
X8966121Y-12930484D01*
X8966121Y-12930484D02*
X8947074Y-12920960D01*
X8947074Y-12920960D02*
X8937550Y-12911436D01*
X8937550Y-12911436D02*
X8928026Y-12892388D01*
X8928026Y-12892388D02*
X8918502Y-12854293D01*
X8918502Y-12854293D02*
X8918502Y-12806674D01*
X8918502Y-12806674D02*
X8928026Y-12768579D01*
X8928026Y-12768579D02*
X8937550Y-12749531D01*
X8937550Y-12749531D02*
X8947074Y-12740008D01*
X8947074Y-12740008D02*
X8966121Y-12730484D01*
X9118502Y-12911436D02*
X9128026Y-12920960D01*
X9128026Y-12920960D02*
X9118502Y-12930484D01*
X9118502Y-12930484D02*
X9108979Y-12920960D01*
X9108979Y-12920960D02*
X9118502Y-12911436D01*
X9118502Y-12911436D02*
X9118502Y-12930484D01*
X9251836Y-12730484D02*
X9270883Y-12730484D01*
X9270883Y-12730484D02*
X9289931Y-12740008D01*
X9289931Y-12740008D02*
X9299455Y-12749531D01*
X9299455Y-12749531D02*
X9308979Y-12768579D01*
X9308979Y-12768579D02*
X9318502Y-12806674D01*
X9318502Y-12806674D02*
X9318502Y-12854293D01*
X9318502Y-12854293D02*
X9308979Y-12892388D01*
X9308979Y-12892388D02*
X9299455Y-12911436D01*
X9299455Y-12911436D02*
X9289931Y-12920960D01*
X9289931Y-12920960D02*
X9270883Y-12930484D01*
X9270883Y-12930484D02*
X9251836Y-12930484D01*
X9251836Y-12930484D02*
X9232788Y-12920960D01*
X9232788Y-12920960D02*
X9223264Y-12911436D01*
X9223264Y-12911436D02*
X9213741Y-12892388D01*
X9213741Y-12892388D02*
X9204217Y-12854293D01*
X9204217Y-12854293D02*
X9204217Y-12806674D01*
X9204217Y-12806674D02*
X9213741Y-12768579D01*
X9213741Y-12768579D02*
X9223264Y-12749531D01*
X9223264Y-12749531D02*
X9232788Y-12740008D01*
X9232788Y-12740008D02*
X9251836Y-12730484D01*
X9394693Y-12749531D02*
X9404217Y-12740008D01*
X9404217Y-12740008D02*
X9423264Y-12730484D01*
X9423264Y-12730484D02*
X9470883Y-12730484D01*
X9470883Y-12730484D02*
X9489931Y-12740008D01*
X9489931Y-12740008D02*
X9499455Y-12749531D01*
X9499455Y-12749531D02*
X9508979Y-12768579D01*
X9508979Y-12768579D02*
X9508979Y-12787627D01*
X9508979Y-12787627D02*
X9499455Y-12816198D01*
X9499455Y-12816198D02*
X9385169Y-12930484D01*
X9385169Y-12930484D02*
X9508979Y-12930484D01*
X9689931Y-12730484D02*
X9594693Y-12730484D01*
X9594693Y-12730484D02*
X9585169Y-12825722D01*
X9585169Y-12825722D02*
X9594693Y-12816198D01*
X9594693Y-12816198D02*
X9613741Y-12806674D01*
X9613741Y-12806674D02*
X9661360Y-12806674D01*
X9661360Y-12806674D02*
X9680407Y-12816198D01*
X9680407Y-12816198D02*
X9689931Y-12825722D01*
X9689931Y-12825722D02*
X9699455Y-12844769D01*
X9699455Y-12844769D02*
X9699455Y-12892388D01*
X9699455Y-12892388D02*
X9689931Y-12911436D01*
X9689931Y-12911436D02*
X9680407Y-12920960D01*
X9680407Y-12920960D02*
X9661360Y-12930484D01*
X9661360Y-12930484D02*
X9613741Y-12930484D01*
X9613741Y-12930484D02*
X9594693Y-12920960D01*
X9594693Y-12920960D02*
X9585169Y-12911436D01*
X9870883Y-12730484D02*
X9832788Y-12730484D01*
X9832788Y-12730484D02*
X9813741Y-12740008D01*
X9813741Y-12740008D02*
X9804217Y-12749531D01*
X9804217Y-12749531D02*
X9785169Y-12778103D01*
X9785169Y-12778103D02*
X9775645Y-12816198D01*
X9775645Y-12816198D02*
X9775645Y-12892388D01*
X9775645Y-12892388D02*
X9785169Y-12911436D01*
X9785169Y-12911436D02*
X9794693Y-12920960D01*
X9794693Y-12920960D02*
X9813741Y-12930484D01*
X9813741Y-12930484D02*
X9851836Y-12930484D01*
X9851836Y-12930484D02*
X9870883Y-12920960D01*
X9870883Y-12920960D02*
X9880407Y-12911436D01*
X9880407Y-12911436D02*
X9889931Y-12892388D01*
X9889931Y-12892388D02*
X9889931Y-12844769D01*
X9889931Y-12844769D02*
X9880407Y-12825722D01*
X9880407Y-12825722D02*
X9870883Y-12816198D01*
X9870883Y-12816198D02*
X9851836Y-12806674D01*
X9851836Y-12806674D02*
X9813741Y-12806674D01*
X9813741Y-12806674D02*
X9794693Y-12816198D01*
X9794693Y-12816198D02*
X9785169Y-12825722D01*
X9785169Y-12825722D02*
X9775645Y-12844769D01*
X9966122Y-12730484D02*
X9966122Y-12768579D01*
X10042312Y-12730484D02*
X10042312Y-12768579D01*
X10337550Y-13006674D02*
X10328026Y-12997150D01*
X10328026Y-12997150D02*
X10308979Y-12968579D01*
X10308979Y-12968579D02*
X10299455Y-12949531D01*
X10299455Y-12949531D02*
X10289931Y-12920960D01*
X10289931Y-12920960D02*
X10280407Y-12873341D01*
X10280407Y-12873341D02*
X10280407Y-12835246D01*
X10280407Y-12835246D02*
X10289931Y-12787627D01*
X10289931Y-12787627D02*
X10299455Y-12759055D01*
X10299455Y-12759055D02*
X10308979Y-12740008D01*
X10308979Y-12740008D02*
X10328026Y-12711436D01*
X10328026Y-12711436D02*
X10337550Y-12701912D01*
X10404217Y-12749531D02*
X10413741Y-12740008D01*
X10413741Y-12740008D02*
X10432788Y-12730484D01*
X10432788Y-12730484D02*
X10480407Y-12730484D01*
X10480407Y-12730484D02*
X10499455Y-12740008D01*
X10499455Y-12740008D02*
X10508979Y-12749531D01*
X10508979Y-12749531D02*
X10518503Y-12768579D01*
X10518503Y-12768579D02*
X10518503Y-12787627D01*
X10518503Y-12787627D02*
X10508979Y-12816198D01*
X10508979Y-12816198D02*
X10394693Y-12930484D01*
X10394693Y-12930484D02*
X10518503Y-12930484D01*
X10756598Y-12930484D02*
X10756598Y-12730484D01*
X10842312Y-12930484D02*
X10842312Y-12825722D01*
X10842312Y-12825722D02*
X10832788Y-12806674D01*
X10832788Y-12806674D02*
X10813741Y-12797150D01*
X10813741Y-12797150D02*
X10785169Y-12797150D01*
X10785169Y-12797150D02*
X10766122Y-12806674D01*
X10766122Y-12806674D02*
X10756598Y-12816198D01*
X10966122Y-12930484D02*
X10947074Y-12920960D01*
X10947074Y-12920960D02*
X10937550Y-12911436D01*
X10937550Y-12911436D02*
X10928026Y-12892388D01*
X10928026Y-12892388D02*
X10928026Y-12835246D01*
X10928026Y-12835246D02*
X10937550Y-12816198D01*
X10937550Y-12816198D02*
X10947074Y-12806674D01*
X10947074Y-12806674D02*
X10966122Y-12797150D01*
X10966122Y-12797150D02*
X10994693Y-12797150D01*
X10994693Y-12797150D02*
X11013741Y-12806674D01*
X11013741Y-12806674D02*
X11023265Y-12816198D01*
X11023265Y-12816198D02*
X11032788Y-12835246D01*
X11032788Y-12835246D02*
X11032788Y-12892388D01*
X11032788Y-12892388D02*
X11023265Y-12911436D01*
X11023265Y-12911436D02*
X11013741Y-12920960D01*
X11013741Y-12920960D02*
X10994693Y-12930484D01*
X10994693Y-12930484D02*
X10966122Y-12930484D01*
X11147074Y-12930484D02*
X11128026Y-12920960D01*
X11128026Y-12920960D02*
X11118503Y-12901912D01*
X11118503Y-12901912D02*
X11118503Y-12730484D01*
X11299455Y-12920960D02*
X11280407Y-12930484D01*
X11280407Y-12930484D02*
X11242312Y-12930484D01*
X11242312Y-12930484D02*
X11223264Y-12920960D01*
X11223264Y-12920960D02*
X11213741Y-12901912D01*
X11213741Y-12901912D02*
X11213741Y-12825722D01*
X11213741Y-12825722D02*
X11223264Y-12806674D01*
X11223264Y-12806674D02*
X11242312Y-12797150D01*
X11242312Y-12797150D02*
X11280407Y-12797150D01*
X11280407Y-12797150D02*
X11299455Y-12806674D01*
X11299455Y-12806674D02*
X11308979Y-12825722D01*
X11308979Y-12825722D02*
X11308979Y-12844769D01*
X11308979Y-12844769D02*
X11213741Y-12863817D01*
X11385169Y-12920960D02*
X11404217Y-12930484D01*
X11404217Y-12930484D02*
X11442312Y-12930484D01*
X11442312Y-12930484D02*
X11461360Y-12920960D01*
X11461360Y-12920960D02*
X11470884Y-12901912D01*
X11470884Y-12901912D02*
X11470884Y-12892388D01*
X11470884Y-12892388D02*
X11461360Y-12873341D01*
X11461360Y-12873341D02*
X11442312Y-12863817D01*
X11442312Y-12863817D02*
X11413741Y-12863817D01*
X11413741Y-12863817D02*
X11394693Y-12854293D01*
X11394693Y-12854293D02*
X11385169Y-12835246D01*
X11385169Y-12835246D02*
X11385169Y-12825722D01*
X11385169Y-12825722D02*
X11394693Y-12806674D01*
X11394693Y-12806674D02*
X11413741Y-12797150D01*
X11413741Y-12797150D02*
X11442312Y-12797150D01*
X11442312Y-12797150D02*
X11461360Y-12806674D01*
X11537550Y-13006674D02*
X11547074Y-12997150D01*
X11547074Y-12997150D02*
X11566122Y-12968579D01*
X11566122Y-12968579D02*
X11575645Y-12949531D01*
X11575645Y-12949531D02*
X11585169Y-12920960D01*
X11585169Y-12920960D02*
X11594693Y-12873341D01*
X11594693Y-12873341D02*
X11594693Y-12835246D01*
X11594693Y-12835246D02*
X11585169Y-12787627D01*
X11585169Y-12787627D02*
X11575645Y-12759055D01*
X11575645Y-12759055D02*
X11566122Y-12740008D01*
X11566122Y-12740008D02*
X11547074Y-12711436D01*
X11547074Y-12711436D02*
X11537550Y-12701912D01*
D13*
X6712487Y-13053000D02*
X6712487Y-13153000D01*
X6662487Y-13103000D02*
X6762487Y-13103000D01*
D10*
X7128026Y-13194484D02*
X7013740Y-13194484D01*
X7070883Y-13194484D02*
X7070883Y-12994484D01*
X7070883Y-12994484D02*
X7051835Y-13023055D01*
X7051835Y-13023055D02*
X7032788Y-13042103D01*
X7032788Y-13042103D02*
X7013740Y-13051627D01*
X7213740Y-13175436D02*
X7223264Y-13184960D01*
X7223264Y-13184960D02*
X7213740Y-13194484D01*
X7213740Y-13194484D02*
X7204216Y-13184960D01*
X7204216Y-13184960D02*
X7213740Y-13175436D01*
X7213740Y-13175436D02*
X7213740Y-13194484D01*
X7347074Y-12994484D02*
X7366121Y-12994484D01*
X7366121Y-12994484D02*
X7385169Y-13004008D01*
X7385169Y-13004008D02*
X7394693Y-13013531D01*
X7394693Y-13013531D02*
X7404216Y-13032579D01*
X7404216Y-13032579D02*
X7413740Y-13070674D01*
X7413740Y-13070674D02*
X7413740Y-13118293D01*
X7413740Y-13118293D02*
X7404216Y-13156388D01*
X7404216Y-13156388D02*
X7394693Y-13175436D01*
X7394693Y-13175436D02*
X7385169Y-13184960D01*
X7385169Y-13184960D02*
X7366121Y-13194484D01*
X7366121Y-13194484D02*
X7347074Y-13194484D01*
X7347074Y-13194484D02*
X7328026Y-13184960D01*
X7328026Y-13184960D02*
X7318502Y-13175436D01*
X7318502Y-13175436D02*
X7308978Y-13156388D01*
X7308978Y-13156388D02*
X7299455Y-13118293D01*
X7299455Y-13118293D02*
X7299455Y-13070674D01*
X7299455Y-13070674D02*
X7308978Y-13032579D01*
X7308978Y-13032579D02*
X7318502Y-13013531D01*
X7318502Y-13013531D02*
X7328026Y-13004008D01*
X7328026Y-13004008D02*
X7347074Y-12994484D01*
X7537550Y-12994484D02*
X7556597Y-12994484D01*
X7556597Y-12994484D02*
X7575645Y-13004008D01*
X7575645Y-13004008D02*
X7585169Y-13013531D01*
X7585169Y-13013531D02*
X7594693Y-13032579D01*
X7594693Y-13032579D02*
X7604216Y-13070674D01*
X7604216Y-13070674D02*
X7604216Y-13118293D01*
X7604216Y-13118293D02*
X7594693Y-13156388D01*
X7594693Y-13156388D02*
X7585169Y-13175436D01*
X7585169Y-13175436D02*
X7575645Y-13184960D01*
X7575645Y-13184960D02*
X7556597Y-13194484D01*
X7556597Y-13194484D02*
X7537550Y-13194484D01*
X7537550Y-13194484D02*
X7518502Y-13184960D01*
X7518502Y-13184960D02*
X7508978Y-13175436D01*
X7508978Y-13175436D02*
X7499455Y-13156388D01*
X7499455Y-13156388D02*
X7489931Y-13118293D01*
X7489931Y-13118293D02*
X7489931Y-13070674D01*
X7489931Y-13070674D02*
X7499455Y-13032579D01*
X7499455Y-13032579D02*
X7508978Y-13013531D01*
X7508978Y-13013531D02*
X7518502Y-13004008D01*
X7518502Y-13004008D02*
X7537550Y-12994484D01*
X7728026Y-12994484D02*
X7747074Y-12994484D01*
X7747074Y-12994484D02*
X7766121Y-13004008D01*
X7766121Y-13004008D02*
X7775645Y-13013531D01*
X7775645Y-13013531D02*
X7785169Y-13032579D01*
X7785169Y-13032579D02*
X7794693Y-13070674D01*
X7794693Y-13070674D02*
X7794693Y-13118293D01*
X7794693Y-13118293D02*
X7785169Y-13156388D01*
X7785169Y-13156388D02*
X7775645Y-13175436D01*
X7775645Y-13175436D02*
X7766121Y-13184960D01*
X7766121Y-13184960D02*
X7747074Y-13194484D01*
X7747074Y-13194484D02*
X7728026Y-13194484D01*
X7728026Y-13194484D02*
X7708978Y-13184960D01*
X7708978Y-13184960D02*
X7699455Y-13175436D01*
X7699455Y-13175436D02*
X7689931Y-13156388D01*
X7689931Y-13156388D02*
X7680407Y-13118293D01*
X7680407Y-13118293D02*
X7680407Y-13070674D01*
X7680407Y-13070674D02*
X7689931Y-13032579D01*
X7689931Y-13032579D02*
X7699455Y-13013531D01*
X7699455Y-13013531D02*
X7708978Y-13004008D01*
X7708978Y-13004008D02*
X7728026Y-12994484D01*
X7880407Y-13194484D02*
X7880407Y-13061150D01*
X7880407Y-13080198D02*
X7889931Y-13070674D01*
X7889931Y-13070674D02*
X7908978Y-13061150D01*
X7908978Y-13061150D02*
X7937550Y-13061150D01*
X7937550Y-13061150D02*
X7956597Y-13070674D01*
X7956597Y-13070674D02*
X7966121Y-13089722D01*
X7966121Y-13089722D02*
X7966121Y-13194484D01*
X7966121Y-13089722D02*
X7975645Y-13070674D01*
X7975645Y-13070674D02*
X7994693Y-13061150D01*
X7994693Y-13061150D02*
X8023264Y-13061150D01*
X8023264Y-13061150D02*
X8042312Y-13070674D01*
X8042312Y-13070674D02*
X8051836Y-13089722D01*
X8051836Y-13089722D02*
X8051836Y-13194484D01*
X8147074Y-13194484D02*
X8147074Y-13061150D01*
X8147074Y-13080198D02*
X8156597Y-13070674D01*
X8156597Y-13070674D02*
X8175645Y-13061150D01*
X8175645Y-13061150D02*
X8204217Y-13061150D01*
X8204217Y-13061150D02*
X8223264Y-13070674D01*
X8223264Y-13070674D02*
X8232788Y-13089722D01*
X8232788Y-13089722D02*
X8232788Y-13194484D01*
X8232788Y-13089722D02*
X8242312Y-13070674D01*
X8242312Y-13070674D02*
X8261359Y-13061150D01*
X8261359Y-13061150D02*
X8289931Y-13061150D01*
X8289931Y-13061150D02*
X8308978Y-13070674D01*
X8308978Y-13070674D02*
X8318502Y-13089722D01*
X8318502Y-13089722D02*
X8318502Y-13194484D01*
X8708979Y-12984960D02*
X8537550Y-13242103D01*
X8966121Y-12994484D02*
X8985169Y-12994484D01*
X8985169Y-12994484D02*
X9004217Y-13004008D01*
X9004217Y-13004008D02*
X9013741Y-13013531D01*
X9013741Y-13013531D02*
X9023264Y-13032579D01*
X9023264Y-13032579D02*
X9032788Y-13070674D01*
X9032788Y-13070674D02*
X9032788Y-13118293D01*
X9032788Y-13118293D02*
X9023264Y-13156388D01*
X9023264Y-13156388D02*
X9013741Y-13175436D01*
X9013741Y-13175436D02*
X9004217Y-13184960D01*
X9004217Y-13184960D02*
X8985169Y-13194484D01*
X8985169Y-13194484D02*
X8966121Y-13194484D01*
X8966121Y-13194484D02*
X8947074Y-13184960D01*
X8947074Y-13184960D02*
X8937550Y-13175436D01*
X8937550Y-13175436D02*
X8928026Y-13156388D01*
X8928026Y-13156388D02*
X8918502Y-13118293D01*
X8918502Y-13118293D02*
X8918502Y-13070674D01*
X8918502Y-13070674D02*
X8928026Y-13032579D01*
X8928026Y-13032579D02*
X8937550Y-13013531D01*
X8937550Y-13013531D02*
X8947074Y-13004008D01*
X8947074Y-13004008D02*
X8966121Y-12994484D01*
X9118502Y-13175436D02*
X9128026Y-13184960D01*
X9128026Y-13184960D02*
X9118502Y-13194484D01*
X9118502Y-13194484D02*
X9108979Y-13184960D01*
X9108979Y-13184960D02*
X9118502Y-13175436D01*
X9118502Y-13175436D02*
X9118502Y-13194484D01*
X9251836Y-12994484D02*
X9270883Y-12994484D01*
X9270883Y-12994484D02*
X9289931Y-13004008D01*
X9289931Y-13004008D02*
X9299455Y-13013531D01*
X9299455Y-13013531D02*
X9308979Y-13032579D01*
X9308979Y-13032579D02*
X9318502Y-13070674D01*
X9318502Y-13070674D02*
X9318502Y-13118293D01*
X9318502Y-13118293D02*
X9308979Y-13156388D01*
X9308979Y-13156388D02*
X9299455Y-13175436D01*
X9299455Y-13175436D02*
X9289931Y-13184960D01*
X9289931Y-13184960D02*
X9270883Y-13194484D01*
X9270883Y-13194484D02*
X9251836Y-13194484D01*
X9251836Y-13194484D02*
X9232788Y-13184960D01*
X9232788Y-13184960D02*
X9223264Y-13175436D01*
X9223264Y-13175436D02*
X9213741Y-13156388D01*
X9213741Y-13156388D02*
X9204217Y-13118293D01*
X9204217Y-13118293D02*
X9204217Y-13070674D01*
X9204217Y-13070674D02*
X9213741Y-13032579D01*
X9213741Y-13032579D02*
X9223264Y-13013531D01*
X9223264Y-13013531D02*
X9232788Y-13004008D01*
X9232788Y-13004008D02*
X9251836Y-12994484D01*
X9385169Y-12994484D02*
X9508979Y-12994484D01*
X9508979Y-12994484D02*
X9442312Y-13070674D01*
X9442312Y-13070674D02*
X9470883Y-13070674D01*
X9470883Y-13070674D02*
X9489931Y-13080198D01*
X9489931Y-13080198D02*
X9499455Y-13089722D01*
X9499455Y-13089722D02*
X9508979Y-13108769D01*
X9508979Y-13108769D02*
X9508979Y-13156388D01*
X9508979Y-13156388D02*
X9499455Y-13175436D01*
X9499455Y-13175436D02*
X9489931Y-13184960D01*
X9489931Y-13184960D02*
X9470883Y-13194484D01*
X9470883Y-13194484D02*
X9413741Y-13194484D01*
X9413741Y-13194484D02*
X9394693Y-13184960D01*
X9394693Y-13184960D02*
X9385169Y-13175436D01*
X9604217Y-13194484D02*
X9642312Y-13194484D01*
X9642312Y-13194484D02*
X9661360Y-13184960D01*
X9661360Y-13184960D02*
X9670883Y-13175436D01*
X9670883Y-13175436D02*
X9689931Y-13146865D01*
X9689931Y-13146865D02*
X9699455Y-13108769D01*
X9699455Y-13108769D02*
X9699455Y-13032579D01*
X9699455Y-13032579D02*
X9689931Y-13013531D01*
X9689931Y-13013531D02*
X9680407Y-13004008D01*
X9680407Y-13004008D02*
X9661360Y-12994484D01*
X9661360Y-12994484D02*
X9623264Y-12994484D01*
X9623264Y-12994484D02*
X9604217Y-13004008D01*
X9604217Y-13004008D02*
X9594693Y-13013531D01*
X9594693Y-13013531D02*
X9585169Y-13032579D01*
X9585169Y-13032579D02*
X9585169Y-13080198D01*
X9585169Y-13080198D02*
X9594693Y-13099246D01*
X9594693Y-13099246D02*
X9604217Y-13108769D01*
X9604217Y-13108769D02*
X9623264Y-13118293D01*
X9623264Y-13118293D02*
X9661360Y-13118293D01*
X9661360Y-13118293D02*
X9680407Y-13108769D01*
X9680407Y-13108769D02*
X9689931Y-13099246D01*
X9689931Y-13099246D02*
X9699455Y-13080198D01*
X9870883Y-13061150D02*
X9870883Y-13194484D01*
X9823264Y-12984960D02*
X9775645Y-13127817D01*
X9775645Y-13127817D02*
X9899455Y-13127817D01*
X9966122Y-12994484D02*
X9966122Y-13032579D01*
X10042312Y-12994484D02*
X10042312Y-13032579D01*
X10337550Y-13270674D02*
X10328026Y-13261150D01*
X10328026Y-13261150D02*
X10308979Y-13232579D01*
X10308979Y-13232579D02*
X10299455Y-13213531D01*
X10299455Y-13213531D02*
X10289931Y-13184960D01*
X10289931Y-13184960D02*
X10280407Y-13137341D01*
X10280407Y-13137341D02*
X10280407Y-13099246D01*
X10280407Y-13099246D02*
X10289931Y-13051627D01*
X10289931Y-13051627D02*
X10299455Y-13023055D01*
X10299455Y-13023055D02*
X10308979Y-13004008D01*
X10308979Y-13004008D02*
X10328026Y-12975436D01*
X10328026Y-12975436D02*
X10337550Y-12965912D01*
X10451836Y-12994484D02*
X10470884Y-12994484D01*
X10470884Y-12994484D02*
X10489931Y-13004008D01*
X10489931Y-13004008D02*
X10499455Y-13013531D01*
X10499455Y-13013531D02*
X10508979Y-13032579D01*
X10508979Y-13032579D02*
X10518503Y-13070674D01*
X10518503Y-13070674D02*
X10518503Y-13118293D01*
X10518503Y-13118293D02*
X10508979Y-13156388D01*
X10508979Y-13156388D02*
X10499455Y-13175436D01*
X10499455Y-13175436D02*
X10489931Y-13184960D01*
X10489931Y-13184960D02*
X10470884Y-13194484D01*
X10470884Y-13194484D02*
X10451836Y-13194484D01*
X10451836Y-13194484D02*
X10432788Y-13184960D01*
X10432788Y-13184960D02*
X10423264Y-13175436D01*
X10423264Y-13175436D02*
X10413741Y-13156388D01*
X10413741Y-13156388D02*
X10404217Y-13118293D01*
X10404217Y-13118293D02*
X10404217Y-13070674D01*
X10404217Y-13070674D02*
X10413741Y-13032579D01*
X10413741Y-13032579D02*
X10423264Y-13013531D01*
X10423264Y-13013531D02*
X10432788Y-13004008D01*
X10432788Y-13004008D02*
X10451836Y-12994484D01*
X10756598Y-13194484D02*
X10756598Y-12994484D01*
X10842312Y-13194484D02*
X10842312Y-13089722D01*
X10842312Y-13089722D02*
X10832788Y-13070674D01*
X10832788Y-13070674D02*
X10813741Y-13061150D01*
X10813741Y-13061150D02*
X10785169Y-13061150D01*
X10785169Y-13061150D02*
X10766122Y-13070674D01*
X10766122Y-13070674D02*
X10756598Y-13080198D01*
X10966122Y-13194484D02*
X10947074Y-13184960D01*
X10947074Y-13184960D02*
X10937550Y-13175436D01*
X10937550Y-13175436D02*
X10928026Y-13156388D01*
X10928026Y-13156388D02*
X10928026Y-13099246D01*
X10928026Y-13099246D02*
X10937550Y-13080198D01*
X10937550Y-13080198D02*
X10947074Y-13070674D01*
X10947074Y-13070674D02*
X10966122Y-13061150D01*
X10966122Y-13061150D02*
X10994693Y-13061150D01*
X10994693Y-13061150D02*
X11013741Y-13070674D01*
X11013741Y-13070674D02*
X11023265Y-13080198D01*
X11023265Y-13080198D02*
X11032788Y-13099246D01*
X11032788Y-13099246D02*
X11032788Y-13156388D01*
X11032788Y-13156388D02*
X11023265Y-13175436D01*
X11023265Y-13175436D02*
X11013741Y-13184960D01*
X11013741Y-13184960D02*
X10994693Y-13194484D01*
X10994693Y-13194484D02*
X10966122Y-13194484D01*
X11147074Y-13194484D02*
X11128026Y-13184960D01*
X11128026Y-13184960D02*
X11118503Y-13165912D01*
X11118503Y-13165912D02*
X11118503Y-12994484D01*
X11299455Y-13184960D02*
X11280407Y-13194484D01*
X11280407Y-13194484D02*
X11242312Y-13194484D01*
X11242312Y-13194484D02*
X11223264Y-13184960D01*
X11223264Y-13184960D02*
X11213741Y-13165912D01*
X11213741Y-13165912D02*
X11213741Y-13089722D01*
X11213741Y-13089722D02*
X11223264Y-13070674D01*
X11223264Y-13070674D02*
X11242312Y-13061150D01*
X11242312Y-13061150D02*
X11280407Y-13061150D01*
X11280407Y-13061150D02*
X11299455Y-13070674D01*
X11299455Y-13070674D02*
X11308979Y-13089722D01*
X11308979Y-13089722D02*
X11308979Y-13108769D01*
X11308979Y-13108769D02*
X11213741Y-13127817D01*
X11385169Y-13184960D02*
X11404217Y-13194484D01*
X11404217Y-13194484D02*
X11442312Y-13194484D01*
X11442312Y-13194484D02*
X11461360Y-13184960D01*
X11461360Y-13184960D02*
X11470884Y-13165912D01*
X11470884Y-13165912D02*
X11470884Y-13156388D01*
X11470884Y-13156388D02*
X11461360Y-13137341D01*
X11461360Y-13137341D02*
X11442312Y-13127817D01*
X11442312Y-13127817D02*
X11413741Y-13127817D01*
X11413741Y-13127817D02*
X11394693Y-13118293D01*
X11394693Y-13118293D02*
X11385169Y-13099246D01*
X11385169Y-13099246D02*
X11385169Y-13089722D01*
X11385169Y-13089722D02*
X11394693Y-13070674D01*
X11394693Y-13070674D02*
X11413741Y-13061150D01*
X11413741Y-13061150D02*
X11442312Y-13061150D01*
X11442312Y-13061150D02*
X11461360Y-13070674D01*
X11708979Y-13118293D02*
X11861360Y-13118293D01*
X11785169Y-13194484D02*
X11785169Y-13042103D01*
X12089931Y-12994484D02*
X12213741Y-12994484D01*
X12213741Y-12994484D02*
X12147074Y-13070674D01*
X12147074Y-13070674D02*
X12175646Y-13070674D01*
X12175646Y-13070674D02*
X12194693Y-13080198D01*
X12194693Y-13080198D02*
X12204217Y-13089722D01*
X12204217Y-13089722D02*
X12213741Y-13108769D01*
X12213741Y-13108769D02*
X12213741Y-13156388D01*
X12213741Y-13156388D02*
X12204217Y-13175436D01*
X12204217Y-13175436D02*
X12194693Y-13184960D01*
X12194693Y-13184960D02*
X12175646Y-13194484D01*
X12175646Y-13194484D02*
X12118503Y-13194484D01*
X12118503Y-13194484D02*
X12099455Y-13184960D01*
X12099455Y-13184960D02*
X12089931Y-13175436D01*
X12442312Y-13184960D02*
X12461360Y-13194484D01*
X12461360Y-13194484D02*
X12499455Y-13194484D01*
X12499455Y-13194484D02*
X12518503Y-13184960D01*
X12518503Y-13184960D02*
X12528027Y-13165912D01*
X12528027Y-13165912D02*
X12528027Y-13156388D01*
X12528027Y-13156388D02*
X12518503Y-13137341D01*
X12518503Y-13137341D02*
X12499455Y-13127817D01*
X12499455Y-13127817D02*
X12470884Y-13127817D01*
X12470884Y-13127817D02*
X12451836Y-13118293D01*
X12451836Y-13118293D02*
X12442312Y-13099246D01*
X12442312Y-13099246D02*
X12442312Y-13089722D01*
X12442312Y-13089722D02*
X12451836Y-13070674D01*
X12451836Y-13070674D02*
X12470884Y-13061150D01*
X12470884Y-13061150D02*
X12499455Y-13061150D01*
X12499455Y-13061150D02*
X12518503Y-13070674D01*
X12642312Y-13194484D02*
X12623265Y-13184960D01*
X12623265Y-13184960D02*
X12613741Y-13165912D01*
X12613741Y-13165912D02*
X12613741Y-12994484D01*
X12747074Y-13194484D02*
X12728027Y-13184960D01*
X12728027Y-13184960D02*
X12718503Y-13175436D01*
X12718503Y-13175436D02*
X12708979Y-13156388D01*
X12708979Y-13156388D02*
X12708979Y-13099246D01*
X12708979Y-13099246D02*
X12718503Y-13080198D01*
X12718503Y-13080198D02*
X12728027Y-13070674D01*
X12728027Y-13070674D02*
X12747074Y-13061150D01*
X12747074Y-13061150D02*
X12775646Y-13061150D01*
X12775646Y-13061150D02*
X12794693Y-13070674D01*
X12794693Y-13070674D02*
X12804217Y-13080198D01*
X12804217Y-13080198D02*
X12813741Y-13099246D01*
X12813741Y-13099246D02*
X12813741Y-13156388D01*
X12813741Y-13156388D02*
X12804217Y-13175436D01*
X12804217Y-13175436D02*
X12794693Y-13184960D01*
X12794693Y-13184960D02*
X12775646Y-13194484D01*
X12775646Y-13194484D02*
X12747074Y-13194484D01*
X12870884Y-13061150D02*
X12947074Y-13061150D01*
X12899455Y-12994484D02*
X12899455Y-13165912D01*
X12899455Y-13165912D02*
X12908979Y-13184960D01*
X12908979Y-13184960D02*
X12928027Y-13194484D01*
X12928027Y-13194484D02*
X12947074Y-13194484D01*
X13004217Y-13184960D02*
X13023265Y-13194484D01*
X13023265Y-13194484D02*
X13061360Y-13194484D01*
X13061360Y-13194484D02*
X13080408Y-13184960D01*
X13080408Y-13184960D02*
X13089931Y-13165912D01*
X13089931Y-13165912D02*
X13089931Y-13156388D01*
X13089931Y-13156388D02*
X13080408Y-13137341D01*
X13080408Y-13137341D02*
X13061360Y-13127817D01*
X13061360Y-13127817D02*
X13032788Y-13127817D01*
X13032788Y-13127817D02*
X13013741Y-13118293D01*
X13013741Y-13118293D02*
X13004217Y-13099246D01*
X13004217Y-13099246D02*
X13004217Y-13089722D01*
X13004217Y-13089722D02*
X13013741Y-13070674D01*
X13013741Y-13070674D02*
X13032788Y-13061150D01*
X13032788Y-13061150D02*
X13061360Y-13061150D01*
X13061360Y-13061150D02*
X13080408Y-13070674D01*
X13156598Y-13270674D02*
X13166122Y-13261150D01*
X13166122Y-13261150D02*
X13185169Y-13232579D01*
X13185169Y-13232579D02*
X13194693Y-13213531D01*
X13194693Y-13213531D02*
X13204217Y-13184960D01*
X13204217Y-13184960D02*
X13213741Y-13137341D01*
X13213741Y-13137341D02*
X13213741Y-13099246D01*
X13213741Y-13099246D02*
X13204217Y-13051627D01*
X13204217Y-13051627D02*
X13194693Y-13023055D01*
X13194693Y-13023055D02*
X13185169Y-13004008D01*
X13185169Y-13004008D02*
X13166122Y-12975436D01*
X13166122Y-12975436D02*
X13156598Y-12965912D01*
D14*
X6746378Y-13405891D02*
X6746378Y-13328109D01*
X6668596Y-13328109D01*
X6668596Y-13405891D01*
X6746378Y-13405891D01*
D10*
X7128026Y-13458484D02*
X7013740Y-13458484D01*
X7070883Y-13458484D02*
X7070883Y-13258484D01*
X7070883Y-13258484D02*
X7051835Y-13287055D01*
X7051835Y-13287055D02*
X7032788Y-13306103D01*
X7032788Y-13306103D02*
X7013740Y-13315627D01*
X7213740Y-13439436D02*
X7223264Y-13448960D01*
X7223264Y-13448960D02*
X7213740Y-13458484D01*
X7213740Y-13458484D02*
X7204216Y-13448960D01*
X7204216Y-13448960D02*
X7213740Y-13439436D01*
X7213740Y-13439436D02*
X7213740Y-13458484D01*
X7413740Y-13458484D02*
X7299455Y-13458484D01*
X7356597Y-13458484D02*
X7356597Y-13258484D01*
X7356597Y-13258484D02*
X7337550Y-13287055D01*
X7337550Y-13287055D02*
X7318502Y-13306103D01*
X7318502Y-13306103D02*
X7299455Y-13315627D01*
X7537550Y-13258484D02*
X7556597Y-13258484D01*
X7556597Y-13258484D02*
X7575645Y-13268008D01*
X7575645Y-13268008D02*
X7585169Y-13277531D01*
X7585169Y-13277531D02*
X7594693Y-13296579D01*
X7594693Y-13296579D02*
X7604216Y-13334674D01*
X7604216Y-13334674D02*
X7604216Y-13382293D01*
X7604216Y-13382293D02*
X7594693Y-13420388D01*
X7594693Y-13420388D02*
X7585169Y-13439436D01*
X7585169Y-13439436D02*
X7575645Y-13448960D01*
X7575645Y-13448960D02*
X7556597Y-13458484D01*
X7556597Y-13458484D02*
X7537550Y-13458484D01*
X7537550Y-13458484D02*
X7518502Y-13448960D01*
X7518502Y-13448960D02*
X7508978Y-13439436D01*
X7508978Y-13439436D02*
X7499455Y-13420388D01*
X7499455Y-13420388D02*
X7489931Y-13382293D01*
X7489931Y-13382293D02*
X7489931Y-13334674D01*
X7489931Y-13334674D02*
X7499455Y-13296579D01*
X7499455Y-13296579D02*
X7508978Y-13277531D01*
X7508978Y-13277531D02*
X7518502Y-13268008D01*
X7518502Y-13268008D02*
X7537550Y-13258484D01*
X7728026Y-13258484D02*
X7747074Y-13258484D01*
X7747074Y-13258484D02*
X7766121Y-13268008D01*
X7766121Y-13268008D02*
X7775645Y-13277531D01*
X7775645Y-13277531D02*
X7785169Y-13296579D01*
X7785169Y-13296579D02*
X7794693Y-13334674D01*
X7794693Y-13334674D02*
X7794693Y-13382293D01*
X7794693Y-13382293D02*
X7785169Y-13420388D01*
X7785169Y-13420388D02*
X7775645Y-13439436D01*
X7775645Y-13439436D02*
X7766121Y-13448960D01*
X7766121Y-13448960D02*
X7747074Y-13458484D01*
X7747074Y-13458484D02*
X7728026Y-13458484D01*
X7728026Y-13458484D02*
X7708978Y-13448960D01*
X7708978Y-13448960D02*
X7699455Y-13439436D01*
X7699455Y-13439436D02*
X7689931Y-13420388D01*
X7689931Y-13420388D02*
X7680407Y-13382293D01*
X7680407Y-13382293D02*
X7680407Y-13334674D01*
X7680407Y-13334674D02*
X7689931Y-13296579D01*
X7689931Y-13296579D02*
X7699455Y-13277531D01*
X7699455Y-13277531D02*
X7708978Y-13268008D01*
X7708978Y-13268008D02*
X7728026Y-13258484D01*
X7880407Y-13458484D02*
X7880407Y-13325150D01*
X7880407Y-13344198D02*
X7889931Y-13334674D01*
X7889931Y-13334674D02*
X7908978Y-13325150D01*
X7908978Y-13325150D02*
X7937550Y-13325150D01*
X7937550Y-13325150D02*
X7956597Y-13334674D01*
X7956597Y-13334674D02*
X7966121Y-13353722D01*
X7966121Y-13353722D02*
X7966121Y-13458484D01*
X7966121Y-13353722D02*
X7975645Y-13334674D01*
X7975645Y-13334674D02*
X7994693Y-13325150D01*
X7994693Y-13325150D02*
X8023264Y-13325150D01*
X8023264Y-13325150D02*
X8042312Y-13334674D01*
X8042312Y-13334674D02*
X8051836Y-13353722D01*
X8051836Y-13353722D02*
X8051836Y-13458484D01*
X8147074Y-13458484D02*
X8147074Y-13325150D01*
X8147074Y-13344198D02*
X8156597Y-13334674D01*
X8156597Y-13334674D02*
X8175645Y-13325150D01*
X8175645Y-13325150D02*
X8204217Y-13325150D01*
X8204217Y-13325150D02*
X8223264Y-13334674D01*
X8223264Y-13334674D02*
X8232788Y-13353722D01*
X8232788Y-13353722D02*
X8232788Y-13458484D01*
X8232788Y-13353722D02*
X8242312Y-13334674D01*
X8242312Y-13334674D02*
X8261359Y-13325150D01*
X8261359Y-13325150D02*
X8289931Y-13325150D01*
X8289931Y-13325150D02*
X8308978Y-13334674D01*
X8308978Y-13334674D02*
X8318502Y-13353722D01*
X8318502Y-13353722D02*
X8318502Y-13458484D01*
X8708979Y-13248960D02*
X8537550Y-13506103D01*
X8966121Y-13258484D02*
X8985169Y-13258484D01*
X8985169Y-13258484D02*
X9004217Y-13268008D01*
X9004217Y-13268008D02*
X9013741Y-13277531D01*
X9013741Y-13277531D02*
X9023264Y-13296579D01*
X9023264Y-13296579D02*
X9032788Y-13334674D01*
X9032788Y-13334674D02*
X9032788Y-13382293D01*
X9032788Y-13382293D02*
X9023264Y-13420388D01*
X9023264Y-13420388D02*
X9013741Y-13439436D01*
X9013741Y-13439436D02*
X9004217Y-13448960D01*
X9004217Y-13448960D02*
X8985169Y-13458484D01*
X8985169Y-13458484D02*
X8966121Y-13458484D01*
X8966121Y-13458484D02*
X8947074Y-13448960D01*
X8947074Y-13448960D02*
X8937550Y-13439436D01*
X8937550Y-13439436D02*
X8928026Y-13420388D01*
X8928026Y-13420388D02*
X8918502Y-13382293D01*
X8918502Y-13382293D02*
X8918502Y-13334674D01*
X8918502Y-13334674D02*
X8928026Y-13296579D01*
X8928026Y-13296579D02*
X8937550Y-13277531D01*
X8937550Y-13277531D02*
X8947074Y-13268008D01*
X8947074Y-13268008D02*
X8966121Y-13258484D01*
X9118502Y-13439436D02*
X9128026Y-13448960D01*
X9128026Y-13448960D02*
X9118502Y-13458484D01*
X9118502Y-13458484D02*
X9108979Y-13448960D01*
X9108979Y-13448960D02*
X9118502Y-13439436D01*
X9118502Y-13439436D02*
X9118502Y-13458484D01*
X9251836Y-13258484D02*
X9270883Y-13258484D01*
X9270883Y-13258484D02*
X9289931Y-13268008D01*
X9289931Y-13268008D02*
X9299455Y-13277531D01*
X9299455Y-13277531D02*
X9308979Y-13296579D01*
X9308979Y-13296579D02*
X9318502Y-13334674D01*
X9318502Y-13334674D02*
X9318502Y-13382293D01*
X9318502Y-13382293D02*
X9308979Y-13420388D01*
X9308979Y-13420388D02*
X9299455Y-13439436D01*
X9299455Y-13439436D02*
X9289931Y-13448960D01*
X9289931Y-13448960D02*
X9270883Y-13458484D01*
X9270883Y-13458484D02*
X9251836Y-13458484D01*
X9251836Y-13458484D02*
X9232788Y-13448960D01*
X9232788Y-13448960D02*
X9223264Y-13439436D01*
X9223264Y-13439436D02*
X9213741Y-13420388D01*
X9213741Y-13420388D02*
X9204217Y-13382293D01*
X9204217Y-13382293D02*
X9204217Y-13334674D01*
X9204217Y-13334674D02*
X9213741Y-13296579D01*
X9213741Y-13296579D02*
X9223264Y-13277531D01*
X9223264Y-13277531D02*
X9232788Y-13268008D01*
X9232788Y-13268008D02*
X9251836Y-13258484D01*
X9489931Y-13325150D02*
X9489931Y-13458484D01*
X9442312Y-13248960D02*
X9394693Y-13391817D01*
X9394693Y-13391817D02*
X9518502Y-13391817D01*
X9575645Y-13258484D02*
X9699455Y-13258484D01*
X9699455Y-13258484D02*
X9632788Y-13334674D01*
X9632788Y-13334674D02*
X9661360Y-13334674D01*
X9661360Y-13334674D02*
X9680407Y-13344198D01*
X9680407Y-13344198D02*
X9689931Y-13353722D01*
X9689931Y-13353722D02*
X9699455Y-13372769D01*
X9699455Y-13372769D02*
X9699455Y-13420388D01*
X9699455Y-13420388D02*
X9689931Y-13439436D01*
X9689931Y-13439436D02*
X9680407Y-13448960D01*
X9680407Y-13448960D02*
X9661360Y-13458484D01*
X9661360Y-13458484D02*
X9604217Y-13458484D01*
X9604217Y-13458484D02*
X9585169Y-13448960D01*
X9585169Y-13448960D02*
X9575645Y-13439436D01*
X9766122Y-13258484D02*
X9889931Y-13258484D01*
X9889931Y-13258484D02*
X9823264Y-13334674D01*
X9823264Y-13334674D02*
X9851836Y-13334674D01*
X9851836Y-13334674D02*
X9870883Y-13344198D01*
X9870883Y-13344198D02*
X9880407Y-13353722D01*
X9880407Y-13353722D02*
X9889931Y-13372769D01*
X9889931Y-13372769D02*
X9889931Y-13420388D01*
X9889931Y-13420388D02*
X9880407Y-13439436D01*
X9880407Y-13439436D02*
X9870883Y-13448960D01*
X9870883Y-13448960D02*
X9851836Y-13458484D01*
X9851836Y-13458484D02*
X9794693Y-13458484D01*
X9794693Y-13458484D02*
X9775645Y-13448960D01*
X9775645Y-13448960D02*
X9766122Y-13439436D01*
X9966122Y-13258484D02*
X9966122Y-13296579D01*
X10042312Y-13258484D02*
X10042312Y-13296579D01*
X10337550Y-13534674D02*
X10328026Y-13525150D01*
X10328026Y-13525150D02*
X10308979Y-13496579D01*
X10308979Y-13496579D02*
X10299455Y-13477531D01*
X10299455Y-13477531D02*
X10289931Y-13448960D01*
X10289931Y-13448960D02*
X10280407Y-13401341D01*
X10280407Y-13401341D02*
X10280407Y-13363246D01*
X10280407Y-13363246D02*
X10289931Y-13315627D01*
X10289931Y-13315627D02*
X10299455Y-13287055D01*
X10299455Y-13287055D02*
X10308979Y-13268008D01*
X10308979Y-13268008D02*
X10328026Y-13239436D01*
X10328026Y-13239436D02*
X10337550Y-13229912D01*
X10518503Y-13458484D02*
X10404217Y-13458484D01*
X10461360Y-13458484D02*
X10461360Y-13258484D01*
X10461360Y-13258484D02*
X10442312Y-13287055D01*
X10442312Y-13287055D02*
X10423264Y-13306103D01*
X10423264Y-13306103D02*
X10404217Y-13315627D01*
X10594693Y-13277531D02*
X10604217Y-13268008D01*
X10604217Y-13268008D02*
X10623264Y-13258484D01*
X10623264Y-13258484D02*
X10670884Y-13258484D01*
X10670884Y-13258484D02*
X10689931Y-13268008D01*
X10689931Y-13268008D02*
X10699455Y-13277531D01*
X10699455Y-13277531D02*
X10708979Y-13296579D01*
X10708979Y-13296579D02*
X10708979Y-13315627D01*
X10708979Y-13315627D02*
X10699455Y-13344198D01*
X10699455Y-13344198D02*
X10585169Y-13458484D01*
X10585169Y-13458484D02*
X10708979Y-13458484D01*
X10947074Y-13458484D02*
X10947074Y-13258484D01*
X11032788Y-13458484D02*
X11032788Y-13353722D01*
X11032788Y-13353722D02*
X11023265Y-13334674D01*
X11023265Y-13334674D02*
X11004217Y-13325150D01*
X11004217Y-13325150D02*
X10975645Y-13325150D01*
X10975645Y-13325150D02*
X10956598Y-13334674D01*
X10956598Y-13334674D02*
X10947074Y-13344198D01*
X11156598Y-13458484D02*
X11137550Y-13448960D01*
X11137550Y-13448960D02*
X11128026Y-13439436D01*
X11128026Y-13439436D02*
X11118503Y-13420388D01*
X11118503Y-13420388D02*
X11118503Y-13363246D01*
X11118503Y-13363246D02*
X11128026Y-13344198D01*
X11128026Y-13344198D02*
X11137550Y-13334674D01*
X11137550Y-13334674D02*
X11156598Y-13325150D01*
X11156598Y-13325150D02*
X11185169Y-13325150D01*
X11185169Y-13325150D02*
X11204217Y-13334674D01*
X11204217Y-13334674D02*
X11213741Y-13344198D01*
X11213741Y-13344198D02*
X11223264Y-13363246D01*
X11223264Y-13363246D02*
X11223264Y-13420388D01*
X11223264Y-13420388D02*
X11213741Y-13439436D01*
X11213741Y-13439436D02*
X11204217Y-13448960D01*
X11204217Y-13448960D02*
X11185169Y-13458484D01*
X11185169Y-13458484D02*
X11156598Y-13458484D01*
X11337550Y-13458484D02*
X11318503Y-13448960D01*
X11318503Y-13448960D02*
X11308979Y-13429912D01*
X11308979Y-13429912D02*
X11308979Y-13258484D01*
X11489931Y-13448960D02*
X11470884Y-13458484D01*
X11470884Y-13458484D02*
X11432788Y-13458484D01*
X11432788Y-13458484D02*
X11413741Y-13448960D01*
X11413741Y-13448960D02*
X11404217Y-13429912D01*
X11404217Y-13429912D02*
X11404217Y-13353722D01*
X11404217Y-13353722D02*
X11413741Y-13334674D01*
X11413741Y-13334674D02*
X11432788Y-13325150D01*
X11432788Y-13325150D02*
X11470884Y-13325150D01*
X11470884Y-13325150D02*
X11489931Y-13334674D01*
X11489931Y-13334674D02*
X11499455Y-13353722D01*
X11499455Y-13353722D02*
X11499455Y-13372769D01*
X11499455Y-13372769D02*
X11404217Y-13391817D01*
X11575645Y-13448960D02*
X11594693Y-13458484D01*
X11594693Y-13458484D02*
X11632788Y-13458484D01*
X11632788Y-13458484D02*
X11651836Y-13448960D01*
X11651836Y-13448960D02*
X11661360Y-13429912D01*
X11661360Y-13429912D02*
X11661360Y-13420388D01*
X11661360Y-13420388D02*
X11651836Y-13401341D01*
X11651836Y-13401341D02*
X11632788Y-13391817D01*
X11632788Y-13391817D02*
X11604217Y-13391817D01*
X11604217Y-13391817D02*
X11585169Y-13382293D01*
X11585169Y-13382293D02*
X11575645Y-13363246D01*
X11575645Y-13363246D02*
X11575645Y-13353722D01*
X11575645Y-13353722D02*
X11585169Y-13334674D01*
X11585169Y-13334674D02*
X11604217Y-13325150D01*
X11604217Y-13325150D02*
X11632788Y-13325150D01*
X11632788Y-13325150D02*
X11651836Y-13334674D01*
X11728026Y-13534674D02*
X11737550Y-13525150D01*
X11737550Y-13525150D02*
X11756598Y-13496579D01*
X11756598Y-13496579D02*
X11766122Y-13477531D01*
X11766122Y-13477531D02*
X11775645Y-13448960D01*
X11775645Y-13448960D02*
X11785169Y-13401341D01*
X11785169Y-13401341D02*
X11785169Y-13363246D01*
X11785169Y-13363246D02*
X11775645Y-13315627D01*
X11775645Y-13315627D02*
X11766122Y-13287055D01*
X11766122Y-13287055D02*
X11756598Y-13268008D01*
X11756598Y-13268008D02*
X11737550Y-13239436D01*
X11737550Y-13239436D02*
X11728026Y-13229912D01*
D15*
X6697487Y-13696000D02*
X6762487Y-13631000D01*
X6697487Y-13566000D01*
X6632487Y-13631000D01*
X6697487Y-13696000D01*
D10*
X7128026Y-13722484D02*
X7013740Y-13722484D01*
X7070883Y-13722484D02*
X7070883Y-13522484D01*
X7070883Y-13522484D02*
X7051835Y-13551055D01*
X7051835Y-13551055D02*
X7032788Y-13570103D01*
X7032788Y-13570103D02*
X7013740Y-13579627D01*
X7213740Y-13703436D02*
X7223264Y-13712960D01*
X7223264Y-13712960D02*
X7213740Y-13722484D01*
X7213740Y-13722484D02*
X7204216Y-13712960D01*
X7204216Y-13712960D02*
X7213740Y-13703436D01*
X7213740Y-13703436D02*
X7213740Y-13722484D01*
X7289931Y-13522484D02*
X7413740Y-13522484D01*
X7413740Y-13522484D02*
X7347074Y-13598674D01*
X7347074Y-13598674D02*
X7375645Y-13598674D01*
X7375645Y-13598674D02*
X7394693Y-13608198D01*
X7394693Y-13608198D02*
X7404216Y-13617722D01*
X7404216Y-13617722D02*
X7413740Y-13636769D01*
X7413740Y-13636769D02*
X7413740Y-13684388D01*
X7413740Y-13684388D02*
X7404216Y-13703436D01*
X7404216Y-13703436D02*
X7394693Y-13712960D01*
X7394693Y-13712960D02*
X7375645Y-13722484D01*
X7375645Y-13722484D02*
X7318502Y-13722484D01*
X7318502Y-13722484D02*
X7299455Y-13712960D01*
X7299455Y-13712960D02*
X7289931Y-13703436D01*
X7537550Y-13522484D02*
X7556597Y-13522484D01*
X7556597Y-13522484D02*
X7575645Y-13532008D01*
X7575645Y-13532008D02*
X7585169Y-13541531D01*
X7585169Y-13541531D02*
X7594693Y-13560579D01*
X7594693Y-13560579D02*
X7604216Y-13598674D01*
X7604216Y-13598674D02*
X7604216Y-13646293D01*
X7604216Y-13646293D02*
X7594693Y-13684388D01*
X7594693Y-13684388D02*
X7585169Y-13703436D01*
X7585169Y-13703436D02*
X7575645Y-13712960D01*
X7575645Y-13712960D02*
X7556597Y-13722484D01*
X7556597Y-13722484D02*
X7537550Y-13722484D01*
X7537550Y-13722484D02*
X7518502Y-13712960D01*
X7518502Y-13712960D02*
X7508978Y-13703436D01*
X7508978Y-13703436D02*
X7499455Y-13684388D01*
X7499455Y-13684388D02*
X7489931Y-13646293D01*
X7489931Y-13646293D02*
X7489931Y-13598674D01*
X7489931Y-13598674D02*
X7499455Y-13560579D01*
X7499455Y-13560579D02*
X7508978Y-13541531D01*
X7508978Y-13541531D02*
X7518502Y-13532008D01*
X7518502Y-13532008D02*
X7537550Y-13522484D01*
X7728026Y-13522484D02*
X7747074Y-13522484D01*
X7747074Y-13522484D02*
X7766121Y-13532008D01*
X7766121Y-13532008D02*
X7775645Y-13541531D01*
X7775645Y-13541531D02*
X7785169Y-13560579D01*
X7785169Y-13560579D02*
X7794693Y-13598674D01*
X7794693Y-13598674D02*
X7794693Y-13646293D01*
X7794693Y-13646293D02*
X7785169Y-13684388D01*
X7785169Y-13684388D02*
X7775645Y-13703436D01*
X7775645Y-13703436D02*
X7766121Y-13712960D01*
X7766121Y-13712960D02*
X7747074Y-13722484D01*
X7747074Y-13722484D02*
X7728026Y-13722484D01*
X7728026Y-13722484D02*
X7708978Y-13712960D01*
X7708978Y-13712960D02*
X7699455Y-13703436D01*
X7699455Y-13703436D02*
X7689931Y-13684388D01*
X7689931Y-13684388D02*
X7680407Y-13646293D01*
X7680407Y-13646293D02*
X7680407Y-13598674D01*
X7680407Y-13598674D02*
X7689931Y-13560579D01*
X7689931Y-13560579D02*
X7699455Y-13541531D01*
X7699455Y-13541531D02*
X7708978Y-13532008D01*
X7708978Y-13532008D02*
X7728026Y-13522484D01*
X7880407Y-13722484D02*
X7880407Y-13589150D01*
X7880407Y-13608198D02*
X7889931Y-13598674D01*
X7889931Y-13598674D02*
X7908978Y-13589150D01*
X7908978Y-13589150D02*
X7937550Y-13589150D01*
X7937550Y-13589150D02*
X7956597Y-13598674D01*
X7956597Y-13598674D02*
X7966121Y-13617722D01*
X7966121Y-13617722D02*
X7966121Y-13722484D01*
X7966121Y-13617722D02*
X7975645Y-13598674D01*
X7975645Y-13598674D02*
X7994693Y-13589150D01*
X7994693Y-13589150D02*
X8023264Y-13589150D01*
X8023264Y-13589150D02*
X8042312Y-13598674D01*
X8042312Y-13598674D02*
X8051836Y-13617722D01*
X8051836Y-13617722D02*
X8051836Y-13722484D01*
X8147074Y-13722484D02*
X8147074Y-13589150D01*
X8147074Y-13608198D02*
X8156597Y-13598674D01*
X8156597Y-13598674D02*
X8175645Y-13589150D01*
X8175645Y-13589150D02*
X8204217Y-13589150D01*
X8204217Y-13589150D02*
X8223264Y-13598674D01*
X8223264Y-13598674D02*
X8232788Y-13617722D01*
X8232788Y-13617722D02*
X8232788Y-13722484D01*
X8232788Y-13617722D02*
X8242312Y-13598674D01*
X8242312Y-13598674D02*
X8261359Y-13589150D01*
X8261359Y-13589150D02*
X8289931Y-13589150D01*
X8289931Y-13589150D02*
X8308978Y-13598674D01*
X8308978Y-13598674D02*
X8318502Y-13617722D01*
X8318502Y-13617722D02*
X8318502Y-13722484D01*
X8708979Y-13512960D02*
X8537550Y-13770103D01*
X8966121Y-13522484D02*
X8985169Y-13522484D01*
X8985169Y-13522484D02*
X9004217Y-13532008D01*
X9004217Y-13532008D02*
X9013741Y-13541531D01*
X9013741Y-13541531D02*
X9023264Y-13560579D01*
X9023264Y-13560579D02*
X9032788Y-13598674D01*
X9032788Y-13598674D02*
X9032788Y-13646293D01*
X9032788Y-13646293D02*
X9023264Y-13684388D01*
X9023264Y-13684388D02*
X9013741Y-13703436D01*
X9013741Y-13703436D02*
X9004217Y-13712960D01*
X9004217Y-13712960D02*
X8985169Y-13722484D01*
X8985169Y-13722484D02*
X8966121Y-13722484D01*
X8966121Y-13722484D02*
X8947074Y-13712960D01*
X8947074Y-13712960D02*
X8937550Y-13703436D01*
X8937550Y-13703436D02*
X8928026Y-13684388D01*
X8928026Y-13684388D02*
X8918502Y-13646293D01*
X8918502Y-13646293D02*
X8918502Y-13598674D01*
X8918502Y-13598674D02*
X8928026Y-13560579D01*
X8928026Y-13560579D02*
X8937550Y-13541531D01*
X8937550Y-13541531D02*
X8947074Y-13532008D01*
X8947074Y-13532008D02*
X8966121Y-13522484D01*
X9118502Y-13703436D02*
X9128026Y-13712960D01*
X9128026Y-13712960D02*
X9118502Y-13722484D01*
X9118502Y-13722484D02*
X9108979Y-13712960D01*
X9108979Y-13712960D02*
X9118502Y-13703436D01*
X9118502Y-13703436D02*
X9118502Y-13722484D01*
X9251836Y-13522484D02*
X9270883Y-13522484D01*
X9270883Y-13522484D02*
X9289931Y-13532008D01*
X9289931Y-13532008D02*
X9299455Y-13541531D01*
X9299455Y-13541531D02*
X9308979Y-13560579D01*
X9308979Y-13560579D02*
X9318502Y-13598674D01*
X9318502Y-13598674D02*
X9318502Y-13646293D01*
X9318502Y-13646293D02*
X9308979Y-13684388D01*
X9308979Y-13684388D02*
X9299455Y-13703436D01*
X9299455Y-13703436D02*
X9289931Y-13712960D01*
X9289931Y-13712960D02*
X9270883Y-13722484D01*
X9270883Y-13722484D02*
X9251836Y-13722484D01*
X9251836Y-13722484D02*
X9232788Y-13712960D01*
X9232788Y-13712960D02*
X9223264Y-13703436D01*
X9223264Y-13703436D02*
X9213741Y-13684388D01*
X9213741Y-13684388D02*
X9204217Y-13646293D01*
X9204217Y-13646293D02*
X9204217Y-13598674D01*
X9204217Y-13598674D02*
X9213741Y-13560579D01*
X9213741Y-13560579D02*
X9223264Y-13541531D01*
X9223264Y-13541531D02*
X9232788Y-13532008D01*
X9232788Y-13532008D02*
X9251836Y-13522484D01*
X9499455Y-13522484D02*
X9404217Y-13522484D01*
X9404217Y-13522484D02*
X9394693Y-13617722D01*
X9394693Y-13617722D02*
X9404217Y-13608198D01*
X9404217Y-13608198D02*
X9423264Y-13598674D01*
X9423264Y-13598674D02*
X9470883Y-13598674D01*
X9470883Y-13598674D02*
X9489931Y-13608198D01*
X9489931Y-13608198D02*
X9499455Y-13617722D01*
X9499455Y-13617722D02*
X9508979Y-13636769D01*
X9508979Y-13636769D02*
X9508979Y-13684388D01*
X9508979Y-13684388D02*
X9499455Y-13703436D01*
X9499455Y-13703436D02*
X9489931Y-13712960D01*
X9489931Y-13712960D02*
X9470883Y-13722484D01*
X9470883Y-13722484D02*
X9423264Y-13722484D01*
X9423264Y-13722484D02*
X9404217Y-13712960D01*
X9404217Y-13712960D02*
X9394693Y-13703436D01*
X9699455Y-13722484D02*
X9585169Y-13722484D01*
X9642312Y-13722484D02*
X9642312Y-13522484D01*
X9642312Y-13522484D02*
X9623264Y-13551055D01*
X9623264Y-13551055D02*
X9604217Y-13570103D01*
X9604217Y-13570103D02*
X9585169Y-13579627D01*
X9775645Y-13541531D02*
X9785169Y-13532008D01*
X9785169Y-13532008D02*
X9804217Y-13522484D01*
X9804217Y-13522484D02*
X9851836Y-13522484D01*
X9851836Y-13522484D02*
X9870883Y-13532008D01*
X9870883Y-13532008D02*
X9880407Y-13541531D01*
X9880407Y-13541531D02*
X9889931Y-13560579D01*
X9889931Y-13560579D02*
X9889931Y-13579627D01*
X9889931Y-13579627D02*
X9880407Y-13608198D01*
X9880407Y-13608198D02*
X9766122Y-13722484D01*
X9766122Y-13722484D02*
X9889931Y-13722484D01*
X9966122Y-13522484D02*
X9966122Y-13560579D01*
X10042312Y-13522484D02*
X10042312Y-13560579D01*
X10337550Y-13798674D02*
X10328026Y-13789150D01*
X10328026Y-13789150D02*
X10308979Y-13760579D01*
X10308979Y-13760579D02*
X10299455Y-13741531D01*
X10299455Y-13741531D02*
X10289931Y-13712960D01*
X10289931Y-13712960D02*
X10280407Y-13665341D01*
X10280407Y-13665341D02*
X10280407Y-13627246D01*
X10280407Y-13627246D02*
X10289931Y-13579627D01*
X10289931Y-13579627D02*
X10299455Y-13551055D01*
X10299455Y-13551055D02*
X10308979Y-13532008D01*
X10308979Y-13532008D02*
X10328026Y-13503436D01*
X10328026Y-13503436D02*
X10337550Y-13493912D01*
X10442312Y-13608198D02*
X10423264Y-13598674D01*
X10423264Y-13598674D02*
X10413741Y-13589150D01*
X10413741Y-13589150D02*
X10404217Y-13570103D01*
X10404217Y-13570103D02*
X10404217Y-13560579D01*
X10404217Y-13560579D02*
X10413741Y-13541531D01*
X10413741Y-13541531D02*
X10423264Y-13532008D01*
X10423264Y-13532008D02*
X10442312Y-13522484D01*
X10442312Y-13522484D02*
X10480407Y-13522484D01*
X10480407Y-13522484D02*
X10499455Y-13532008D01*
X10499455Y-13532008D02*
X10508979Y-13541531D01*
X10508979Y-13541531D02*
X10518503Y-13560579D01*
X10518503Y-13560579D02*
X10518503Y-13570103D01*
X10518503Y-13570103D02*
X10508979Y-13589150D01*
X10508979Y-13589150D02*
X10499455Y-13598674D01*
X10499455Y-13598674D02*
X10480407Y-13608198D01*
X10480407Y-13608198D02*
X10442312Y-13608198D01*
X10442312Y-13608198D02*
X10423264Y-13617722D01*
X10423264Y-13617722D02*
X10413741Y-13627246D01*
X10413741Y-13627246D02*
X10404217Y-13646293D01*
X10404217Y-13646293D02*
X10404217Y-13684388D01*
X10404217Y-13684388D02*
X10413741Y-13703436D01*
X10413741Y-13703436D02*
X10423264Y-13712960D01*
X10423264Y-13712960D02*
X10442312Y-13722484D01*
X10442312Y-13722484D02*
X10480407Y-13722484D01*
X10480407Y-13722484D02*
X10499455Y-13712960D01*
X10499455Y-13712960D02*
X10508979Y-13703436D01*
X10508979Y-13703436D02*
X10518503Y-13684388D01*
X10518503Y-13684388D02*
X10518503Y-13646293D01*
X10518503Y-13646293D02*
X10508979Y-13627246D01*
X10508979Y-13627246D02*
X10499455Y-13617722D01*
X10499455Y-13617722D02*
X10480407Y-13608198D01*
X10756598Y-13722484D02*
X10756598Y-13522484D01*
X10842312Y-13722484D02*
X10842312Y-13617722D01*
X10842312Y-13617722D02*
X10832788Y-13598674D01*
X10832788Y-13598674D02*
X10813741Y-13589150D01*
X10813741Y-13589150D02*
X10785169Y-13589150D01*
X10785169Y-13589150D02*
X10766122Y-13598674D01*
X10766122Y-13598674D02*
X10756598Y-13608198D01*
X10966122Y-13722484D02*
X10947074Y-13712960D01*
X10947074Y-13712960D02*
X10937550Y-13703436D01*
X10937550Y-13703436D02*
X10928026Y-13684388D01*
X10928026Y-13684388D02*
X10928026Y-13627246D01*
X10928026Y-13627246D02*
X10937550Y-13608198D01*
X10937550Y-13608198D02*
X10947074Y-13598674D01*
X10947074Y-13598674D02*
X10966122Y-13589150D01*
X10966122Y-13589150D02*
X10994693Y-13589150D01*
X10994693Y-13589150D02*
X11013741Y-13598674D01*
X11013741Y-13598674D02*
X11023265Y-13608198D01*
X11023265Y-13608198D02*
X11032788Y-13627246D01*
X11032788Y-13627246D02*
X11032788Y-13684388D01*
X11032788Y-13684388D02*
X11023265Y-13703436D01*
X11023265Y-13703436D02*
X11013741Y-13712960D01*
X11013741Y-13712960D02*
X10994693Y-13722484D01*
X10994693Y-13722484D02*
X10966122Y-13722484D01*
X11147074Y-13722484D02*
X11128026Y-13712960D01*
X11128026Y-13712960D02*
X11118503Y-13693912D01*
X11118503Y-13693912D02*
X11118503Y-13522484D01*
X11299455Y-13712960D02*
X11280407Y-13722484D01*
X11280407Y-13722484D02*
X11242312Y-13722484D01*
X11242312Y-13722484D02*
X11223264Y-13712960D01*
X11223264Y-13712960D02*
X11213741Y-13693912D01*
X11213741Y-13693912D02*
X11213741Y-13617722D01*
X11213741Y-13617722D02*
X11223264Y-13598674D01*
X11223264Y-13598674D02*
X11242312Y-13589150D01*
X11242312Y-13589150D02*
X11280407Y-13589150D01*
X11280407Y-13589150D02*
X11299455Y-13598674D01*
X11299455Y-13598674D02*
X11308979Y-13617722D01*
X11308979Y-13617722D02*
X11308979Y-13636769D01*
X11308979Y-13636769D02*
X11213741Y-13655817D01*
X11385169Y-13712960D02*
X11404217Y-13722484D01*
X11404217Y-13722484D02*
X11442312Y-13722484D01*
X11442312Y-13722484D02*
X11461360Y-13712960D01*
X11461360Y-13712960D02*
X11470884Y-13693912D01*
X11470884Y-13693912D02*
X11470884Y-13684388D01*
X11470884Y-13684388D02*
X11461360Y-13665341D01*
X11461360Y-13665341D02*
X11442312Y-13655817D01*
X11442312Y-13655817D02*
X11413741Y-13655817D01*
X11413741Y-13655817D02*
X11394693Y-13646293D01*
X11394693Y-13646293D02*
X11385169Y-13627246D01*
X11385169Y-13627246D02*
X11385169Y-13617722D01*
X11385169Y-13617722D02*
X11394693Y-13598674D01*
X11394693Y-13598674D02*
X11413741Y-13589150D01*
X11413741Y-13589150D02*
X11442312Y-13589150D01*
X11442312Y-13589150D02*
X11461360Y-13598674D01*
X11537550Y-13798674D02*
X11547074Y-13789150D01*
X11547074Y-13789150D02*
X11566122Y-13760579D01*
X11566122Y-13760579D02*
X11575645Y-13741531D01*
X11575645Y-13741531D02*
X11585169Y-13712960D01*
X11585169Y-13712960D02*
X11594693Y-13665341D01*
X11594693Y-13665341D02*
X11594693Y-13627246D01*
X11594693Y-13627246D02*
X11585169Y-13579627D01*
X11585169Y-13579627D02*
X11575645Y-13551055D01*
X11575645Y-13551055D02*
X11566122Y-13532008D01*
X11566122Y-13532008D02*
X11547074Y-13503436D01*
X11547074Y-13503436D02*
X11537550Y-13493912D01*
M02*
