M48
; DRILL file {KiCad 7.0.7} date Fri Oct  6 20:37:49 2023
; FORMAT={-:-/ absolute / inch / decimal}
; #@! TF.CreationDate,2023-10-06T20:37:49-05:00
; #@! TF.GenerationSoftware,Kicad,Pcbnew,7.0.7
; #@! TF.FileFunction,Plated,1,2,PTH
FMAT,2
INCH
; #@! TA.AperFunction,Plated,PTH,ViaDrill
T1C0.0157
; #@! TA.AperFunction,Plated,PTH,ComponentDrill
T2C0.0256
; #@! TA.AperFunction,Plated,PTH,ComponentDrill
T3C0.0394
; #@! TA.AperFunction,Plated,PTH,ComponentDrill
T4C0.0433
; #@! TA.AperFunction,Plated,PTH,ComponentDrill
T5C0.0512
%
G90
G05
T1
X3.0197Y-3.2008
X3.122Y-3.9252
X3.3Y-3.9
X3.4843Y-3.0866
T2
X3.9Y-3.8
X3.9Y-3.9969
T4
X2.874Y-3.8272
X2.874Y-3.9272
X2.874Y-4.0272
X3.1661Y-3.4449
X3.2661Y-3.4449
X3.3661Y-3.4449
X3.6122Y-3.2646
X3.6122Y-3.6646
X3.9031Y-2.8
X3.9031Y-2.9969
X4.1Y-2.8
X4.1Y-2.9969
T5
X2.874Y-3.4055
X2.874Y-3.6024
X2.9134Y-4.2323
X2.9134Y-4.3307
X2.9134Y-4.4291
X2.9134Y-4.5276
X4.0945Y-4.3307
X4.0945Y-4.5276
T3
G00X3.015Y-2.9213
M15
G01X3.015Y-2.8425
M16
G05
G00X3.1606Y-2.7638
M15
G01X3.2394Y-2.7638
M16
G05
G00X3.1508Y-3.0
M15
G01X3.2492Y-3.0
M16
G05
T0
M30
