%TF.GenerationSoftware,KiCad,Pcbnew,7.0.7*%
%TF.CreationDate,2023-10-06T20:37:51-05:00*%
%TF.ProjectId,Project_1,50726f6a-6563-4745-9f31-2e6b69636164,rev?*%
%TF.SameCoordinates,Original*%
%TF.FileFunction,Drillmap*%
%TF.FilePolarity,Positive*%
%FSLAX45Y45*%
G04 Gerber Fmt 4.5, Leading zero omitted, Abs format (unit mm)*
G04 Created by KiCad (PCBNEW 7.0.7) date 2023-10-06 20:37:51*
%MOMM*%
%LPD*%
G01*
G04 APERTURE LIST*
%ADD10C,0.200000*%
G04 APERTURE END LIST*
D10*
X10500000Y-11925000D02*
G75*
G03*
X10850000Y-11575000I0J350000D01*
G01*
X7122487Y-6047487D02*
G75*
G03*
X6772487Y-6397487I3J-350003D01*
G01*
X10500000Y-6047487D02*
X7122487Y-6047487D01*
X10850000Y-11575000D02*
X10850000Y-6397487D01*
X6772487Y-11572487D02*
X6772487Y-6397487D01*
X6772490Y-11572487D02*
G75*
G03*
X7125000Y-11925000I352510J-3D01*
G01*
X10500000Y-11925000D02*
X7125000Y-11925000D01*
X10850003Y-6397487D02*
G75*
G03*
X10500000Y-6047487I-350003J-3D01*
G01*
X7023264Y-12246484D02*
X7023264Y-12046484D01*
X7023264Y-12046484D02*
X7070883Y-12046484D01*
X7070883Y-12046484D02*
X7099455Y-12056008D01*
X7099455Y-12056008D02*
X7118502Y-12075055D01*
X7118502Y-12075055D02*
X7128026Y-12094103D01*
X7128026Y-12094103D02*
X7137550Y-12132198D01*
X7137550Y-12132198D02*
X7137550Y-12160769D01*
X7137550Y-12160769D02*
X7128026Y-12198865D01*
X7128026Y-12198865D02*
X7118502Y-12217912D01*
X7118502Y-12217912D02*
X7099455Y-12236960D01*
X7099455Y-12236960D02*
X7070883Y-12246484D01*
X7070883Y-12246484D02*
X7023264Y-12246484D01*
X7223264Y-12246484D02*
X7223264Y-12113150D01*
X7223264Y-12151246D02*
X7232788Y-12132198D01*
X7232788Y-12132198D02*
X7242312Y-12122674D01*
X7242312Y-12122674D02*
X7261359Y-12113150D01*
X7261359Y-12113150D02*
X7280407Y-12113150D01*
X7347074Y-12246484D02*
X7347074Y-12113150D01*
X7347074Y-12046484D02*
X7337550Y-12056008D01*
X7337550Y-12056008D02*
X7347074Y-12065531D01*
X7347074Y-12065531D02*
X7356597Y-12056008D01*
X7356597Y-12056008D02*
X7347074Y-12046484D01*
X7347074Y-12046484D02*
X7347074Y-12065531D01*
X7470883Y-12246484D02*
X7451835Y-12236960D01*
X7451835Y-12236960D02*
X7442312Y-12217912D01*
X7442312Y-12217912D02*
X7442312Y-12046484D01*
X7575645Y-12246484D02*
X7556597Y-12236960D01*
X7556597Y-12236960D02*
X7547074Y-12217912D01*
X7547074Y-12217912D02*
X7547074Y-12046484D01*
X7804216Y-12246484D02*
X7804216Y-12046484D01*
X7804216Y-12046484D02*
X7870883Y-12189341D01*
X7870883Y-12189341D02*
X7937550Y-12046484D01*
X7937550Y-12046484D02*
X7937550Y-12246484D01*
X8118502Y-12246484D02*
X8118502Y-12141722D01*
X8118502Y-12141722D02*
X8108978Y-12122674D01*
X8108978Y-12122674D02*
X8089931Y-12113150D01*
X8089931Y-12113150D02*
X8051835Y-12113150D01*
X8051835Y-12113150D02*
X8032788Y-12122674D01*
X8118502Y-12236960D02*
X8099455Y-12246484D01*
X8099455Y-12246484D02*
X8051835Y-12246484D01*
X8051835Y-12246484D02*
X8032788Y-12236960D01*
X8032788Y-12236960D02*
X8023264Y-12217912D01*
X8023264Y-12217912D02*
X8023264Y-12198865D01*
X8023264Y-12198865D02*
X8032788Y-12179817D01*
X8032788Y-12179817D02*
X8051835Y-12170293D01*
X8051835Y-12170293D02*
X8099455Y-12170293D01*
X8099455Y-12170293D02*
X8118502Y-12160769D01*
X8213740Y-12113150D02*
X8213740Y-12313150D01*
X8213740Y-12122674D02*
X8232788Y-12113150D01*
X8232788Y-12113150D02*
X8270883Y-12113150D01*
X8270883Y-12113150D02*
X8289931Y-12122674D01*
X8289931Y-12122674D02*
X8299455Y-12132198D01*
X8299455Y-12132198D02*
X8308978Y-12151246D01*
X8308978Y-12151246D02*
X8308978Y-12208388D01*
X8308978Y-12208388D02*
X8299455Y-12227436D01*
X8299455Y-12227436D02*
X8289931Y-12236960D01*
X8289931Y-12236960D02*
X8270883Y-12246484D01*
X8270883Y-12246484D02*
X8232788Y-12246484D01*
X8232788Y-12246484D02*
X8213740Y-12236960D01*
X8394693Y-12227436D02*
X8404217Y-12236960D01*
X8404217Y-12236960D02*
X8394693Y-12246484D01*
X8394693Y-12246484D02*
X8385169Y-12236960D01*
X8385169Y-12236960D02*
X8394693Y-12227436D01*
X8394693Y-12227436D02*
X8394693Y-12246484D01*
X8394693Y-12122674D02*
X8404217Y-12132198D01*
X8404217Y-12132198D02*
X8394693Y-12141722D01*
X8394693Y-12141722D02*
X8385169Y-12132198D01*
X8385169Y-12132198D02*
X8394693Y-12122674D01*
X8394693Y-12122674D02*
X8394693Y-12141722D01*
M02*
