%TF.GenerationSoftware,KiCad,Pcbnew,7.0.7*%
%TF.CreationDate,2023-10-06T20:37:38-05:00*%
%TF.ProjectId,Project_1,50726f6a-6563-4745-9f31-2e6b69636164,rev?*%
%TF.SameCoordinates,Original*%
%TF.FileFunction,Copper,L2,Bot*%
%TF.FilePolarity,Positive*%
%FSLAX46Y46*%
G04 Gerber Fmt 4.6, Leading zero omitted, Abs format (unit mm)*
G04 Created by KiCad (PCBNEW 7.0.7) date 2023-10-06 20:37:38*
%MOMM*%
%LPD*%
G01*
G04 APERTURE LIST*
%TA.AperFunction,ComponentPad*%
%ADD10R,2.200000X2.200000*%
%TD*%
%TA.AperFunction,ComponentPad*%
%ADD11O,2.200000X2.200000*%
%TD*%
%TA.AperFunction,ComponentPad*%
%ADD12O,5.000000X2.500000*%
%TD*%
%TA.AperFunction,ComponentPad*%
%ADD13O,4.500000X2.250000*%
%TD*%
%TA.AperFunction,ComponentPad*%
%ADD14O,2.250000X4.500000*%
%TD*%
%TA.AperFunction,ComponentPad*%
%ADD15C,1.800000*%
%TD*%
%TA.AperFunction,ComponentPad*%
%ADD16R,1.905000X2.000000*%
%TD*%
%TA.AperFunction,ComponentPad*%
%ADD17O,1.905000X2.000000*%
%TD*%
%TA.AperFunction,ComponentPad*%
%ADD18C,2.200000*%
%TD*%
%TA.AperFunction,ComponentPad*%
%ADD19R,1.950000X1.950000*%
%TD*%
%TA.AperFunction,ComponentPad*%
%ADD20C,1.950000*%
%TD*%
%TA.AperFunction,ComponentPad*%
%ADD21C,1.500000*%
%TD*%
%TA.AperFunction,ComponentPad*%
%ADD22R,1.500000X1.500000*%
%TD*%
%TA.AperFunction,ComponentPad*%
%ADD23R,2.000000X1.905000*%
%TD*%
%TA.AperFunction,ComponentPad*%
%ADD24O,2.000000X1.905000*%
%TD*%
%TA.AperFunction,ViaPad*%
%ADD25C,0.800000*%
%TD*%
%TA.AperFunction,Conductor*%
%ADD26C,0.600000*%
%TD*%
G04 APERTURE END LIST*
D10*
%TO.P,D1,1,K*%
%TO.N,/V_out*%
X91750000Y-93080000D03*
D11*
%TO.P,D1,2,A*%
%TO.N,Net-(D1-A)*%
X91750000Y-82920000D03*
%TD*%
D12*
%TO.P,J1,1*%
%TO.N,Net-(U1-VI)*%
X81280000Y-76200000D03*
D13*
%TO.P,J1,2*%
%TO.N,GND*%
X81280000Y-70200000D03*
D14*
%TO.P,J1,3*%
%TO.N,unconnected-(J1-Pad3)*%
X76580000Y-73200000D03*
%TD*%
D15*
%TO.P,RV2,1,CCW*%
%TO.N,Net-(RV2-CCW)*%
X74000000Y-110000000D03*
%TO.P,RV2,2,WIPER*%
%TO.N,/V_out*%
X74000000Y-107500000D03*
%TO.P,RV2,3,CW*%
%TO.N,unconnected-(RV2-CW-Pad3)*%
X104000000Y-110000000D03*
%TO.P,RV2,B,B*%
%TO.N,unconnected-(RV2-PadB)*%
X104000000Y-115000000D03*
%TO.P,RV2,E,E*%
%TO.N,GND*%
X74000000Y-115000000D03*
%TO.P,RV2,L,L*%
%TO.N,Net-(R4-Pad2)*%
X74000000Y-112500000D03*
%TD*%
D16*
%TO.P,U1,1,ADJ*%
%TO.N,Net-(D1-A)*%
X85500000Y-87500000D03*
D17*
%TO.P,U1,2,VO*%
%TO.N,/V_out*%
X82960000Y-87500000D03*
%TO.P,U1,3,VI*%
%TO.N,Net-(U1-VI)*%
X80420000Y-87500000D03*
%TD*%
D18*
%TO.P,SW1,4,NO_2*%
%TO.N,unconnected-(SW1-NO_2-Pad4)*%
X104140000Y-71120000D03*
%TO.P,SW1,3,NO_1*%
%TO.N,GND*%
X99140000Y-71120000D03*
%TO.P,SW1,2,COM_2*%
%TO.N,unconnected-(SW1-COM_2-Pad2)*%
X104140000Y-76120000D03*
%TO.P,SW1,1,COM_1*%
%TO.N,Net-(SW1-COM_1)*%
X99140000Y-76120000D03*
%TD*%
D19*
%TO.P,TB1,1,Pin_1*%
%TO.N,Net-(Q1-S)*%
X73000000Y-91500000D03*
D20*
%TO.P,TB1,2,Pin_2*%
%TO.N,GND*%
X73000000Y-86500000D03*
%TD*%
D21*
%TO.P,C3,N*%
%TO.N,GND*%
X99060000Y-101520000D03*
D22*
%TO.P,C3,P*%
%TO.N,Net-(RV2-CCW)*%
X99060000Y-96520000D03*
%TD*%
D23*
%TO.P,Q1,1,G*%
%TO.N,Net-(Q1-G)*%
X73000000Y-102290000D03*
D24*
%TO.P,Q1,2,D*%
%TO.N,/V_out*%
X73000000Y-99750000D03*
%TO.P,Q1,3,S*%
%TO.N,Net-(Q1-S)*%
X73000000Y-97210000D03*
%TD*%
D25*
%TO.N,GND*%
X88500000Y-78400000D03*
X76700000Y-81300000D03*
X79300000Y-99700000D03*
%TO.N,Net-(SW1-COM_1)*%
X83820000Y-99060000D03*
%TD*%
D26*
%TO.N,Net-(SW1-COM_1)*%
X99140000Y-76120000D02*
X99140000Y-81200000D01*
X83820000Y-96520000D02*
X83820000Y-99060000D01*
X99140000Y-81200000D02*
X83820000Y-96520000D01*
%TD*%
%TA.AperFunction,Conductor*%
%TO.N,GND*%
G36*
X105001513Y-60475448D02*
G01*
X105149064Y-60482696D01*
X105346891Y-60493078D01*
X105352694Y-60493660D01*
X105518993Y-60518328D01*
X105697915Y-60546667D01*
X105703215Y-60547748D01*
X105870610Y-60589678D01*
X106041639Y-60635506D01*
X106046467Y-60637013D01*
X106210774Y-60695803D01*
X106374594Y-60758687D01*
X106378864Y-60760513D01*
X106537665Y-60835620D01*
X106693349Y-60914946D01*
X106697063Y-60917002D01*
X106848328Y-61007666D01*
X106994630Y-61102675D01*
X106997784Y-61104866D01*
X107139830Y-61210214D01*
X107275349Y-61319954D01*
X107277923Y-61322159D01*
X107408101Y-61440143D01*
X107408101Y-61440144D01*
X107410306Y-61442242D01*
X107532637Y-61564573D01*
X107534721Y-61566761D01*
X107652701Y-61696932D01*
X107654931Y-61699534D01*
X107764670Y-61835050D01*
X107870008Y-61977080D01*
X107872208Y-61980246D01*
X107967220Y-62126550D01*
X108057885Y-62277813D01*
X108059948Y-62281541D01*
X108139286Y-62437249D01*
X108214365Y-62595986D01*
X108216200Y-62600277D01*
X108279092Y-62764113D01*
X108337879Y-62928408D01*
X108339387Y-62933238D01*
X108385212Y-63104255D01*
X108427138Y-63271632D01*
X108428234Y-63277000D01*
X108456573Y-63455917D01*
X108481232Y-63622151D01*
X108481818Y-63628006D01*
X108492434Y-63830532D01*
X108499425Y-63972825D01*
X108499500Y-63975868D01*
X108499500Y-115748469D01*
X108499425Y-115751511D01*
X108492011Y-115902438D01*
X108481836Y-116096582D01*
X108481250Y-116102438D01*
X108456145Y-116271682D01*
X108428286Y-116447574D01*
X108427191Y-116452942D01*
X108384793Y-116622209D01*
X108339479Y-116791320D01*
X108337967Y-116796163D01*
X108278672Y-116961879D01*
X108216342Y-117124252D01*
X108214507Y-117128543D01*
X108138868Y-117288470D01*
X108060133Y-117442992D01*
X108058070Y-117446720D01*
X107966822Y-117598961D01*
X107872461Y-117744262D01*
X107870262Y-117747428D01*
X107764285Y-117890323D01*
X107655245Y-118024975D01*
X107653001Y-118027594D01*
X107534340Y-118158517D01*
X107532241Y-118160721D01*
X107410721Y-118282241D01*
X107408517Y-118284340D01*
X107277594Y-118403001D01*
X107274975Y-118405245D01*
X107140323Y-118514285D01*
X106997428Y-118620262D01*
X106994262Y-118622461D01*
X106848961Y-118716822D01*
X106696720Y-118808070D01*
X106692992Y-118810133D01*
X106538470Y-118888868D01*
X106378543Y-118964507D01*
X106374252Y-118966342D01*
X106211879Y-119028672D01*
X106046163Y-119087967D01*
X106041320Y-119089479D01*
X105872209Y-119134793D01*
X105702942Y-119177191D01*
X105697574Y-119178286D01*
X105521682Y-119206145D01*
X105352438Y-119231250D01*
X105346582Y-119231836D01*
X105152438Y-119242011D01*
X105001513Y-119249425D01*
X104998470Y-119249500D01*
X71251530Y-119249500D01*
X71248487Y-119249425D01*
X71094107Y-119241841D01*
X70901131Y-119231741D01*
X70895271Y-119231154D01*
X70722233Y-119205487D01*
X70547656Y-119177836D01*
X70542288Y-119176741D01*
X70370132Y-119133618D01*
X70201465Y-119088422D01*
X70196623Y-119086910D01*
X70028456Y-119026740D01*
X69866151Y-118964437D01*
X69861861Y-118962601D01*
X69699773Y-118885940D01*
X69545123Y-118807141D01*
X69541395Y-118805077D01*
X69387212Y-118712663D01*
X69241711Y-118618172D01*
X69238545Y-118615973D01*
X69093875Y-118508679D01*
X68959001Y-118399459D01*
X68956382Y-118397215D01*
X68823840Y-118277085D01*
X68821635Y-118274986D01*
X68699889Y-118153239D01*
X68697791Y-118151034D01*
X68577664Y-118018494D01*
X68575420Y-118015875D01*
X68466215Y-117881016D01*
X68358906Y-117736327D01*
X68356719Y-117733179D01*
X68262234Y-117587684D01*
X68169790Y-117433449D01*
X68167741Y-117429747D01*
X68088948Y-117275104D01*
X68012280Y-117113002D01*
X68010456Y-117108736D01*
X67948151Y-116946422D01*
X67887972Y-116778230D01*
X67886473Y-116773431D01*
X67841281Y-116604768D01*
X67798148Y-116432568D01*
X67797062Y-116427243D01*
X67769406Y-116252620D01*
X67767951Y-116242813D01*
X67743733Y-116079547D01*
X67743154Y-116073752D01*
X67733289Y-115885485D01*
X67725448Y-115725840D01*
X67725373Y-115722798D01*
X67725373Y-112500006D01*
X72594700Y-112500006D01*
X72613864Y-112731297D01*
X72613866Y-112731308D01*
X72670842Y-112956300D01*
X72764075Y-113168848D01*
X72891016Y-113363147D01*
X72891019Y-113363151D01*
X72891021Y-113363153D01*
X73048216Y-113533913D01*
X73200529Y-113652462D01*
X73241341Y-113709172D01*
X73245016Y-113778945D01*
X73210385Y-113839628D01*
X73201204Y-113847582D01*
X73201200Y-113847647D01*
X73636765Y-114283212D01*
X73670250Y-114344535D01*
X73665266Y-114414227D01*
X73623394Y-114470160D01*
X73621970Y-114471210D01*
X73551510Y-114522402D01*
X73551508Y-114522405D01*
X73465130Y-114626818D01*
X73407230Y-114665925D01*
X73337378Y-114667521D01*
X73281905Y-114635458D01*
X72848812Y-114202365D01*
X72764516Y-114331391D01*
X72764514Y-114331395D01*
X72671317Y-114543864D01*
X72614361Y-114768781D01*
X72595202Y-114999994D01*
X72595202Y-115000005D01*
X72614361Y-115231218D01*
X72671317Y-115456135D01*
X72764516Y-115668609D01*
X72848811Y-115797633D01*
X73282331Y-115364114D01*
X73343654Y-115330629D01*
X73413345Y-115335613D01*
X73469279Y-115377484D01*
X73474707Y-115385350D01*
X73495187Y-115417620D01*
X73495188Y-115417621D01*
X73614904Y-115530041D01*
X73618266Y-115532484D01*
X73620264Y-115535074D01*
X73620590Y-115535381D01*
X73620540Y-115535433D01*
X73660934Y-115587812D01*
X73666915Y-115657425D01*
X73634311Y-115719221D01*
X73633065Y-115720485D01*
X73201199Y-116152350D01*
X73201199Y-116152351D01*
X73231650Y-116176050D01*
X73435697Y-116286476D01*
X73435706Y-116286479D01*
X73655139Y-116361811D01*
X73883993Y-116400000D01*
X74116007Y-116400000D01*
X74344860Y-116361811D01*
X74564293Y-116286479D01*
X74564302Y-116286476D01*
X74768350Y-116176050D01*
X74798798Y-116152351D01*
X74363234Y-115716787D01*
X74329749Y-115655464D01*
X74334733Y-115585772D01*
X74376605Y-115529839D01*
X74377953Y-115528844D01*
X74448492Y-115477595D01*
X74534871Y-115373180D01*
X74592768Y-115334074D01*
X74662620Y-115332478D01*
X74718094Y-115364541D01*
X75151186Y-115797634D01*
X75235484Y-115668606D01*
X75328682Y-115456135D01*
X75385638Y-115231218D01*
X75404798Y-115000006D01*
X102594700Y-115000006D01*
X102613864Y-115231297D01*
X102613866Y-115231308D01*
X102670842Y-115456300D01*
X102764075Y-115668848D01*
X102891016Y-115863147D01*
X102891019Y-115863151D01*
X102891021Y-115863153D01*
X103048216Y-116033913D01*
X103048219Y-116033915D01*
X103048222Y-116033918D01*
X103231365Y-116176464D01*
X103231371Y-116176468D01*
X103231374Y-116176470D01*
X103353965Y-116242813D01*
X103434652Y-116286479D01*
X103435497Y-116286936D01*
X103549487Y-116326068D01*
X103655015Y-116362297D01*
X103655017Y-116362297D01*
X103655019Y-116362298D01*
X103883951Y-116400500D01*
X103883952Y-116400500D01*
X104116048Y-116400500D01*
X104116049Y-116400500D01*
X104344981Y-116362298D01*
X104564503Y-116286936D01*
X104768626Y-116176470D01*
X104951784Y-116033913D01*
X105108979Y-115863153D01*
X105235924Y-115668849D01*
X105329157Y-115456300D01*
X105386134Y-115231305D01*
X105386135Y-115231297D01*
X105405300Y-115000006D01*
X105405300Y-114999993D01*
X105386135Y-114768702D01*
X105386133Y-114768691D01*
X105329157Y-114543699D01*
X105235924Y-114331151D01*
X105108983Y-114136852D01*
X105108980Y-114136849D01*
X105108979Y-114136847D01*
X104951784Y-113966087D01*
X104951779Y-113966083D01*
X104951777Y-113966081D01*
X104768634Y-113823535D01*
X104768628Y-113823531D01*
X104564504Y-113713064D01*
X104564495Y-113713061D01*
X104344984Y-113637702D01*
X104173281Y-113609050D01*
X104116049Y-113599500D01*
X103883951Y-113599500D01*
X103838164Y-113607140D01*
X103655015Y-113637702D01*
X103435504Y-113713061D01*
X103435495Y-113713064D01*
X103231371Y-113823531D01*
X103231365Y-113823535D01*
X103048222Y-113966081D01*
X103048219Y-113966084D01*
X102891016Y-114136852D01*
X102764075Y-114331151D01*
X102670842Y-114543699D01*
X102613866Y-114768691D01*
X102613864Y-114768702D01*
X102594700Y-114999993D01*
X102594700Y-115000006D01*
X75404798Y-115000006D01*
X75404798Y-115000005D01*
X75404798Y-114999994D01*
X75385638Y-114768781D01*
X75328682Y-114543864D01*
X75235483Y-114331390D01*
X75151186Y-114202364D01*
X74717667Y-114635884D01*
X74656344Y-114669369D01*
X74586652Y-114664385D01*
X74530719Y-114622513D01*
X74525290Y-114614646D01*
X74523771Y-114612252D01*
X74504814Y-114582381D01*
X74504811Y-114582378D01*
X74385098Y-114469960D01*
X74381728Y-114467512D01*
X74379726Y-114464915D01*
X74379410Y-114464619D01*
X74379457Y-114464568D01*
X74339063Y-114412182D01*
X74333084Y-114342568D01*
X74365690Y-114280773D01*
X74366933Y-114279513D01*
X74798799Y-113847647D01*
X74798770Y-113847195D01*
X74758658Y-113791460D01*
X74754983Y-113721687D01*
X74789614Y-113661004D01*
X74799465Y-113652466D01*
X74951784Y-113533913D01*
X75108979Y-113363153D01*
X75235924Y-113168849D01*
X75329157Y-112956300D01*
X75386134Y-112731305D01*
X75405300Y-112500000D01*
X75405300Y-112499993D01*
X75386135Y-112268702D01*
X75386133Y-112268691D01*
X75329157Y-112043699D01*
X75235924Y-111831151D01*
X75108983Y-111636852D01*
X75108980Y-111636849D01*
X75108979Y-111636847D01*
X74951784Y-111466087D01*
X74799876Y-111347852D01*
X74759064Y-111291143D01*
X74755389Y-111221370D01*
X74790020Y-111160687D01*
X74799876Y-111152147D01*
X74951784Y-111033913D01*
X75108979Y-110863153D01*
X75235924Y-110668849D01*
X75329157Y-110456300D01*
X75386134Y-110231305D01*
X75405300Y-110000006D01*
X102594700Y-110000006D01*
X102613864Y-110231297D01*
X102613866Y-110231308D01*
X102670842Y-110456300D01*
X102764075Y-110668848D01*
X102891016Y-110863147D01*
X102891019Y-110863151D01*
X102891021Y-110863153D01*
X103048216Y-111033913D01*
X103048219Y-111033915D01*
X103048222Y-111033918D01*
X103231365Y-111176464D01*
X103231371Y-111176468D01*
X103231374Y-111176470D01*
X103435497Y-111286936D01*
X103542092Y-111323530D01*
X103655015Y-111362297D01*
X103655017Y-111362297D01*
X103655019Y-111362298D01*
X103883951Y-111400500D01*
X103883952Y-111400500D01*
X104116048Y-111400500D01*
X104116049Y-111400500D01*
X104344981Y-111362298D01*
X104564503Y-111286936D01*
X104768626Y-111176470D01*
X104951784Y-111033913D01*
X105108979Y-110863153D01*
X105235924Y-110668849D01*
X105329157Y-110456300D01*
X105386134Y-110231305D01*
X105405300Y-110000000D01*
X105405300Y-109999993D01*
X105386135Y-109768702D01*
X105386133Y-109768691D01*
X105329157Y-109543699D01*
X105235924Y-109331151D01*
X105108983Y-109136852D01*
X105108980Y-109136849D01*
X105108979Y-109136847D01*
X104951784Y-108966087D01*
X104951779Y-108966083D01*
X104951777Y-108966081D01*
X104768634Y-108823535D01*
X104768628Y-108823531D01*
X104564504Y-108713064D01*
X104564495Y-108713061D01*
X104344984Y-108637702D01*
X104173281Y-108609050D01*
X104116049Y-108599500D01*
X103883951Y-108599500D01*
X103838164Y-108607140D01*
X103655015Y-108637702D01*
X103435504Y-108713061D01*
X103435495Y-108713064D01*
X103231371Y-108823531D01*
X103231365Y-108823535D01*
X103048222Y-108966081D01*
X103048219Y-108966084D01*
X102891016Y-109136852D01*
X102764075Y-109331151D01*
X102670842Y-109543699D01*
X102613866Y-109768691D01*
X102613864Y-109768702D01*
X102594700Y-109999993D01*
X102594700Y-110000006D01*
X75405300Y-110000006D01*
X75405300Y-110000000D01*
X75405300Y-109999993D01*
X75386135Y-109768702D01*
X75386133Y-109768691D01*
X75329157Y-109543699D01*
X75235924Y-109331151D01*
X75108983Y-109136852D01*
X75108980Y-109136849D01*
X75108979Y-109136847D01*
X74951784Y-108966087D01*
X74799876Y-108847852D01*
X74759064Y-108791143D01*
X74755389Y-108721370D01*
X74790020Y-108660687D01*
X74799876Y-108652147D01*
X74951784Y-108533913D01*
X75108979Y-108363153D01*
X75235924Y-108168849D01*
X75329157Y-107956300D01*
X75386134Y-107731305D01*
X75405300Y-107500000D01*
X75405300Y-107499993D01*
X75386135Y-107268702D01*
X75386133Y-107268691D01*
X75329157Y-107043699D01*
X75235924Y-106831151D01*
X75108983Y-106636852D01*
X75108980Y-106636849D01*
X75108979Y-106636847D01*
X74951784Y-106466087D01*
X74951779Y-106466083D01*
X74951777Y-106466081D01*
X74768634Y-106323535D01*
X74768628Y-106323531D01*
X74564504Y-106213064D01*
X74564495Y-106213061D01*
X74344984Y-106137702D01*
X74173281Y-106109050D01*
X74116049Y-106099500D01*
X73883951Y-106099500D01*
X73838164Y-106107140D01*
X73655015Y-106137702D01*
X73435504Y-106213061D01*
X73435495Y-106213064D01*
X73231371Y-106323531D01*
X73231365Y-106323535D01*
X73048222Y-106466081D01*
X73048219Y-106466084D01*
X72891016Y-106636852D01*
X72764075Y-106831151D01*
X72670842Y-107043699D01*
X72613866Y-107268691D01*
X72613864Y-107268702D01*
X72594700Y-107499993D01*
X72594700Y-107500006D01*
X72613864Y-107731297D01*
X72613866Y-107731308D01*
X72670842Y-107956300D01*
X72764075Y-108168848D01*
X72891016Y-108363147D01*
X72891019Y-108363151D01*
X72891021Y-108363153D01*
X73048216Y-108533913D01*
X73048219Y-108533915D01*
X73048222Y-108533918D01*
X73200122Y-108652147D01*
X73240935Y-108708857D01*
X73244610Y-108778630D01*
X73209978Y-108839313D01*
X73200122Y-108847853D01*
X73048222Y-108966081D01*
X73048219Y-108966084D01*
X72891016Y-109136852D01*
X72764075Y-109331151D01*
X72670842Y-109543699D01*
X72613866Y-109768691D01*
X72613864Y-109768702D01*
X72594700Y-109999993D01*
X72594700Y-110000006D01*
X72613864Y-110231297D01*
X72613866Y-110231308D01*
X72670842Y-110456300D01*
X72764075Y-110668848D01*
X72891016Y-110863147D01*
X72891019Y-110863151D01*
X72891021Y-110863153D01*
X73048216Y-111033913D01*
X73048219Y-111033915D01*
X73048222Y-111033918D01*
X73200122Y-111152147D01*
X73240935Y-111208857D01*
X73244610Y-111278630D01*
X73209978Y-111339313D01*
X73200122Y-111347853D01*
X73048222Y-111466081D01*
X73048219Y-111466084D01*
X72891016Y-111636852D01*
X72764075Y-111831151D01*
X72670842Y-112043699D01*
X72613866Y-112268691D01*
X72613864Y-112268702D01*
X72594700Y-112499993D01*
X72594700Y-112500006D01*
X67725373Y-112500006D01*
X67725373Y-103290370D01*
X71499500Y-103290370D01*
X71499501Y-103290376D01*
X71505908Y-103349983D01*
X71556202Y-103484828D01*
X71556206Y-103484835D01*
X71642452Y-103600044D01*
X71642455Y-103600047D01*
X71757664Y-103686293D01*
X71757671Y-103686297D01*
X71892517Y-103736591D01*
X71892516Y-103736591D01*
X71899444Y-103737335D01*
X71952127Y-103743000D01*
X74047872Y-103742999D01*
X74107483Y-103736591D01*
X74242331Y-103686296D01*
X74357546Y-103600046D01*
X74443796Y-103484831D01*
X74494091Y-103349983D01*
X74500500Y-103290373D01*
X74500499Y-101520000D01*
X97805225Y-101520000D01*
X97824287Y-101737884D01*
X97824289Y-101737894D01*
X97880894Y-101949150D01*
X97880898Y-101949159D01*
X97973335Y-102147391D01*
X98016873Y-102209571D01*
X98016874Y-102209572D01*
X98574734Y-101651712D01*
X98636057Y-101618227D01*
X98705748Y-101623211D01*
X98761682Y-101665082D01*
X98769800Y-101677389D01*
X98774198Y-101685006D01*
X98818568Y-101737884D01*
X98847871Y-101772805D01*
X98847872Y-101772806D01*
X98847874Y-101772807D01*
X98906277Y-101806526D01*
X98954493Y-101857093D01*
X98967716Y-101925700D01*
X98941748Y-101990565D01*
X98931958Y-102001594D01*
X98370426Y-102563124D01*
X98432611Y-102606666D01*
X98432613Y-102606667D01*
X98630840Y-102699101D01*
X98630849Y-102699105D01*
X98842105Y-102755710D01*
X98842115Y-102755712D01*
X99059999Y-102774775D01*
X99060001Y-102774775D01*
X99277884Y-102755712D01*
X99277894Y-102755710D01*
X99489150Y-102699105D01*
X99489159Y-102699101D01*
X99687387Y-102606666D01*
X99749572Y-102563124D01*
X99188041Y-102001593D01*
X99154556Y-101940270D01*
X99159540Y-101870578D01*
X99201412Y-101814645D01*
X99213707Y-101806534D01*
X99272129Y-101772805D01*
X99345801Y-101685007D01*
X99345803Y-101685000D01*
X99350196Y-101677394D01*
X99400763Y-101629178D01*
X99469370Y-101615954D01*
X99534235Y-101641922D01*
X99545265Y-101651712D01*
X100103124Y-102209572D01*
X100146666Y-102147387D01*
X100239101Y-101949159D01*
X100239105Y-101949150D01*
X100295710Y-101737894D01*
X100295712Y-101737884D01*
X100314775Y-101520000D01*
X100314775Y-101519999D01*
X100295712Y-101302115D01*
X100295710Y-101302105D01*
X100239105Y-101090849D01*
X100239101Y-101090840D01*
X100146668Y-100892615D01*
X100103123Y-100830428D01*
X99545265Y-101388287D01*
X99483942Y-101421772D01*
X99414250Y-101416788D01*
X99358317Y-101374916D01*
X99350198Y-101362608D01*
X99345801Y-101354993D01*
X99272131Y-101267197D01*
X99272130Y-101267196D01*
X99272129Y-101267195D01*
X99213720Y-101233472D01*
X99165506Y-101182905D01*
X99152284Y-101114298D01*
X99178252Y-101049434D01*
X99188041Y-101038405D01*
X99749572Y-100476874D01*
X99749571Y-100476873D01*
X99687391Y-100433335D01*
X99489159Y-100340898D01*
X99489150Y-100340894D01*
X99277894Y-100284289D01*
X99277884Y-100284287D01*
X99060001Y-100265225D01*
X99059999Y-100265225D01*
X98842115Y-100284287D01*
X98842105Y-100284289D01*
X98630849Y-100340894D01*
X98630840Y-100340898D01*
X98432614Y-100433332D01*
X98432612Y-100433333D01*
X98370428Y-100476875D01*
X98370427Y-100476875D01*
X98931958Y-101038405D01*
X98965443Y-101099728D01*
X98960459Y-101169419D01*
X98918588Y-101225353D01*
X98906278Y-101233472D01*
X98847876Y-101267190D01*
X98847868Y-101267197D01*
X98774198Y-101354993D01*
X98769800Y-101362611D01*
X98719231Y-101410825D01*
X98650623Y-101424045D01*
X98585760Y-101398075D01*
X98574734Y-101388288D01*
X98016875Y-100830427D01*
X98016875Y-100830428D01*
X97973333Y-100892612D01*
X97973332Y-100892614D01*
X97880898Y-101090840D01*
X97880894Y-101090849D01*
X97824289Y-101302105D01*
X97824287Y-101302115D01*
X97805225Y-101519999D01*
X97805225Y-101520000D01*
X74500499Y-101520000D01*
X74500499Y-101289628D01*
X74494091Y-101230017D01*
X74492351Y-101225353D01*
X74443797Y-101095171D01*
X74443793Y-101095164D01*
X74357547Y-100979955D01*
X74357544Y-100979952D01*
X74242335Y-100893706D01*
X74242328Y-100893702D01*
X74211687Y-100882274D01*
X74155753Y-100840403D01*
X74131336Y-100774938D01*
X74146188Y-100706665D01*
X74157161Y-100689937D01*
X74268072Y-100547439D01*
X74382679Y-100335664D01*
X74460866Y-100107913D01*
X74500500Y-99870399D01*
X74500500Y-99629601D01*
X74460866Y-99392087D01*
X74382679Y-99164336D01*
X74326215Y-99060000D01*
X82914540Y-99060000D01*
X82934326Y-99248256D01*
X82934327Y-99248259D01*
X82992818Y-99428277D01*
X82992821Y-99428284D01*
X83087467Y-99592216D01*
X83121129Y-99629601D01*
X83214129Y-99732888D01*
X83367265Y-99844148D01*
X83367270Y-99844151D01*
X83540192Y-99921142D01*
X83540197Y-99921144D01*
X83725354Y-99960500D01*
X83725355Y-99960500D01*
X83914644Y-99960500D01*
X83914646Y-99960500D01*
X84099803Y-99921144D01*
X84272730Y-99844151D01*
X84425871Y-99732888D01*
X84552533Y-99592216D01*
X84647179Y-99428284D01*
X84705674Y-99248256D01*
X84725460Y-99060000D01*
X84705674Y-98871744D01*
X84647179Y-98691716D01*
X84647178Y-98691715D01*
X84647178Y-98691713D01*
X84637112Y-98674277D01*
X84620500Y-98612279D01*
X84620500Y-97317870D01*
X97809500Y-97317870D01*
X97809501Y-97317876D01*
X97815908Y-97377483D01*
X97866202Y-97512328D01*
X97866206Y-97512335D01*
X97952452Y-97627544D01*
X97952455Y-97627547D01*
X98067664Y-97713793D01*
X98067671Y-97713797D01*
X98202517Y-97764091D01*
X98202516Y-97764091D01*
X98209444Y-97764835D01*
X98262127Y-97770500D01*
X99857872Y-97770499D01*
X99917483Y-97764091D01*
X100052331Y-97713796D01*
X100167546Y-97627546D01*
X100253796Y-97512331D01*
X100304091Y-97377483D01*
X100310500Y-97317873D01*
X100310499Y-95722128D01*
X100304091Y-95662517D01*
X100253796Y-95527669D01*
X100253795Y-95527668D01*
X100253793Y-95527664D01*
X100167547Y-95412455D01*
X100167544Y-95412452D01*
X100052335Y-95326206D01*
X100052328Y-95326202D01*
X99917482Y-95275908D01*
X99917483Y-95275908D01*
X99857883Y-95269501D01*
X99857881Y-95269500D01*
X99857873Y-95269500D01*
X99857864Y-95269500D01*
X98262129Y-95269500D01*
X98262123Y-95269501D01*
X98202516Y-95275908D01*
X98067671Y-95326202D01*
X98067664Y-95326206D01*
X97952455Y-95412452D01*
X97952452Y-95412455D01*
X97866206Y-95527664D01*
X97866202Y-95527671D01*
X97815908Y-95662517D01*
X97809501Y-95722116D01*
X97809501Y-95722123D01*
X97809500Y-95722135D01*
X97809500Y-97317870D01*
X84620500Y-97317870D01*
X84620500Y-96902940D01*
X84640185Y-96835901D01*
X84656819Y-96815259D01*
X87244208Y-94227870D01*
X90149500Y-94227870D01*
X90149501Y-94227876D01*
X90155908Y-94287483D01*
X90206202Y-94422328D01*
X90206206Y-94422335D01*
X90292452Y-94537544D01*
X90292455Y-94537547D01*
X90407664Y-94623793D01*
X90407671Y-94623797D01*
X90542517Y-94674091D01*
X90542516Y-94674091D01*
X90549444Y-94674835D01*
X90602127Y-94680500D01*
X92897872Y-94680499D01*
X92957483Y-94674091D01*
X93092331Y-94623796D01*
X93207546Y-94537546D01*
X93293796Y-94422331D01*
X93344091Y-94287483D01*
X93350500Y-94227873D01*
X93350499Y-91932128D01*
X93344091Y-91872517D01*
X93293796Y-91737669D01*
X93293795Y-91737668D01*
X93293793Y-91737664D01*
X93207547Y-91622455D01*
X93207544Y-91622452D01*
X93092335Y-91536206D01*
X93092328Y-91536202D01*
X92957482Y-91485908D01*
X92957483Y-91485908D01*
X92897883Y-91479501D01*
X92897881Y-91479500D01*
X92897873Y-91479500D01*
X92897864Y-91479500D01*
X90602129Y-91479500D01*
X90602123Y-91479501D01*
X90542516Y-91485908D01*
X90407671Y-91536202D01*
X90407664Y-91536206D01*
X90292455Y-91622452D01*
X90292452Y-91622455D01*
X90206206Y-91737664D01*
X90206202Y-91737671D01*
X90155908Y-91872517D01*
X90149501Y-91932116D01*
X90149501Y-91932123D01*
X90149500Y-91932135D01*
X90149500Y-94227870D01*
X87244208Y-94227870D01*
X99774077Y-81698001D01*
X99776627Y-81691421D01*
X99792041Y-81666890D01*
X99796045Y-81661247D01*
X99822092Y-81628586D01*
X99840213Y-81590955D01*
X99843570Y-81584881D01*
X99865789Y-81549522D01*
X99879581Y-81510107D01*
X99882244Y-81503679D01*
X99889056Y-81489533D01*
X99900360Y-81466061D01*
X99909658Y-81425321D01*
X99911571Y-81418680D01*
X99925368Y-81379255D01*
X99930043Y-81337760D01*
X99931208Y-81330905D01*
X99932726Y-81324249D01*
X99940500Y-81290194D01*
X99940500Y-81109806D01*
X99940500Y-77576006D01*
X99960185Y-77508968D01*
X99999709Y-77470280D01*
X100083659Y-77418836D01*
X100275224Y-77255224D01*
X100438836Y-77063659D01*
X100570466Y-76848859D01*
X100666873Y-76616111D01*
X100725683Y-76371148D01*
X100745449Y-76120000D01*
X102534551Y-76120000D01*
X102554317Y-76371151D01*
X102613126Y-76616110D01*
X102709533Y-76848859D01*
X102841160Y-77063653D01*
X102841161Y-77063656D01*
X102896604Y-77128571D01*
X103004776Y-77255224D01*
X103050738Y-77294479D01*
X103196343Y-77418838D01*
X103196346Y-77418839D01*
X103411140Y-77550466D01*
X103643888Y-77646872D01*
X103643889Y-77646873D01*
X103888852Y-77705683D01*
X104140000Y-77725449D01*
X104391148Y-77705683D01*
X104636111Y-77646873D01*
X104868859Y-77550466D01*
X105083659Y-77418836D01*
X105275224Y-77255224D01*
X105438836Y-77063659D01*
X105570466Y-76848859D01*
X105666873Y-76616111D01*
X105725683Y-76371148D01*
X105745449Y-76120000D01*
X105725683Y-75868852D01*
X105666873Y-75623889D01*
X105666873Y-75623888D01*
X105570466Y-75391140D01*
X105438839Y-75176346D01*
X105438838Y-75176343D01*
X105343948Y-75065242D01*
X105275224Y-74984776D01*
X105092670Y-74828860D01*
X105083656Y-74821161D01*
X105083653Y-74821160D01*
X104868859Y-74689533D01*
X104636110Y-74593126D01*
X104391151Y-74534317D01*
X104140000Y-74514551D01*
X103888848Y-74534317D01*
X103643889Y-74593126D01*
X103411140Y-74689533D01*
X103196346Y-74821160D01*
X103196343Y-74821161D01*
X103004776Y-74984776D01*
X102841161Y-75176343D01*
X102841160Y-75176346D01*
X102709533Y-75391140D01*
X102613126Y-75623889D01*
X102554317Y-75868848D01*
X102534551Y-76120000D01*
X100745449Y-76120000D01*
X100725683Y-75868852D01*
X100666873Y-75623889D01*
X100666873Y-75623888D01*
X100570466Y-75391140D01*
X100438839Y-75176346D01*
X100438838Y-75176343D01*
X100343948Y-75065242D01*
X100275224Y-74984776D01*
X100092670Y-74828860D01*
X100083656Y-74821161D01*
X100083653Y-74821160D01*
X99868859Y-74689533D01*
X99636110Y-74593126D01*
X99391151Y-74534317D01*
X99202786Y-74519492D01*
X99140000Y-74514551D01*
X99139999Y-74514551D01*
X98888848Y-74534317D01*
X98643889Y-74593126D01*
X98411140Y-74689533D01*
X98196346Y-74821160D01*
X98196343Y-74821161D01*
X98004776Y-74984776D01*
X97841161Y-75176343D01*
X97841160Y-75176346D01*
X97709533Y-75391140D01*
X97613126Y-75623889D01*
X97554317Y-75868848D01*
X97534551Y-76120000D01*
X97554317Y-76371151D01*
X97613126Y-76616110D01*
X97709533Y-76848859D01*
X97841160Y-77063653D01*
X97841161Y-77063656D01*
X97896604Y-77128571D01*
X98004776Y-77255224D01*
X98196341Y-77418836D01*
X98280289Y-77470279D01*
X98327165Y-77522091D01*
X98339500Y-77576007D01*
X98339500Y-80817059D01*
X98319815Y-80884098D01*
X98303181Y-80904740D01*
X83300296Y-95907625D01*
X83190183Y-96017739D01*
X83167966Y-96053096D01*
X83163941Y-96058769D01*
X83137910Y-96091410D01*
X83119791Y-96129033D01*
X83116427Y-96135120D01*
X83094212Y-96170476D01*
X83094208Y-96170483D01*
X83080416Y-96209895D01*
X83077755Y-96216320D01*
X83059639Y-96253939D01*
X83050344Y-96294659D01*
X83048419Y-96301341D01*
X83034632Y-96340744D01*
X83029955Y-96382235D01*
X83028791Y-96389089D01*
X83019500Y-96429806D01*
X83019500Y-98612279D01*
X83002888Y-98674277D01*
X82992821Y-98691713D01*
X82934327Y-98871740D01*
X82934326Y-98871744D01*
X82914540Y-99060000D01*
X74326215Y-99060000D01*
X74268072Y-98952561D01*
X74120171Y-98762537D01*
X73943010Y-98599449D01*
X73919070Y-98583808D01*
X73873714Y-98530664D01*
X73864290Y-98461433D01*
X73893791Y-98398096D01*
X73919070Y-98376191D01*
X73943010Y-98360551D01*
X74120171Y-98197463D01*
X74268072Y-98007439D01*
X74382679Y-97795664D01*
X74460866Y-97567913D01*
X74500500Y-97330399D01*
X74500500Y-97089601D01*
X74460866Y-96852087D01*
X74460691Y-96851578D01*
X74382681Y-96624343D01*
X74382678Y-96624334D01*
X74301887Y-96475046D01*
X74268072Y-96412561D01*
X74120171Y-96222537D01*
X73943010Y-96059449D01*
X73741422Y-95927745D01*
X73741419Y-95927743D01*
X73741418Y-95927743D01*
X73520905Y-95831017D01*
X73287472Y-95771904D01*
X73143329Y-95759960D01*
X73107600Y-95757000D01*
X72892400Y-95757000D01*
X72859898Y-95759693D01*
X72712527Y-95771904D01*
X72479094Y-95831017D01*
X72258581Y-95927743D01*
X72056990Y-96059449D01*
X71889997Y-96213177D01*
X71879829Y-96222537D01*
X71855388Y-96253939D01*
X71731929Y-96412558D01*
X71617321Y-96624334D01*
X71617318Y-96624343D01*
X71539134Y-96852083D01*
X71499500Y-97089602D01*
X71499500Y-97330397D01*
X71539134Y-97567916D01*
X71617318Y-97795656D01*
X71617321Y-97795665D01*
X71731929Y-98007441D01*
X71775451Y-98063358D01*
X71879829Y-98197463D01*
X72056990Y-98360551D01*
X72080931Y-98376193D01*
X72126287Y-98429339D01*
X72135710Y-98498570D01*
X72106207Y-98561906D01*
X72080933Y-98583806D01*
X72056990Y-98599449D01*
X71879829Y-98762537D01*
X71836305Y-98818456D01*
X71731929Y-98952558D01*
X71617321Y-99164334D01*
X71617318Y-99164343D01*
X71539134Y-99392083D01*
X71507426Y-99582098D01*
X71499500Y-99629601D01*
X71499500Y-99870399D01*
X71507968Y-99921144D01*
X71539134Y-100107916D01*
X71617318Y-100335656D01*
X71617321Y-100335665D01*
X71731929Y-100547441D01*
X71731933Y-100547447D01*
X71842832Y-100689930D01*
X71868475Y-100754924D01*
X71854908Y-100823464D01*
X71806440Y-100873788D01*
X71788313Y-100882273D01*
X71757675Y-100893700D01*
X71757664Y-100893706D01*
X71642455Y-100979952D01*
X71642452Y-100979955D01*
X71556206Y-101095164D01*
X71556202Y-101095171D01*
X71505908Y-101230017D01*
X71499501Y-101289616D01*
X71499501Y-101289623D01*
X71499500Y-101289635D01*
X71499500Y-103290370D01*
X67725373Y-103290370D01*
X67725373Y-92522870D01*
X71524500Y-92522870D01*
X71524501Y-92522876D01*
X71530908Y-92582483D01*
X71581202Y-92717328D01*
X71581206Y-92717335D01*
X71667452Y-92832544D01*
X71667455Y-92832547D01*
X71782664Y-92918793D01*
X71782671Y-92918797D01*
X71917517Y-92969091D01*
X71917516Y-92969091D01*
X71924444Y-92969835D01*
X71977127Y-92975500D01*
X74022872Y-92975499D01*
X74082483Y-92969091D01*
X74217331Y-92918796D01*
X74332546Y-92832546D01*
X74418796Y-92717331D01*
X74469091Y-92582483D01*
X74475500Y-92522873D01*
X74475499Y-90477128D01*
X74469091Y-90417517D01*
X74418796Y-90282669D01*
X74418795Y-90282668D01*
X74418793Y-90282664D01*
X74332547Y-90167455D01*
X74332544Y-90167452D01*
X74217335Y-90081206D01*
X74217328Y-90081202D01*
X74082482Y-90030908D01*
X74082483Y-90030908D01*
X74022883Y-90024501D01*
X74022881Y-90024500D01*
X74022873Y-90024500D01*
X74022864Y-90024500D01*
X71977129Y-90024500D01*
X71977123Y-90024501D01*
X71917516Y-90030908D01*
X71782671Y-90081202D01*
X71782664Y-90081206D01*
X71667455Y-90167452D01*
X71667452Y-90167455D01*
X71581206Y-90282664D01*
X71581202Y-90282671D01*
X71530908Y-90417517D01*
X71524501Y-90477116D01*
X71524501Y-90477123D01*
X71524500Y-90477135D01*
X71524500Y-92522870D01*
X67725373Y-92522870D01*
X67725373Y-86500005D01*
X71519945Y-86500005D01*
X71540130Y-86743605D01*
X71600138Y-86980573D01*
X71698328Y-87204424D01*
X71794626Y-87351820D01*
X72282332Y-86864114D01*
X72343655Y-86830629D01*
X72413346Y-86835613D01*
X72469280Y-86877484D01*
X72474709Y-86885352D01*
X72495187Y-86917620D01*
X72495188Y-86917621D01*
X72614904Y-87030041D01*
X72618266Y-87032484D01*
X72620264Y-87035074D01*
X72620590Y-87035381D01*
X72620540Y-87035433D01*
X72660934Y-87087812D01*
X72666915Y-87157425D01*
X72634311Y-87219221D01*
X72633065Y-87220485D01*
X72147757Y-87705792D01*
X72147758Y-87705794D01*
X72190485Y-87739050D01*
X72190485Y-87739051D01*
X72405468Y-87855394D01*
X72405476Y-87855397D01*
X72636664Y-87934765D01*
X72877779Y-87975000D01*
X73122221Y-87975000D01*
X73363335Y-87934765D01*
X73594523Y-87855397D01*
X73594531Y-87855394D01*
X73809515Y-87739050D01*
X73809516Y-87739048D01*
X73852240Y-87705794D01*
X73852241Y-87705793D01*
X73754046Y-87607598D01*
X78967000Y-87607598D01*
X78981904Y-87787472D01*
X78981904Y-87787475D01*
X78981905Y-87787476D01*
X79041017Y-88020905D01*
X79137745Y-88241422D01*
X79269449Y-88443010D01*
X79432537Y-88620171D01*
X79622561Y-88768072D01*
X79834336Y-88882679D01*
X79952598Y-88923278D01*
X80062083Y-88960865D01*
X80062085Y-88960865D01*
X80062087Y-88960866D01*
X80299601Y-89000500D01*
X80299602Y-89000500D01*
X80540398Y-89000500D01*
X80540399Y-89000500D01*
X80777913Y-88960866D01*
X81005664Y-88882679D01*
X81217439Y-88768072D01*
X81407463Y-88620171D01*
X81570551Y-88443010D01*
X81586190Y-88419071D01*
X81639336Y-88373714D01*
X81708567Y-88364290D01*
X81771904Y-88393791D01*
X81793808Y-88419070D01*
X81809449Y-88443010D01*
X81972537Y-88620171D01*
X82162561Y-88768072D01*
X82374336Y-88882679D01*
X82492598Y-88923278D01*
X82602083Y-88960865D01*
X82602085Y-88960865D01*
X82602087Y-88960866D01*
X82839601Y-89000500D01*
X82839602Y-89000500D01*
X83080398Y-89000500D01*
X83080399Y-89000500D01*
X83317913Y-88960866D01*
X83545664Y-88882679D01*
X83757439Y-88768072D01*
X83899931Y-88657165D01*
X83964923Y-88631524D01*
X84033463Y-88645090D01*
X84083788Y-88693558D01*
X84092274Y-88711687D01*
X84103702Y-88742328D01*
X84103706Y-88742335D01*
X84189952Y-88857544D01*
X84189955Y-88857547D01*
X84305164Y-88943793D01*
X84305171Y-88943797D01*
X84440017Y-88994091D01*
X84440016Y-88994091D01*
X84446944Y-88994835D01*
X84499627Y-89000500D01*
X86500372Y-89000499D01*
X86559983Y-88994091D01*
X86694831Y-88943796D01*
X86810046Y-88857546D01*
X86896296Y-88742331D01*
X86946591Y-88607483D01*
X86953000Y-88547873D01*
X86952999Y-86452128D01*
X86946591Y-86392517D01*
X86941858Y-86379828D01*
X86896297Y-86257671D01*
X86896293Y-86257664D01*
X86810047Y-86142455D01*
X86810044Y-86142452D01*
X86694835Y-86056206D01*
X86694828Y-86056202D01*
X86559982Y-86005908D01*
X86559983Y-86005908D01*
X86500383Y-85999501D01*
X86500381Y-85999500D01*
X86500373Y-85999500D01*
X86500364Y-85999500D01*
X84499629Y-85999500D01*
X84499623Y-85999501D01*
X84440016Y-86005908D01*
X84305171Y-86056202D01*
X84305164Y-86056206D01*
X84189955Y-86142452D01*
X84189952Y-86142455D01*
X84103706Y-86257664D01*
X84103700Y-86257675D01*
X84092273Y-86288313D01*
X84050402Y-86344247D01*
X83984937Y-86368663D01*
X83916664Y-86353811D01*
X83899930Y-86342832D01*
X83757447Y-86231933D01*
X83757441Y-86231929D01*
X83545665Y-86117321D01*
X83545656Y-86117318D01*
X83317916Y-86039134D01*
X83118800Y-86005908D01*
X83080399Y-85999500D01*
X82839601Y-85999500D01*
X82801200Y-86005908D01*
X82602083Y-86039134D01*
X82374343Y-86117318D01*
X82374334Y-86117321D01*
X82162558Y-86231929D01*
X82078258Y-86297543D01*
X81972537Y-86379829D01*
X81809449Y-86556990D01*
X81793808Y-86580931D01*
X81740661Y-86626287D01*
X81671430Y-86635710D01*
X81608094Y-86606207D01*
X81586192Y-86580931D01*
X81570551Y-86556990D01*
X81407463Y-86379829D01*
X81248873Y-86256394D01*
X81217441Y-86231929D01*
X81005665Y-86117321D01*
X81005656Y-86117318D01*
X80777916Y-86039134D01*
X80578800Y-86005908D01*
X80540399Y-85999500D01*
X80299601Y-85999500D01*
X80261200Y-86005908D01*
X80062083Y-86039134D01*
X79834343Y-86117318D01*
X79834334Y-86117321D01*
X79622558Y-86231929D01*
X79538258Y-86297543D01*
X79432537Y-86379829D01*
X79432534Y-86379831D01*
X79432534Y-86379832D01*
X79269449Y-86556990D01*
X79137743Y-86758581D01*
X79041017Y-86979094D01*
X78981904Y-87212527D01*
X78967000Y-87392402D01*
X78967000Y-87607598D01*
X73754046Y-87607598D01*
X73363234Y-87216787D01*
X73329749Y-87155464D01*
X73334733Y-87085773D01*
X73376604Y-87029839D01*
X73377949Y-87028847D01*
X73448492Y-86977595D01*
X73534871Y-86873180D01*
X73592768Y-86834074D01*
X73662620Y-86832478D01*
X73718094Y-86864541D01*
X74205372Y-87351820D01*
X74301669Y-87204429D01*
X74399861Y-86980573D01*
X74459869Y-86743605D01*
X74480055Y-86500005D01*
X74480055Y-86499994D01*
X74459869Y-86256394D01*
X74399861Y-86019426D01*
X74301671Y-85795575D01*
X74205372Y-85648178D01*
X73717667Y-86135884D01*
X73656344Y-86169369D01*
X73586652Y-86164385D01*
X73530719Y-86122513D01*
X73525290Y-86114646D01*
X73523771Y-86112252D01*
X73504814Y-86082381D01*
X73440942Y-86022402D01*
X73385097Y-85969960D01*
X73381732Y-85967515D01*
X73379731Y-85964920D01*
X73379410Y-85964619D01*
X73379458Y-85964567D01*
X73339064Y-85912187D01*
X73333082Y-85842574D01*
X73365685Y-85780778D01*
X73366932Y-85779513D01*
X73852240Y-85294205D01*
X73852240Y-85294204D01*
X73809514Y-85260949D01*
X73809514Y-85260948D01*
X73594531Y-85144605D01*
X73594523Y-85144602D01*
X73363335Y-85065234D01*
X73122221Y-85025000D01*
X72877779Y-85025000D01*
X72636664Y-85065234D01*
X72405476Y-85144602D01*
X72405468Y-85144605D01*
X72190484Y-85260949D01*
X72190478Y-85260953D01*
X72147758Y-85294203D01*
X72147758Y-85294205D01*
X72636765Y-85783212D01*
X72670250Y-85844535D01*
X72665266Y-85914227D01*
X72623394Y-85970160D01*
X72621970Y-85971210D01*
X72551510Y-86022402D01*
X72551508Y-86022405D01*
X72465130Y-86126818D01*
X72407230Y-86165925D01*
X72337378Y-86167521D01*
X72281905Y-86135458D01*
X71794625Y-85648178D01*
X71698329Y-85795572D01*
X71600138Y-86019426D01*
X71540130Y-86256394D01*
X71519945Y-86499994D01*
X71519945Y-86500005D01*
X67725373Y-86500005D01*
X67725373Y-82920000D01*
X90144551Y-82920000D01*
X90164317Y-83171151D01*
X90223126Y-83416110D01*
X90319533Y-83648859D01*
X90451160Y-83863653D01*
X90451161Y-83863656D01*
X90451164Y-83863659D01*
X90614776Y-84055224D01*
X90763066Y-84181875D01*
X90806343Y-84218838D01*
X90806346Y-84218839D01*
X91021140Y-84350466D01*
X91253888Y-84446872D01*
X91253889Y-84446873D01*
X91498852Y-84505683D01*
X91750000Y-84525449D01*
X92001148Y-84505683D01*
X92246111Y-84446873D01*
X92478859Y-84350466D01*
X92693659Y-84218836D01*
X92885224Y-84055224D01*
X93048836Y-83863659D01*
X93180466Y-83648859D01*
X93276873Y-83416111D01*
X93335683Y-83171148D01*
X93355449Y-82920000D01*
X93335683Y-82668852D01*
X93276873Y-82423889D01*
X93180466Y-82191141D01*
X93180466Y-82191140D01*
X93048839Y-81976346D01*
X93048838Y-81976343D01*
X93011875Y-81933066D01*
X92885224Y-81784776D01*
X92740573Y-81661232D01*
X92693656Y-81621161D01*
X92693653Y-81621160D01*
X92478859Y-81489533D01*
X92246110Y-81393126D01*
X92001151Y-81334317D01*
X91750000Y-81314551D01*
X91498848Y-81334317D01*
X91253889Y-81393126D01*
X91021140Y-81489533D01*
X90806346Y-81621160D01*
X90806343Y-81621161D01*
X90614776Y-81784776D01*
X90451161Y-81976343D01*
X90451160Y-81976346D01*
X90319533Y-82191140D01*
X90223126Y-82423889D01*
X90164317Y-82668848D01*
X90144551Y-82920000D01*
X67725373Y-82920000D01*
X67725373Y-76331187D01*
X78279500Y-76331187D01*
X78285524Y-76371151D01*
X78318604Y-76590615D01*
X78318605Y-76590617D01*
X78318606Y-76590623D01*
X78395938Y-76841326D01*
X78509767Y-77077696D01*
X78509768Y-77077697D01*
X78509770Y-77077700D01*
X78509772Y-77077704D01*
X78630803Y-77255223D01*
X78657567Y-77294479D01*
X78836014Y-77486801D01*
X78836018Y-77486804D01*
X78836019Y-77486805D01*
X79041143Y-77650386D01*
X79268357Y-77781568D01*
X79512584Y-77877420D01*
X79768370Y-77935802D01*
X79768376Y-77935802D01*
X79768379Y-77935803D01*
X79964500Y-77950500D01*
X79964506Y-77950500D01*
X82595500Y-77950500D01*
X82791620Y-77935803D01*
X82791622Y-77935802D01*
X82791630Y-77935802D01*
X83047416Y-77877420D01*
X83291643Y-77781568D01*
X83518857Y-77650386D01*
X83723981Y-77486805D01*
X83902433Y-77294479D01*
X84050228Y-77077704D01*
X84164063Y-76841323D01*
X84241396Y-76590615D01*
X84280500Y-76331182D01*
X84280500Y-76068818D01*
X84241396Y-75809385D01*
X84164063Y-75558677D01*
X84125190Y-75477956D01*
X84050232Y-75322303D01*
X84050231Y-75322302D01*
X84050230Y-75322301D01*
X84050228Y-75322296D01*
X83902433Y-75105521D01*
X83865057Y-75065239D01*
X83723985Y-74913198D01*
X83618228Y-74828860D01*
X83518857Y-74749614D01*
X83291643Y-74618432D01*
X83047416Y-74522580D01*
X83047411Y-74522578D01*
X83047402Y-74522576D01*
X82829818Y-74472914D01*
X82791630Y-74464198D01*
X82791629Y-74464197D01*
X82791625Y-74464197D01*
X82791620Y-74464196D01*
X82595500Y-74449500D01*
X82595494Y-74449500D01*
X79964506Y-74449500D01*
X79964500Y-74449500D01*
X79768379Y-74464196D01*
X79768374Y-74464197D01*
X79512597Y-74522576D01*
X79512578Y-74522582D01*
X79268356Y-74618432D01*
X79041143Y-74749614D01*
X78836014Y-74913198D01*
X78657567Y-75105520D01*
X78509768Y-75322302D01*
X78509767Y-75322303D01*
X78395938Y-75558673D01*
X78318606Y-75809376D01*
X78318605Y-75809381D01*
X78318604Y-75809385D01*
X78308605Y-75875722D01*
X78279500Y-76068812D01*
X78279500Y-76331187D01*
X67725373Y-76331187D01*
X67725373Y-74388865D01*
X74954500Y-74388865D01*
X74969547Y-74580065D01*
X74969547Y-74580068D01*
X74969548Y-74580070D01*
X75027429Y-74821160D01*
X75029279Y-74828864D01*
X75127188Y-75065239D01*
X75127190Y-75065242D01*
X75260875Y-75283396D01*
X75260878Y-75283401D01*
X75294098Y-75322296D01*
X75427044Y-75477956D01*
X75551579Y-75584319D01*
X75621598Y-75644121D01*
X75621603Y-75644124D01*
X75839757Y-75777809D01*
X75839760Y-75777811D01*
X76059554Y-75868852D01*
X76076140Y-75875722D01*
X76324930Y-75935452D01*
X76580000Y-75955526D01*
X76835070Y-75935452D01*
X77083860Y-75875722D01*
X77244019Y-75809382D01*
X77320239Y-75777811D01*
X77320240Y-75777810D01*
X77320243Y-75777809D01*
X77538399Y-75644123D01*
X77732956Y-75477956D01*
X77899123Y-75283399D01*
X78032809Y-75065243D01*
X78130722Y-74828860D01*
X78190452Y-74580070D01*
X78205500Y-74388863D01*
X78205500Y-72011137D01*
X78190452Y-71819930D01*
X78130722Y-71571140D01*
X78122235Y-71550651D01*
X78032811Y-71334760D01*
X78032809Y-71334757D01*
X78015135Y-71305915D01*
X77899123Y-71116601D01*
X77899122Y-71116600D01*
X77899121Y-71116598D01*
X77805555Y-71007047D01*
X77732956Y-70922044D01*
X77589877Y-70799843D01*
X77538401Y-70755878D01*
X77538396Y-70755875D01*
X77320242Y-70622190D01*
X77320239Y-70622188D01*
X77083864Y-70524279D01*
X77083860Y-70524278D01*
X76835070Y-70464548D01*
X76835067Y-70464547D01*
X76835064Y-70464547D01*
X76650218Y-70450000D01*
X78544651Y-70450000D01*
X78545043Y-70454995D01*
X78545044Y-70454997D01*
X78604752Y-70703702D01*
X78702634Y-70940012D01*
X78702636Y-70940015D01*
X78836278Y-71158100D01*
X78836279Y-71158102D01*
X79002398Y-71352601D01*
X79196897Y-71518720D01*
X79196899Y-71518721D01*
X79414984Y-71652363D01*
X79414987Y-71652365D01*
X79651297Y-71750247D01*
X79900011Y-71809957D01*
X79900010Y-71809957D01*
X80091148Y-71825000D01*
X81030000Y-71825000D01*
X81030000Y-70824000D01*
X81049685Y-70756961D01*
X81102489Y-70711206D01*
X81154000Y-70700000D01*
X81406000Y-70700000D01*
X81473039Y-70719685D01*
X81518794Y-70772489D01*
X81530000Y-70824000D01*
X81530000Y-71825000D01*
X82468852Y-71825000D01*
X82659988Y-71809957D01*
X82908702Y-71750247D01*
X83145012Y-71652365D01*
X83145015Y-71652363D01*
X83363100Y-71518721D01*
X83363102Y-71518720D01*
X83557601Y-71352601D01*
X83723720Y-71158102D01*
X83723721Y-71158100D01*
X83747069Y-71120000D01*
X97535052Y-71120000D01*
X97554812Y-71371072D01*
X97613603Y-71615956D01*
X97709980Y-71848631D01*
X97841566Y-72063358D01*
X97841577Y-72063374D01*
X97842264Y-72064178D01*
X97842266Y-72064178D01*
X98491481Y-71414963D01*
X98552804Y-71381478D01*
X98622495Y-71386462D01*
X98678429Y-71428333D01*
X98681514Y-71433249D01*
X98681549Y-71433225D01*
X98686441Y-71440156D01*
X98789637Y-71550651D01*
X98789638Y-71550652D01*
X98824698Y-71571973D01*
X98871749Y-71623623D01*
X98883407Y-71692513D01*
X98855970Y-71756770D01*
X98847950Y-71765601D01*
X98195819Y-72417731D01*
X98195819Y-72417732D01*
X98196636Y-72418430D01*
X98196638Y-72418432D01*
X98411368Y-72550019D01*
X98644043Y-72646396D01*
X98888927Y-72705187D01*
X99139999Y-72724947D01*
X99391072Y-72705187D01*
X99635956Y-72646396D01*
X99868631Y-72550019D01*
X100083360Y-72418432D01*
X100083371Y-72418424D01*
X100084179Y-72417732D01*
X99433165Y-71766718D01*
X99399680Y-71705395D01*
X99404664Y-71635703D01*
X99442588Y-71582853D01*
X99545739Y-71498934D01*
X99596052Y-71427655D01*
X99650793Y-71384239D01*
X99720318Y-71377309D01*
X99782553Y-71409067D01*
X99785037Y-71411483D01*
X100437732Y-72064179D01*
X100438424Y-72063371D01*
X100438432Y-72063360D01*
X100570019Y-71848631D01*
X100666396Y-71615956D01*
X100725187Y-71371072D01*
X100744947Y-71120000D01*
X102534551Y-71120000D01*
X102554317Y-71371151D01*
X102613126Y-71616110D01*
X102709533Y-71848859D01*
X102841160Y-72063653D01*
X102841161Y-72063656D01*
X102841164Y-72063659D01*
X103004776Y-72255224D01*
X103153066Y-72381875D01*
X103196343Y-72418838D01*
X103196346Y-72418839D01*
X103411140Y-72550466D01*
X103642737Y-72646396D01*
X103643889Y-72646873D01*
X103888852Y-72705683D01*
X104140000Y-72725449D01*
X104391148Y-72705683D01*
X104636111Y-72646873D01*
X104868859Y-72550466D01*
X105083659Y-72418836D01*
X105275224Y-72255224D01*
X105438836Y-72063659D01*
X105570466Y-71848859D01*
X105666873Y-71616111D01*
X105725683Y-71371148D01*
X105745449Y-71120000D01*
X105725683Y-70868852D01*
X105666873Y-70623889D01*
X105628314Y-70530798D01*
X105570466Y-70391140D01*
X105438839Y-70176346D01*
X105438838Y-70176343D01*
X105321590Y-70039064D01*
X105275224Y-69984776D01*
X105139904Y-69869202D01*
X105083656Y-69821161D01*
X105083653Y-69821160D01*
X104868859Y-69689533D01*
X104636110Y-69593126D01*
X104391151Y-69534317D01*
X104140000Y-69514551D01*
X103888848Y-69534317D01*
X103643889Y-69593126D01*
X103411140Y-69689533D01*
X103196346Y-69821160D01*
X103196343Y-69821161D01*
X103004776Y-69984776D01*
X102841161Y-70176343D01*
X102841160Y-70176346D01*
X102709533Y-70391140D01*
X102613126Y-70623889D01*
X102554317Y-70868848D01*
X102534551Y-71120000D01*
X100744947Y-71120000D01*
X100725187Y-70868927D01*
X100666396Y-70624043D01*
X100570019Y-70391368D01*
X100438432Y-70176638D01*
X100438430Y-70176636D01*
X100437732Y-70175819D01*
X100437731Y-70175819D01*
X99788517Y-70825034D01*
X99727194Y-70858519D01*
X99657502Y-70853535D01*
X99601569Y-70811663D01*
X99598486Y-70806750D01*
X99598451Y-70806775D01*
X99593558Y-70799843D01*
X99490360Y-70689346D01*
X99490358Y-70689345D01*
X99455300Y-70668026D01*
X99408248Y-70616375D01*
X99396590Y-70547485D01*
X99424027Y-70483228D01*
X99432047Y-70474397D01*
X100084178Y-69822266D01*
X100084178Y-69822264D01*
X100083374Y-69821577D01*
X100083358Y-69821566D01*
X99868631Y-69689980D01*
X99635956Y-69593603D01*
X99391072Y-69534812D01*
X99139999Y-69515052D01*
X98888927Y-69534812D01*
X98644043Y-69593603D01*
X98411368Y-69689980D01*
X98196637Y-69821568D01*
X98195820Y-69822266D01*
X98846833Y-70473280D01*
X98880318Y-70534603D01*
X98875334Y-70604295D01*
X98837408Y-70657148D01*
X98734262Y-70741064D01*
X98734258Y-70741069D01*
X98683947Y-70812344D01*
X98629205Y-70855761D01*
X98559680Y-70862690D01*
X98497445Y-70830931D01*
X98494962Y-70828516D01*
X97842266Y-70175820D01*
X97841568Y-70176637D01*
X97709980Y-70391368D01*
X97613603Y-70624043D01*
X97554812Y-70868927D01*
X97535052Y-71120000D01*
X83747069Y-71120000D01*
X83857363Y-70940015D01*
X83857365Y-70940012D01*
X83955247Y-70703702D01*
X84014955Y-70454997D01*
X84014956Y-70454995D01*
X84015349Y-70450000D01*
X82893347Y-70450000D01*
X82826308Y-70430315D01*
X82780553Y-70377511D01*
X82770609Y-70308353D01*
X82774369Y-70291067D01*
X82780000Y-70271888D01*
X82780000Y-70128111D01*
X82774369Y-70108933D01*
X82774370Y-70039064D01*
X82812145Y-69980286D01*
X82875701Y-69951262D01*
X82893347Y-69950000D01*
X84015349Y-69950000D01*
X84014956Y-69945004D01*
X84014955Y-69945002D01*
X83955247Y-69696297D01*
X83857365Y-69459987D01*
X83857363Y-69459984D01*
X83723721Y-69241899D01*
X83723720Y-69241897D01*
X83557601Y-69047398D01*
X83363102Y-68881279D01*
X83363100Y-68881278D01*
X83145015Y-68747636D01*
X83145012Y-68747634D01*
X82908702Y-68649752D01*
X82659988Y-68590042D01*
X82659989Y-68590042D01*
X82468852Y-68575000D01*
X81530000Y-68575000D01*
X81530000Y-69576000D01*
X81510315Y-69643039D01*
X81457511Y-69688794D01*
X81406000Y-69700000D01*
X81154000Y-69700000D01*
X81086961Y-69680315D01*
X81041206Y-69627511D01*
X81030000Y-69576000D01*
X81030000Y-68575000D01*
X80091148Y-68575000D01*
X79900011Y-68590042D01*
X79651297Y-68649752D01*
X79414987Y-68747634D01*
X79414984Y-68747636D01*
X79196899Y-68881278D01*
X79196897Y-68881279D01*
X79002398Y-69047398D01*
X78836279Y-69241897D01*
X78836278Y-69241899D01*
X78702636Y-69459984D01*
X78702634Y-69459987D01*
X78604752Y-69696297D01*
X78545044Y-69945002D01*
X78545043Y-69945004D01*
X78544651Y-69950000D01*
X79666653Y-69950000D01*
X79733692Y-69969685D01*
X79779447Y-70022489D01*
X79789391Y-70091647D01*
X79785631Y-70108933D01*
X79780000Y-70128111D01*
X79780000Y-70271888D01*
X79785631Y-70291067D01*
X79785630Y-70360936D01*
X79747855Y-70419714D01*
X79684299Y-70448738D01*
X79666653Y-70450000D01*
X78544651Y-70450000D01*
X76650218Y-70450000D01*
X76580000Y-70444474D01*
X76324935Y-70464547D01*
X76324931Y-70464547D01*
X76324930Y-70464548D01*
X76200534Y-70494413D01*
X76076135Y-70524279D01*
X75839760Y-70622188D01*
X75839757Y-70622190D01*
X75621603Y-70755875D01*
X75621598Y-70755878D01*
X75427044Y-70922044D01*
X75260878Y-71116598D01*
X75260875Y-71116603D01*
X75127190Y-71334757D01*
X75127188Y-71334760D01*
X75029279Y-71571135D01*
X74969547Y-71819934D01*
X74954500Y-72011135D01*
X74954500Y-74388865D01*
X67725373Y-74388865D01*
X67725373Y-63976403D01*
X67725448Y-63973360D01*
X67732857Y-63822545D01*
X67743041Y-63628248D01*
X67743619Y-63622467D01*
X67768719Y-63453264D01*
X67796599Y-63277244D01*
X67797680Y-63271949D01*
X67840093Y-63102630D01*
X67885409Y-62933517D01*
X67886893Y-62928764D01*
X67946209Y-62762991D01*
X68008549Y-62600592D01*
X68010362Y-62596353D01*
X68086016Y-62436397D01*
X68164766Y-62281844D01*
X68166798Y-62278173D01*
X68258064Y-62125907D01*
X68352434Y-61980592D01*
X68354600Y-61977472D01*
X68460614Y-61834530D01*
X68569660Y-61699870D01*
X68571850Y-61697315D01*
X68690583Y-61566315D01*
X68692614Y-61564182D01*
X68814182Y-61442614D01*
X68816315Y-61440583D01*
X68947315Y-61321850D01*
X68949870Y-61319660D01*
X69084530Y-61210614D01*
X69227472Y-61104600D01*
X69230592Y-61102434D01*
X69375907Y-61008064D01*
X69528173Y-60916798D01*
X69531844Y-60914766D01*
X69686397Y-60836016D01*
X69846353Y-60760362D01*
X69850592Y-60758549D01*
X70012970Y-60696216D01*
X70178764Y-60636893D01*
X70183517Y-60635409D01*
X70352630Y-60590093D01*
X70521949Y-60547680D01*
X70527244Y-60546599D01*
X70703264Y-60518719D01*
X70872467Y-60493619D01*
X70878248Y-60493041D01*
X71072293Y-60482869D01*
X71166918Y-60478220D01*
X71223360Y-60475448D01*
X71226403Y-60475373D01*
X104998471Y-60475373D01*
X105001513Y-60475448D01*
G37*
%TD.AperFunction*%
%TD*%
M02*
