%TF.GenerationSoftware,KiCad,Pcbnew,7.0.7*%
%TF.CreationDate,2023-11-15T05:14:33-06:00*%
%TF.ProjectId,GBA_Cartridge,4742415f-4361-4727-9472-696467652e6b,rev?*%
%TF.SameCoordinates,Original*%
%TF.FileFunction,Legend,Top*%
%TF.FilePolarity,Positive*%
%FSLAX46Y46*%
G04 Gerber Fmt 4.6, Leading zero omitted, Abs format (unit mm)*
G04 Created by KiCad (PCBNEW 7.0.7) date 2023-11-15 05:14:33*
%MOMM*%
%LPD*%
G01*
G04 APERTURE LIST*
%ADD10C,0.150000*%
%ADD11C,0.100000*%
%ADD12C,0.120000*%
%ADD13C,0.152400*%
G04 APERTURE END LIST*
D10*
X9398000Y24384000D02*
X9779000Y24003000D01*
X9779000Y24765000D02*
X9398000Y24384000D01*
X9398000Y24384000D02*
X9779000Y24765000D01*
X10795000Y24384000D02*
X9398000Y24384000D01*
X27432000Y24384000D02*
G75*
G03*
X27432000Y24384000I-254000J0D01*
G01*
X40259000Y7914541D02*
G75*
G03*
X40259000Y7914541I-508000J0D01*
G01*
X42164000Y10541000D02*
G75*
G03*
X42164000Y10541000I-254000J0D01*
G01*
X3556000Y-21717000D02*
G75*
G03*
X3556000Y-21717000I-254000J0D01*
G01*
X10922000Y-21336000D02*
G75*
G03*
X10922000Y-21336000I-254000J0D01*
G01*
X28956000Y-22225000D02*
G75*
G03*
X28956000Y-22225000I-254000J0D01*
G01*
X21638257Y-22146257D02*
G75*
G03*
X21638257Y-22146257I-254000J0D01*
G01*
X21455142Y14753419D02*
X21407523Y14705800D01*
X21407523Y14705800D02*
X21264666Y14658180D01*
X21264666Y14658180D02*
X21169428Y14658180D01*
X21169428Y14658180D02*
X21026571Y14705800D01*
X21026571Y14705800D02*
X20931333Y14801038D01*
X20931333Y14801038D02*
X20883714Y14896276D01*
X20883714Y14896276D02*
X20836095Y15086752D01*
X20836095Y15086752D02*
X20836095Y15229609D01*
X20836095Y15229609D02*
X20883714Y15420085D01*
X20883714Y15420085D02*
X20931333Y15515323D01*
X20931333Y15515323D02*
X21026571Y15610561D01*
X21026571Y15610561D02*
X21169428Y15658180D01*
X21169428Y15658180D02*
X21264666Y15658180D01*
X21264666Y15658180D02*
X21407523Y15610561D01*
X21407523Y15610561D02*
X21455142Y15562942D01*
X22407523Y14658180D02*
X21836095Y14658180D01*
X22121809Y14658180D02*
X22121809Y15658180D01*
X22121809Y15658180D02*
X22026571Y15515323D01*
X22026571Y15515323D02*
X21931333Y15420085D01*
X21931333Y15420085D02*
X21836095Y15372466D01*
X22740857Y15658180D02*
X23407523Y15658180D01*
X23407523Y15658180D02*
X22978952Y14658180D01*
X11803142Y23802180D02*
X11469809Y24278371D01*
X11231714Y23802180D02*
X11231714Y24802180D01*
X11231714Y24802180D02*
X11612666Y24802180D01*
X11612666Y24802180D02*
X11707904Y24754561D01*
X11707904Y24754561D02*
X11755523Y24706942D01*
X11755523Y24706942D02*
X11803142Y24611704D01*
X11803142Y24611704D02*
X11803142Y24468847D01*
X11803142Y24468847D02*
X11755523Y24373609D01*
X11755523Y24373609D02*
X11707904Y24325990D01*
X11707904Y24325990D02*
X11612666Y24278371D01*
X11612666Y24278371D02*
X11231714Y24278371D01*
X12755523Y23802180D02*
X12184095Y23802180D01*
X12469809Y23802180D02*
X12469809Y24802180D01*
X12469809Y24802180D02*
X12374571Y24659323D01*
X12374571Y24659323D02*
X12279333Y24564085D01*
X12279333Y24564085D02*
X12184095Y24516466D01*
X13707904Y23802180D02*
X13136476Y23802180D01*
X13422190Y23802180D02*
X13422190Y24802180D01*
X13422190Y24802180D02*
X13326952Y24659323D01*
X13326952Y24659323D02*
X13231714Y24564085D01*
X13231714Y24564085D02*
X13136476Y24516466D01*
X14636905Y23151180D02*
X14636905Y22341657D01*
X14636905Y22341657D02*
X14684524Y22246419D01*
X14684524Y22246419D02*
X14732143Y22198800D01*
X14732143Y22198800D02*
X14827381Y22151180D01*
X14827381Y22151180D02*
X15017857Y22151180D01*
X15017857Y22151180D02*
X15113095Y22198800D01*
X15113095Y22198800D02*
X15160714Y22246419D01*
X15160714Y22246419D02*
X15208333Y22341657D01*
X15208333Y22341657D02*
X15208333Y23151180D01*
X16208333Y22151180D02*
X15636905Y22151180D01*
X15922619Y22151180D02*
X15922619Y23151180D01*
X15922619Y23151180D02*
X15827381Y23008323D01*
X15827381Y23008323D02*
X15732143Y22913085D01*
X15732143Y22913085D02*
X15636905Y22865466D01*
X16541667Y23151180D02*
X17160714Y23151180D01*
X17160714Y23151180D02*
X16827381Y22770228D01*
X16827381Y22770228D02*
X16970238Y22770228D01*
X16970238Y22770228D02*
X17065476Y22722609D01*
X17065476Y22722609D02*
X17113095Y22674990D01*
X17113095Y22674990D02*
X17160714Y22579752D01*
X17160714Y22579752D02*
X17160714Y22341657D01*
X17160714Y22341657D02*
X17113095Y22246419D01*
X17113095Y22246419D02*
X17065476Y22198800D01*
X17065476Y22198800D02*
X16970238Y22151180D01*
X16970238Y22151180D02*
X16684524Y22151180D01*
X16684524Y22151180D02*
X16589286Y22198800D01*
X16589286Y22198800D02*
X16541667Y22246419D01*
X10533142Y21218180D02*
X10199809Y21694371D01*
X9961714Y21218180D02*
X9961714Y22218180D01*
X9961714Y22218180D02*
X10342666Y22218180D01*
X10342666Y22218180D02*
X10437904Y22170561D01*
X10437904Y22170561D02*
X10485523Y22122942D01*
X10485523Y22122942D02*
X10533142Y22027704D01*
X10533142Y22027704D02*
X10533142Y21884847D01*
X10533142Y21884847D02*
X10485523Y21789609D01*
X10485523Y21789609D02*
X10437904Y21741990D01*
X10437904Y21741990D02*
X10342666Y21694371D01*
X10342666Y21694371D02*
X9961714Y21694371D01*
X11485523Y21218180D02*
X10914095Y21218180D01*
X11199809Y21218180D02*
X11199809Y22218180D01*
X11199809Y22218180D02*
X11104571Y22075323D01*
X11104571Y22075323D02*
X11009333Y21980085D01*
X11009333Y21980085D02*
X10914095Y21932466D01*
X11818857Y22218180D02*
X12437904Y22218180D01*
X12437904Y22218180D02*
X12104571Y21837228D01*
X12104571Y21837228D02*
X12247428Y21837228D01*
X12247428Y21837228D02*
X12342666Y21789609D01*
X12342666Y21789609D02*
X12390285Y21741990D01*
X12390285Y21741990D02*
X12437904Y21646752D01*
X12437904Y21646752D02*
X12437904Y21408657D01*
X12437904Y21408657D02*
X12390285Y21313419D01*
X12390285Y21313419D02*
X12342666Y21265800D01*
X12342666Y21265800D02*
X12247428Y21218180D01*
X12247428Y21218180D02*
X11961714Y21218180D01*
X11961714Y21218180D02*
X11866476Y21265800D01*
X11866476Y21265800D02*
X11818857Y21313419D01*
D11*
X22098095Y4098580D02*
X22098095Y3289057D01*
X22098095Y3289057D02*
X22145714Y3193819D01*
X22145714Y3193819D02*
X22193333Y3146200D01*
X22193333Y3146200D02*
X22288571Y3098580D01*
X22288571Y3098580D02*
X22479047Y3098580D01*
X22479047Y3098580D02*
X22574285Y3146200D01*
X22574285Y3146200D02*
X22621904Y3193819D01*
X22621904Y3193819D02*
X22669523Y3289057D01*
X22669523Y3289057D02*
X22669523Y4098580D01*
X23669523Y3098580D02*
X23098095Y3098580D01*
X23383809Y3098580D02*
X23383809Y4098580D01*
X23383809Y4098580D02*
X23288571Y3955723D01*
X23288571Y3955723D02*
X23193333Y3860485D01*
X23193333Y3860485D02*
X23098095Y3812866D01*
D10*
X29043333Y11070419D02*
X28995714Y11022800D01*
X28995714Y11022800D02*
X28852857Y10975180D01*
X28852857Y10975180D02*
X28757619Y10975180D01*
X28757619Y10975180D02*
X28614762Y11022800D01*
X28614762Y11022800D02*
X28519524Y11118038D01*
X28519524Y11118038D02*
X28471905Y11213276D01*
X28471905Y11213276D02*
X28424286Y11403752D01*
X28424286Y11403752D02*
X28424286Y11546609D01*
X28424286Y11546609D02*
X28471905Y11737085D01*
X28471905Y11737085D02*
X28519524Y11832323D01*
X28519524Y11832323D02*
X28614762Y11927561D01*
X28614762Y11927561D02*
X28757619Y11975180D01*
X28757619Y11975180D02*
X28852857Y11975180D01*
X28852857Y11975180D02*
X28995714Y11927561D01*
X28995714Y11927561D02*
X29043333Y11879942D01*
X29519524Y10975180D02*
X29710000Y10975180D01*
X29710000Y10975180D02*
X29805238Y11022800D01*
X29805238Y11022800D02*
X29852857Y11070419D01*
X29852857Y11070419D02*
X29948095Y11213276D01*
X29948095Y11213276D02*
X29995714Y11403752D01*
X29995714Y11403752D02*
X29995714Y11784704D01*
X29995714Y11784704D02*
X29948095Y11879942D01*
X29948095Y11879942D02*
X29900476Y11927561D01*
X29900476Y11927561D02*
X29805238Y11975180D01*
X29805238Y11975180D02*
X29614762Y11975180D01*
X29614762Y11975180D02*
X29519524Y11927561D01*
X29519524Y11927561D02*
X29471905Y11879942D01*
X29471905Y11879942D02*
X29424286Y11784704D01*
X29424286Y11784704D02*
X29424286Y11546609D01*
X29424286Y11546609D02*
X29471905Y11451371D01*
X29471905Y11451371D02*
X29519524Y11403752D01*
X29519524Y11403752D02*
X29614762Y11356133D01*
X29614762Y11356133D02*
X29805238Y11356133D01*
X29805238Y11356133D02*
X29900476Y11403752D01*
X29900476Y11403752D02*
X29948095Y11451371D01*
X29948095Y11451371D02*
X29995714Y11546609D01*
X9144095Y-16599819D02*
X9144095Y-17409342D01*
X9144095Y-17409342D02*
X9191714Y-17504580D01*
X9191714Y-17504580D02*
X9239333Y-17552200D01*
X9239333Y-17552200D02*
X9334571Y-17599819D01*
X9334571Y-17599819D02*
X9525047Y-17599819D01*
X9525047Y-17599819D02*
X9620285Y-17552200D01*
X9620285Y-17552200D02*
X9667904Y-17504580D01*
X9667904Y-17504580D02*
X9715523Y-17409342D01*
X9715523Y-17409342D02*
X9715523Y-16599819D01*
X10620285Y-16599819D02*
X10429809Y-16599819D01*
X10429809Y-16599819D02*
X10334571Y-16647438D01*
X10334571Y-16647438D02*
X10286952Y-16695057D01*
X10286952Y-16695057D02*
X10191714Y-16837914D01*
X10191714Y-16837914D02*
X10144095Y-17028390D01*
X10144095Y-17028390D02*
X10144095Y-17409342D01*
X10144095Y-17409342D02*
X10191714Y-17504580D01*
X10191714Y-17504580D02*
X10239333Y-17552200D01*
X10239333Y-17552200D02*
X10334571Y-17599819D01*
X10334571Y-17599819D02*
X10525047Y-17599819D01*
X10525047Y-17599819D02*
X10620285Y-17552200D01*
X10620285Y-17552200D02*
X10667904Y-17504580D01*
X10667904Y-17504580D02*
X10715523Y-17409342D01*
X10715523Y-17409342D02*
X10715523Y-17171247D01*
X10715523Y-17171247D02*
X10667904Y-17076009D01*
X10667904Y-17076009D02*
X10620285Y-17028390D01*
X10620285Y-17028390D02*
X10525047Y-16980771D01*
X10525047Y-16980771D02*
X10334571Y-16980771D01*
X10334571Y-16980771D02*
X10239333Y-17028390D01*
X10239333Y-17028390D02*
X10191714Y-17076009D01*
X10191714Y-17076009D02*
X10144095Y-17171247D01*
X6350095Y-11900819D02*
X6350095Y-12710342D01*
X6350095Y-12710342D02*
X6397714Y-12805580D01*
X6397714Y-12805580D02*
X6445333Y-12853200D01*
X6445333Y-12853200D02*
X6540571Y-12900819D01*
X6540571Y-12900819D02*
X6731047Y-12900819D01*
X6731047Y-12900819D02*
X6826285Y-12853200D01*
X6826285Y-12853200D02*
X6873904Y-12805580D01*
X6873904Y-12805580D02*
X6921523Y-12710342D01*
X6921523Y-12710342D02*
X6921523Y-11900819D01*
X7873904Y-11900819D02*
X7397714Y-11900819D01*
X7397714Y-11900819D02*
X7350095Y-12377009D01*
X7350095Y-12377009D02*
X7397714Y-12329390D01*
X7397714Y-12329390D02*
X7492952Y-12281771D01*
X7492952Y-12281771D02*
X7731047Y-12281771D01*
X7731047Y-12281771D02*
X7826285Y-12329390D01*
X7826285Y-12329390D02*
X7873904Y-12377009D01*
X7873904Y-12377009D02*
X7921523Y-12472247D01*
X7921523Y-12472247D02*
X7921523Y-12710342D01*
X7921523Y-12710342D02*
X7873904Y-12805580D01*
X7873904Y-12805580D02*
X7826285Y-12853200D01*
X7826285Y-12853200D02*
X7731047Y-12900819D01*
X7731047Y-12900819D02*
X7492952Y-12900819D01*
X7492952Y-12900819D02*
X7397714Y-12853200D01*
X7397714Y-12853200D02*
X7350095Y-12805580D01*
X13835142Y18214180D02*
X13501809Y18690371D01*
X13263714Y18214180D02*
X13263714Y19214180D01*
X13263714Y19214180D02*
X13644666Y19214180D01*
X13644666Y19214180D02*
X13739904Y19166561D01*
X13739904Y19166561D02*
X13787523Y19118942D01*
X13787523Y19118942D02*
X13835142Y19023704D01*
X13835142Y19023704D02*
X13835142Y18880847D01*
X13835142Y18880847D02*
X13787523Y18785609D01*
X13787523Y18785609D02*
X13739904Y18737990D01*
X13739904Y18737990D02*
X13644666Y18690371D01*
X13644666Y18690371D02*
X13263714Y18690371D01*
X14787523Y18214180D02*
X14216095Y18214180D01*
X14501809Y18214180D02*
X14501809Y19214180D01*
X14501809Y19214180D02*
X14406571Y19071323D01*
X14406571Y19071323D02*
X14311333Y18976085D01*
X14311333Y18976085D02*
X14216095Y18928466D01*
X15692285Y19214180D02*
X15216095Y19214180D01*
X15216095Y19214180D02*
X15168476Y18737990D01*
X15168476Y18737990D02*
X15216095Y18785609D01*
X15216095Y18785609D02*
X15311333Y18833228D01*
X15311333Y18833228D02*
X15549428Y18833228D01*
X15549428Y18833228D02*
X15644666Y18785609D01*
X15644666Y18785609D02*
X15692285Y18737990D01*
X15692285Y18737990D02*
X15739904Y18642752D01*
X15739904Y18642752D02*
X15739904Y18404657D01*
X15739904Y18404657D02*
X15692285Y18309419D01*
X15692285Y18309419D02*
X15644666Y18261800D01*
X15644666Y18261800D02*
X15549428Y18214180D01*
X15549428Y18214180D02*
X15311333Y18214180D01*
X15311333Y18214180D02*
X15216095Y18261800D01*
X15216095Y18261800D02*
X15168476Y18309419D01*
X44410333Y-2613819D02*
X44077000Y-2137628D01*
X43838905Y-2613819D02*
X43838905Y-1613819D01*
X43838905Y-1613819D02*
X44219857Y-1613819D01*
X44219857Y-1613819D02*
X44315095Y-1661438D01*
X44315095Y-1661438D02*
X44362714Y-1709057D01*
X44362714Y-1709057D02*
X44410333Y-1804295D01*
X44410333Y-1804295D02*
X44410333Y-1947152D01*
X44410333Y-1947152D02*
X44362714Y-2042390D01*
X44362714Y-2042390D02*
X44315095Y-2090009D01*
X44315095Y-2090009D02*
X44219857Y-2137628D01*
X44219857Y-2137628D02*
X43838905Y-2137628D01*
X44886524Y-2613819D02*
X45077000Y-2613819D01*
X45077000Y-2613819D02*
X45172238Y-2566200D01*
X45172238Y-2566200D02*
X45219857Y-2518580D01*
X45219857Y-2518580D02*
X45315095Y-2375723D01*
X45315095Y-2375723D02*
X45362714Y-2185247D01*
X45362714Y-2185247D02*
X45362714Y-1804295D01*
X45362714Y-1804295D02*
X45315095Y-1709057D01*
X45315095Y-1709057D02*
X45267476Y-1661438D01*
X45267476Y-1661438D02*
X45172238Y-1613819D01*
X45172238Y-1613819D02*
X44981762Y-1613819D01*
X44981762Y-1613819D02*
X44886524Y-1661438D01*
X44886524Y-1661438D02*
X44838905Y-1709057D01*
X44838905Y-1709057D02*
X44791286Y-1804295D01*
X44791286Y-1804295D02*
X44791286Y-2042390D01*
X44791286Y-2042390D02*
X44838905Y-2137628D01*
X44838905Y-2137628D02*
X44886524Y-2185247D01*
X44886524Y-2185247D02*
X44981762Y-2232866D01*
X44981762Y-2232866D02*
X45172238Y-2232866D01*
X45172238Y-2232866D02*
X45267476Y-2185247D01*
X45267476Y-2185247D02*
X45315095Y-2137628D01*
X45315095Y-2137628D02*
X45362714Y-2042390D01*
X43394333Y13356419D02*
X43346714Y13308800D01*
X43346714Y13308800D02*
X43203857Y13261180D01*
X43203857Y13261180D02*
X43108619Y13261180D01*
X43108619Y13261180D02*
X42965762Y13308800D01*
X42965762Y13308800D02*
X42870524Y13404038D01*
X42870524Y13404038D02*
X42822905Y13499276D01*
X42822905Y13499276D02*
X42775286Y13689752D01*
X42775286Y13689752D02*
X42775286Y13832609D01*
X42775286Y13832609D02*
X42822905Y14023085D01*
X42822905Y14023085D02*
X42870524Y14118323D01*
X42870524Y14118323D02*
X42965762Y14213561D01*
X42965762Y14213561D02*
X43108619Y14261180D01*
X43108619Y14261180D02*
X43203857Y14261180D01*
X43203857Y14261180D02*
X43346714Y14213561D01*
X43346714Y14213561D02*
X43394333Y14165942D01*
X43965762Y13832609D02*
X43870524Y13880228D01*
X43870524Y13880228D02*
X43822905Y13927847D01*
X43822905Y13927847D02*
X43775286Y14023085D01*
X43775286Y14023085D02*
X43775286Y14070704D01*
X43775286Y14070704D02*
X43822905Y14165942D01*
X43822905Y14165942D02*
X43870524Y14213561D01*
X43870524Y14213561D02*
X43965762Y14261180D01*
X43965762Y14261180D02*
X44156238Y14261180D01*
X44156238Y14261180D02*
X44251476Y14213561D01*
X44251476Y14213561D02*
X44299095Y14165942D01*
X44299095Y14165942D02*
X44346714Y14070704D01*
X44346714Y14070704D02*
X44346714Y14023085D01*
X44346714Y14023085D02*
X44299095Y13927847D01*
X44299095Y13927847D02*
X44251476Y13880228D01*
X44251476Y13880228D02*
X44156238Y13832609D01*
X44156238Y13832609D02*
X43965762Y13832609D01*
X43965762Y13832609D02*
X43870524Y13784990D01*
X43870524Y13784990D02*
X43822905Y13737371D01*
X43822905Y13737371D02*
X43775286Y13642133D01*
X43775286Y13642133D02*
X43775286Y13451657D01*
X43775286Y13451657D02*
X43822905Y13356419D01*
X43822905Y13356419D02*
X43870524Y13308800D01*
X43870524Y13308800D02*
X43965762Y13261180D01*
X43965762Y13261180D02*
X44156238Y13261180D01*
X44156238Y13261180D02*
X44251476Y13308800D01*
X44251476Y13308800D02*
X44299095Y13356419D01*
X44299095Y13356419D02*
X44346714Y13451657D01*
X44346714Y13451657D02*
X44346714Y13642133D01*
X44346714Y13642133D02*
X44299095Y13737371D01*
X44299095Y13737371D02*
X44251476Y13784990D01*
X44251476Y13784990D02*
X44156238Y13832609D01*
X40132095Y-470819D02*
X40132095Y-1280342D01*
X40132095Y-1280342D02*
X40179714Y-1375580D01*
X40179714Y-1375580D02*
X40227333Y-1423200D01*
X40227333Y-1423200D02*
X40322571Y-1470819D01*
X40322571Y-1470819D02*
X40513047Y-1470819D01*
X40513047Y-1470819D02*
X40608285Y-1423200D01*
X40608285Y-1423200D02*
X40655904Y-1375580D01*
X40655904Y-1375580D02*
X40703523Y-1280342D01*
X40703523Y-1280342D02*
X40703523Y-470819D01*
X41227333Y-1470819D02*
X41417809Y-1470819D01*
X41417809Y-1470819D02*
X41513047Y-1423200D01*
X41513047Y-1423200D02*
X41560666Y-1375580D01*
X41560666Y-1375580D02*
X41655904Y-1232723D01*
X41655904Y-1232723D02*
X41703523Y-1042247D01*
X41703523Y-1042247D02*
X41703523Y-661295D01*
X41703523Y-661295D02*
X41655904Y-566057D01*
X41655904Y-566057D02*
X41608285Y-518438D01*
X41608285Y-518438D02*
X41513047Y-470819D01*
X41513047Y-470819D02*
X41322571Y-470819D01*
X41322571Y-470819D02*
X41227333Y-518438D01*
X41227333Y-518438D02*
X41179714Y-566057D01*
X41179714Y-566057D02*
X41132095Y-661295D01*
X41132095Y-661295D02*
X41132095Y-899390D01*
X41132095Y-899390D02*
X41179714Y-994628D01*
X41179714Y-994628D02*
X41227333Y-1042247D01*
X41227333Y-1042247D02*
X41322571Y-1089866D01*
X41322571Y-1089866D02*
X41513047Y-1089866D01*
X41513047Y-1089866D02*
X41608285Y-1042247D01*
X41608285Y-1042247D02*
X41655904Y-994628D01*
X41655904Y-994628D02*
X41703523Y-899390D01*
X1865333Y-16837819D02*
X1532000Y-16361628D01*
X1293905Y-16837819D02*
X1293905Y-15837819D01*
X1293905Y-15837819D02*
X1674857Y-15837819D01*
X1674857Y-15837819D02*
X1770095Y-15885438D01*
X1770095Y-15885438D02*
X1817714Y-15933057D01*
X1817714Y-15933057D02*
X1865333Y-16028295D01*
X1865333Y-16028295D02*
X1865333Y-16171152D01*
X1865333Y-16171152D02*
X1817714Y-16266390D01*
X1817714Y-16266390D02*
X1770095Y-16314009D01*
X1770095Y-16314009D02*
X1674857Y-16361628D01*
X1674857Y-16361628D02*
X1293905Y-16361628D01*
X2817714Y-16837819D02*
X2246286Y-16837819D01*
X2532000Y-16837819D02*
X2532000Y-15837819D01*
X2532000Y-15837819D02*
X2436762Y-15980676D01*
X2436762Y-15980676D02*
X2341524Y-16075914D01*
X2341524Y-16075914D02*
X2246286Y-16123533D01*
X32504142Y18341180D02*
X32170809Y18817371D01*
X31932714Y18341180D02*
X31932714Y19341180D01*
X31932714Y19341180D02*
X32313666Y19341180D01*
X32313666Y19341180D02*
X32408904Y19293561D01*
X32408904Y19293561D02*
X32456523Y19245942D01*
X32456523Y19245942D02*
X32504142Y19150704D01*
X32504142Y19150704D02*
X32504142Y19007847D01*
X32504142Y19007847D02*
X32456523Y18912609D01*
X32456523Y18912609D02*
X32408904Y18864990D01*
X32408904Y18864990D02*
X32313666Y18817371D01*
X32313666Y18817371D02*
X31932714Y18817371D01*
X33456523Y18341180D02*
X32885095Y18341180D01*
X33170809Y18341180D02*
X33170809Y19341180D01*
X33170809Y19341180D02*
X33075571Y19198323D01*
X33075571Y19198323D02*
X32980333Y19103085D01*
X32980333Y19103085D02*
X32885095Y19055466D01*
X34027952Y18912609D02*
X33932714Y18960228D01*
X33932714Y18960228D02*
X33885095Y19007847D01*
X33885095Y19007847D02*
X33837476Y19103085D01*
X33837476Y19103085D02*
X33837476Y19150704D01*
X33837476Y19150704D02*
X33885095Y19245942D01*
X33885095Y19245942D02*
X33932714Y19293561D01*
X33932714Y19293561D02*
X34027952Y19341180D01*
X34027952Y19341180D02*
X34218428Y19341180D01*
X34218428Y19341180D02*
X34313666Y19293561D01*
X34313666Y19293561D02*
X34361285Y19245942D01*
X34361285Y19245942D02*
X34408904Y19150704D01*
X34408904Y19150704D02*
X34408904Y19103085D01*
X34408904Y19103085D02*
X34361285Y19007847D01*
X34361285Y19007847D02*
X34313666Y18960228D01*
X34313666Y18960228D02*
X34218428Y18912609D01*
X34218428Y18912609D02*
X34027952Y18912609D01*
X34027952Y18912609D02*
X33932714Y18864990D01*
X33932714Y18864990D02*
X33885095Y18817371D01*
X33885095Y18817371D02*
X33837476Y18722133D01*
X33837476Y18722133D02*
X33837476Y18531657D01*
X33837476Y18531657D02*
X33885095Y18436419D01*
X33885095Y18436419D02*
X33932714Y18388800D01*
X33932714Y18388800D02*
X34027952Y18341180D01*
X34027952Y18341180D02*
X34218428Y18341180D01*
X34218428Y18341180D02*
X34313666Y18388800D01*
X34313666Y18388800D02*
X34361285Y18436419D01*
X34361285Y18436419D02*
X34408904Y18531657D01*
X34408904Y18531657D02*
X34408904Y18722133D01*
X34408904Y18722133D02*
X34361285Y18817371D01*
X34361285Y18817371D02*
X34313666Y18864990D01*
X34313666Y18864990D02*
X34218428Y18912609D01*
X27305095Y-17488819D02*
X27305095Y-18298342D01*
X27305095Y-18298342D02*
X27352714Y-18393580D01*
X27352714Y-18393580D02*
X27400333Y-18441200D01*
X27400333Y-18441200D02*
X27495571Y-18488819D01*
X27495571Y-18488819D02*
X27686047Y-18488819D01*
X27686047Y-18488819D02*
X27781285Y-18441200D01*
X27781285Y-18441200D02*
X27828904Y-18393580D01*
X27828904Y-18393580D02*
X27876523Y-18298342D01*
X27876523Y-18298342D02*
X27876523Y-17488819D01*
X28495571Y-17917390D02*
X28400333Y-17869771D01*
X28400333Y-17869771D02*
X28352714Y-17822152D01*
X28352714Y-17822152D02*
X28305095Y-17726914D01*
X28305095Y-17726914D02*
X28305095Y-17679295D01*
X28305095Y-17679295D02*
X28352714Y-17584057D01*
X28352714Y-17584057D02*
X28400333Y-17536438D01*
X28400333Y-17536438D02*
X28495571Y-17488819D01*
X28495571Y-17488819D02*
X28686047Y-17488819D01*
X28686047Y-17488819D02*
X28781285Y-17536438D01*
X28781285Y-17536438D02*
X28828904Y-17584057D01*
X28828904Y-17584057D02*
X28876523Y-17679295D01*
X28876523Y-17679295D02*
X28876523Y-17726914D01*
X28876523Y-17726914D02*
X28828904Y-17822152D01*
X28828904Y-17822152D02*
X28781285Y-17869771D01*
X28781285Y-17869771D02*
X28686047Y-17917390D01*
X28686047Y-17917390D02*
X28495571Y-17917390D01*
X28495571Y-17917390D02*
X28400333Y-17965009D01*
X28400333Y-17965009D02*
X28352714Y-18012628D01*
X28352714Y-18012628D02*
X28305095Y-18107866D01*
X28305095Y-18107866D02*
X28305095Y-18298342D01*
X28305095Y-18298342D02*
X28352714Y-18393580D01*
X28352714Y-18393580D02*
X28400333Y-18441200D01*
X28400333Y-18441200D02*
X28495571Y-18488819D01*
X28495571Y-18488819D02*
X28686047Y-18488819D01*
X28686047Y-18488819D02*
X28781285Y-18441200D01*
X28781285Y-18441200D02*
X28828904Y-18393580D01*
X28828904Y-18393580D02*
X28876523Y-18298342D01*
X28876523Y-18298342D02*
X28876523Y-18107866D01*
X28876523Y-18107866D02*
X28828904Y-18012628D01*
X28828904Y-18012628D02*
X28781285Y-17965009D01*
X28781285Y-17965009D02*
X28686047Y-17917390D01*
D11*
X1108419Y9810905D02*
X1917942Y9810905D01*
X1917942Y9810905D02*
X2013180Y9858524D01*
X2013180Y9858524D02*
X2060800Y9906143D01*
X2060800Y9906143D02*
X2108419Y10001381D01*
X2108419Y10001381D02*
X2108419Y10191857D01*
X2108419Y10191857D02*
X2060800Y10287095D01*
X2060800Y10287095D02*
X2013180Y10334714D01*
X2013180Y10334714D02*
X1917942Y10382333D01*
X1917942Y10382333D02*
X1108419Y10382333D01*
X2108419Y11382333D02*
X2108419Y10810905D01*
X2108419Y11096619D02*
X1108419Y11096619D01*
X1108419Y11096619D02*
X1251276Y11001381D01*
X1251276Y11001381D02*
X1346514Y10906143D01*
X1346514Y10906143D02*
X1394133Y10810905D01*
X2108419Y12334714D02*
X2108419Y11763286D01*
X2108419Y12049000D02*
X1108419Y12049000D01*
X1108419Y12049000D02*
X1251276Y11953762D01*
X1251276Y11953762D02*
X1346514Y11858524D01*
X1346514Y11858524D02*
X1394133Y11763286D01*
D10*
X32504142Y21103419D02*
X32456523Y21055800D01*
X32456523Y21055800D02*
X32313666Y21008180D01*
X32313666Y21008180D02*
X32218428Y21008180D01*
X32218428Y21008180D02*
X32075571Y21055800D01*
X32075571Y21055800D02*
X31980333Y21151038D01*
X31980333Y21151038D02*
X31932714Y21246276D01*
X31932714Y21246276D02*
X31885095Y21436752D01*
X31885095Y21436752D02*
X31885095Y21579609D01*
X31885095Y21579609D02*
X31932714Y21770085D01*
X31932714Y21770085D02*
X31980333Y21865323D01*
X31980333Y21865323D02*
X32075571Y21960561D01*
X32075571Y21960561D02*
X32218428Y22008180D01*
X32218428Y22008180D02*
X32313666Y22008180D01*
X32313666Y22008180D02*
X32456523Y21960561D01*
X32456523Y21960561D02*
X32504142Y21912942D01*
X33456523Y21008180D02*
X32885095Y21008180D01*
X33170809Y21008180D02*
X33170809Y22008180D01*
X33170809Y22008180D02*
X33075571Y21865323D01*
X33075571Y21865323D02*
X32980333Y21770085D01*
X32980333Y21770085D02*
X32885095Y21722466D01*
X34027952Y21579609D02*
X33932714Y21627228D01*
X33932714Y21627228D02*
X33885095Y21674847D01*
X33885095Y21674847D02*
X33837476Y21770085D01*
X33837476Y21770085D02*
X33837476Y21817704D01*
X33837476Y21817704D02*
X33885095Y21912942D01*
X33885095Y21912942D02*
X33932714Y21960561D01*
X33932714Y21960561D02*
X34027952Y22008180D01*
X34027952Y22008180D02*
X34218428Y22008180D01*
X34218428Y22008180D02*
X34313666Y21960561D01*
X34313666Y21960561D02*
X34361285Y21912942D01*
X34361285Y21912942D02*
X34408904Y21817704D01*
X34408904Y21817704D02*
X34408904Y21770085D01*
X34408904Y21770085D02*
X34361285Y21674847D01*
X34361285Y21674847D02*
X34313666Y21627228D01*
X34313666Y21627228D02*
X34218428Y21579609D01*
X34218428Y21579609D02*
X34027952Y21579609D01*
X34027952Y21579609D02*
X33932714Y21531990D01*
X33932714Y21531990D02*
X33885095Y21484371D01*
X33885095Y21484371D02*
X33837476Y21389133D01*
X33837476Y21389133D02*
X33837476Y21198657D01*
X33837476Y21198657D02*
X33885095Y21103419D01*
X33885095Y21103419D02*
X33932714Y21055800D01*
X33932714Y21055800D02*
X34027952Y21008180D01*
X34027952Y21008180D02*
X34218428Y21008180D01*
X34218428Y21008180D02*
X34313666Y21055800D01*
X34313666Y21055800D02*
X34361285Y21103419D01*
X34361285Y21103419D02*
X34408904Y21198657D01*
X34408904Y21198657D02*
X34408904Y21389133D01*
X34408904Y21389133D02*
X34361285Y21484371D01*
X34361285Y21484371D02*
X34313666Y21531990D01*
X34313666Y21531990D02*
X34218428Y21579609D01*
X37147667Y22960800D02*
X37290524Y22913180D01*
X37290524Y22913180D02*
X37528619Y22913180D01*
X37528619Y22913180D02*
X37623857Y22960800D01*
X37623857Y22960800D02*
X37671476Y23008419D01*
X37671476Y23008419D02*
X37719095Y23103657D01*
X37719095Y23103657D02*
X37719095Y23198895D01*
X37719095Y23198895D02*
X37671476Y23294133D01*
X37671476Y23294133D02*
X37623857Y23341752D01*
X37623857Y23341752D02*
X37528619Y23389371D01*
X37528619Y23389371D02*
X37338143Y23436990D01*
X37338143Y23436990D02*
X37242905Y23484609D01*
X37242905Y23484609D02*
X37195286Y23532228D01*
X37195286Y23532228D02*
X37147667Y23627466D01*
X37147667Y23627466D02*
X37147667Y23722704D01*
X37147667Y23722704D02*
X37195286Y23817942D01*
X37195286Y23817942D02*
X37242905Y23865561D01*
X37242905Y23865561D02*
X37338143Y23913180D01*
X37338143Y23913180D02*
X37576238Y23913180D01*
X37576238Y23913180D02*
X37719095Y23865561D01*
X38052429Y23913180D02*
X38290524Y22913180D01*
X38290524Y22913180D02*
X38481000Y23627466D01*
X38481000Y23627466D02*
X38671476Y22913180D01*
X38671476Y22913180D02*
X38909572Y23913180D01*
X39814333Y22913180D02*
X39242905Y22913180D01*
X39528619Y22913180D02*
X39528619Y23913180D01*
X39528619Y23913180D02*
X39433381Y23770323D01*
X39433381Y23770323D02*
X39338143Y23675085D01*
X39338143Y23675085D02*
X39242905Y23627466D01*
X3802142Y7927180D02*
X3468809Y8403371D01*
X3230714Y7927180D02*
X3230714Y8927180D01*
X3230714Y8927180D02*
X3611666Y8927180D01*
X3611666Y8927180D02*
X3706904Y8879561D01*
X3706904Y8879561D02*
X3754523Y8831942D01*
X3754523Y8831942D02*
X3802142Y8736704D01*
X3802142Y8736704D02*
X3802142Y8593847D01*
X3802142Y8593847D02*
X3754523Y8498609D01*
X3754523Y8498609D02*
X3706904Y8450990D01*
X3706904Y8450990D02*
X3611666Y8403371D01*
X3611666Y8403371D02*
X3230714Y8403371D01*
X4754523Y7927180D02*
X4183095Y7927180D01*
X4468809Y7927180D02*
X4468809Y8927180D01*
X4468809Y8927180D02*
X4373571Y8784323D01*
X4373571Y8784323D02*
X4278333Y8689085D01*
X4278333Y8689085D02*
X4183095Y8641466D01*
X5135476Y8831942D02*
X5183095Y8879561D01*
X5183095Y8879561D02*
X5278333Y8927180D01*
X5278333Y8927180D02*
X5516428Y8927180D01*
X5516428Y8927180D02*
X5611666Y8879561D01*
X5611666Y8879561D02*
X5659285Y8831942D01*
X5659285Y8831942D02*
X5706904Y8736704D01*
X5706904Y8736704D02*
X5706904Y8641466D01*
X5706904Y8641466D02*
X5659285Y8498609D01*
X5659285Y8498609D02*
X5087857Y7927180D01*
X5087857Y7927180D02*
X5706904Y7927180D01*
X36155333Y-2772580D02*
X36107714Y-2820200D01*
X36107714Y-2820200D02*
X35964857Y-2867819D01*
X35964857Y-2867819D02*
X35869619Y-2867819D01*
X35869619Y-2867819D02*
X35726762Y-2820200D01*
X35726762Y-2820200D02*
X35631524Y-2724961D01*
X35631524Y-2724961D02*
X35583905Y-2629723D01*
X35583905Y-2629723D02*
X35536286Y-2439247D01*
X35536286Y-2439247D02*
X35536286Y-2296390D01*
X35536286Y-2296390D02*
X35583905Y-2105914D01*
X35583905Y-2105914D02*
X35631524Y-2010676D01*
X35631524Y-2010676D02*
X35726762Y-1915438D01*
X35726762Y-1915438D02*
X35869619Y-1867819D01*
X35869619Y-1867819D02*
X35964857Y-1867819D01*
X35964857Y-1867819D02*
X36107714Y-1915438D01*
X36107714Y-1915438D02*
X36155333Y-1963057D01*
X36488667Y-1867819D02*
X37155333Y-1867819D01*
X37155333Y-1867819D02*
X36726762Y-2867819D01*
X44323095Y-13872769D02*
X44323095Y-14682292D01*
X44323095Y-14682292D02*
X44370714Y-14777530D01*
X44370714Y-14777530D02*
X44418333Y-14825150D01*
X44418333Y-14825150D02*
X44513571Y-14872769D01*
X44513571Y-14872769D02*
X44704047Y-14872769D01*
X44704047Y-14872769D02*
X44799285Y-14825150D01*
X44799285Y-14825150D02*
X44846904Y-14777530D01*
X44846904Y-14777530D02*
X44894523Y-14682292D01*
X44894523Y-14682292D02*
X44894523Y-13872769D01*
X45323095Y-13968007D02*
X45370714Y-13920388D01*
X45370714Y-13920388D02*
X45465952Y-13872769D01*
X45465952Y-13872769D02*
X45704047Y-13872769D01*
X45704047Y-13872769D02*
X45799285Y-13920388D01*
X45799285Y-13920388D02*
X45846904Y-13968007D01*
X45846904Y-13968007D02*
X45894523Y-14063245D01*
X45894523Y-14063245D02*
X45894523Y-14158483D01*
X45894523Y-14158483D02*
X45846904Y-14301340D01*
X45846904Y-14301340D02*
X45275476Y-14872769D01*
X45275476Y-14872769D02*
X45894523Y-14872769D01*
X48728333Y-17853819D02*
X48395000Y-17377628D01*
X48156905Y-17853819D02*
X48156905Y-16853819D01*
X48156905Y-16853819D02*
X48537857Y-16853819D01*
X48537857Y-16853819D02*
X48633095Y-16901438D01*
X48633095Y-16901438D02*
X48680714Y-16949057D01*
X48680714Y-16949057D02*
X48728333Y-17044295D01*
X48728333Y-17044295D02*
X48728333Y-17187152D01*
X48728333Y-17187152D02*
X48680714Y-17282390D01*
X48680714Y-17282390D02*
X48633095Y-17330009D01*
X48633095Y-17330009D02*
X48537857Y-17377628D01*
X48537857Y-17377628D02*
X48156905Y-17377628D01*
X49109286Y-16949057D02*
X49156905Y-16901438D01*
X49156905Y-16901438D02*
X49252143Y-16853819D01*
X49252143Y-16853819D02*
X49490238Y-16853819D01*
X49490238Y-16853819D02*
X49585476Y-16901438D01*
X49585476Y-16901438D02*
X49633095Y-16949057D01*
X49633095Y-16949057D02*
X49680714Y-17044295D01*
X49680714Y-17044295D02*
X49680714Y-17139533D01*
X49680714Y-17139533D02*
X49633095Y-17282390D01*
X49633095Y-17282390D02*
X49061667Y-17853819D01*
X49061667Y-17853819D02*
X49680714Y-17853819D01*
X10406142Y12975419D02*
X10358523Y12927800D01*
X10358523Y12927800D02*
X10215666Y12880180D01*
X10215666Y12880180D02*
X10120428Y12880180D01*
X10120428Y12880180D02*
X9977571Y12927800D01*
X9977571Y12927800D02*
X9882333Y13023038D01*
X9882333Y13023038D02*
X9834714Y13118276D01*
X9834714Y13118276D02*
X9787095Y13308752D01*
X9787095Y13308752D02*
X9787095Y13451609D01*
X9787095Y13451609D02*
X9834714Y13642085D01*
X9834714Y13642085D02*
X9882333Y13737323D01*
X9882333Y13737323D02*
X9977571Y13832561D01*
X9977571Y13832561D02*
X10120428Y13880180D01*
X10120428Y13880180D02*
X10215666Y13880180D01*
X10215666Y13880180D02*
X10358523Y13832561D01*
X10358523Y13832561D02*
X10406142Y13784942D01*
X11358523Y12880180D02*
X10787095Y12880180D01*
X11072809Y12880180D02*
X11072809Y13880180D01*
X11072809Y13880180D02*
X10977571Y13737323D01*
X10977571Y13737323D02*
X10882333Y13642085D01*
X10882333Y13642085D02*
X10787095Y13594466D01*
X12310904Y12880180D02*
X11739476Y12880180D01*
X12025190Y12880180D02*
X12025190Y13880180D01*
X12025190Y13880180D02*
X11929952Y13737323D01*
X11929952Y13737323D02*
X11834714Y13642085D01*
X11834714Y13642085D02*
X11739476Y13594466D01*
X34194809Y16150371D02*
X34194809Y15674180D01*
X33861476Y16674180D02*
X34194809Y16150371D01*
X34194809Y16150371D02*
X34528142Y16674180D01*
X35385285Y15674180D02*
X34813857Y15674180D01*
X35099571Y15674180D02*
X35099571Y16674180D01*
X35099571Y16674180D02*
X35004333Y16531323D01*
X35004333Y16531323D02*
X34909095Y16436085D01*
X34909095Y16436085D02*
X34813857Y16388466D01*
X32726333Y-2772580D02*
X32678714Y-2820200D01*
X32678714Y-2820200D02*
X32535857Y-2867819D01*
X32535857Y-2867819D02*
X32440619Y-2867819D01*
X32440619Y-2867819D02*
X32297762Y-2820200D01*
X32297762Y-2820200D02*
X32202524Y-2724961D01*
X32202524Y-2724961D02*
X32154905Y-2629723D01*
X32154905Y-2629723D02*
X32107286Y-2439247D01*
X32107286Y-2439247D02*
X32107286Y-2296390D01*
X32107286Y-2296390D02*
X32154905Y-2105914D01*
X32154905Y-2105914D02*
X32202524Y-2010676D01*
X32202524Y-2010676D02*
X32297762Y-1915438D01*
X32297762Y-1915438D02*
X32440619Y-1867819D01*
X32440619Y-1867819D02*
X32535857Y-1867819D01*
X32535857Y-1867819D02*
X32678714Y-1915438D01*
X32678714Y-1915438D02*
X32726333Y-1963057D01*
X33583476Y-1867819D02*
X33393000Y-1867819D01*
X33393000Y-1867819D02*
X33297762Y-1915438D01*
X33297762Y-1915438D02*
X33250143Y-1963057D01*
X33250143Y-1963057D02*
X33154905Y-2105914D01*
X33154905Y-2105914D02*
X33107286Y-2296390D01*
X33107286Y-2296390D02*
X33107286Y-2677342D01*
X33107286Y-2677342D02*
X33154905Y-2772580D01*
X33154905Y-2772580D02*
X33202524Y-2820200D01*
X33202524Y-2820200D02*
X33297762Y-2867819D01*
X33297762Y-2867819D02*
X33488238Y-2867819D01*
X33488238Y-2867819D02*
X33583476Y-2820200D01*
X33583476Y-2820200D02*
X33631095Y-2772580D01*
X33631095Y-2772580D02*
X33678714Y-2677342D01*
X33678714Y-2677342D02*
X33678714Y-2439247D01*
X33678714Y-2439247D02*
X33631095Y-2344009D01*
X33631095Y-2344009D02*
X33583476Y-2296390D01*
X33583476Y-2296390D02*
X33488238Y-2248771D01*
X33488238Y-2248771D02*
X33297762Y-2248771D01*
X33297762Y-2248771D02*
X33202524Y-2296390D01*
X33202524Y-2296390D02*
X33154905Y-2344009D01*
X33154905Y-2344009D02*
X33107286Y-2439247D01*
X13962142Y16055180D02*
X13628809Y16531371D01*
X13390714Y16055180D02*
X13390714Y17055180D01*
X13390714Y17055180D02*
X13771666Y17055180D01*
X13771666Y17055180D02*
X13866904Y17007561D01*
X13866904Y17007561D02*
X13914523Y16959942D01*
X13914523Y16959942D02*
X13962142Y16864704D01*
X13962142Y16864704D02*
X13962142Y16721847D01*
X13962142Y16721847D02*
X13914523Y16626609D01*
X13914523Y16626609D02*
X13866904Y16578990D01*
X13866904Y16578990D02*
X13771666Y16531371D01*
X13771666Y16531371D02*
X13390714Y16531371D01*
X14914523Y16055180D02*
X14343095Y16055180D01*
X14628809Y16055180D02*
X14628809Y17055180D01*
X14628809Y17055180D02*
X14533571Y16912323D01*
X14533571Y16912323D02*
X14438333Y16817085D01*
X14438333Y16817085D02*
X14343095Y16769466D01*
X15771666Y16721847D02*
X15771666Y16055180D01*
X15533571Y17102800D02*
X15295476Y16388514D01*
X15295476Y16388514D02*
X15914523Y16388514D01*
X47926666Y12991180D02*
X47926666Y12276895D01*
X47926666Y12276895D02*
X47879047Y12134038D01*
X47879047Y12134038D02*
X47783809Y12038800D01*
X47783809Y12038800D02*
X47640952Y11991180D01*
X47640952Y11991180D02*
X47545714Y11991180D01*
X48355238Y12895942D02*
X48402857Y12943561D01*
X48402857Y12943561D02*
X48498095Y12991180D01*
X48498095Y12991180D02*
X48736190Y12991180D01*
X48736190Y12991180D02*
X48831428Y12943561D01*
X48831428Y12943561D02*
X48879047Y12895942D01*
X48879047Y12895942D02*
X48926666Y12800704D01*
X48926666Y12800704D02*
X48926666Y12705466D01*
X48926666Y12705466D02*
X48879047Y12562609D01*
X48879047Y12562609D02*
X48307619Y11991180D01*
X48307619Y11991180D02*
X48926666Y11991180D01*
X19431095Y-17615819D02*
X19431095Y-18425342D01*
X19431095Y-18425342D02*
X19478714Y-18520580D01*
X19478714Y-18520580D02*
X19526333Y-18568200D01*
X19526333Y-18568200D02*
X19621571Y-18615819D01*
X19621571Y-18615819D02*
X19812047Y-18615819D01*
X19812047Y-18615819D02*
X19907285Y-18568200D01*
X19907285Y-18568200D02*
X19954904Y-18520580D01*
X19954904Y-18520580D02*
X20002523Y-18425342D01*
X20002523Y-18425342D02*
X20002523Y-17615819D01*
X20383476Y-17615819D02*
X21050142Y-17615819D01*
X21050142Y-17615819D02*
X20621571Y-18615819D01*
X32885142Y23421180D02*
X32551809Y23897371D01*
X32313714Y23421180D02*
X32313714Y24421180D01*
X32313714Y24421180D02*
X32694666Y24421180D01*
X32694666Y24421180D02*
X32789904Y24373561D01*
X32789904Y24373561D02*
X32837523Y24325942D01*
X32837523Y24325942D02*
X32885142Y24230704D01*
X32885142Y24230704D02*
X32885142Y24087847D01*
X32885142Y24087847D02*
X32837523Y23992609D01*
X32837523Y23992609D02*
X32789904Y23944990D01*
X32789904Y23944990D02*
X32694666Y23897371D01*
X32694666Y23897371D02*
X32313714Y23897371D01*
X33837523Y23421180D02*
X33266095Y23421180D01*
X33551809Y23421180D02*
X33551809Y24421180D01*
X33551809Y24421180D02*
X33456571Y24278323D01*
X33456571Y24278323D02*
X33361333Y24183085D01*
X33361333Y24183085D02*
X33266095Y24135466D01*
X34313714Y23421180D02*
X34504190Y23421180D01*
X34504190Y23421180D02*
X34599428Y23468800D01*
X34599428Y23468800D02*
X34647047Y23516419D01*
X34647047Y23516419D02*
X34742285Y23659276D01*
X34742285Y23659276D02*
X34789904Y23849752D01*
X34789904Y23849752D02*
X34789904Y24230704D01*
X34789904Y24230704D02*
X34742285Y24325942D01*
X34742285Y24325942D02*
X34694666Y24373561D01*
X34694666Y24373561D02*
X34599428Y24421180D01*
X34599428Y24421180D02*
X34408952Y24421180D01*
X34408952Y24421180D02*
X34313714Y24373561D01*
X34313714Y24373561D02*
X34266095Y24325942D01*
X34266095Y24325942D02*
X34218476Y24230704D01*
X34218476Y24230704D02*
X34218476Y23992609D01*
X34218476Y23992609D02*
X34266095Y23897371D01*
X34266095Y23897371D02*
X34313714Y23849752D01*
X34313714Y23849752D02*
X34408952Y23802133D01*
X34408952Y23802133D02*
X34599428Y23802133D01*
X34599428Y23802133D02*
X34694666Y23849752D01*
X34694666Y23849752D02*
X34742285Y23897371D01*
X34742285Y23897371D02*
X34789904Y23992609D01*
D12*
%TO.C,C17*%
X22015233Y17341000D02*
X22307767Y17341000D01*
X22015233Y16321000D02*
X22307767Y16321000D01*
%TO.C,R11*%
X4869917Y23224000D02*
X4415789Y23224000D01*
X4869917Y24694000D02*
X4415789Y24694000D01*
D10*
%TO.C,U13*%
X18448500Y23478000D02*
X18448500Y19328000D01*
X26288500Y23478000D02*
X26288500Y24603000D01*
X27398500Y23478000D02*
X27398500Y19328000D01*
X26288500Y23478000D02*
X27398500Y23478000D01*
X18448500Y23478000D02*
X19558500Y23478000D01*
X18448500Y19328000D02*
X19558500Y19328000D01*
X27398500Y19328000D02*
X26288500Y19328000D01*
D12*
%TO.C,R13*%
X9441853Y21900064D02*
X9441853Y21445936D01*
X7971853Y21900064D02*
X7971853Y21445936D01*
D11*
%TO.C,U1*%
X21458000Y10381000D02*
X21458000Y-9619000D01*
X7458000Y10381000D02*
X7458000Y-9619000D01*
X22208000Y10881000D02*
G75*
G03*
X22208000Y10881000I-250000J0D01*
G01*
X20958000Y8631000D02*
G75*
G03*
X20958000Y8631000I-750000J0D01*
G01*
D12*
%TO.C,C9*%
X29471252Y12600000D02*
X28948748Y12600000D01*
X29471252Y14070000D02*
X28948748Y14070000D01*
%TO.C,U6*%
X16324000Y-17145000D02*
X16324000Y-19345000D01*
X10854000Y-17145000D02*
X10854000Y-14945000D01*
X10854000Y-17145000D02*
X10854000Y-20745000D01*
X16324000Y-17145000D02*
X16324000Y-14945000D01*
%TO.C,U5*%
X8831000Y-17399000D02*
X8831000Y-19599000D01*
X3361000Y-17399000D02*
X3361000Y-15199000D01*
X3361000Y-17399000D02*
X3361000Y-20999000D01*
X8831000Y-17399000D02*
X8831000Y-15199000D01*
%TO.C,R15*%
X10740389Y19438628D02*
X11194517Y19438628D01*
X10740389Y17968628D02*
X11194517Y17968628D01*
%TO.C,R9*%
X45239000Y550936D02*
X45239000Y1005064D01*
X46709000Y550936D02*
X46709000Y1005064D01*
%TO.C,C8*%
X39870748Y14070000D02*
X40393252Y14070000D01*
X39870748Y12600000D02*
X40393252Y12600000D01*
D10*
%TO.C,U9*%
X33459000Y9086000D02*
X33459000Y8761000D01*
X40709000Y9086000D02*
X40484000Y9086000D01*
X40709000Y9086000D02*
X40709000Y8761000D01*
X40709000Y1836000D02*
X40709000Y2161000D01*
X40709000Y1836000D02*
X40384000Y1836000D01*
X33459000Y1836000D02*
X33784000Y1836000D01*
X33459000Y1836000D02*
X33459000Y2161000D01*
X33459000Y9086000D02*
X33784000Y9086000D01*
X40484000Y9086000D02*
X40484000Y10511000D01*
D12*
%TO.C,R1*%
X874500Y-19685724D02*
X874500Y-19176276D01*
X1919500Y-19685724D02*
X1919500Y-19176276D01*
%TO.C,R18*%
X29554436Y19598000D02*
X30008564Y19598000D01*
X29554436Y18128000D02*
X30008564Y18128000D01*
%TO.C,U8*%
X34612000Y-18034000D02*
X34612000Y-20234000D01*
X29142000Y-18034000D02*
X29142000Y-15834000D01*
X29142000Y-18034000D02*
X29142000Y-21634000D01*
X34612000Y-18034000D02*
X34612000Y-15834000D01*
D11*
%TO.C,U11*%
X50853Y12934000D02*
X50853Y22284000D01*
D12*
%TO.C,C18*%
X29698733Y21973000D02*
X29991267Y21973000D01*
X29698733Y20953000D02*
X29991267Y20953000D01*
%TO.C,SW1*%
X43065000Y16439000D02*
X44565000Y16439000D01*
X47065000Y17689000D02*
X47065000Y22189000D01*
X44565000Y23439000D02*
X43065000Y23439000D01*
X40565000Y22189000D02*
X40565000Y17689000D01*
%TO.C,R12*%
X4869917Y10397000D02*
X4415789Y10397000D01*
X4869917Y11867000D02*
X4415789Y11867000D01*
%TO.C,C7*%
X37230267Y-1272000D02*
X36937733Y-1272000D01*
X37230267Y-252000D02*
X36937733Y-252000D01*
D13*
%TO.C,U2*%
X35445700Y-8571741D02*
X35445700Y-20264159D01*
X43802300Y-20264159D02*
X43802300Y-8571741D01*
D11*
X43624000Y-6417950D02*
G75*
G03*
X43624000Y-6417950I-250000J0D01*
G01*
X43331107Y-9417950D02*
G75*
G03*
X43331107Y-9417950I-707107J0D01*
G01*
G36*
X39064499Y-7013850D02*
G01*
X38683499Y-7013850D01*
X38683499Y-6759850D01*
X39064499Y-6759850D01*
X39064499Y-7013850D01*
G37*
G36*
X42564500Y-22076050D02*
G01*
X42183500Y-22076050D01*
X42183500Y-21822050D01*
X42564500Y-21822050D01*
X42564500Y-22076050D01*
G37*
G36*
X37564499Y-22076050D02*
G01*
X37183499Y-22076050D01*
X37183499Y-21822050D01*
X37564499Y-21822050D01*
X37564499Y-22076050D01*
G37*
D12*
%TO.C,R2*%
X46467500Y-17653724D02*
X46467500Y-17144276D01*
X47512500Y-17653724D02*
X47512500Y-17144276D01*
%TO.C,C11*%
X9216853Y13437267D02*
X9216853Y13144733D01*
X8196853Y13437267D02*
X8196853Y13144733D01*
%TO.C,Y1*%
X33321000Y11335000D02*
X36021000Y11335000D01*
X36021000Y15335000D02*
X33321000Y15335000D01*
X33321000Y15335000D02*
G75*
G03*
X33321000Y11335000I0J-2000000D01*
G01*
X36021000Y11335000D02*
G75*
G03*
X36021000Y15335000I0J2000000D01*
G01*
%TO.C,C6*%
X33508733Y-252000D02*
X33801267Y-252000D01*
X33508733Y-1272000D02*
X33801267Y-1272000D01*
%TO.C,R14*%
X10740389Y17255009D02*
X11194517Y17255009D01*
X10740389Y15785009D02*
X11194517Y15785009D01*
%TO.C,J2*%
X46106000Y5984000D02*
X46106000Y3384000D01*
X48706000Y11124000D02*
X43506000Y11124000D01*
X43506000Y3384000D02*
X43506000Y11124000D01*
X48706000Y3384000D02*
X47376000Y3384000D01*
X48706000Y5984000D02*
X48706000Y11124000D01*
X48706000Y5984000D02*
X46106000Y5984000D01*
X48706000Y4714000D02*
X48706000Y3384000D01*
X46106000Y3384000D02*
X43506000Y3384000D01*
%TO.C,U7*%
X26738000Y-18034000D02*
X26738000Y-20234000D01*
X21268000Y-18034000D02*
X21268000Y-15834000D01*
X21268000Y-18034000D02*
X21268000Y-21634000D01*
X26738000Y-18034000D02*
X26738000Y-15834000D01*
%TO.C,R19*%
X29617936Y24611000D02*
X30072064Y24611000D01*
X29617936Y23141000D02*
X30072064Y23141000D01*
%TD*%
M02*
