M48
; DRILL file {KiCad 7.0.7} date Wed Nov 15 05:14:34 2023
; FORMAT={-:-/ absolute / inch / decimal}
; #@! TF.CreationDate,2023-11-15T05:14:34-06:00
; #@! TF.GenerationSoftware,Kicad,Pcbnew,7.0.7
; #@! TF.FileFunction,Plated,1,4,PTH
FMAT,2
INCH
; #@! TA.AperFunction,Plated,PTH,ViaDrill
T1C0.0120
; #@! TA.AperFunction,Plated,PTH,ViaDrill
T2C0.0150
; #@! TA.AperFunction,Plated,PTH,ComponentDrill
T3C0.0157
; #@! TA.AperFunction,Plated,PTH,ComponentDrill
T4C0.0236
; #@! TA.AperFunction,Plated,PTH,ViaDrill
T5C0.0280
; #@! TA.AperFunction,Plated,PTH,ComponentDrill
T6C0.0394
; #@! TA.AperFunction,Plated,PTH,ComponentDrill
T7C0.0433
%
G90
G05
T1
X0.055Y-0.685
X0.15Y-0.63
X0.15Y-0.75
X0.2013Y-0.7446
X0.2016Y-0.5184
X0.22Y0.38
X0.227Y-0.7472
X0.2528Y-0.7492
X0.2785Y-0.7524
X0.3Y-0.7309
X0.305Y-0.18
X0.305Y-0.335
X0.305Y-0.625
X0.32Y-0.9085
X0.325Y-0.43
X0.3428Y0.9392
X0.35Y-0.44
X0.3583Y-0.2591
X0.3597Y-0.5408
X0.36Y-0.615
X0.3659Y-0.8191
X0.3726Y-0.3324
X0.38Y0.4893
X0.4011Y-0.43
X0.405Y-0.335
X0.42Y0.09
X0.42Y0.06
X0.428Y-0.02
X0.44Y-0.27
X0.4439Y0.005
X0.445Y-0.61
X0.445Y-0.74
X0.455Y0.035
X0.4598Y-0.3322
X0.4609Y-0.25
X0.4808Y-0.2313
X0.495Y-0.735
X0.502Y-0.3344
X0.5194Y-0.9106
X0.5209Y-0.735
X0.53Y0.36
X0.5447Y-0.3298
X0.5467Y-0.735
X0.5726Y-0.735
X0.58Y0.455
X0.5834Y-0.61
X0.59Y-0.635
X0.5909Y-0.4291
X0.5915Y-0.342
X0.5976Y0.365
X0.616Y-0.6095
X0.62Y-0.7353
X0.635Y-0.335
X0.655Y-0.7353
X0.655Y-0.795
X0.6741Y-0.615
X0.675Y-0.237
X0.6801Y-0.33
X0.685Y-0.71
X0.695Y0.185
X0.696Y0.0095
X0.696Y-0.0182
X0.696Y-0.0491
X0.696Y0.04
X0.707Y-0.237
X0.7233Y-0.33
X0.7365Y-0.415
X0.745Y-0.74
X0.745Y-0.795
X0.765Y-0.2483
X0.765Y-0.325
X0.7881Y-0.3376
X0.795Y0.045
X0.81Y-0.2641
X0.8341Y-0.435
X0.8446Y-0.2852
X0.845Y-0.5
X0.86Y0.445
X0.865Y-0.54
X0.8711Y-0.9139
X0.88Y-0.77
X0.89Y-0.44
X0.895Y-0.54
X0.9085Y-0.7657
X0.93Y-0.78
X0.9448Y0.2208
X0.9834Y-0.775
X1.0141Y-0.775
X1.04Y-0.775
X1.065Y0.525
X1.075Y-0.53
X1.085Y-0.58
X1.085Y-0.61
X1.0897Y-0.8959
X1.09Y-0.31
X1.106Y0.166
X1.11Y-0.52
X1.11Y-0.7241
X1.115Y-0.3341
X1.14Y0.135
X1.14Y-0.3598
X1.14Y-0.585
X1.15Y-0.8991
X1.1591Y-0.125
X1.16Y-0.3837
X1.166Y0.106
X1.185Y-0.14
X1.188Y0.0839
X1.1928Y-0.7022
X1.205Y-0.12
X1.21Y-0.755
X1.2278Y-0.7078
X1.243Y-0.663
X1.245Y-0.03
X1.265Y-0.405
X1.27Y0.885
X1.275Y-0.69
X1.2946Y-0.6591
X1.295Y0.43
X1.305Y0.395
X1.3098Y-0.7241
X1.3191Y-0.77
X1.32Y0.455
X1.32Y-0.55
X1.3333Y-0.7033
X1.345Y-0.77
X1.355Y0.18
X1.355Y-0.745
X1.36Y-0.07
X1.375Y-0.61
X1.385Y0.135
X1.3959Y-0.7226
X1.4009Y-0.857
X1.4142Y-0.8792
X1.4225Y-0.7825
X1.43Y-0.725
X1.445Y0.16
X1.455Y0.31
X1.4551Y-0.7687
X1.48Y-0.61
X1.49Y0.665
X1.5009Y-0.775
X1.525Y0.31
X1.5262Y-0.7698
X1.535Y-0.03
X1.54Y0.455
X1.545Y-0.895
X1.555Y-0.775
X1.5687Y-0.355
X1.57Y0.4307
X1.585Y-0.775
X1.6059Y-0.755
X1.608Y-0.245
X1.62Y0.475
X1.62Y-0.445
X1.625Y0.395
X1.6277Y-0.365
X1.6301Y-0.77
X1.6554Y-0.7649
X1.6763Y-0.65
X1.6825Y-0.7825
X1.73Y-0.48
X1.735Y-0.415
X1.85Y-0.605
X1.865Y-0.01
T2
X0.695Y0.59
X0.8954Y0.79
X0.955Y0.665
T3
X0.2036Y0.8104
X0.2036Y0.7769
X0.2036Y0.7435
X0.2036Y0.71
X0.2036Y0.6765
X0.2036Y0.6431
X0.2036Y0.6096
X0.2036Y0.5761
X0.2567Y0.8104
X0.2567Y0.7769
X0.2567Y0.7435
X0.2567Y0.71
X0.2567Y0.6765
X0.2567Y0.6431
X0.2567Y0.6096
X0.2567Y0.5761
T4
X0.0882Y-0.9579
X0.1472Y-0.9579
X0.2063Y-0.9579
X0.2654Y-0.9579
X0.3244Y-0.9579
X0.3835Y-0.9579
X0.4425Y-0.9579
X0.5016Y-0.9579
X0.5606Y-0.9579
X0.6197Y-0.9579
X0.6787Y-0.9579
X0.7378Y-0.9579
X0.7969Y-0.9579
X0.8559Y-0.9579
X0.915Y-0.9579
X0.974Y-0.9579
X1.0331Y-0.9579
X1.0921Y-0.9579
X1.1512Y-0.9579
X1.2102Y-0.9579
X1.2693Y-0.9579
X1.3158Y0.525
X1.3283Y-0.9579
X1.3874Y-0.9579
X1.4142Y0.525
X1.4465Y-0.9579
X1.5055Y-0.9579
X1.5646Y-0.9579
X1.6236Y-0.9579
X1.6827Y-0.9579
X1.7417Y-0.9579
X1.8008Y-0.9579
X1.8598Y-0.9579
X1.9189Y-0.9579
T5
X0.2821Y0.9433
T6
X1.7652Y0.3856
X1.7652Y0.2856
X1.7652Y0.1856
X1.8652Y0.3856
X1.8652Y0.2856
X1.8652Y0.1856
T7
X1.6364Y0.913
X1.6364Y0.657
X1.8136Y0.913
X1.8136Y0.657
T4
G00X0.0863Y0.8635
M15
G01X0.0548Y0.8635
M16
G05
G00X0.0863Y0.523
M15
G01X0.0548Y0.523
M16
G05
G00X0.2477Y0.8635
M15
G01X0.1886Y0.8635
M16
G05
G00X0.2477Y0.523
M15
G01X0.1886Y0.523
M16
G05
T0
M30
