%TF.GenerationSoftware,KiCad,Pcbnew,7.0.7*%
%TF.CreationDate,2023-11-15T05:14:33-06:00*%
%TF.ProjectId,GBA_Cartridge,4742415f-4361-4727-9472-696467652e6b,rev?*%
%TF.SameCoordinates,Original*%
%TF.FileFunction,Legend,Bot*%
%TF.FilePolarity,Positive*%
%FSLAX46Y46*%
G04 Gerber Fmt 4.6, Leading zero omitted, Abs format (unit mm)*
G04 Created by KiCad (PCBNEW 7.0.7) date 2023-11-15 05:14:33*
%MOMM*%
%LPD*%
G01*
G04 APERTURE LIST*
%ADD10C,0.150000*%
%ADD11C,0.120000*%
G04 APERTURE END LIST*
D10*
X15240000Y-19177000D02*
G75*
G03*
X15240000Y-19177000I-254000J0D01*
G01*
X26670000Y-9652000D02*
G75*
G03*
X26670000Y-9652000I-254000J0D01*
G01*
X9144000Y-4953000D02*
G75*
G03*
X9144000Y-4953000I-254000J0D01*
G01*
X42739751Y10434267D02*
X42390969Y15422088D01*
X42390969Y15422088D02*
X39889568Y10234963D01*
X39889568Y10234963D02*
X39540786Y15222783D01*
X37514416Y10068876D02*
X37165634Y15056697D01*
X35139264Y9902790D02*
X34790481Y14890610D01*
X34790481Y14890610D02*
X33377005Y11211620D01*
X33377005Y11211620D02*
X31465268Y14658088D01*
X31465268Y14658088D02*
X31814050Y9670268D01*
X29802661Y14541827D02*
X26952478Y14342523D01*
X28726352Y9454355D02*
X28377569Y14442175D01*
X25455958Y11851110D02*
X23793351Y11734849D01*
X23263501Y9072355D02*
X25638653Y9238442D01*
X25638653Y9238442D02*
X25289871Y14226262D01*
X25289871Y14226262D02*
X22914718Y14060176D01*
X21125863Y8922877D02*
X20777081Y13910697D01*
X20777081Y13910697D02*
X19363604Y10231708D01*
X19363604Y10231708D02*
X17451867Y13678176D01*
X17451867Y13678176D02*
X17800650Y8690356D01*
X13580195Y11020676D02*
X12884258Y10733334D01*
X12884258Y10733334D02*
X12663351Y10479210D01*
X12663351Y10479210D02*
X12459053Y9987571D01*
X12459053Y9987571D02*
X12508879Y9275025D01*
X12508879Y9275025D02*
X12779612Y8816604D01*
X12779612Y8816604D02*
X13033736Y8595697D01*
X13033736Y8595697D02*
X13525375Y8391399D01*
X13525375Y8391399D02*
X15425497Y8524269D01*
X15425497Y8524269D02*
X15076714Y13512089D01*
X15076714Y13512089D02*
X13414108Y13395828D01*
X13414108Y13395828D02*
X12955686Y13125096D01*
X12955686Y13125096D02*
X12734779Y12870972D01*
X12734779Y12870972D02*
X12530481Y12379332D01*
X12530481Y12379332D02*
X12563699Y11904302D01*
X12563699Y11904302D02*
X12834431Y11445880D01*
X12834431Y11445880D02*
X13088555Y11224974D01*
X13088555Y11224974D02*
X13580195Y11020676D01*
X13580195Y11020676D02*
X15242801Y11136936D01*
X9138833Y13096872D02*
X8188772Y13030437D01*
X8188772Y13030437D02*
X7730350Y12759704D01*
X7730350Y12759704D02*
X7288537Y12251457D01*
X7288537Y12251457D02*
X7117457Y11284787D01*
X7117457Y11284787D02*
X7233718Y9622180D01*
X7233718Y9622180D02*
X7537668Y8688728D01*
X7537668Y8688728D02*
X8045915Y8246915D01*
X8045915Y8246915D02*
X8537555Y8042617D01*
X8537555Y8042617D02*
X9487616Y8109052D01*
X9487616Y8109052D02*
X9946037Y8379784D01*
X9946037Y8379784D02*
X10387851Y8888032D01*
X10387851Y8888032D02*
X10558931Y9854702D01*
X10558931Y9854702D02*
X10442670Y11517309D01*
X10442670Y11517309D02*
X10138720Y12450761D01*
X10138720Y12450761D02*
X9630472Y12892574D01*
X9630472Y12892574D02*
X9138833Y13096872D01*
X38012666Y6084419D02*
X38060285Y6036800D01*
X38060285Y6036800D02*
X38203142Y5989180D01*
X38203142Y5989180D02*
X38298380Y5989180D01*
X38298380Y5989180D02*
X38441237Y6036800D01*
X38441237Y6036800D02*
X38536475Y6132038D01*
X38536475Y6132038D02*
X38584094Y6227276D01*
X38584094Y6227276D02*
X38631713Y6417752D01*
X38631713Y6417752D02*
X38631713Y6560609D01*
X38631713Y6560609D02*
X38584094Y6751085D01*
X38584094Y6751085D02*
X38536475Y6846323D01*
X38536475Y6846323D02*
X38441237Y6941561D01*
X38441237Y6941561D02*
X38298380Y6989180D01*
X38298380Y6989180D02*
X38203142Y6989180D01*
X38203142Y6989180D02*
X38060285Y6941561D01*
X38060285Y6941561D02*
X38012666Y6893942D01*
X37107904Y6989180D02*
X37584094Y6989180D01*
X37584094Y6989180D02*
X37631713Y6512990D01*
X37631713Y6512990D02*
X37584094Y6560609D01*
X37584094Y6560609D02*
X37488856Y6608228D01*
X37488856Y6608228D02*
X37250761Y6608228D01*
X37250761Y6608228D02*
X37155523Y6560609D01*
X37155523Y6560609D02*
X37107904Y6512990D01*
X37107904Y6512990D02*
X37060285Y6417752D01*
X37060285Y6417752D02*
X37060285Y6179657D01*
X37060285Y6179657D02*
X37107904Y6084419D01*
X37107904Y6084419D02*
X37155523Y6036800D01*
X37155523Y6036800D02*
X37250761Y5989180D01*
X37250761Y5989180D02*
X37488856Y5989180D01*
X37488856Y5989180D02*
X37584094Y6036800D01*
X37584094Y6036800D02*
X37631713Y6084419D01*
X29209904Y-10503819D02*
X29209904Y-11313342D01*
X29209904Y-11313342D02*
X29162285Y-11408580D01*
X29162285Y-11408580D02*
X29114666Y-11456200D01*
X29114666Y-11456200D02*
X29019428Y-11503819D01*
X29019428Y-11503819D02*
X28828952Y-11503819D01*
X28828952Y-11503819D02*
X28733714Y-11456200D01*
X28733714Y-11456200D02*
X28686095Y-11408580D01*
X28686095Y-11408580D02*
X28638476Y-11313342D01*
X28638476Y-11313342D02*
X28638476Y-10503819D01*
X27733714Y-10837152D02*
X27733714Y-11503819D01*
X27971809Y-10456200D02*
X28209904Y-11170485D01*
X28209904Y-11170485D02*
X27590857Y-11170485D01*
X20073857Y3862180D02*
X20407190Y4338371D01*
X20645285Y3862180D02*
X20645285Y4862180D01*
X20645285Y4862180D02*
X20264333Y4862180D01*
X20264333Y4862180D02*
X20169095Y4814561D01*
X20169095Y4814561D02*
X20121476Y4766942D01*
X20121476Y4766942D02*
X20073857Y4671704D01*
X20073857Y4671704D02*
X20073857Y4528847D01*
X20073857Y4528847D02*
X20121476Y4433609D01*
X20121476Y4433609D02*
X20169095Y4385990D01*
X20169095Y4385990D02*
X20264333Y4338371D01*
X20264333Y4338371D02*
X20645285Y4338371D01*
X19121476Y3862180D02*
X19692904Y3862180D01*
X19407190Y3862180D02*
X19407190Y4862180D01*
X19407190Y4862180D02*
X19502428Y4719323D01*
X19502428Y4719323D02*
X19597666Y4624085D01*
X19597666Y4624085D02*
X19692904Y4576466D01*
X18502428Y4862180D02*
X18407190Y4862180D01*
X18407190Y4862180D02*
X18311952Y4814561D01*
X18311952Y4814561D02*
X18264333Y4766942D01*
X18264333Y4766942D02*
X18216714Y4671704D01*
X18216714Y4671704D02*
X18169095Y4481228D01*
X18169095Y4481228D02*
X18169095Y4243133D01*
X18169095Y4243133D02*
X18216714Y4052657D01*
X18216714Y4052657D02*
X18264333Y3957419D01*
X18264333Y3957419D02*
X18311952Y3909800D01*
X18311952Y3909800D02*
X18407190Y3862180D01*
X18407190Y3862180D02*
X18502428Y3862180D01*
X18502428Y3862180D02*
X18597666Y3909800D01*
X18597666Y3909800D02*
X18645285Y3957419D01*
X18645285Y3957419D02*
X18692904Y4052657D01*
X18692904Y4052657D02*
X18740523Y4243133D01*
X18740523Y4243133D02*
X18740523Y4481228D01*
X18740523Y4481228D02*
X18692904Y4671704D01*
X18692904Y4671704D02*
X18645285Y4766942D01*
X18645285Y4766942D02*
X18597666Y4814561D01*
X18597666Y4814561D02*
X18502428Y4862180D01*
X18287904Y-18885819D02*
X18287904Y-19695342D01*
X18287904Y-19695342D02*
X18240285Y-19790580D01*
X18240285Y-19790580D02*
X18192666Y-19838200D01*
X18192666Y-19838200D02*
X18097428Y-19885819D01*
X18097428Y-19885819D02*
X17906952Y-19885819D01*
X17906952Y-19885819D02*
X17811714Y-19838200D01*
X17811714Y-19838200D02*
X17764095Y-19790580D01*
X17764095Y-19790580D02*
X17716476Y-19695342D01*
X17716476Y-19695342D02*
X17716476Y-18885819D01*
X17335523Y-18885819D02*
X16716476Y-18885819D01*
X16716476Y-18885819D02*
X17049809Y-19266771D01*
X17049809Y-19266771D02*
X16906952Y-19266771D01*
X16906952Y-19266771D02*
X16811714Y-19314390D01*
X16811714Y-19314390D02*
X16764095Y-19362009D01*
X16764095Y-19362009D02*
X16716476Y-19457247D01*
X16716476Y-19457247D02*
X16716476Y-19695342D01*
X16716476Y-19695342D02*
X16764095Y-19790580D01*
X16764095Y-19790580D02*
X16811714Y-19838200D01*
X16811714Y-19838200D02*
X16906952Y-19885819D01*
X16906952Y-19885819D02*
X17192666Y-19885819D01*
X17192666Y-19885819D02*
X17287904Y-19838200D01*
X17287904Y-19838200D02*
X17335523Y-19790580D01*
X46267666Y-12646819D02*
X46600999Y-12170628D01*
X46839094Y-12646819D02*
X46839094Y-11646819D01*
X46839094Y-11646819D02*
X46458142Y-11646819D01*
X46458142Y-11646819D02*
X46362904Y-11694438D01*
X46362904Y-11694438D02*
X46315285Y-11742057D01*
X46315285Y-11742057D02*
X46267666Y-11837295D01*
X46267666Y-11837295D02*
X46267666Y-11980152D01*
X46267666Y-11980152D02*
X46315285Y-12075390D01*
X46315285Y-12075390D02*
X46362904Y-12123009D01*
X46362904Y-12123009D02*
X46458142Y-12170628D01*
X46458142Y-12170628D02*
X46839094Y-12170628D01*
X45934332Y-11646819D02*
X45267666Y-11646819D01*
X45267666Y-11646819D02*
X45696237Y-12646819D01*
X4960857Y1037419D02*
X5008476Y989800D01*
X5008476Y989800D02*
X5151333Y942180D01*
X5151333Y942180D02*
X5246571Y942180D01*
X5246571Y942180D02*
X5389428Y989800D01*
X5389428Y989800D02*
X5484666Y1085038D01*
X5484666Y1085038D02*
X5532285Y1180276D01*
X5532285Y1180276D02*
X5579904Y1370752D01*
X5579904Y1370752D02*
X5579904Y1513609D01*
X5579904Y1513609D02*
X5532285Y1704085D01*
X5532285Y1704085D02*
X5484666Y1799323D01*
X5484666Y1799323D02*
X5389428Y1894561D01*
X5389428Y1894561D02*
X5246571Y1942180D01*
X5246571Y1942180D02*
X5151333Y1942180D01*
X5151333Y1942180D02*
X5008476Y1894561D01*
X5008476Y1894561D02*
X4960857Y1846942D01*
X4008476Y942180D02*
X4579904Y942180D01*
X4294190Y942180D02*
X4294190Y1942180D01*
X4294190Y1942180D02*
X4389428Y1799323D01*
X4389428Y1799323D02*
X4484666Y1704085D01*
X4484666Y1704085D02*
X4579904Y1656466D01*
X3389428Y1942180D02*
X3294190Y1942180D01*
X3294190Y1942180D02*
X3198952Y1894561D01*
X3198952Y1894561D02*
X3151333Y1846942D01*
X3151333Y1846942D02*
X3103714Y1751704D01*
X3103714Y1751704D02*
X3056095Y1561228D01*
X3056095Y1561228D02*
X3056095Y1323133D01*
X3056095Y1323133D02*
X3103714Y1132657D01*
X3103714Y1132657D02*
X3151333Y1037419D01*
X3151333Y1037419D02*
X3198952Y989800D01*
X3198952Y989800D02*
X3294190Y942180D01*
X3294190Y942180D02*
X3389428Y942180D01*
X3389428Y942180D02*
X3484666Y989800D01*
X3484666Y989800D02*
X3532285Y1037419D01*
X3532285Y1037419D02*
X3579904Y1132657D01*
X3579904Y1132657D02*
X3627523Y1323133D01*
X3627523Y1323133D02*
X3627523Y1561228D01*
X3627523Y1561228D02*
X3579904Y1751704D01*
X3579904Y1751704D02*
X3532285Y1846942D01*
X3532285Y1846942D02*
X3484666Y1894561D01*
X3484666Y1894561D02*
X3389428Y1942180D01*
X13938094Y-5196819D02*
X13938094Y-6006342D01*
X13938094Y-6006342D02*
X13890475Y-6101580D01*
X13890475Y-6101580D02*
X13842856Y-6149200D01*
X13842856Y-6149200D02*
X13747618Y-6196819D01*
X13747618Y-6196819D02*
X13557142Y-6196819D01*
X13557142Y-6196819D02*
X13461904Y-6149200D01*
X13461904Y-6149200D02*
X13414285Y-6101580D01*
X13414285Y-6101580D02*
X13366666Y-6006342D01*
X13366666Y-6006342D02*
X13366666Y-5196819D01*
X12366666Y-6196819D02*
X12938094Y-6196819D01*
X12652380Y-6196819D02*
X12652380Y-5196819D01*
X12652380Y-5196819D02*
X12747618Y-5339676D01*
X12747618Y-5339676D02*
X12842856Y-5434914D01*
X12842856Y-5434914D02*
X12938094Y-5482533D01*
X11747618Y-5196819D02*
X11652380Y-5196819D01*
X11652380Y-5196819D02*
X11557142Y-5244438D01*
X11557142Y-5244438D02*
X11509523Y-5292057D01*
X11509523Y-5292057D02*
X11461904Y-5387295D01*
X11461904Y-5387295D02*
X11414285Y-5577771D01*
X11414285Y-5577771D02*
X11414285Y-5815866D01*
X11414285Y-5815866D02*
X11461904Y-6006342D01*
X11461904Y-6006342D02*
X11509523Y-6101580D01*
X11509523Y-6101580D02*
X11557142Y-6149200D01*
X11557142Y-6149200D02*
X11652380Y-6196819D01*
X11652380Y-6196819D02*
X11747618Y-6196819D01*
X11747618Y-6196819D02*
X11842856Y-6149200D01*
X11842856Y-6149200D02*
X11890475Y-6101580D01*
X11890475Y-6101580D02*
X11938094Y-6006342D01*
X11938094Y-6006342D02*
X11985713Y-5815866D01*
X11985713Y-5815866D02*
X11985713Y-5577771D01*
X11985713Y-5577771D02*
X11938094Y-5387295D01*
X11938094Y-5387295D02*
X11890475Y-5292057D01*
X11890475Y-5292057D02*
X11842856Y-5244438D01*
X11842856Y-5244438D02*
X11747618Y-5196819D01*
X46267666Y-10995819D02*
X46600999Y-10519628D01*
X46839094Y-10995819D02*
X46839094Y-9995819D01*
X46839094Y-9995819D02*
X46458142Y-9995819D01*
X46458142Y-9995819D02*
X46362904Y-10043438D01*
X46362904Y-10043438D02*
X46315285Y-10091057D01*
X46315285Y-10091057D02*
X46267666Y-10186295D01*
X46267666Y-10186295D02*
X46267666Y-10329152D01*
X46267666Y-10329152D02*
X46315285Y-10424390D01*
X46315285Y-10424390D02*
X46362904Y-10472009D01*
X46362904Y-10472009D02*
X46458142Y-10519628D01*
X46458142Y-10519628D02*
X46839094Y-10519628D01*
X45696237Y-10424390D02*
X45791475Y-10376771D01*
X45791475Y-10376771D02*
X45839094Y-10329152D01*
X45839094Y-10329152D02*
X45886713Y-10233914D01*
X45886713Y-10233914D02*
X45886713Y-10186295D01*
X45886713Y-10186295D02*
X45839094Y-10091057D01*
X45839094Y-10091057D02*
X45791475Y-10043438D01*
X45791475Y-10043438D02*
X45696237Y-9995819D01*
X45696237Y-9995819D02*
X45505761Y-9995819D01*
X45505761Y-9995819D02*
X45410523Y-10043438D01*
X45410523Y-10043438D02*
X45362904Y-10091057D01*
X45362904Y-10091057D02*
X45315285Y-10186295D01*
X45315285Y-10186295D02*
X45315285Y-10233914D01*
X45315285Y-10233914D02*
X45362904Y-10329152D01*
X45362904Y-10329152D02*
X45410523Y-10376771D01*
X45410523Y-10376771D02*
X45505761Y-10424390D01*
X45505761Y-10424390D02*
X45696237Y-10424390D01*
X45696237Y-10424390D02*
X45791475Y-10472009D01*
X45791475Y-10472009D02*
X45839094Y-10519628D01*
X45839094Y-10519628D02*
X45886713Y-10614866D01*
X45886713Y-10614866D02*
X45886713Y-10805342D01*
X45886713Y-10805342D02*
X45839094Y-10900580D01*
X45839094Y-10900580D02*
X45791475Y-10948200D01*
X45791475Y-10948200D02*
X45696237Y-10995819D01*
X45696237Y-10995819D02*
X45505761Y-10995819D01*
X45505761Y-10995819D02*
X45410523Y-10948200D01*
X45410523Y-10948200D02*
X45362904Y-10900580D01*
X45362904Y-10900580D02*
X45315285Y-10805342D01*
X45315285Y-10805342D02*
X45315285Y-10614866D01*
X45315285Y-10614866D02*
X45362904Y-10519628D01*
X45362904Y-10519628D02*
X45410523Y-10472009D01*
X45410523Y-10472009D02*
X45505761Y-10424390D01*
D11*
%TO.C,C5*%
X37699733Y7364000D02*
X37992267Y7364000D01*
X37699733Y8384000D02*
X37992267Y8384000D01*
%TO.C,U4*%
X23114000Y-10471000D02*
X20914000Y-10471000D01*
X23114000Y-15691000D02*
X20914000Y-15691000D01*
X23114000Y-15691000D02*
X25314000Y-15691000D01*
X23114000Y-10471000D02*
X26714000Y-10471000D01*
%TO.C,R10*%
X19658064Y3402000D02*
X19203936Y3402000D01*
X19658064Y1932000D02*
X19203936Y1932000D01*
%TO.C,U3*%
X16826000Y-16239000D02*
X18226000Y-16239000D01*
X18226000Y-18559000D02*
X16326000Y-18559000D01*
%TO.C,R7*%
X41782276Y-12714500D02*
X42291724Y-12714500D01*
X41782276Y-11669500D02*
X42291724Y-11669500D01*
%TO.C,C10*%
X7368000Y1250733D02*
X7368000Y1543267D01*
X6348000Y1250733D02*
X6348000Y1543267D01*
D10*
%TO.C,U10*%
X9825000Y5833000D02*
X9825000Y5183000D01*
X15575000Y-4817000D02*
X15575000Y-4167000D01*
X9825000Y-4817000D02*
X15575000Y-4817000D01*
X9825000Y-4242000D02*
X8225000Y-4242000D01*
X15575000Y5833000D02*
X15575000Y5183000D01*
X9825000Y5833000D02*
X15575000Y5833000D01*
X9825000Y-4817000D02*
X9825000Y-4242000D01*
D11*
%TO.C,R8*%
X41782276Y-11063500D02*
X42291724Y-11063500D01*
X41782276Y-10018500D02*
X42291724Y-10018500D01*
%TD*%
M02*
